<svg width="312" height="140" viewBox="0 0 312 140" fill="none" xmlns="http://www.w3.org/2000/svg">
<path d="M80.0497 91.3692C77.8011 89.1046 76.6704 86.0524 76.6704 82.1961C76.6704 78.3398 77.8519 75.2876 80.2276 73.0231C82.5906 70.7585 85.8302 69.6263 89.9337 69.6263C92.0807 69.6263 93.9991 69.9873 95.7014 70.7093C97.3911 71.4313 98.7505 72.3995 99.7922 73.6467V69.7904C99.7922 67.0171 99.1062 64.8839 97.7341 63.4234C96.3621 61.9629 94.3421 61.2245 91.6742 61.2245C88.1297 61.2245 85.0679 62.2747 82.4763 64.3916C81.714 64.9659 81.0661 65.2449 80.5071 65.2449C79.9862 65.2449 79.4654 64.9659 78.9572 64.3916C78.5125 63.8336 78.2966 63.1608 78.2966 62.3896C78.2966 61.5198 78.6396 60.7158 79.3129 59.9937C80.7485 58.5989 82.5525 57.4995 84.7503 56.679C86.9355 55.8585 89.2222 55.4482 91.6106 55.4482C95.9555 55.4482 99.3349 56.7282 101.761 59.2717C104.188 61.8152 105.408 65.3761 105.408 69.9545V91.32C105.408 92.4522 105.179 93.3055 104.721 93.9127C104.264 94.5035 103.591 94.7988 102.727 94.7988C101.85 94.7988 101.177 94.5035 100.694 93.9127C100.211 93.3219 99.9828 92.5179 99.9828 91.4841V89.318C97.5944 92.9773 94.0118 94.7988 89.2349 94.7988C85.3474 94.7496 82.2984 93.6337 80.0497 91.3692ZM97.1878 87.2339C98.9537 85.8719 99.843 84.0833 99.843 81.8679C99.843 79.7019 98.9918 78.0281 97.3022 76.8137C95.6125 75.5994 93.2749 75.0087 90.2894 75.0087C87.6977 75.0087 85.7159 75.6322 84.3184 76.863C82.9209 78.0937 82.2222 79.866 82.2222 82.1797C82.2222 84.4443 82.9082 86.1837 84.2803 87.4308C85.6523 88.678 87.6088 89.2851 90.1624 89.2851C93.0716 89.2851 95.4092 88.5959 97.1878 87.2339Z" fill="white"/>
<path d="M118.772 92.4026C116.384 90.8273 114.529 88.5792 113.221 85.6583C111.912 82.7374 111.251 79.2586 111.251 75.2546C111.251 71.3984 111.874 67.9688 113.132 64.9658C114.389 61.9629 116.232 59.6163 118.658 57.9425C121.085 56.2688 123.968 55.4319 127.31 55.4319C130.016 55.4319 132.315 56.0554 134.208 57.319C136.101 58.5825 137.816 60.3712 139.379 62.6849L139.442 39.0879C139.442 37.9557 139.696 37.0696 140.192 36.4296C140.687 35.7896 141.373 35.4614 142.25 35.4614C143.088 35.4614 143.749 35.7896 144.219 36.4296C144.702 37.0696 144.931 37.9557 144.931 39.0879V91.1391C144.931 92.2714 144.689 93.1575 144.219 93.7975C143.736 94.4374 143.088 94.7656 142.25 94.7656C141.373 94.7656 140.687 94.4374 140.192 93.7975C139.696 93.1575 139.442 92.2714 139.442 91.1391V87.3649C136.66 92.3042 132.582 94.7656 127.208 94.7656C123.968 94.7492 121.161 93.978 118.772 92.4026ZM136.33 85.1496C138.401 82.7046 139.43 79.357 139.43 75.0905C139.43 70.8733 138.337 67.5257 136.152 65.0643C133.967 62.6029 131.197 61.3557 127.856 61.3557C124.388 61.3557 121.682 62.6193 119.738 65.1299C117.781 67.657 116.816 71.021 116.816 75.2382C116.816 79.6688 117.781 83.0328 119.713 85.3465C121.644 87.6603 124.337 88.8254 127.805 88.8254C131.413 88.8254 134.259 87.5946 136.33 85.1496Z" fill="white"/>
<path d="M194.985 89.5477C192.102 86.0689 190.653 81.2609 190.653 75.091C190.653 68.9702 192.076 64.1623 194.922 60.667C197.768 57.1718 201.719 55.416 206.775 55.416C209.875 55.416 212.632 56.0396 215.046 57.3031C217.459 58.5666 219.34 60.3389 220.686 62.6198C222.046 64.9007 222.719 67.5098 222.719 70.4471C222.719 72.7116 222.211 74.451 221.194 75.6981C220.178 76.9288 218.743 77.5524 216.862 77.5524H196.154C196.154 81.1461 197.094 83.9357 198.987 85.9212C200.88 87.9068 203.574 88.8913 207.08 88.8913C209.151 88.8913 210.955 88.6124 212.479 88.038C214.017 87.4801 215.452 86.5448 216.811 85.2648C217.802 84.3951 218.565 83.9521 219.086 83.9521C219.568 83.9521 220 84.2146 220.394 84.7233C220.953 85.4453 221.233 86.1838 221.233 86.955C221.233 87.7263 220.953 88.4483 220.394 89.1211C217.129 92.8788 212.695 94.7495 207.08 94.7495C201.909 94.7495 197.869 93.0265 194.985 89.5477ZM215.198 72.1537C215.909 72.1537 216.43 71.9732 216.748 71.6122C217.066 71.2511 217.231 70.6112 217.231 69.6758C217.231 67.2144 216.265 65.1961 214.334 63.6207C212.403 62.0454 209.888 61.2742 206.775 61.2742C203.548 61.2742 200.995 62.2588 199.102 64.2115C197.209 66.1642 196.269 68.8061 196.269 72.1537H215.198Z" fill="white"/>
<path d="M249.538 87.5128C249.538 88.1364 249.322 88.8748 248.877 89.7445C248.039 91.2871 246.87 92.5014 245.358 93.4039C243.846 94.3064 242.233 94.7495 240.518 94.7495C237.685 94.7495 235.474 93.7157 233.861 91.6317C232.247 89.5476 231.447 86.6923 231.447 83.033V61.9793H228.461C227.547 61.9793 226.835 61.7167 226.34 61.208C225.844 60.6993 225.59 59.9773 225.59 59.0419C225.59 58.1722 225.844 57.4666 226.34 56.9579C226.835 56.4492 227.547 56.1867 228.461 56.1867H231.447V43.5348C231.447 42.4025 231.701 41.5164 232.197 40.8764C232.692 40.2364 233.378 39.9082 234.255 39.9082C235.131 39.9082 235.792 40.22 236.249 40.8271C236.707 41.4507 236.935 42.3368 236.935 43.5348V56.1867H244.278C245.193 56.1867 245.904 56.4328 246.4 56.9251C246.895 57.4174 247.149 58.123 247.149 59.0419C247.149 59.9609 246.895 60.6829 246.4 61.208C245.904 61.7167 245.193 61.9793 244.278 61.9793H236.935V83.6565C236.935 85.2975 237.278 86.5775 237.952 87.48C238.625 88.3825 239.59 88.8256 240.823 88.8256C241.699 88.8256 242.474 88.6287 243.148 88.2513C243.821 87.8574 244.494 87.2174 245.18 86.2821C245.93 85.3139 246.629 84.8216 247.264 84.8216C247.823 84.8216 248.318 85.0842 248.763 85.5929C249.271 86.1508 249.538 86.7908 249.538 87.5128Z" fill="white"/>
<path d="M257.148 93.7975C256.69 93.1575 256.462 92.2714 256.462 91.1391V39.0715C256.462 37.89 256.69 36.9875 257.148 36.3804C257.605 35.7568 258.278 35.4614 259.155 35.4614C260.032 35.4614 260.718 35.7896 261.213 36.4296C261.709 37.0696 261.963 37.9557 261.963 39.0879V91.1391C261.963 92.2714 261.709 93.1575 261.213 93.7975C260.718 94.4374 260.032 94.7656 259.155 94.7656C258.278 94.7492 257.605 94.4374 257.148 93.7975Z" fill="white"/>
<path d="M10.7478 13.8826C3.81129 22.8259 0 34.723 0 47.3749C0 60.0267 3.81129 71.9238 10.7478 80.8835C17.659 89.8104 27.0474 94.7497 36.8297 94.7661C45.3162 94.7661 53.5359 90.9426 60.0659 83.9849C66.5197 77.1257 70.9916 67.5588 72.6812 57.0566C72.8083 56.3017 72.8591 55.5305 72.8591 54.7756C72.8591 52.2485 72.1858 49.7707 70.9281 47.7687C69.2892 45.1595 66.8627 43.6827 64.2583 43.6663H51.8589C50.5631 35.445 44.9224 29.2257 38.1637 29.2257H30.7825C29.1945 29.2257 27.9113 30.8831 27.9113 32.9343V36.085H20.6064C19.0183 36.085 17.7352 37.7423 17.7352 39.7936C17.7352 41.8448 19.0183 43.5022 20.6064 43.5022H27.9113V50.9029H20.6064C19.0183 50.9029 17.7352 52.5603 17.7352 54.6115C17.7352 56.6627 19.0183 58.3201 20.6064 58.3201H27.9113V61.6513C27.9113 63.7025 29.1945 65.3599 30.7825 65.3599H38.1637C44.8588 65.3599 50.4741 59.2391 51.8208 51.1163H64.2456C65.4271 51.1163 66.1385 51.9696 66.4688 52.4783C67.0151 53.348 67.2311 54.4803 67.0532 55.5797C64.0931 73.9914 51.3761 87.3489 36.8043 87.3817C36.8043 87.3817 36.8424 87.3817 36.8043 87.3817C19.7425 87.3817 5.71693 69.4459 5.71693 47.4077C5.71693 25.3694 19.6154 7.40078 36.6773 7.40078C49.191 7.40078 60.4089 16.9676 65.2746 31.802C65.8972 33.6891 67.5741 34.5589 69.0351 33.7712C70.4961 32.9671 71.1694 30.801 70.5596 28.9139C67.7901 20.4629 63.1784 13.2591 57.2201 8.08999C51.1348 2.78965 44.0331 0 36.6773 0C26.8823 0 17.6717 4.92291 10.7478 13.8826ZM38.1891 57.9263H33.6664V36.6429H38.1764C42.7245 36.6429 46.4215 41.4181 46.4215 47.2928C46.4215 53.1675 42.7245 57.9263 38.1891 57.9263Z" fill="white"/>
<path d="M300.355 58.7302C300.355 56.9251 299.212 55.4482 297.814 55.4482H293.596C292.199 55.4482 291.055 56.9251 291.055 58.7302V64.2932C291.055 66.0982 292.199 67.5751 293.596 67.5751H294.638V74.8119C294.638 79.2753 293.787 82.7378 292.097 85.1829C290.407 87.628 288.006 88.8423 284.907 88.8423C281.769 88.8423 279.317 87.5951 277.563 85.068C275.81 82.5409 274.934 79.0292 274.934 74.5001V67.5751H276.09C277.487 67.5751 278.631 66.0982 278.631 64.2932V58.7302C278.631 56.9251 277.487 55.4482 276.09 55.4482H271.872C270.64 55.4482 269.611 56.5805 269.382 58.0902C269.369 58.1395 269.382 58.1887 269.369 58.2379C269.344 58.402 269.331 58.5661 269.331 58.7466V58.763V64.3096V74.5165C269.331 80.7851 270.703 85.6752 273.447 89.2033C276.191 92.7314 280.015 94.4873 284.907 94.4873C286.888 94.4873 288.781 93.9786 290.573 92.9776C292.364 91.9602 293.812 90.5981 294.93 88.8423V93.3878C294.93 97.7528 293.99 101.182 292.123 103.677C290.255 106.171 287.638 107.418 284.297 107.418C282.467 107.418 280.778 107.057 279.228 106.335C277.678 105.613 276.484 104.612 275.645 103.332C274.934 102.298 274.159 101.79 273.32 101.79C272.85 101.79 272.38 102.003 271.948 102.413C271.224 103.135 270.868 103.989 270.868 104.957C270.868 105.613 271.046 106.253 271.402 106.877C272.507 108.895 274.235 110.454 276.56 111.586C278.885 112.719 281.514 113.277 284.475 113.293C287.651 113.293 290.446 112.44 292.859 110.749C295.261 109.059 297.115 106.663 298.411 103.546C299.707 100.444 300.355 96.8339 300.355 92.715V64.326V58.7302Z" fill="white"/>
<path d="M307.723 52.7903C307.723 52.7411 307.723 52.7083 307.723 52.6591V52.5278C307.723 52.5114 307.723 52.4786 307.723 52.4621C307.584 48.885 305.322 46.0791 302.553 46.0791H302.222H301.778C301.232 46.0791 300.787 46.6534 300.787 47.359C300.787 48.0646 301.232 48.6389 301.778 48.6389H302.553C304.319 48.6389 305.742 50.4931 305.742 52.7575L305.754 53.4631C305.754 54.1687 306.199 54.7266 306.745 54.7266C307.012 54.7266 307.253 54.5953 307.444 54.3492C307.634 54.103 307.736 53.7913 307.736 53.4467L307.723 52.7903Z" fill="white"/>
<path d="M311.026 53.4633V52.8561V52.3802C311.026 52.2982 311.014 52.2161 311.001 52.1341C310.709 46.3906 307.05 41.8285 302.565 41.7137C302.54 41.7137 302.527 41.6973 302.502 41.6973H301.663C301.168 41.6973 300.761 42.2224 300.761 42.8788C300.761 43.5188 301.168 44.0603 301.663 44.0603H302.502C302.514 44.0603 302.514 44.0603 302.514 44.0603C306.161 44.1424 309.108 47.9167 309.21 52.61V53.4633C309.21 54.1033 309.616 54.6284 310.112 54.6284C310.607 54.6284 311.026 54.1033 311.026 53.4633Z" fill="white"/>
<path d="M160.569 58.8615C155.183 62.3075 151.651 69.5442 151.575 77.2897C151.498 85.0679 154.471 92.0585 159.515 96.0132C161.293 97.4081 162.704 100.099 163.263 103.184L163.352 103.677C163.72 105.711 164.749 107.336 166.07 108.271L166.807 112.341C167.493 116.148 170.453 118.511 173.401 117.625L176.958 116.542C179.905 115.656 181.735 111.832 181.049 108.025L180.312 103.956C181.176 102.364 181.531 100.313 181.163 98.2778L181.074 97.7691C180.515 94.7169 180.883 91.4349 182.052 89.0063C184.364 84.1818 185.089 78.4876 184.085 72.9575C181.697 59.7804 170.402 52.5929 160.569 58.8615ZM177.491 109.125C177.72 110.388 177.11 111.668 176.132 111.964L172.575 113.047C171.597 113.342 170.606 112.554 170.377 111.291L169.958 108.993L177.085 106.844L177.491 109.125ZM178.952 86.5448C177.263 90.0729 176.742 94.5692 177.517 98.8849L177.606 99.3936C177.834 100.657 177.225 101.937 176.246 102.233L169.119 104.382C168.141 104.678 167.15 103.89 166.921 102.626L166.833 102.134C166.045 97.7691 164.063 94.0605 161.42 91.9928C157.495 88.9078 155.183 83.4433 155.234 77.3717C155.284 71.3821 158.016 65.7864 162.195 63.128C169.907 58.2051 178.673 63.8501 180.528 74.0898C181.303 78.3563 180.744 82.7869 178.952 86.5448Z" fill="white" stroke="white" stroke-miterlimit="10"/>
<path d="M165.969 66.3282C165.232 66.5579 164.508 66.8861 163.809 67.3291C160.9 69.1834 158.93 73.2366 158.892 77.3882C158.88 78.701 159.693 79.7676 160.696 79.784C161.713 79.8004 162.538 78.7502 162.551 77.4538C162.576 75.058 163.758 72.6294 165.435 71.5628C165.88 71.2839 166.337 71.0541 166.794 70.9228C167.773 70.6275 168.382 69.3475 168.154 68.084C167.925 66.8205 166.959 66.0328 165.969 66.3282Z" fill="white" stroke="white" stroke-miterlimit="10"/>
<path d="M172.651 116.116V121.35C172.689 125.485 171.8 128.653 170.009 130.884C168.205 133.116 165.638 134.232 162.297 134.232C160.392 134.232 158.727 133.887 157.304 133.198C155.894 132.509 154.738 131.573 153.862 130.392C153.163 129.44 152.426 128.964 151.664 128.964C151.143 128.964 150.724 129.161 150.393 129.539C149.695 130.293 149.352 131.081 149.352 131.885C149.352 132.492 149.529 133.067 149.898 133.592C151.257 135.495 153.049 136.956 155.272 138.006C157.495 139.056 159.96 139.565 162.678 139.565C165.689 139.565 168.332 138.81 170.619 137.317C172.893 135.824 174.659 133.69 175.904 130.95C177.149 128.193 177.784 124.993 177.784 121.334V116.099H172.651V116.116Z" fill="white"/>
</svg>
