<svg width="179" height="58" viewBox="0 0 179 58" fill="none" xmlns="http://www.w3.org/2000/svg">
<path d="M46.3693 57.712C45.9013 57.712 45.5195 57.5765 45.2239 57.3056C44.9529 57.01 44.8175 56.6282 44.8175 56.1602V34.0656H36.8737C36.4304 34.0656 36.0855 33.9547 35.8392 33.733C35.5929 33.5114 35.4697 33.1912 35.4697 32.7724C35.4697 32.5851 35.5436 31.9965 35.5436 31.9965C35.5436 31.9965 35.5694 31.8874 35.5751 31.8959C35.5885 31.8535 35.5919 31.8589 35.6473 31.813C35.6593 31.803 35.6738 31.7906 35.6914 31.7748C35.6914 31.7748 36.4304 31.4792 36.8737 31.4792H55.8278C56.2712 31.4792 56.616 31.5901 56.8624 31.8118C57.1087 32.0335 57.2318 32.3537 57.2318 32.7724C57.2318 33.1912 57.1087 33.5114 56.8624 33.733C56.616 33.9547 56.2712 34.0656 55.8278 34.0656H47.8841V56.1602C47.8841 56.6282 47.7486 57.01 47.4777 57.3056C47.2067 57.5765 46.8373 57.712 46.3693 57.712Z" fill="#18C889"/>
<path d="M1.57573 56.7514C1.31089 56.7514 1.04289 56.6852 0.79697 56.5433C0.0402845 56.1114 -0.224556 55.1498 0.207386 54.3931C6.71173 42.9924 9.74162 32.0709 9.74162 20.0206V11.3188C9.74162 5.0761 14.8209 0 21.0604 0H30.8027C34.3907 0 37.7012 1.6521 39.8798 4.53381L41.3301 6.45705C42.8592 8.51587 45.2995 9.73918 47.8597 9.73918H50.2874C53.8501 9.73918 56.7507 12.6398 56.7507 16.2025V18.0627C56.7507 20.4841 55.3572 22.7447 53.2006 23.823L40.4 30.2233C39.4888 30.6805 38.852 31.5065 38.6565 32.4933C38.4862 33.3478 37.6507 33.9027 36.8026 33.7324C35.9482 33.5622 35.3933 32.733 35.5635 31.8785C35.9545 29.9269 37.203 28.2969 38.9875 27.4046L51.7881 21.0043C52.8885 20.4557 53.5979 19.3049 53.5979 18.0659V16.2057C53.5979 14.3487 52.1444 12.8952 50.2874 12.8952H47.8597C44.3096 12.8952 40.9234 11.1958 38.8047 8.35192L37.3607 6.43814C35.7874 4.35094 33.3944 3.15286 30.8027 3.15286H21.0604C16.5581 3.15286 12.8945 6.81648 12.8945 11.3188V20.0206C12.8945 32.6415 9.73217 44.0612 2.94407 55.9538C2.654 56.4677 2.12117 56.7514 1.57573 56.7514Z" fill="#18C889"/>
<path d="M21.0668 31.5285C19.5345 31.5285 18.1125 30.6362 17.4504 29.2521L9.89933 13.5824C9.52414 12.7974 9.85204 11.8547 10.6371 11.4763C11.4222 11.1011 12.3617 11.429 12.7401 12.2141L20.2912 27.8869C20.5308 28.3882 21.8487 28.4324 21.9212 27.5969L24.3678 1.64571C24.4498 0.778674 25.197 0.110269 26.0829 0.223771C26.95 0.305746 27.5869 1.07504 27.5049 1.93893L25.0614 27.8869C24.8723 29.9584 23.1571 31.5285 21.0668 31.5285Z" fill="#18C889"/>
<path d="M82.2521 55.8068C82.3518 56.0022 82.4016 56.2099 82.4016 56.4297C82.4016 56.7961 82.2521 57.1014 81.9532 57.3456C81.6792 57.5899 81.3429 57.712 80.9443 57.712C80.3215 57.712 79.8856 57.4189 79.6365 56.8327L76.9834 50.8974H62.8962L60.2058 56.8327C59.9567 57.4189 59.5208 57.712 58.898 57.712C58.4994 57.712 58.1507 57.5899 57.8517 57.3456C57.5528 57.077 57.4033 56.7594 57.4033 56.393C57.4033 56.1976 57.4531 56.0022 57.5528 55.8068L68.2396 32.5051C68.3891 32.1632 68.6133 31.9067 68.9122 31.7357C69.2112 31.5647 69.535 31.4792 69.8838 31.4792C70.2574 31.4792 70.5937 31.5769 70.8927 31.7724C71.1916 31.9433 71.4158 32.1876 71.5653 32.5051L82.2521 55.8068ZM64.0172 48.406H75.8624L69.9211 35.253L64.0172 48.406Z" fill="#18C889"/>
<path d="M105.796 55.3941C106.042 55.6639 106.165 55.9705 106.165 56.3139C106.165 56.7064 106.017 57.0375 105.722 57.3073C105.427 57.5771 105.083 57.712 104.689 57.712C104.296 57.712 103.939 57.5403 103.62 57.1969L95.209 46.4904L86.7614 57.1969C86.4909 57.5403 86.1343 57.712 85.6916 57.712C85.3227 57.712 84.9907 57.5771 84.6956 57.3073C84.4005 57.013 84.2529 56.6818 84.2529 56.3139C84.2529 55.946 84.3636 55.6394 84.5849 55.3941L93.4383 44.3197L85.0645 33.7971C84.8186 33.5273 84.6956 33.2085 84.6956 32.8406C84.6956 32.4726 84.8309 32.1538 85.1014 31.884C85.3965 31.6142 85.7285 31.4792 86.0974 31.4792C86.5155 31.4792 86.872 31.6632 87.1672 32.0311L95.209 42.1857L103.214 32.0311C103.509 31.6632 103.866 31.4792 104.284 31.4792C104.653 31.4792 104.985 31.6264 105.28 31.9208C105.575 32.1906 105.722 32.5217 105.722 32.9141C105.722 33.2575 105.612 33.5519 105.39 33.7971L96.9796 44.3197L105.796 55.3941Z" fill="#18C889"/>
<path d="M109.575 57.712C109.105 57.712 108.722 57.5756 108.425 57.3027C108.154 57.0298 108.018 56.6701 108.018 56.2236V32.9676C108.018 32.5211 108.154 32.1614 108.425 31.8886C108.722 31.6157 109.105 31.4792 109.575 31.4792H116.805C120.982 31.4792 124.208 32.6203 126.482 34.9025C128.78 37.1599 129.93 40.3847 129.93 44.577C129.93 48.7693 128.78 52.0065 126.482 54.2887C124.183 56.5709 120.957 57.712 116.805 57.712H109.575ZM116.619 55.1073C123.392 55.1073 126.778 51.5972 126.778 44.577C126.778 37.5816 123.392 34.0839 116.619 34.0839H111.058V55.1073H116.619Z" fill="#102D21"/>
<path d="M143.663 57.712C141.245 57.712 139.135 57.1784 137.334 56.1111C135.557 55.0439 134.187 53.5279 133.225 51.5631C132.262 49.5984 131.781 47.282 131.781 44.6138C131.781 41.9214 132.25 39.5928 133.188 37.6281C134.15 35.6391 135.52 34.1231 137.297 33.0801C139.098 32.0129 141.22 31.4792 143.663 31.4792C146.106 31.4792 148.216 32.0129 149.993 33.0801C151.794 34.1231 153.164 35.6391 154.101 37.6281C155.064 39.5928 155.545 41.9093 155.545 44.5774C155.545 47.2456 155.064 49.5742 154.101 51.5631C153.139 53.5279 151.757 55.0439 149.956 56.1111C148.179 57.1784 146.081 57.712 143.663 57.712ZM143.663 55.1651C146.427 55.1651 148.574 54.2555 150.104 52.4363C151.658 50.5929 152.436 47.9733 152.436 44.5774C152.436 41.1816 151.671 38.5741 150.141 36.7549C148.611 34.9357 146.452 34.0261 143.663 34.0261C140.899 34.0261 138.74 34.9478 137.185 36.7913C135.656 38.6105 134.891 41.2059 134.891 44.5774C134.891 47.949 135.656 50.5565 137.185 52.4C138.74 54.2434 140.899 55.1651 143.663 55.1651Z" fill="#102D21"/>
<path d="M177.742 44.0681C178.112 44.0681 178.408 44.1772 178.63 44.3955C178.877 44.6138 179 44.917 179 45.3051V54.3647C179 54.9468 178.901 55.3834 178.704 55.6745C178.531 55.9656 178.198 56.196 177.705 56.3658C176.719 56.7782 175.523 57.1056 174.117 57.3482C172.711 57.5907 171.306 57.712 169.9 57.712C167.31 57.712 165.079 57.1905 163.204 56.1475C161.33 55.1045 159.887 53.6006 158.876 51.6359C157.89 49.6712 157.396 47.3184 157.396 44.5774C157.396 41.885 157.89 39.5565 158.876 37.5917C159.863 35.627 161.281 34.1231 163.13 33.0801C164.98 32.0129 167.15 31.4792 169.641 31.4792C171.367 31.4792 172.97 31.7461 174.45 32.2797C175.93 32.7891 177.175 33.5289 178.186 34.4991C178.605 34.9115 178.815 35.3359 178.815 35.7725C178.815 36.1121 178.716 36.4153 178.519 36.6821C178.322 36.9247 178.075 37.046 177.779 37.046C177.483 37.046 177.138 36.9004 176.743 36.6094C175.461 35.6391 174.302 34.9721 173.266 34.6083C172.23 34.2202 171.034 34.0261 169.678 34.0261C166.743 34.0261 164.487 34.9357 162.908 36.7549C161.355 38.5741 160.578 41.1816 160.578 44.5774C160.578 48.046 161.367 50.6899 162.945 52.5091C164.548 54.3041 166.891 55.2015 169.974 55.2015C172.267 55.2015 174.351 54.8619 176.226 54.1828V46.3966H170.825C170.405 46.3966 170.072 46.2875 169.826 46.0692C169.579 45.8509 169.456 45.5719 169.456 45.2323C169.456 44.8685 169.579 44.5896 169.826 44.3955C170.072 44.1772 170.405 44.0681 170.825 44.0681H177.742Z" fill="#102D21"/>
</svg>
