<svg width="512" height="512" viewBox="0 0 512 512" fill="none" xmlns="http://www.w3.org/2000/svg">
<g clip-path="url(#clip0_3_12)">
<path d="M256 489C375.294 489 472 467.51 472 441C472 414.49 375.294 393 256 393C136.706 393 40 414.49 40 441C40 467.51 136.706 489 256 489Z" stroke="black" stroke-width="47"/>
<path d="M256 489C375.294 489 472 464.6 472 434.5C472 404.4 375.294 380 256 380C136.706 380 40 404.4 40 434.5C40 464.6 136.706 489 256 489Z" stroke="black" stroke-width="47"/>
<path d="M256 480C375.294 480 472 457.614 472 430C472 402.386 375.294 380 256 380C136.706 380 40 402.386 40 430C40 457.614 136.706 480 256 480Z" stroke="white" stroke-width="47"/>
</g>
<defs>
<clipPath id="clip0_3_12">
<rect width="512" height="512" fill="white"/>
</clipPath>
</defs>
</svg>
