<?xml version="1.0" encoding="UTF-8"?> <svg xmlns="http://www.w3.org/2000/svg" xmlns:xlink="http://www.w3.org/1999/xlink" version="1.1" id="Layer_1" x="0px" y="0px" width="105.598px" height="50px" viewBox="0 0 105.598 50" xml:space="preserve"> <g> <g> <path fill="#4489FF" d="M0,28.103c1.546-0.262,3.719-0.459,6.782-0.459c3.095,0,5.301,0.59,6.784,1.775 c1.414,1.124,2.367,2.966,2.367,5.138c0,2.175-0.724,4.018-2.041,5.269c-1.713,1.614-4.246,2.339-7.211,2.339 c-0.657,0-1.251-0.035-1.713-0.101V50H0V28.103z M4.969,38.179c0.429,0.099,0.955,0.131,1.68,0.131 c2.668,0,4.315-1.347,4.315-3.621c0-2.039-1.418-3.259-3.921-3.259c-1.019,0-1.713,0.097-2.074,0.199V38.179z"></path> <path fill="#4489FF" d="M22.973,37.652c0.164,2.073,2.205,3.063,4.545,3.063c1.713,0,3.096-0.231,4.444-0.659l0.659,3.393 c-1.646,0.657-3.654,0.987-5.828,0.987c-5.466,0-8.594-3.16-8.594-8.2c0-4.082,2.536-8.592,8.133-8.592 c5.2,0,7.175,4.051,7.175,8.032c0,0.856-0.099,1.615-0.161,1.977H22.973z M28.865,34.226c0-1.215-0.525-3.257-2.829-3.257 c-2.108,0-2.965,1.91-3.097,3.257H28.865z"></path> <path fill="#4489FF" d="M40.356,37.652c0.167,2.073,2.208,3.063,4.546,3.063c1.714,0,3.096-0.231,4.445-0.659l0.658,3.393 c-1.646,0.657-3.654,0.987-5.83,0.987c-5.465,0-8.592-3.16-8.592-8.2c0-4.082,2.535-8.592,8.134-8.592 c5.203,0,7.179,4.051,7.179,8.032c0,0.856-0.102,1.615-0.166,1.977H40.356z M46.252,34.226c0-1.215-0.523-3.257-2.83-3.257 c-2.108,0-2.966,1.91-3.094,3.257H46.252z"></path> <path fill="#4489FF" d="M53.891,33.306c0-2.369-0.063-3.917-0.131-5.302h4.313l0.165,2.965h0.132 c0.821-2.338,2.798-3.325,4.345-3.325c0.463,0,0.693,0,1.055,0.065v4.709c-0.361-0.067-0.791-0.133-1.35-0.133 c-1.846,0-3.096,0.987-3.426,2.535c-0.064,0.33-0.098,0.725-0.098,1.12v8.165h-5.006V33.306z"></path> </g> <g> <path fill="#4489FF" d="M1.02,18.206c1.35,0.692,3.426,1.386,5.566,1.386c2.305,0,3.521-0.955,3.521-2.404 c0-1.382-1.054-2.172-3.719-3.128c-3.689-1.284-6.093-3.326-6.093-6.554c0-3.786,3.161-6.682,8.396-6.682 c2.505,0,4.347,0.528,5.664,1.118l-1.118,4.05c-0.89-0.428-2.471-1.055-4.644-1.055c-2.174,0-3.227,0.988-3.227,2.143 c0,1.414,1.25,2.04,4.115,3.127c3.916,1.449,5.762,3.489,5.762,6.619c0,3.719-2.863,6.883-8.957,6.883 c-2.532,0-5.035-0.66-6.287-1.352L1.02,18.206z"></path> <path fill="#4489FF" d="M18.472,12.413c0-2.008-0.065-3.722-0.132-5.138h4.346l0.229,2.207h0.099 c0.66-1.02,2.307-2.567,4.973-2.567c3.295,0,5.762,2.173,5.762,6.915v9.549h-5.002v-8.924c0-2.073-0.725-3.489-2.539-3.489 c-1.381,0-2.203,0.953-2.533,1.874c-0.133,0.297-0.196,0.792-0.196,1.251v9.288h-5.006V12.413z"></path> <path fill="#4489FF" d="M41.621,16.924c0.163,2.074,2.203,3.061,4.541,3.061c1.713,0,3.098-0.229,4.444-0.656l0.659,3.391 c-1.645,0.66-3.652,0.99-5.828,0.99c-5.463,0-8.594-3.164-8.594-8.201c0-4.082,2.536-8.593,8.133-8.593 c5.201,0,7.18,4.051,7.18,8.033c0,0.857-0.099,1.611-0.166,1.976H41.621z M47.512,13.5c0-1.216-0.526-3.26-2.83-3.26 c-2.108,0-2.963,1.91-3.095,3.26H47.512z"></path> <path fill="#4489FF" d="M64.307,23.379l-0.298-1.61h-0.097c-1.057,1.28-2.701,1.973-4.612,1.973c-3.259,0-5.201-2.371-5.201-4.94 c0-4.179,3.755-6.191,9.449-6.157v-0.23c0-0.854-0.46-2.075-2.931-2.075c-1.648,0-3.391,0.562-4.443,1.222l-0.922-3.229 c1.119-0.625,3.324-1.416,6.255-1.416c5.366,0,7.081,3.161,7.081,6.945v5.599c0,1.549,0.064,3.029,0.229,3.92H64.307z M63.715,15.773c-2.635-0.033-4.678,0.591-4.678,2.532c0,1.286,0.857,1.911,1.978,1.911c1.249,0,2.271-0.823,2.601-1.844 c0.064-0.263,0.1-0.561,0.1-0.854V15.773z"></path> <path fill="#4489FF" d="M77.543,14.06h0.064c0.362-0.658,0.758-1.317,1.152-1.943l3.26-4.841h6.025l-5.762,6.521l6.586,9.582 h-6.158l-3.883-6.62l-1.285,1.58v5.04h-5.006V0h5.006V14.06z"></path> <path fill="#4489FF" d="M94.236,7.275l2.404,7.903c0.264,0.954,0.59,2.141,0.789,2.997h0.1c0.229-0.856,0.492-2.073,0.725-2.997 l1.973-7.903h5.371l-3.756,10.605c-2.307,6.385-3.852,8.954-5.662,10.568c-1.746,1.514-3.591,2.041-4.841,2.207l-1.054-4.249 c0.625-0.098,1.416-0.395,2.176-0.855c0.756-0.396,1.576-1.185,2.07-2.011c0.166-0.228,0.262-0.492,0.262-0.725 c0-0.163-0.029-0.423-0.228-0.822L88.671,7.275H94.236z"></path> </g> </g> </svg> 