<?xml version="1.0" encoding="UTF-8"?> <svg xmlns="http://www.w3.org/2000/svg" viewBox="0 0 295 72"><g fill-rule="evenodd"><path d="M233.686 30.484h10.164v40.641h-10.164v-40.64h-20.314v-10.16h20.314v10.159zM10.158 60.961v10.164h10.16V60.961H10.16V30.485l-.002-10.16H0V.001h10.16v20.324h20.322v10.16H10.16L0 30.484v30.477h10.158zm172.729-30.477h10.155v30.477h-10.155V30.485h-20.315v-10.16h20.315v10.159zM81.279 10.16V0h10.167v10.16H81.279zm30.487 10.165V.001h10.16v20.324h-10.16zM50.8 30.485v-10.16h20.32v10.16H50.8zm30.479 40.64V20.324h10.167v50.801H81.279zm40.649-40.64v-10.16h20.316v10.16h-20.316zm142.249 0v-10.16h20.315v10.16h-20.315zM111.766 60.961V30.484h10.16v30.477h-10.16zM254.01 40.649V30.485h10.167v10.164H254.01zm10.167 10.16v-10.16h20.315v10.16h-20.315zM152.406 60.961V30.484h10.164v30.477h-10.164zm101.604 0V50.81h10.167v10.151H254.01zM40.643 71.125V30.484h10.156v40.641H40.643zm81.283 0V60.961h10.16v10.164h-10.16zm40.646 0V60.961h20.315v10.164h-20.315zm40.63 0V30.484h10.168v40.641h-10.168zm60.975 0V60.961h20.315v10.164h-20.315z" fill="#2D272B"></path><path d="m284.49 30.485h10.156v-10.16h-10.156z" fill="#E4D33C"></path><path d="m284.49 50.809h10.156v-10.16h-10.156z" fill="#E71D25"></path><path d="m284.49 71.125h10.156v-10.164h-10.156z" fill="#3C8743"></path></g></svg> 