<?xml version="1.0" encoding="UTF-8"?> <svg xmlns="http://www.w3.org/2000/svg" width="581" height="263" viewBox="0 0 581 263" fill="none"><path d="M245.158 89.3462C243.528 83.8493 241.535 78.5572 239.236 73.4919C236.636 67.7678 233.643 62.3324 230.33 57.2172C223.503 46.6724 215.324 37.4427 206.419 29.754C197.048 21.6609 186.878 15.2709 176.642 10.839C164.413 5.54429 152.144 2.32829 140.121 0.892069C127.267 -0.643931 114.702 -0.14768 102.762 2.00589C89.982 4.31254 77.8939 8.5218 66.9167 14.1741C55.4802 20.0637 45.252 27.5188 36.7027 36.0194C30.0013 42.6831 24.2356 49.8906 19.3974 57.4807C14.3979 65.3239 10.3768 73.5871 7.32523 82.0967C3.36013 93.1594 1.01796 104.666 0.266586 116.241C-0.493855 127.963 0.375438 139.759 2.8378 151.243C5.3115 162.78 9.40284 173.996 15.0608 184.488C20.5619 194.684 27.5495 204.206 35.9782 212.683C42.4616 219.204 49.8098 225.122 57.9947 230.264C83.0843 246.035 102.969 249.083 131.914 250.322L131.901 262.934C141.698 251.983 151.498 241.882 162.014 230.582C151.307 219.235 142.916 210.322 132.052 198.722L131.923 211.714L122.848 211.464C114.179 211.228 106.12 209.827 98.7025 207.499C90.7368 204.999 83.4963 201.428 77.0201 197.081C70.0325 192.39 63.9365 186.796 58.7782 180.666C53.2609 174.11 48.8131 166.944 45.4894 159.621C41.7397 151.364 39.5227 143.028 38.5747 134.835C37.546 125.955 38.0093 117.236 39.6236 108.96C41.3822 99.9459 44.5347 91.4352 48.6279 83.7971C52.9849 75.6704 58.4139 68.5252 64.3723 62.8072C73.2088 54.3248 82.8572 48.1796 92.8495 44.1268C103.551 39.7861 114.658 37.8404 125.597 37.9798C131.494 38.0558 137.322 38.7357 142.984 39.9709C148.748 41.2264 154.37 43.0633 159.752 45.4247C165.119 47.7779 170.245 50.6511 175.036 53.9888C179.798 57.3068 184.246 61.095 188.281 65.299C191.736 68.8986 194.897 72.8082 197.698 76.9906C200.305 80.8797 202.604 85.0073 204.548 89.3462H245.158V89.3462Z" fill="url(#paint0_linear_503_3)"></path><path d="M88.2982 173.224H146.645C149.812 173.224 152.841 172.862 155.736 172.139C158.631 171.415 161.254 169.515 163.606 166.44C165.597 163.906 166.885 161.08 167.473 157.959C168.061 154.838 168.355 151.786 168.355 148.8C168.355 147.715 168.287 146.402 168.152 144.865C168.016 143.327 167.744 141.722 167.338 140.047C166.931 138.374 166.32 136.701 165.506 135.028C164.692 133.354 163.561 131.839 162.114 130.482C160.666 129.124 158.834 127.904 156.618 126.818C154.402 125.732 151.711 124.692 148.544 123.697L113.808 112.707C110.008 111.44 107.588 109.856 106.548 107.957C105.508 106.058 104.988 104.068 104.988 101.987C104.988 101.082 105.101 99.9059 105.326 98.4587C105.554 97.0111 106.254 95.7454 107.43 94.6591C108.515 93.6647 109.714 93.054 111.026 92.8279C112.338 92.6008 113.626 92.4885 114.893 92.4885H163.47V78.2405H108.787C106.436 78.2405 103.857 78.5345 101.053 79.1222C98.2486 79.7103 95.6252 81.1806 93.1832 83.5326C90.4688 86.0656 88.7729 88.915 88.0941 92.0811C87.4164 95.2472 87.0767 98.278 87.0767 101.173C87.0767 102.53 87.1224 103.977 87.212 105.515C87.3027 107.052 87.5287 108.613 87.8908 110.196C88.2529 111.779 88.7502 113.339 89.3837 114.877C90.0171 116.416 90.8766 117.817 91.9617 119.083C92.8665 120.259 93.9063 121.255 95.0824 122.069C96.2586 122.883 97.3891 123.585 98.4746 124.172C99.5597 124.76 100.533 125.212 101.392 125.529C102.251 125.846 102.862 126.049 103.224 126.14L140.674 137.945C142.755 138.578 144.405 139.324 145.627 140.184C146.848 141.043 147.776 141.948 148.408 142.897C149.042 143.847 149.449 144.82 149.63 145.814C149.812 146.81 149.901 147.76 149.901 148.664C149.901 149.479 149.834 150.473 149.698 151.649C149.562 152.825 149.201 153.956 148.613 155.041C148.025 156.127 147.142 157.054 145.966 157.824C144.79 158.592 143.117 158.977 140.945 158.977H88.2982V173.224V173.224ZM177.029 173.224H190.492V126.736C190.492 125.585 190.55 124.799 190.664 124.377C190.78 123.955 190.914 123.667 191.067 123.514C191.221 123.361 191.509 123.169 191.93 122.938C192.352 122.708 193.062 122.593 194.059 122.593H213.737V173.224H227.199V122.593H239.742C240.97 122.593 242.351 122.747 243.885 123.053C245.42 123.361 246.761 124.166 247.913 125.47C248.986 126.697 249.676 128.116 249.983 129.727C250.291 131.339 250.444 132.796 250.444 134.1V173.224H263.906V132.029C263.906 128.961 263.428 126.122 262.468 123.514C261.51 120.905 260.148 118.757 258.384 117.069C256.159 115.075 253.571 113.771 250.616 113.157C247.663 112.543 245.073 112.237 242.85 112.237H187.961C186.58 112.237 184.988 112.448 183.186 112.87C181.382 113.291 179.906 114.309 178.755 115.919C177.988 116.993 177.508 118.201 177.317 119.544C177.125 120.886 177.029 121.979 177.029 122.824V173.224V173.224ZM275.99 112.237V122.593H306.023C307.097 122.593 308.228 122.747 309.418 123.053C310.606 123.361 311.661 124.09 312.581 125.24C313.349 126.16 313.829 127.12 314.02 128.116C314.212 129.114 314.308 130.073 314.308 130.993V135.251H287.841C286.231 135.251 284.447 135.424 282.491 135.769C280.535 136.114 278.597 137.13 276.68 138.818C274.379 140.812 272.941 143.114 272.365 145.722C271.789 148.331 271.501 150.977 271.501 153.662C271.501 154.813 271.54 156.118 271.617 157.574C271.693 159.032 271.904 160.528 272.249 162.063C272.594 163.596 273.131 165.073 273.86 166.492C274.589 167.911 275.567 169.158 276.795 170.233C278.559 171.766 280.42 172.649 282.375 172.879C284.332 173.11 286.153 173.224 287.841 173.224H316.954C318.412 173.224 319.908 173.09 321.442 172.821C322.977 172.553 324.281 171.881 325.355 170.807C326.429 169.733 327.1 168.43 327.369 166.895C327.637 165.36 327.771 164.057 327.771 162.984V131.339C327.771 127.887 327.35 124.952 326.505 122.535C325.661 120.12 324.587 118.259 323.283 116.955C321.903 115.497 320.1 114.346 317.875 113.503C315.65 112.659 313.234 112.237 310.626 112.237H275.99V112.237ZM314.308 145.608V159.646C314.308 160.107 314.269 160.547 314.193 160.969C314.116 161.39 313.847 161.794 313.387 162.177C312.928 162.561 312.409 162.772 311.835 162.811C311.259 162.848 310.779 162.868 310.395 162.868H291.639C290.795 162.868 289.97 162.676 289.165 162.292C288.359 161.909 287.727 161.487 287.266 161.026C286.423 160.183 285.905 159.07 285.713 157.69C285.521 156.308 285.426 155.158 285.426 154.238C285.426 152.013 285.616 150.44 286 149.52C286.384 148.599 286.692 147.985 286.921 147.678C287.688 146.682 288.59 146.087 289.625 145.895C290.661 145.703 291.409 145.608 291.869 145.608H314.308V145.608ZM336.977 173.224H350.44V138.818C350.44 136.517 350.632 134.331 351.015 132.259C351.399 130.188 352.243 128.385 353.547 126.85C355.158 124.933 357.038 123.743 359.186 123.284C361.334 122.824 363.289 122.593 365.053 122.593H370.692V112.237H361.601C360.451 112.237 359.109 112.276 357.575 112.351C356.04 112.429 354.448 112.64 352.799 112.985C351.149 113.33 349.5 113.867 347.85 114.596C346.202 115.324 344.687 116.303 343.306 117.53C340.697 119.755 338.99 122.421 338.185 125.528C337.379 128.634 336.977 131.876 336.977 135.251V173.224V173.224ZM412.232 173.224V162.868H408.896C407.668 162.868 406 162.753 403.89 162.522C401.78 162.292 399.958 161.526 398.423 160.221C397.427 159.454 396.679 158.514 396.18 157.402C395.682 156.29 395.336 155.158 395.145 154.007C394.953 152.857 394.856 151.706 394.856 150.555C394.856 149.328 394.856 148.177 394.856 147.103V122.593H411.887V112.237H394.856V92.6745H381.394V112.237H372.993V122.593H381.394V153.317C381.394 157.229 381.912 160.375 382.947 162.753C383.982 165.131 385.498 167.126 387.492 168.737C389.41 170.27 391.577 171.402 393.994 172.131C396.411 172.86 399.689 173.224 403.832 173.224H412.232V173.224ZM435.591 173.224H451.587L459.757 152.857H498.535L506.82 173.224H522.815L492.437 100.845C490.979 97.47 489.271 95.1108 487.315 93.7679C485.36 92.4262 482.655 91.7542 479.203 91.7542C475.598 91.7542 472.855 92.4262 470.976 93.7679C469.096 95.1108 467.428 97.47 465.97 100.845L435.591 173.224V173.224ZM476.902 109.245C477.131 108.631 477.439 107.922 477.823 107.116C478.206 106.311 478.666 105.908 479.203 105.908C479.74 105.908 480.201 106.311 480.584 107.116C480.967 107.922 481.275 108.631 481.504 109.245L494.623 142.04H463.669L476.902 109.245V109.245ZM523.966 173.224H537.429V112.237H523.966V173.224ZM537.429 103.376V92.6745H523.966V103.376H537.429ZM546.635 173.224H560.098V138.818C560.098 136.517 560.29 134.331 560.673 132.259C561.057 130.188 561.901 128.385 563.205 126.85C564.816 124.933 566.696 123.743 568.844 123.284C570.991 122.824 572.947 122.593 574.712 122.593H580.35V112.237H571.259C570.109 112.237 568.767 112.276 567.233 112.351C565.698 112.429 564.106 112.64 562.457 112.985C560.807 113.33 559.158 113.867 557.508 114.596C555.86 115.324 554.345 116.303 552.964 117.53C550.355 119.755 548.648 122.421 547.843 125.528C547.037 128.634 546.635 131.876 546.635 135.251V173.224V173.224Z" fill="white"></path><path d="M240.748 201.96H231.64V221.76H206.528V201.96H197.42V250.254H206.528V229.005H231.64V250.254H240.748V201.96V201.96ZM287.731 250.254V243.01H261.928C261.192 243.01 260.56 242.975 260.031 242.907C259.502 242.838 259.099 242.665 258.823 242.39C258.363 242.022 258.134 241.401 258.134 240.527V229.212H286.765V221.968H258.134V212.241C258.134 211.872 258.168 211.481 258.238 211.067C258.307 210.654 258.524 210.262 258.893 209.894C259.26 209.573 259.663 209.376 260.1 209.308C260.537 209.239 260.962 209.204 261.376 209.204H287.456V201.96H256.478C255.558 201.96 254.557 202.052 253.476 202.236C252.396 202.42 251.465 202.949 250.683 203.823C250.176 204.421 249.774 205.168 249.475 206.065C249.176 206.962 249.026 207.894 249.026 208.86V243.08C249.026 244 249.118 244.977 249.303 246.011C249.487 247.046 249.992 247.954 250.821 248.737C251.602 249.519 252.453 249.967 253.373 250.082C254.294 250.197 255.282 250.254 256.339 250.254H287.731V250.254ZM287.731 250.254H297.32L302.219 238.043H325.47L330.437 250.254H340.027L321.813 206.859C320.939 204.834 319.916 203.421 318.743 202.616C317.571 201.811 315.949 201.408 313.879 201.408C311.717 201.408 310.073 201.811 308.946 202.616C307.819 203.421 306.819 204.834 305.945 206.859L287.731 250.254ZM312.5 211.896C312.637 211.528 312.821 211.102 313.051 210.618C313.281 210.136 313.558 209.894 313.879 209.894C314.201 209.894 314.477 210.136 314.707 210.618C314.937 211.102 315.121 211.528 315.259 211.896L323.124 231.557H304.565L312.5 211.896V211.896ZM358.31 250.254V209.204H377.214V201.96H330.368V209.204H349.204V250.254H358.31V250.254ZM419.368 250.254V243.01H393.565C392.829 243.01 392.197 242.975 391.668 242.907C391.139 242.838 390.736 242.665 390.46 242.39C390 242.022 389.771 241.401 389.771 240.527V229.212H418.402V221.968H389.771V212.241C389.771 211.872 389.805 211.481 389.874 211.067C389.943 210.654 390.161 210.262 390.529 209.894C390.897 209.573 391.3 209.376 391.737 209.308C392.174 209.239 392.599 209.204 393.013 209.204H419.092V201.96H388.115C387.195 201.96 386.193 202.052 385.113 202.236C384.032 202.42 383.101 202.949 382.319 203.823C381.813 204.421 381.411 205.168 381.111 206.065C380.813 206.962 380.663 207.894 380.663 208.86V243.08C380.663 244 380.755 244.977 380.94 246.011C381.124 247.046 381.629 247.954 382.458 248.737C383.239 249.519 384.09 249.967 385.01 250.082C385.93 250.197 386.919 250.254 387.976 250.254H419.368V250.254ZM425.576 250.254H434.684V212.654C434.684 212.148 434.718 211.676 434.788 211.239C434.857 210.802 435.144 210.378 435.649 209.963C436.019 209.595 436.386 209.376 436.754 209.308C437.122 209.239 437.559 209.204 438.065 209.204H452.829C453.564 209.204 454.416 209.262 455.382 209.376C456.348 209.492 457.198 209.917 457.934 210.654C458.44 211.159 458.854 211.918 459.176 212.93C459.498 213.942 459.66 215.414 459.66 217.346C459.66 217.759 459.648 218.265 459.624 218.863C459.601 219.462 459.556 220.07 459.487 220.691C459.418 221.312 459.303 221.922 459.142 222.52C458.98 223.118 458.785 223.601 458.555 223.968C457.911 224.934 457.117 225.533 456.175 225.762C455.232 225.992 454.369 226.107 453.588 226.107H444.481C443.148 226.107 442.135 226.418 441.445 227.039C440.756 227.66 440.41 228.452 440.41 229.419V230.523C440.41 231.212 440.664 231.938 441.169 232.696C441.675 233.455 442.181 234.088 442.687 234.593L458.555 250.254H470.008L451.656 233.214V232.868H457.866C459.245 232.868 460.441 232.719 461.453 232.42C462.464 232.122 463.327 231.73 464.04 231.247C464.753 230.764 465.34 230.235 465.8 229.66C466.259 229.086 466.65 228.499 466.973 227.901C467.939 226.107 468.524 224.28 468.732 222.417C468.939 220.554 469.042 218.749 469.042 217.001C469.042 215.252 468.927 213.459 468.697 211.62C468.467 209.779 467.777 208.031 466.627 206.376C465.937 205.318 465.167 204.49 464.316 203.892C463.465 203.294 462.58 202.857 461.66 202.581C460.74 202.305 459.821 202.133 458.9 202.063C457.98 201.995 457.106 201.96 456.279 201.96H433.373C432.454 201.96 431.476 202.075 430.441 202.305C429.406 202.536 428.452 203.065 427.578 203.892C426.612 204.812 426.038 205.836 425.854 206.962C425.669 208.089 425.576 209.158 425.576 210.17V250.254Z" fill="white"></path><defs><linearGradient id="paint0_linear_503_3" x1="43.0939" y1="94.6489" x2="43.0939" y2="220.37" gradientUnits="userSpaceOnUse"><stop stop-color="#003C50"></stop><stop offset="0.45098" stop-color="#7F1E28"></stop><stop offset="1" stop-color="#FF0000"></stop></linearGradient></defs></svg> 