<svg width="326" height="41" viewBox="0 0 326 41" fill="none" xmlns="http://www.w3.org/2000/svg">
<path d="M23.368 2.774H31.878L8.51 41H0L23.368 2.774Z" fill="#060606"/>
<path d="M69.0985 2.774L52.4005 21.864L69.0985 41H58.9325L44.6265 24.624L44.3965 41H36.7605V2.774H44.3965V12.802L47.6625 16.528L59.3465 2.774H69.0985Z" fill="#060606"/>
<path d="M91.4358 13.63L86.2838 25.728L98.7958 30.65L91.4358 13.63ZM111.446 41H103.166L83.0178 33.364L79.7518 41H71.4258L87.8018 2.774H95.1158L111.446 41Z" fill="#060606"/>
<path d="M121.147 33.548H140.559V41H113.787V2.774H121.147V33.548Z" fill="#060606"/>
<path d="M150.578 41H142.896V2.774H150.486L162.032 22.692L173.578 2.774H181.122V41H173.486V18.184L166.448 30.374L172.658 41H163.826L162.032 37.964L160.238 41H151.406L157.616 30.374L150.578 18.184V41Z" fill="#060606"/>
<path d="M203.471 13.63L198.319 25.728L210.831 30.65L203.471 13.63ZM223.481 41H215.201L195.053 33.364L191.787 41H183.461L199.837 2.774H207.151L223.481 41Z" fill="#060606"/>
<path d="M243.946 21.91H244.176C247.304 21.91 249.88 19.288 249.88 16.16C249.88 13.032 247.304 10.41 244.176 10.41H235.298L243.946 21.91ZM249.098 28.626L258.436 41H248.868L240.174 29.546H233.458V41H225.822V21.91H234.378L225.822 10.548V2.774H244.176C251.536 2.774 257.562 8.754 257.562 16.16C257.562 21.634 254.158 26.74 249.098 28.626Z" fill="#060606"/>
<path d="M276.043 41C268.269 41 260.771 36.584 260.771 29.546V28.81H268.407V29.546C268.407 31.8 272.593 33.364 276.043 33.364C278.481 33.364 281.195 32.766 282.989 31.018L260.771 14.182V12.25C260.771 5.304 268.039 0.75 276.043 0.75C283.863 0.75 291.315 5.258 291.315 12.25V12.986H283.679V12.25C283.679 9.996 279.447 8.432 276.043 8.432C273.651 8.432 270.845 9.076 269.097 10.778L291.315 27.614V29.546C291.315 36.446 284.047 41 276.043 41Z" fill="#060606"/>
<path d="M317.022 2.774H325.532L302.164 41H293.654L317.022 2.774Z" fill="#060606"/>
</svg>
