<svg id="Layer_1" data-name="Layer 1" xmlns="http://www.w3.org/2000/svg" xmlns:xlink="http://www.w3.org/1999/xlink" viewBox="0 0 410.52 414.27">
    <defs>
        <style>.cls-1{fill:url(#linear-gradient);}</style>
        <linearGradient id="linear-gradient" x1="197.16" y1="323.84" x2="611.73" y2="323.84" gradientUnits="userSpaceOnUse">
            <stop offset="0" stop-color="#2fc7e5"/>
            <stop offset="0.99" stop-color="#0e866c"/>
        </linearGradient>
    </defs>
    <path class="cls-1"
          d="M609,324.19a210.05,210.05,0,0,1-3.81,39.94,212.5,212.5,0,0,1-11.29,38.54,206.7,206.7,0,0,1-43.7,67.3,201.11,201.11,0,0,1-31,26.06c-2.84,1.83-5.63,3.74-8.52,5.51s-5.8,3.47-8.78,5.08L497.45,509c-1.52.76-3,1.61-4.54,2.28l-4.62,2.11c-1.55.68-3.06,1.45-4.65,2A201.78,201.78,0,0,1,404.45,531a205,205,0,0,1-114.18-35.9,210.43,210.43,0,0,1-75.52-92.31l-1.87-4.68c-.61-1.56-1.29-3.1-1.8-4.7l-1.64-4.77c-.53-1.59-1.14-3.16-1.57-4.79L206.45,379c-.45-1.62-1-3.21-1.35-4.86l-1.17-4.9c-.37-1.64-.85-3.26-1.12-4.92a208.53,208.53,0,0,1-4.29-40.11,204.68,204.68,0,0,1,15-79.1A205.65,205.65,0,0,1,483.74,132.77a202.06,202.06,0,0,1,66.55,45.57A207.07,207.07,0,0,1,594,245.69,211.09,211.09,0,0,1,609,324.19Zm-.6,0a204.19,204.19,0,0,0-4-39.77,196.4,196.4,0,0,0-12-38.1,202.42,202.42,0,0,0-44.93-65.18,208.44,208.44,0,0,0-31-24.71c-2.81-1.73-5.57-3.54-8.42-5.21s-5.73-3.27-8.66-4.78L495,144.21c-1.48-.72-2.92-1.53-4.44-2.16l-4.52-2c-1.52-.65-3-1.38-4.55-1.94a206.18,206.18,0,0,0-37.81-11.26,203,203,0,0,0-39.26-3.73,203,203,0,0,0-77,15.21A202.09,202.09,0,0,0,262,181.73a204.48,204.48,0,0,0-44.1,65.19,206.69,206.69,0,0,0-11.8,37.81,204.14,204.14,0,0,0-4.28,39.46A199.74,199.74,0,0,0,365,522.5,207.21,207.21,0,0,0,404.45,526a207.46,207.46,0,0,0,77.17-15.46c1.55-.57,3-1.3,4.54-2l4.52-2c1.53-.64,3-1.46,4.44-2.18l4.42-2.24c2.93-1.52,5.77-3.21,8.66-4.81s5.6-3.49,8.41-5.23a209.9,209.9,0,0,0,30.95-24.76,203,203,0,0,0,44.92-65.24A195.65,195.65,0,0,0,604.41,364,203.57,203.57,0,0,0,608.43,324.19Z"
          transform="translate(-198.51 -116.71)"/>
</svg>