<svg width="36" height="26" viewBox="0 0 36 26" fill="none" xmlns="http://www.w3.org/2000/svg">
<path d="M3.14414 1H32.2432L33.4685 2.23077L35 4.07692V22.5385L33.7748 23.7692L32.2432 25H3.14414L1.91892 23.7692L1 22.5385V3.76923L2.22523 2.23077L3.14414 1Z" fill="url(#paint0_linear_337_252)"/>
<path d="M2.22523 2.23077L1 3.76923V22.5385L1.91892 23.7692M2.22523 2.23077L3.14414 1H32.2432L33.4685 2.23077M2.22523 2.23077L13.5586 12.0615M33.4685 2.23077L35 4.07692C35 11.0463 35 15.5691 35 22.5385L33.7748 23.7692M33.4685 2.23077L22.1351 11.7337M33.7748 23.7692L32.2432 25H3.14414L1.91892 23.7692M33.7748 23.7692L22.1351 11.7337M22.1351 11.7337C22.1351 11.7337 17.8468 15.4615 17.5405 15.4615C17.2342 15.4615 13.5586 12.0615 13.5586 12.0615M1.91892 23.7692L13.5586 12.0615" stroke="black" stroke-width="2"/>
<defs>
<linearGradient id="paint0_linear_337_252" x1="18.1532" y1="0.384615" x2="18.1532" y2="25" gradientUnits="userSpaceOnUse">
<stop stop-color="#3BC4E2"/>
<stop offset="1" stop-color="#0E866C"/>
</linearGradient>
</defs>
</svg>
