<svg width="25" height="25" viewBox="0 0 25 25" fill="none" xmlns="http://www.w3.org/2000/svg">
<path d="M9.83478 6.03415C10.2572 4.98536 6.2431 1.41947 5.18655 1.20972C4.12999 0.999962 2.04153 2.61764 1.38345 4.35609C0.889995 5.65964 0.934404 6.33984 1.17237 7.71222C1.35423 8.76101 2.48703 11.6818 4.13043 14.005C5.77383 16.3281 9.4125 19.6684 9.4125 19.6684C9.4125 19.6684 13.8711 23.446 17.4411 23.8636C18.4245 23.9787 19.016 24.102 19.9765 23.8636C22.0142 23.3579 23.7796 21.3466 23.9911 20.2978C24.2025 19.249 20.6102 15.4732 19.3425 15.4733C18.0748 15.4734 16.8071 17.5708 15.7507 17.7806C14.6943 17.9904 12.7089 16.9479 10.8912 14.844C9.20953 12.8975 7.08796 10.6488 7.29938 9.39028C7.5108 8.13177 9.41235 7.08294 9.83478 6.03415Z" fill="url(#paint0_linear_337_251)"/>
<path d="M13.2155 5.40492C16.7379 7.08904 18.1784 8.52082 19.7653 11.9074M13.4268 1C18.8103 3.65597 21.2367 5.97374 23.991 11.6977M5.18655 1.20972C6.2431 1.41947 10.2572 4.98536 9.83478 6.03415C9.41235 7.08294 7.5108 8.13177 7.29938 9.39028C7.08796 10.6488 9.20953 12.8975 10.8912 14.844C12.7089 16.9479 14.6943 17.9904 15.7507 17.7806C16.8071 17.5708 18.0748 15.4734 19.3425 15.4733C20.6102 15.4732 24.2025 19.249 23.9911 20.2978C23.7796 21.3466 22.0142 23.3579 19.9765 23.8636C19.016 24.102 18.4245 23.9787 17.4411 23.8636C13.8711 23.446 9.4125 19.6684 9.4125 19.6684C9.4125 19.6684 5.77383 16.3281 4.13043 14.005C2.48703 11.6818 1.35423 8.76101 1.17237 7.71222C0.934404 6.33984 0.889995 5.65964 1.38345 4.35609C2.04153 2.61764 4.12999 0.999962 5.18655 1.20972Z" stroke="url(#paint1_linear_337_251)" stroke-width="2" stroke-linecap="round"/>
<defs>
<linearGradient id="paint0_linear_337_251" x1="2.65106" y1="2.67806" x2="22.3633" y2="23.1674" gradientUnits="userSpaceOnUse">
<stop stop-color="#3BC4E2"/>
<stop offset="1" stop-color="#16866C"/>
</linearGradient>
<linearGradient id="paint1_linear_337_251" x1="2.43978" y1="3.09758" x2="22.3693" y2="22.7494" gradientUnits="userSpaceOnUse">
<stop stop-color="#3BC4E2"/>
<stop offset="1" stop-color="#16866C"/>
</linearGradient>
</defs>
</svg>
