<svg width="211" height="60" viewBox="0 0 211 60" fill="none" xmlns="http://www.w3.org/2000/svg">
<path d="M0 60V21.5281L177.255 0V38.4893L0 60ZM3.69391 24.7536V55.8585L173.565 35.2464V4.16323L3.69391 24.7536Z" fill="#15ABC9"/>
<path d="M14.3136 51.1952L9.50695 51.7647L6.66669 27.8903L11.4733 27.3251L12.2205 33.5774L14.5495 35.66L20.8243 26.2163L26.9418 25.4902L17.8923 38.6514L29.8039 49.3603L23.4243 50.1169L13.0682 40.8254L14.3136 51.1952Z" fill="#15ABC9"/>
<path d="M56.4706 46.0678L51.2808 46.679L38.0945 43.4234L36.6104 48.4087L31.3726 49.02L38.7928 24.0717L43.3891 23.5298L56.4706 46.0678ZM41.905 30.5439L39.5742 38.4381L47.7714 40.5839L41.905 30.5439Z" fill="#15ABC9"/>
<path d="M81.0752 43.3523L76.2283 43.9218L73.3334 20.0896L78.1274 19.5244L86.9399 31.0971L92.7562 17.829L97.5149 17.2551L100.392 41.0873L95.5453 41.6525L93.8269 27.4323L90.3019 35.5271L95.0386 41.7394L89.4515 42.3915L88.0899 40.6091L87.2087 42.6567L81.626 43.3088L84.7368 36.1835L79.3567 29.1321L81.0752 43.3523Z" fill="#15ABC9"/>
<path d="M127.451 37.4406L122.261 38.0518L109.075 34.801L107.591 39.7768L102.353 40.3923L109.773 15.4742L114.356 14.9021L127.451 37.4406ZM112.877 21.9237L110.546 29.8079L118.747 31.9317L112.877 21.9237Z" fill="#15ABC9"/>
<path d="M142.654 27.8724L149.412 34.8671L143.455 35.5709L137.209 29.0943L133.015 29.5908L133.882 36.6935L129.116 37.2548L127.691 25.4199L133.028 24.7852L126.851 18.395L126.275 13.5678L137.689 12.2163C139.629 11.9843 141.589 12.4346 143.23 13.4894C144.872 14.5442 146.093 16.1374 146.681 17.9938C147.27 19.8501 147.19 21.8531 146.454 23.6567C145.719 25.4603 144.375 26.9514 142.654 27.8724ZM138.98 24.0987H139.106C140.055 23.9842 140.919 23.4986 141.509 22.7488C142.099 21.999 142.366 21.0463 142.251 20.1005C142.136 19.1546 141.649 18.2929 140.897 17.7051C140.144 17.1172 139.189 16.8513 138.24 16.9658L132.734 17.6048L138.98 24.0987Z" fill="#15ABC9"/>
<path d="M161.724 33.6401C156.817 34.1873 151.702 32.0818 151.172 27.8533L151.115 27.4156L155.973 26.8684L156.03 27.3061C156.198 28.6456 158.99 29.2978 161.163 29.0571C162.704 28.8864 164.387 28.3348 165.385 27.1354L150.015 18.6259L149.847 17.466C149.326 13.2988 153.61 10.0683 158.681 9.49926C163.649 8.93897 168.707 11.0882 169.232 15.2861L169.29 15.7238L164.431 16.2666L164.374 15.8288C164.206 14.4894 161.415 13.8372 159.246 14.0779C157.735 14.2486 155.991 14.8352 155.019 16.0039L170.403 24.5134L170.548 25.6734C171.048 29.81 166.79 33.0667 161.724 33.6401Z" fill="#15ABC9"/>
<path d="M74.902 43.9515L74.3117 39.2114L62.7648 40.5725L60.4825 21.5686L55.6863 22.1339L58.5413 45.8823L74.902 43.9515Z" fill="#15ABC9"/>
<path d="M148.732 53.15L147.416 54.522V57H145.162V47.2H147.416V51.778L151.756 47.2H154.276L150.216 51.568L154.514 57H151.868L148.732 53.15ZM159.518 53.528V57H157.25V53.5L153.456 47.2H155.864L158.482 51.554L161.1 47.2H163.326L159.518 53.528ZM168.541 57.168C167.543 57.168 166.637 56.9533 165.825 56.524C165.023 56.0853 164.388 55.4833 163.921 54.718C163.464 53.9433 163.235 53.0707 163.235 52.1C163.235 51.1293 163.464 50.2613 163.921 49.496C164.388 48.7213 165.023 48.1193 165.825 47.69C166.637 47.2513 167.547 47.032 168.555 47.032C169.405 47.032 170.17 47.1813 170.851 47.48C171.542 47.7787 172.121 48.208 172.587 48.768L171.131 50.112C170.469 49.3467 169.647 48.964 168.667 48.964C168.061 48.964 167.519 49.0993 167.043 49.37C166.567 49.6313 166.194 50 165.923 50.476C165.662 50.952 165.531 51.4933 165.531 52.1C165.531 52.7067 165.662 53.248 165.923 53.724C166.194 54.2 166.567 54.5733 167.043 54.844C167.519 55.1053 168.061 55.236 168.667 55.236C169.647 55.236 170.469 54.8487 171.131 54.074L172.587 55.418C172.121 55.9873 171.542 56.4213 170.851 56.72C170.161 57.0187 169.391 57.168 168.541 57.168ZM184.328 57L182.438 54.27H182.326H180.352V57H178.084V47.2H182.326C183.194 47.2 183.945 47.3447 184.58 47.634C185.224 47.9233 185.719 48.334 186.064 48.866C186.409 49.398 186.582 50.028 186.582 50.756C186.582 51.484 186.405 52.114 186.05 52.646C185.705 53.1687 185.21 53.57 184.566 53.85L186.764 57H184.328ZM184.286 50.756C184.286 50.2053 184.109 49.7853 183.754 49.496C183.399 49.1973 182.881 49.048 182.2 49.048H180.352V52.464H182.2C182.881 52.464 183.399 52.3147 183.754 52.016C184.109 51.7173 184.286 51.2973 184.286 50.756ZM188.379 47.2H190.647V57H188.379V47.2ZM187.413 44.778H191.613V46.01H187.413V44.778ZM196.543 53.15L195.227 54.522V57H192.973V47.2H195.227V51.778L199.567 47.2H202.087L198.027 51.568L202.325 57H199.679L196.543 53.15ZM206.351 57.168C205.576 57.168 204.825 57.0653 204.097 56.86C203.378 56.6453 202.799 56.37 202.361 56.034L203.131 54.326C203.551 54.634 204.05 54.8813 204.629 55.068C205.207 55.2547 205.786 55.348 206.365 55.348C207.009 55.348 207.485 55.2547 207.793 55.068C208.101 54.872 208.255 54.6153 208.255 54.298C208.255 54.0647 208.161 53.8733 207.975 53.724C207.797 53.5653 207.564 53.4393 207.275 53.346C206.995 53.2527 206.612 53.15 206.127 53.038C205.38 52.8607 204.769 52.6833 204.293 52.506C203.817 52.3287 203.406 52.044 203.061 51.652C202.725 51.26 202.557 50.7373 202.557 50.084C202.557 49.5147 202.711 49.0013 203.019 48.544C203.327 48.0773 203.789 47.7087 204.405 47.438C205.03 47.1673 205.791 47.032 206.687 47.032C207.312 47.032 207.923 47.1067 208.521 47.256C209.118 47.4053 209.641 47.62 210.089 47.9L209.389 49.622C208.483 49.1087 207.578 48.852 206.673 48.852C206.038 48.852 205.567 48.9547 205.259 49.16C204.96 49.3653 204.811 49.636 204.811 49.972C204.811 50.308 204.983 50.56 205.329 50.728C205.683 50.8867 206.22 51.0453 206.939 51.204C207.685 51.3813 208.297 51.5587 208.773 51.736C209.249 51.9133 209.655 52.1933 209.991 52.576C210.336 52.9587 210.509 53.4767 210.509 54.13C210.509 54.69 210.35 55.2033 210.033 55.67C209.725 56.1273 209.258 56.4913 208.633 56.762C208.007 57.0327 207.247 57.168 206.351 57.168Z" fill="#15ABC9"/>
</svg>
