<?xml version="1.0" encoding="utf-8"?><!-- Uploaded to: SVG Repo, www.svgrepo.com, Generator: SVG Repo Mixer Tools -->
<svg width="800px" height="800px" viewBox="0 0 64 64" xmlns="http://www.w3.org/2000/svg" xmlns:xlink="http://www.w3.org/1999/xlink" aria-hidden="true" role="img" class="iconify iconify--emojione" preserveAspectRatio="xMidYMid meet"><path d="M61.2 39V25C58 11.8 46.2 2 32 2S6 11.8 2.8 25v14C6 52.2 17.8 62 32 62s26-9.8 29.2-23" fill="#c94747"></path><path d="M61.2 39V25C58 11.8 46.2 2 32 2S6 11.8 2.8 25v14C6 52.2 17.8 62 32 62s26-9.8 29.2-23" opacity=".15" fill="#c28fef"></path><path d="M2 32c0 2.4.3 4.8.8 7h58.3c.5-2.2.8-4.6.8-7c0-2.4-.3-4.8-.8-7H2.8c-.5 2.2-.8 4.6-.8 7" fill="#ffffff"></path></svg>