<?xml version="1.0" encoding="UTF-8"?> <svg xmlns="http://www.w3.org/2000/svg" width="160" height="84" viewBox="0 0 160 84" fill="none"><path d="M109.714 52.9946V50.7305H111.88C112.127 50.7305 112.279 50.8648 112.279 51.1334V52.6109C112.279 52.8603 112.146 53.0138 111.88 53.0138H109.714V52.9946ZM108.06 49.138V57.5228H109.714V54.5679H112.298C113.268 54.5679 113.933 53.8964 113.933 52.9179V50.7881C113.933 49.8095 113.268 49.138 112.298 49.138H108.06ZM104.773 55.6041C104.773 55.8535 104.64 56.007 104.373 56.007H102.416C102.169 56.007 102.017 55.8727 102.017 55.6041V51.0759C102.017 50.8265 102.15 50.673 102.416 50.673H104.373C104.621 50.673 104.773 50.8073 104.773 51.0759V55.6041ZM101.998 49.0996C101.029 49.0996 100.363 49.7712 100.363 50.7497V55.9302C100.363 56.9088 101.029 57.5803 101.998 57.5803H104.773C105.742 57.5803 106.407 56.9088 106.407 55.9302V50.7497C106.407 49.7712 105.742 49.0996 104.773 49.0996H101.998ZM92.5526 57.542H94.206V54.0499H97.0757V57.542H98.7291V49.1572H97.0757V52.4765H94.206V49.1572H92.5526V57.542ZM89.2078 51.7283H90.8231V50.7497C90.8231 49.7712 90.158 49.0996 89.1887 49.0996H86.7371C85.7679 49.0996 85.1027 49.7712 85.1027 50.7497V52.1696C85.1027 53.1097 85.8629 53.647 86.7562 53.858L88.9037 54.3185C89.1507 54.3761 89.3028 54.4528 89.3028 54.7214V55.6041C89.3028 55.8535 89.1697 56.007 88.9037 56.007H87.0982C86.8512 56.007 86.6991 55.8727 86.6991 55.6041V54.8558H85.0838V55.9302C85.0838 56.9088 85.7489 57.5803 86.7181 57.5803H89.3218C90.291 57.5803 90.9562 56.9088 90.9562 55.9302V54.4145C90.9562 53.4743 90.196 52.937 89.3028 52.726L87.1553 52.2655C86.9082 52.2079 86.7562 52.1312 86.7562 51.8626V51.0759C86.7562 50.8265 86.8892 50.673 87.1553 50.673H88.8277C89.0747 50.673 89.2268 50.8073 89.2268 51.0759V51.7283H89.2078ZM82.043 52.4574C82.043 52.7068 81.91 52.8603 81.6439 52.8603H79.4774V50.7305H81.6439C81.891 50.7305 82.043 50.8648 82.043 51.1334V52.4574ZM83.9625 57.542L82.5751 54.3569C83.2593 54.165 83.6964 53.5702 83.6964 52.7644V50.7881C83.6964 49.8095 83.0312 49.138 82.062 49.138H77.824V57.5228H79.4774V54.4145H80.8077L82.157 57.5228H83.9625V57.542ZM70.9253 49.138V57.5228H76.3606V55.9302H72.5787V54.0115H75.6385V52.419H72.5787V50.6921H76.3606V49.0996H70.9253V49.138ZM65.0909 55.9686V53.9923H67.1624C67.4855 53.9923 67.6945 54.0115 67.6945 54.3569V55.5657C67.6945 55.8151 67.5615 55.9686 67.2954 55.9686H65.0909ZM65.0909 52.4957V50.6921H67.2194C67.4665 50.6921 67.6185 50.8265 67.6185 51.0951V52.0928C67.6185 52.419 67.5235 52.4957 67.2194 52.4957H65.0909ZM63.4375 49.138V57.5228H67.7325C68.7018 57.5228 69.3669 56.8512 69.3669 55.8727V54.4912C69.3669 53.9923 69.1199 53.5127 68.5497 53.2248C69.0819 52.9179 69.2719 52.4765 69.2719 51.9585V50.7689C69.2719 49.7903 68.6067 49.1188 67.6375 49.1188H63.4375V49.138ZM60.1307 52.4574C60.1307 52.7068 59.9976 52.8603 59.7316 52.8603H57.5841V50.7305H59.7506C59.9976 50.7305 60.1497 50.8648 60.1497 51.1334V52.4574H60.1307ZM62.0501 57.542L60.6628 54.3569C61.347 54.165 61.7841 53.5702 61.7841 52.7644V50.7881C61.7841 49.8095 61.1189 49.138 60.1497 49.138H55.9117V57.5228H57.5651V54.4145H58.9144L60.2447 57.5228H62.0501V57.542ZM51.1605 50.98L52.0347 54.0499H50.2483L51.1605 50.98ZM49.8112 55.6424H52.5098L53.061 57.5228H54.8474L52.1677 49.138H50.2293L47.5496 57.5228H49.279L49.8112 55.6424ZM42.5134 55.9686V53.9923H44.5849C44.908 53.9923 45.117 54.0115 45.117 54.3569V55.5657C45.117 55.8151 44.984 55.9686 44.7179 55.9686H42.5134ZM42.5134 52.4957V50.6921H44.6419C44.889 50.6921 45.041 50.8265 45.041 51.0951V52.0928C45.041 52.419 44.946 52.4957 44.6419 52.4957H42.5134ZM40.86 49.138V57.5228H45.155C46.1243 57.5228 46.7894 56.8512 46.7894 55.8727V54.4912C46.7894 53.9923 46.5424 53.5127 45.9722 53.2248C46.5044 52.9179 46.6944 52.4765 46.6944 51.9585V50.7689C46.6944 49.7903 46.0292 49.1188 45.06 49.1188H40.86V49.138Z" fill="white"></path><path d="M112.793 53.5317C112.659 53.6276 112.488 53.7044 112.298 53.7044H109.106L109.657 53.1479H111.899C112.07 53.1479 112.203 53.1095 112.298 53.0136L112.793 53.5317ZM112.907 50.3082C112.983 50.4425 113.04 50.6152 113.04 50.8071V52.9369C113.04 53.1287 113.002 53.3014 112.907 53.4357L112.393 52.9177C112.431 52.8409 112.45 52.745 112.45 52.6299V51.1525C112.45 51.0373 112.431 50.9414 112.393 50.8647L112.907 50.3082ZM108.212 57.2732V49.3872L108.802 49.982V56.6784L108.212 57.2732ZM108.345 49.3105H112.298C112.697 49.3105 113.059 49.4448 113.306 49.675L112.888 50.0972C112.735 49.9437 112.526 49.8669 112.279 49.8669H108.859L108.345 49.3105ZM105.286 56.5249C105.153 56.6208 104.982 56.6976 104.792 56.6976H102.017C101.827 56.6976 101.656 56.6208 101.523 56.5249L102.036 56.0068C102.131 56.1028 102.264 56.1411 102.435 56.1411H104.392C104.563 56.1411 104.697 56.1028 104.792 56.0068L105.286 56.5249ZM105.381 50.2507C105.457 50.385 105.514 50.5577 105.514 50.7303V55.9109C105.514 56.1028 105.476 56.2754 105.381 56.4097L104.868 55.8917C104.906 55.8149 104.925 55.719 104.925 55.6039V51.0757C104.925 50.9606 104.906 50.8647 104.868 50.7879L105.381 50.2507ZM101.124 55.9301C101.124 56.1603 101.2 56.3522 101.314 56.5249L100.896 56.947C100.668 56.6976 100.535 56.3522 100.535 55.9301V50.7495C100.535 50.3274 100.668 50.0012 100.896 49.7326L101.314 50.1547C101.2 50.3082 101.124 50.5193 101.124 50.7495V55.9301ZM104.792 49.2529C105.191 49.2529 105.552 49.3872 105.799 49.6175L105.381 50.0396C105.229 49.8861 105.02 49.8094 104.773 49.8094H101.998C101.751 49.8094 101.542 49.8861 101.39 50.0396L100.972 49.6175C101.219 49.3872 101.58 49.2529 101.979 49.2529H104.792ZM97.2277 57.2732V53.9922L97.8169 53.3974V56.6784L97.2277 57.2732ZM94.149 52.6107H97.1517L97.7028 53.1671H93.6168L94.149 52.6107ZM97.2277 52.4956V49.4064L97.8169 50.0012V53.0904L97.2277 52.4956ZM92.7046 57.2732V49.3872L93.2938 49.982V56.6784L92.7046 57.2732ZM98.444 49.3105L97.8929 49.8669L97.3417 49.3105H98.444ZM93.9209 49.3105L93.3698 49.8669L92.8376 49.3105H93.9209ZM89.8159 56.5249C89.6829 56.6208 89.5118 56.6976 89.3218 56.6976H86.6992C86.5091 56.6976 86.3381 56.6208 86.205 56.5249L86.7182 56.0068C86.8132 56.1028 86.9462 56.1411 87.1172 56.1411H88.9227C89.0937 56.1411 89.2268 56.1028 89.3218 56.0068L89.8159 56.5249ZM85.2548 55.1242L85.8439 55.719V55.9109C85.8439 56.1411 85.92 56.333 86.034 56.5057L85.6159 56.9278C85.3878 56.6784 85.2548 56.333 85.2548 55.9109V55.1242ZM86.4521 55.0091L85.901 55.5655L85.3498 55.0091H86.4521ZM89.7969 53.9346C89.9679 54.1073 90.044 54.3375 90.044 54.7213V55.9301C90.044 56.1219 90.006 56.2946 89.9109 56.4289L89.3978 55.9109C89.4358 55.8341 89.4548 55.7382 89.4548 55.6231V54.7405C89.4548 54.6061 89.4168 54.491 89.3598 54.3951L89.7969 53.9346ZM89.7969 53.7044C89.6449 53.5892 89.4738 53.5125 89.3028 53.4741L87.1553 53.0136C86.8322 52.9369 86.5851 52.8793 86.3951 52.745L86.8132 52.3229C86.8892 52.3613 87.0032 52.3996 87.1553 52.438L89.3028 52.8985C89.6449 52.9752 89.9489 53.1095 90.215 53.3014L89.7969 53.7044ZM89.9679 50.8838L89.3788 51.4786V51.0757C89.3788 50.9606 89.3598 50.8647 89.3218 50.7879L89.8349 50.2698C89.9109 50.4042 89.9679 50.5768 89.9679 50.7687V50.8838ZM85.8439 52.1502C85.8439 52.3804 85.958 52.5915 86.148 52.7642L85.7299 53.1863C85.4448 52.9369 85.2548 52.5723 85.2548 52.1694V50.7495C85.2548 50.3274 85.3878 50.0012 85.6159 49.7326L86.034 50.1547C85.92 50.3082 85.8439 50.5193 85.8439 50.7495V52.1502ZM89.1888 49.2529C89.5878 49.2529 89.9489 49.3872 90.196 49.6175L89.7779 50.0396C89.6259 49.8861 89.4168 49.8094 89.1698 49.8094H86.7562C86.5091 49.8094 86.3 49.8861 86.148 50.0396L85.7299 49.6175C85.977 49.3872 86.3381 49.2529 86.7372 49.2529H89.1888ZM82.2331 57.2732L80.9788 54.3759L81.4539 53.8962L82.7082 56.7935L82.2331 57.2732ZM82.5561 53.3974C82.4231 53.4933 82.2521 53.57 82.062 53.57H78.8692L79.4204 53.0136H81.6439C81.815 53.0136 81.948 52.9752 82.043 52.8793L82.5561 53.3974ZM82.6702 50.3082C82.7462 50.4425 82.8032 50.6152 82.8032 50.8071V52.8026C82.8032 52.9944 82.7652 53.1671 82.6702 53.3014L82.157 52.7834C82.195 52.7066 82.2141 52.6107 82.2141 52.4956V51.1525C82.2141 51.0373 82.195 50.9414 82.157 50.8647L82.6702 50.3082ZM77.995 57.2732V49.3872L78.5842 49.982V56.6784L77.995 57.2732ZM78.1091 49.3105H82.062C82.4611 49.3105 82.8222 49.4448 83.0693 49.675L82.6702 50.078C82.5181 49.9245 82.3091 49.8477 82.062 49.8477H78.6412L78.1091 49.3105ZM72.5217 56.1028H76.0756L75.5244 56.6592H71.9706L72.5217 56.1028ZM72.5217 52.6107H75.3534L74.8023 53.1671H71.9706L72.5217 52.6107ZM71.0773 57.2732V49.3872L71.6665 49.982V56.6784L71.0773 57.2732ZM71.2104 49.3105H76.0756L75.5244 49.8669H71.7425L71.2104 49.3105ZM68.2267 56.5057C68.0936 56.6016 67.9226 56.6784 67.7325 56.6784H64.4827L65.0339 56.1219H67.3144C67.4855 56.1219 67.6185 56.0836 67.7135 55.9876L68.2267 56.5057ZM68.3217 53.5509C68.3977 53.6852 68.4547 53.8579 68.4547 54.0497V55.9109C68.4547 56.1028 68.4167 56.2754 68.3217 56.4097L67.8085 55.8917C67.8466 55.8149 67.8656 55.719 67.8656 55.6039V54.3951C67.8656 54.28 67.8466 54.184 67.8085 54.1073L68.3217 53.5509ZM68.0746 52.9944C67.9416 53.1287 67.8276 53.2247 67.6185 53.2247H64.4637L65.0149 52.6682H67.2004C67.3714 52.6682 67.5045 52.6299 67.5995 52.5339L68.0746 52.9944ZM68.2267 50.289C68.3027 50.4233 68.3597 50.596 68.3597 50.7879V52.3804C68.3597 52.6107 68.2647 52.745 68.1886 52.8793L67.7135 52.3996C67.7515 52.3229 67.7705 52.2269 67.7705 52.1118V51.1141C67.7705 50.999 67.7515 50.903 67.7135 50.8263L68.2267 50.289ZM63.5895 57.2732V49.3872L64.1787 49.982V56.6784L63.5895 57.2732ZM63.7226 49.3105H67.6375C68.0366 49.3105 68.3977 49.4448 68.6448 49.675L68.2267 50.078C68.0746 49.9245 67.8656 49.8477 67.6185 49.8477H64.2547L63.7226 49.3105ZM60.3397 57.2732L59.0854 54.3759L59.5605 53.8962L60.8148 56.7935L60.3397 57.2732ZM60.6628 53.3974C60.5298 53.4933 60.3587 53.57 60.1687 53.57H56.9759L57.527 53.0136H59.7506C59.9216 53.0136 60.0547 52.9752 60.1497 52.8793L60.6628 53.3974ZM60.7578 50.3082C60.8339 50.4425 60.8909 50.6152 60.8909 50.8071V52.8026C60.8909 52.9944 60.8529 53.1671 60.7578 53.3014L60.2447 52.7642C60.2827 52.6874 60.3017 52.5915 60.3017 52.4764V51.1333C60.3017 51.0181 60.2827 50.9222 60.2447 50.8455L60.7578 50.3082ZM56.0827 57.2732V49.3872L56.6718 49.982V56.6784L56.0827 57.2732ZM56.2157 49.3105H60.1687C60.5678 49.3105 60.9289 49.4448 61.1759 49.675L60.7578 50.0972C60.6058 49.9437 60.3967 49.8669 60.1497 49.8669H56.7289L56.2157 49.3105ZM53.137 57.2732L52.6429 55.5655L53.137 55.0858L53.6501 56.6976L53.137 57.2732ZM50.1913 54.2224H52.1107L52.6619 54.7788H49.6591L50.1913 54.2224ZM51.5786 50.0972L53.099 54.9899L52.2248 54.1073L51.2365 50.6152L51.5786 50.0972ZM47.7777 57.2732L50.2863 49.3872L50.6664 49.9245L48.4998 56.6784L47.7777 57.2732ZM51.5786 49.8477H50.7994L50.4193 49.3105H51.9587L51.5786 49.8477ZM45.6492 56.5057C45.5161 56.6016 45.3451 56.6784 45.155 56.6784H41.9052L42.4564 56.1219H44.7369C44.908 56.1219 45.041 56.0836 45.136 55.9876L45.6492 56.5057ZM45.7442 53.5509C45.8202 53.6852 45.8772 53.8579 45.8772 54.0497V55.9109C45.8772 56.1028 45.8392 56.2754 45.7442 56.4097L45.2311 55.8917C45.2691 55.8149 45.2881 55.719 45.2881 55.6039V54.3951C45.2881 54.28 45.2691 54.184 45.2311 54.1073L45.7442 53.5509ZM45.5161 52.9944C45.3831 53.1287 45.2691 53.2247 45.06 53.2247H41.9052L42.4564 52.6682H44.6419C44.8129 52.6682 44.946 52.6299 45.041 52.5339L45.5161 52.9944ZM45.6682 50.289C45.7442 50.4233 45.8012 50.596 45.8012 50.7879V52.3804C45.8012 52.6107 45.7062 52.745 45.6301 52.8793L45.155 52.3996C45.193 52.3229 45.212 52.2269 45.212 52.1118V51.1141C45.212 50.999 45.193 50.903 45.155 50.8263L45.6682 50.289ZM41.012 57.2732V49.3872L41.6012 49.982V56.6784L41.012 57.2732ZM41.1451 49.3105H45.06C45.4591 49.3105 45.8202 49.4448 46.0673 49.675L45.6492 50.0972C45.4971 49.9437 45.2881 49.8669 45.041 49.8669H41.6772L41.1451 49.3105Z" fill="#978D8D"></path><path d="M144.397 52.3422L146.355 55.4314L149.548 53.3592L148.787 52.1696L152.797 51.9777L152.018 50.7305L149.471 50.5387C148.464 50.4427 147.381 50.4043 146.735 50.8073L144.397 52.3422ZM140.406 44.418L142.858 47.1425L144.473 45.6459C146.089 44.1493 146.184 42.0004 144.701 40.3695L140.976 36.2634C139.494 34.6325 137.366 34.5366 135.75 36.0332L133.413 38.1821C131.873 39.602 132.139 41.7126 133.165 43.5353L135.655 47.8525C135.94 48.3705 136.016 48.7159 135.598 49.1188L134.135 50.4619C133.717 50.8456 133.28 50.8265 132.88 50.4043L130.144 47.3728C129.764 46.9507 129.783 46.5094 130.201 46.1064L131.436 44.9744L128.984 42.2498L127.217 43.8807C125.602 45.3773 125.507 47.5263 126.989 49.1572L130.923 53.4935C132.405 55.1244 134.534 55.2203 136.149 53.7237L138.639 51.4213C140.178 50.0014 139.912 47.8908 138.886 46.0681L136.396 41.7509C136.111 41.2329 136.035 40.8875 136.453 40.4846L137.765 39.2758C138.183 38.8921 138.62 38.9112 139.019 39.3334L141.547 42.1347C141.927 42.5568 141.908 42.9981 141.49 43.401L140.406 44.418ZM125.374 32.637C125.051 33.1167 124.613 33.1935 124.138 32.8865L120.128 30.1235L122.789 26.1326L126.818 28.8764C127.293 29.2025 127.369 29.6438 127.065 30.1235L125.374 32.637ZM122.637 44.5523L124.024 36.839C125.564 37.3571 127.122 36.8007 128.11 35.3232L130.562 31.6393C131.778 29.8165 131.379 27.6868 129.574 26.4588L121.649 21.0672L111.177 36.7431L114.275 38.8537L118.171 33.04L120.679 34.7476L119.292 42.269L122.637 44.5523ZM103.271 13.2005L96.6956 30.9102L108.174 35.2465L109.41 31.9079L101.447 28.8955L102.948 24.8662L109.41 27.303L110.645 23.9644L104.183 21.5277L105.533 17.8821L113.496 20.8945L114.731 17.5559L103.271 13.2005ZM78.8122 28.1089L82.5371 28.5694L83.4874 20.741L89.8919 21.5277L88.9417 29.356L92.6666 29.8165L94.9472 11.0323L91.2223 10.591L90.329 17.9972L83.9245 17.2106L84.8177 9.80433L81.0928 9.34384L78.8122 28.1089ZM74.2701 12.7592L73.852 9.26709L60.4158 10.8596L60.8339 14.3517L65.699 13.7761L67.4855 29.0682L71.2104 28.6269L69.424 13.3348L74.2701 12.7592ZM55.6836 27.0536C55.8736 27.5908 55.6836 27.9937 55.1325 28.1856L50.9705 29.6247C50.4383 29.8165 50.0392 29.6247 49.8492 29.0682L46.5614 19.4363C46.3713 18.8799 46.5614 18.4961 47.1125 18.3042L51.2745 16.8652C51.8067 16.6733 52.2058 16.8652 52.3958 17.4216L55.6836 27.0536ZM45.079 15.2151C43.0075 15.925 42.0763 17.8629 42.7795 19.9543L46.5234 30.9869C47.2265 33.0783 49.146 34.0185 51.2175 33.3086L57.147 31.2556C59.2185 30.5456 60.1497 28.6077 59.4465 26.5163L55.7026 15.4837C54.9994 13.3923 53.08 12.4522 51.0085 13.1621L45.079 15.2151ZM35.5007 28.1856C35.8048 28.6653 35.7097 29.1066 35.2346 29.4136L31.1296 32.0422L28.583 27.9746L32.688 25.3459C33.1631 25.0389 33.6002 25.1349 33.9043 25.6145L35.5007 28.1856ZM45.212 35.4959L38.7695 31.1404C39.8527 29.9125 39.9668 28.2432 39.0165 26.7466L36.66 23.0051C35.4817 21.1439 33.4102 20.6643 31.5667 21.8539L23.5088 27.0152L33.5432 42.9789L36.698 40.9451L32.9731 35.0162L35.5387 33.3853L41.8102 37.6833L45.212 35.4959ZM21.6083 49.9439L18.3585 46.9123L21.5323 43.4394C22.0264 42.9022 22.3875 42.5952 22.9576 43.1132L24.9531 44.9552C25.3712 45.3389 25.3902 45.7994 25.0101 46.2215L21.6083 49.9439ZM15.9069 44.629L12.9612 41.8853L16.211 38.3356C16.5911 37.9135 17.0472 37.8943 17.4653 38.2781L19.1187 39.813C19.6508 40.3119 19.6318 40.5805 19.1757 41.0794L15.9069 44.629ZM7.84894 42.2882L21.6273 55.1052L28.1839 47.91C29.6663 46.2791 29.5712 44.1301 27.9748 42.6335L25.7133 40.5421C24.8961 39.7747 23.7368 39.4485 22.3875 39.9857C22.6726 38.6234 22.2545 37.6065 21.4373 36.839L19.4798 35.0162C17.8644 33.5196 15.7359 33.6156 14.2535 35.2273L7.84894 42.2882Z" fill="white"></path><path d="M145.119 52.304L147.267 50.9225L146.887 52.7069L145.119 52.304ZM148.939 53.0523L147.248 52.6877L147.438 51.8435L148.35 52.0929L148.939 53.0523ZM151.638 50.9609L151.353 51.2487L147.533 51.383L147.647 50.8458C148.141 50.7882 149.3 50.8266 149.7 50.865L151.638 50.9609ZM151.619 51.383L151.885 51.1144L152.17 51.5557L151.619 51.383ZM133.413 52.7453C133.051 52.6877 132.671 52.5151 132.367 52.1697L128.357 47.7375C128.053 47.4113 127.901 47.0083 127.882 46.6438L129.498 46.7205C129.479 47.0083 129.612 47.3153 129.878 47.6031L132.614 50.6347C132.88 50.9225 133.165 51.0952 133.451 51.0952L133.413 52.7453ZM128.775 42.9599L128.699 44.8594L128.376 45.1664C127.996 45.5117 127.768 45.9339 127.673 46.3752L126.343 46.3176C126.419 45.5309 126.78 44.821 127.464 44.1686L128.775 42.9599ZM130.79 44.7826L129.06 44.7059L129.136 42.9599L130.79 44.7826ZM137.67 48.7544C137.67 49.2916 137.404 49.7905 136.776 50.3661L134.781 52.2081C134.477 52.4959 134.116 52.6877 133.774 52.7453L133.85 51.076C134.04 51.0185 134.23 50.9033 134.42 50.7307L135.883 49.3876C136.111 49.1765 136.244 48.9463 136.282 48.6968L137.67 48.7544ZM138.031 48.4282C137.993 48.0061 137.86 47.584 137.651 47.2386L135.161 42.9215C134.781 42.2691 134.515 41.7319 134.439 41.233L135.807 41.2906C135.845 41.5016 135.978 41.7511 136.13 42.0389L138.62 46.356C139.019 47.0275 139.266 47.7566 139.361 48.4858L138.031 48.4282ZM142.934 44.3797L141.052 44.303L141.699 43.7082C141.889 43.5355 142.003 43.3436 142.098 43.1709L143.751 43.2477C143.656 43.5738 143.447 43.9192 143.143 44.207L142.934 44.3797ZM134.572 39.4294C134.192 39.7748 134.021 40.2928 134.021 40.8493L132.69 40.7917C132.69 39.9283 132.975 39.084 133.66 38.4317L135.978 36.2827C136.662 35.6495 137.423 35.3425 138.202 35.3425L138.145 36.6856C137.708 36.7432 137.27 36.9159 136.89 37.2805L134.572 39.4294ZM144.435 40.619C145.043 41.2906 145.385 42.0964 145.385 42.8831L144.055 42.8255C144.074 42.3459 143.903 41.8662 143.523 41.4633L139.855 37.4148C139.494 37.0118 139.038 36.7816 138.563 36.7624L138.62 35.4193C139.399 35.496 140.14 35.899 140.767 36.5705L144.435 40.619ZM119.729 41.8854L121.003 34.9012L122.485 34.6134L121.212 41.5976L119.729 41.8854ZM125.184 35.0356C124.822 35.0739 124.404 34.978 124.043 34.7286L118.095 30.6801L119.786 30.3539L123.948 33.1936C124.271 33.4238 124.594 33.5006 124.879 33.443L125.184 35.0356ZM129.232 29.3945C129.232 29.7399 129.098 30.1236 128.851 30.469L126.381 34.2105C126.153 34.5559 125.849 34.8245 125.526 34.9588L125.203 33.3087C125.374 33.1936 125.526 33.0593 125.678 32.829L127.35 30.3155C127.502 30.1045 127.578 29.8934 127.597 29.7015L129.232 29.3945ZM111.804 36.4746L121.649 21.758L122.01 23.6192L113.648 36.1292L111.804 36.4746ZM121.991 21.7388L129.384 26.7851C130.144 27.3031 130.638 27.9939 130.828 28.7613L129.536 29.0108C129.441 28.5311 129.156 28.1282 128.699 27.802L122.314 23.4465L121.991 21.7388ZM101.162 29.1835L108.669 32.0232L107.091 32.7523L99.5843 29.8934L101.162 29.1835ZM103.898 21.7964L109.885 24.0605L108.307 24.7896L102.321 22.5255L103.898 21.7964ZM97.2277 30.4882L103.404 13.8529L104.183 15.5798L98.9381 29.7015L97.2277 30.4882ZM103.746 13.7762L114.009 17.652L112.431 18.3811L104.468 15.3495L103.746 13.7762ZM89.3788 28.8381L90.272 21.5086L91.7544 20.3382L90.8612 27.6677L89.3788 28.8381ZM83.7154 17.556L90.4241 18.3811L91.4883 19.7626L82.3471 18.6305L83.7154 17.556ZM90.6711 18.1125L91.5073 11.2051L92.6666 12.7017L91.8304 19.6091L90.6711 18.1125ZM79.2493 27.5909L81.3779 9.95793L82.5371 11.4545L80.7317 26.4205L79.2493 27.5909ZM94.244 11.3202L92.8757 12.3947L91.8114 11.0132L94.244 11.3202ZM84.1145 10.0731L82.7462 11.1475L81.6819 9.76606L84.1145 10.0731ZM67.7705 28.4544L66.0411 13.6611L67.2004 12.1645L68.9298 26.9578L67.7705 28.4544ZM60.8339 11.3586L62.1642 12.4139L61.1189 13.757L60.8339 11.3586ZM61.1379 11.1475L73.2249 9.7085L72.1796 11.0516L62.4683 12.2028L61.1379 11.1475ZM57.47 28.6462C57.28 28.9724 56.9569 29.241 56.5388 29.3945L50.6094 31.4476C50.1913 31.601 49.7732 31.5627 49.4311 31.4476L50.1342 29.9701C50.4003 30.1045 50.7234 30.1045 51.1035 29.9701L55.2655 28.5311C55.6266 28.3968 55.8926 28.2049 56.0257 27.9363L57.47 28.6462ZM53.137 15.2152C53.403 15.4263 53.6311 15.7716 53.7641 16.1554L57.508 27.188C57.6411 27.5909 57.6791 27.9939 57.5841 28.32L56.1017 27.5909C56.1207 27.3991 56.1017 27.1688 56.0067 26.9194L52.7189 17.2682C52.6428 17.0188 52.5098 16.8461 52.3768 16.6926L53.137 15.2152ZM48.1388 30.4498C48.3098 30.9487 48.5949 31.3132 48.956 31.5819L48.3668 32.7907C47.6826 32.4069 47.1695 31.7929 46.8654 30.8911L43.1405 19.8393C42.8365 18.9375 42.8555 18.1317 43.1595 17.4217L44.3568 18.0165C44.2238 18.4578 44.2238 18.9183 44.3948 19.4172L48.1388 30.4498ZM51.1415 13.5076C51.9967 13.2006 52.8519 13.2197 53.5741 13.5267L52.9849 14.7355C52.5478 14.5245 52.0537 14.5053 51.5406 14.678L45.6111 16.731C45.098 16.9037 44.7179 17.2299 44.5089 17.6712L43.3116 17.0764C43.6917 16.3856 44.3568 15.8484 45.212 15.5606L51.1415 13.5076ZM41.6392 37.1078L35.8047 33.136L36.1278 31.6586L41.9622 35.6304L41.6392 37.1078ZM37.5912 29.337C37.4772 29.6823 37.2301 30.0277 36.85 30.2771L30.8065 34.1529L31.1866 32.4453L35.4247 29.7207C35.7477 29.5096 35.9568 29.2602 36.0328 28.9532L37.5912 29.337ZM34.0943 23.3314C34.3984 23.4849 34.7025 23.7535 34.9305 24.0989L37.3251 27.8979C37.5532 28.2433 37.6672 28.6462 37.6672 28.9916L36.0518 28.627C36.0138 28.4352 35.9568 28.2241 35.8047 27.9939L34.2084 25.442C34.0753 25.2117 33.9043 25.0774 33.7523 24.9623L34.0943 23.3314ZM33.5432 42.2883L24.1169 27.2839L25.9413 27.7061L33.9423 40.4463L33.5432 42.2883ZM24.2499 26.9578L31.7948 22.1226C32.555 21.6237 33.3912 21.4319 34.1513 21.5662L33.8663 22.8709C33.3912 22.775 32.897 22.8709 32.4409 23.1587L25.9413 27.3223L24.2499 26.9578ZM27.2527 45.5117C27.2337 45.8763 27.0816 46.2792 26.7775 46.6054L21.8173 52.0354L21.7413 50.2893L25.2382 46.4711C25.5042 46.1833 25.6373 45.8763 25.6183 45.5885L27.2527 45.5117ZM22.5585 40.8301C22.9006 40.8876 23.2427 41.0795 23.5658 41.3673L26.6255 44.207C26.9296 44.4948 27.1576 44.8402 27.2337 45.1664L25.5803 45.2431C25.5042 45.0513 25.3902 44.8786 25.1812 44.7059L23.1857 42.8639C22.9956 42.6912 22.8056 42.5761 22.6155 42.5185L22.5585 40.8301ZM21.2662 40.3696C21.3042 40.7917 21.2662 41.1179 20.9431 41.4633L16.135 46.7397L16.0589 44.9937L19.4038 41.3289C19.6698 41.0411 19.8028 40.7341 19.7838 40.4463L21.2662 40.3696ZM17.0472 35.9949C17.3893 36.0525 17.7313 36.2443 18.0544 36.5322L20.6771 38.9689C21.0382 39.3143 21.1522 39.698 21.2282 40.0242L19.7268 40.0818C19.6508 39.8899 19.5368 39.7172 19.3277 39.5445L17.6743 38.0096C17.4843 37.8369 17.2942 37.7218 17.1042 37.6642L17.0472 35.9949ZM21.4563 54.4338L8.5141 42.4034L10.3956 42.3267L21.3802 52.5342L21.4563 54.4338ZM8.55211 42.0581L14.5386 35.496C15.1467 34.8245 15.9069 34.4216 16.6861 34.3448L16.7431 35.6879C16.268 35.7071 15.8119 35.9373 15.4508 36.3403L10.3005 41.9813L8.55211 42.0581Z" fill="#978D8D"></path><path d="M68.5117 71.8557L67.4664 72.8726L68.3406 74.1965C68.3406 74.1965 77.0828 76.0001 85.0078 72.5656L85.3498 71.7405L84.6087 71.2609C84.6087 71.2417 77.1208 73.429 68.5117 71.8557Z" fill="#978D8D"></path><path d="M68.5117 71.8557L67.4664 72.8726L68.3406 74.1965C68.3406 74.1965 77.0828 76.0001 85.0078 72.5656L85.3498 71.7405L84.6087 71.2609C84.6087 71.2417 77.1208 73.429 68.5117 71.8557Z" stroke="#978D8D" stroke-width="0.7183" stroke-linecap="round"></path><path d="M68.4927 71.8366L67.4474 72.8536L68.3217 74.1775C68.3217 74.1775 77.0638 75.9811 84.9887 72.5466L85.3308 71.7023L84.5896 71.2227C84.6086 71.2227 77.1208 73.4292 68.4927 71.8366Z" fill="#978D8D"></path><path d="M68.4927 71.8366L67.4474 72.8536L68.3217 74.1775C68.3217 74.1775 77.0638 75.9811 84.9887 72.5466L85.3308 71.7023L84.5896 71.2227C84.6086 71.2227 77.1208 73.4292 68.4927 71.8366Z" stroke="#978D8D" stroke-width="1.2087" stroke-linecap="round"></path><path d="M83.2973 71.5104L73.1869 63.1064L71.7615 64.8333L78.9073 70.9732L79.5724 70.2824L81.5299 70.0522" fill="#978D8D"></path><path d="M83.2973 71.5104L73.1869 63.1064L71.7615 64.8333L78.9073 70.9732L79.5724 70.2824L81.5299 70.0522" stroke="#978D8D" stroke-width="1.2087" stroke-linecap="round"></path><path d="M71.7615 64.8138L78.9453 70.9729C78.9453 70.9729 79.4204 70.2246 79.5724 70.2438L72.3317 64.1807L71.7615 64.8138Z" fill="white"></path><path d="M67.5045 72.8532C67.5045 72.8532 76.3986 74.9639 85.2928 71.7212L85.0267 72.4887C85.0267 72.4887 78.3181 75.9232 68.2456 74.1772L67.5045 72.8532Z" fill="white"></path><path d="M84.0765 72.2969L85.6349 73.5824L86.053 73.1411" stroke="#978D8D" stroke-width="1.2087"></path><path d="M89.1888 72.9878H143.542M10.8137 72.9878H64.6539H10.8137Z" stroke="#978D8D" stroke-width="1.2"></path></svg> 