<svg width="46" height="28" viewBox="0 0 46 28" fill="none" xmlns="http://www.w3.org/2000/svg"><g clip-path="url(#clip0)" fill="#fff"><path d="M22.596 28a.87.87 0 01-.433-.116l-1.378-.816c-.206-.115-.105-.156-.037-.18.274-.095.33-.117.623-.284.03-.017.07-.01.102.008l1.06.628a.14.14 0 00.127 0l4.13-2.383a.13.13 0 00.062-.112v-4.764a.133.133 0 00-.064-.114l-4.127-2.38a.127.127 0 00-.127 0l-4.126 2.38a.132.132 0 00-.066.113v4.764c0 .046.025.09.064.11l1.131.654c.614.307.99-.055.99-.419v-4.702c0-.067.052-.119.119-.119h.523c.065 0 .119.052.119.12v4.703c0 .819-.447 1.29-1.223 1.29-.239 0-.427 0-.952-.26l-1.083-.623a.873.873 0 01-.433-.754V19.98c0-.31.165-.6.433-.753l4.133-2.384a.905.905 0 01.868 0l4.128 2.386a.871.871 0 01.433.752v4.764a.874.874 0 01-.433.753l-4.128 2.384a.868.868 0 01-.435.116"/><path d="M23.872 24.718c-1.806 0-2.185-.83-2.185-1.525 0-.066.053-.12.12-.12h.533a.12.12 0 01.118.102c.08.543.32.817 1.412.817.87 0 1.24-.196 1.24-.658 0-.265-.105-.463-1.457-.595-1.13-.111-1.829-.36-1.829-1.265 0-.833.703-1.329 1.88-1.329 1.322 0 1.977.459 2.06 1.445a.12.12 0 01-.12.13h-.536a.118.118 0 01-.116-.093c-.13-.571-.442-.754-1.29-.754-.95 0-1.06.33-1.06.578 0 .301.13.389 1.411.558 1.27.169 1.872.407 1.872 1.299 0 .899-.75 1.414-2.059 1.414l.006-.005zm5.023-5.048h.139c.113 0 .135-.08.135-.126 0-.122-.084-.122-.13-.122h-.143v.248zm-.168-.391h.307c.105 0 .312 0 .312.236 0 .164-.106.198-.169.219.123.008.132.089.148.202.008.072.022.195.047.236h-.19c-.005-.041-.034-.269-.034-.281-.012-.05-.03-.076-.093-.076H28.9v.358h-.172v-.894zm-.37.444c0 .37.3.67.666.67a.667.667 0 10-.667-.67h.002zm1.463.003a.798.798 0 01-.796.795.798.798 0 01-.795-.796.795.795 0 111.59 0"/><path fill-rule="evenodd" clip-rule="evenodd" d="M9.811 9.358c0-.19-.1-.365-.264-.46L5.17 6.38a.511.511 0 00-.24-.07h-.046a.52.52 0 00-.242.07L.265 8.9a.533.533 0 00-.265.46l.01 6.783a.26.26 0 00.13.229c.081.05.183.05.263 0l2.603-1.49a.534.534 0 00.264-.46v-3.168c0-.19.1-.364.264-.458l1.108-.638a.526.526 0 01.528 0l1.107.637a.527.527 0 01.265.458v3.17c0 .187.101.36.265.458l2.6 1.49a.258.258 0 00.265 0 .265.265 0 00.131-.23l.008-6.782zm20.656 3.532c0 .047-.025.091-.066.114l-1.503.867a.133.133 0 01-.132 0l-1.504-.867a.131.131 0 01-.066-.114v-1.736c0-.047.025-.09.065-.114l1.503-.868a.134.134 0 01.133 0l1.504.868a.132.132 0 01.066.114v1.736zM30.874.033a.265.265 0 00-.394.232v6.717a.185.185 0 01-.277.16l-1.097-.631a.528.528 0 00-.528 0l-4.379 2.527a.528.528 0 00-.264.457v5.056c0 .189.1.362.264.457l4.379 2.53a.53.53 0 00.529 0l4.379-2.53a.53.53 0 00.264-.458V1.95a.53.53 0 00-.272-.463L30.874.033zM45.455 11.11a.529.529 0 00.263-.457V9.426c0-.188-.1-.362-.263-.457l-4.351-2.526a.528.528 0 00-.53 0L36.196 8.97a.528.528 0 00-.265.458v5.054c0 .19.103.366.267.46l4.35 2.479c.16.092.356.093.519.003l2.631-1.462a.265.265 0 00.002-.46l-4.405-2.528a.262.262 0 01-.133-.229V11.16c0-.095.05-.182.132-.229l1.37-.79a.261.261 0 01.264 0l1.372.79a.264.264 0 01.132.228v1.247c0 .094.05.182.132.23a.266.266 0 00.265-.002l2.626-1.525z"/><path fill-rule="evenodd" clip-rule="evenodd" d="M40.775 10.873a.1.1 0 01.101 0l.84.485c.032.018.051.051.051.088v.97c0 .036-.019.07-.05.088l-.84.485a.1.1 0 01-.102 0l-.84-.485a.1.1 0 01-.051-.088v-.97a.1.1 0 01.05-.088l.841-.485z"/><path d="M21.614 14.793V9.22l-4.826-2.784-4.826 2.784v5.573l4.826 2.787 4.826-2.787z"/><path d="M16.786 6.434l4.826 8.357-4.826 2.787-4.824-8.358 4.824-2.786zM11.962 14.794l1.657-2.703-1.657-2.87v5.573z"/><path d="M20.003 12.007l1.61-2.787-4.825-2.784 3.215 5.57z"/></g><defs><clipPath id="clip0"><path fill="#fff" d="M0 0h45.718v28H0z"/></clipPath></defs></svg>