<?xml version="1.0" encoding="UTF-8"?> <svg xmlns="http://www.w3.org/2000/svg" width="332" height="73" viewBox="0 0 332 73" fill="none"><g clip-path="url(#clip0_502_25)"><path d="M57.4878 36.3981V72.7871H75.5198V15.8001L82.1008 15.8281C89.4348 15.8651 89.0438 15.8281 90.5308 16.5441C92.0548 17.2691 93.1428 18.3471 93.8858 19.8531C94.4718 21.0521 94.6198 21.6752 94.6198 23.0602C94.6198 24.4082 94.4808 25.0401 93.9318 26.1741C93.2068 27.6981 92.1288 28.7861 90.6228 29.5291C89.1268 30.2631 89.2288 30.2541 84.2278 30.2911C81.7828 30.3101 79.7938 30.3561 79.8128 30.4031C79.8318 30.4401 81.5978 33.6472 83.7448 37.5142L87.6488 44.5411L89.8328 44.5041C93.8018 44.4301 96.4508 43.8161 99.7318 42.2081C106.266 39.0201 110.802 32.7742 111.918 25.4312C112.16 23.8792 112.16 20.6632 111.918 19.1102C110.552 10.1222 104.082 2.91815 95.3728 0.706151C92.6498 0.0181512 94.0898 0.0651083 74.8028 0.0371083L57.4868 9.65716e-05V36.3981H57.4878Z" fill="white"></path><path d="M118.462 0.0730466C118.462 0.119047 120.693 4.07906 123.416 8.88506L128.37 17.6221H171.396L171.424 9.02402C171.433 4.29302 171.424 0.333011 171.396 0.212011L171.35 0.00800755H144.906C130.36 0.00800755 118.462 0.0360466 118.462 0.0730466V0.0730466Z" fill="#FFC609"></path><path d="M179.781 0.0731434C179.744 0.101143 179.716 16.4791 179.716 36.4631V72.7871L194.318 72.7682L208.93 72.7401L213.568 64.3751C216.124 59.7741 218.234 55.9542 218.262 55.8892C218.299 55.8052 216.338 55.7771 208.632 55.7771H198.956V0.00712782H189.401C184.14 0.00812782 179.809 0.0361434 179.781 0.0731434V0.0731434Z" fill="white"></path><path d="M217.918 0.0730466C217.918 0.119047 220.149 4.07906 222.872 8.88506L227.826 17.6221H270.852L270.88 9.02402C270.889 4.29302 270.88 0.333011 270.852 0.212011L270.806 0.00800755H244.362C229.815 0.00800755 217.918 0.0360466 217.918 0.0730466V0.0730466Z" fill="#D62027"></path><path d="M278.242 8.83808V17.6682H296.088V72.7861H314.028V17.6682H322.672C328.788 17.6682 331.316 17.6401 331.316 17.5661C331.316 17.5101 329.513 14.2382 327.301 10.2972C325.089 6.34717 322.905 2.43408 322.43 1.58808L321.575 0.0541005L299.909 0.0260731L278.243 0.00712782V8.83808H278.242Z" fill="white"></path><path d="M24.445 0.194047C20.411 0.584047 17.474 1.23504 14.797 2.33204C11.116 3.83804 8.969 5.18598 6.636 7.42598C3.271 10.67 1.068 14.63 0.223 18.97C0.037 19.909 0.009 20.3361 0 22.4561C0 25.2821 0.084 25.877 0.799 28.219C1.143 29.344 1.412 30.013 1.914 30.961C3.178 33.368 4.238 34.642 6.785 36.826C9.694 39.317 13.635 41.371 20.495 43.974C22.419 44.699 24.966 45.786 26.183 46.4C27.763 47.19 28.776 47.878 29.65 48.761C30.626 49.746 30.84 50.2571 30.84 51.5771C30.84 52.3761 30.812 52.562 30.589 53.046C30.45 53.343 30.245 53.734 30.134 53.901C29.864 54.301 29.037 54.942 28.331 55.295C27.745 55.592 26.565 55.9641 26.193 55.9641C26.081 55.9641 25.97 56.001 25.933 56.048C25.905 56.104 27.29 58.623 29.01 61.653C30.73 64.683 32.812 68.345 33.62 69.786C34.438 71.236 35.163 72.416 35.228 72.416C35.516 72.416 38.444 71.198 39.875 70.483C40.749 70.046 42.84 68.6521 43.881 67.8061C45.517 66.4861 47.116 64.646 48.268 62.787C49.039 61.532 50.09 59.1531 50.48 57.7771C51.958 52.5441 51.716 46.856 49.839 42.487C48.863 40.21 47.999 38.834 46.595 37.319C42.812 33.211 39.15 30.943 30.766 27.504C27.717 26.258 25.784 25.4311 25.124 25.0971C23.646 24.3531 22.689 23.535 22.233 22.634C21.936 22.039 21.815 20.877 21.982 20.162C22.651 17.29 26.685 16.035 31.323 17.262C32.438 17.55 33.126 17.829 34.409 18.508C35.84 19.261 36.909 20.042 37.922 21.092L38.768 21.9561L42.058 18.266C43.871 16.24 46.417 13.4051 47.7 11.9641L50.052 9.35205L49.699 9.03604C48.9 8.31104 46.864 6.74001 45.916 6.10801C41.334 3.06901 36.063 1.11705 30.486 0.373051C28.906 0.157051 25.755 0.0730473 24.445 0.194047V0.194047Z" fill="white"></path><path d="M118.369 36.1651V43.9731H157.687V28.3571H118.369V36.1651Z" fill="white"></path><path d="M217.825 36.1651V43.9731H257.143V28.3571H217.825V36.1651Z" fill="white"></path><path d="M123.407 64.2171C120.684 68.8641 118.462 72.6942 118.462 72.7222C118.462 72.7592 130.387 72.7871 144.952 72.7871H171.442V55.7771H128.341L123.407 64.2171Z" fill="white"></path><path d="M222.863 64.2171C220.14 68.8641 217.918 72.6942 217.918 72.7222C217.918 72.7592 229.843 72.7871 244.408 72.7871H270.899V55.7771H227.798L222.863 64.2171Z" fill="white"></path></g><defs><clipPath id="clip0_502_25"><rect width="331.316" height="72.787" fill="white"></rect></clipPath></defs></svg> 