<?xml version="1.0" encoding="utf-8"?>
<!-- Generator: Adobe Illustrator 22.0.1, SVG Export Plug-In . SVG Version: 6.00 Build 0)  -->
<svg version="1.1" id="Layer_1" xmlns="http://www.w3.org/2000/svg" xmlns:xlink="http://www.w3.org/1999/xlink" x="0px" y="0px"
	 viewBox="0 0 1028.9 377.3" style="enable-background:new 0 0 1028.9 377.3;" xml:space="preserve">
	 <style>
		.st0 {fill:white;}
	 </style>
<g>
	<path class="st0" d="M240.1,171.5v102.9h34.3V171.5c0-37.9,30.7-68.6,68.6-68.6V68.6C286.2,68.6,240.1,114.7,240.1,171.5z"/>
	<rect class="st0" x="377.3" y="68.6" width="34.3" height="205.8"/>
	<rect class="st0" x="377.3" width="34.3" height="34.3"/>
	<path class="st0" d="M102.9,68.6c-26.4,0-50.4,9.9-68.6,26.2V68.6V0H0v68.6v102.9c0,56.8,46.1,102.9,102.9,102.9s102.9-46.1,102.9-102.9
		S159.7,68.6,102.9,68.6z M102.9,240.1c-37.9,0-68.6-30.7-68.6-68.6s30.7-68.6,68.6-68.6s68.6,30.7,68.6,68.6
		S140.8,240.1,102.9,240.1z"/>
	<path class="st0" d="M788.9,68.6c-26.4,0-50.4,9.9-68.6,26.2V0H686v274.4h34.3V171.5c0-37.9,30.7-68.6,68.6-68.6c37.9,0,68.6,30.7,68.6,68.6
		v102.9h34.3V171.5C891.7,114.7,845.7,68.6,788.9,68.6z"/>
	<path class="st0" d="M1028.9,102.9V68.6h-68.6V0H926v171.5c0,56.8,46.1,102.9,102.9,102.9v-34.3c-37.9,0-68.6-30.7-68.6-68.6v-68.6H1028.9z"/>
	<path class="st0" d="M548.8,68.6c-56.8,0-102.9,46.1-102.9,102.9s46.1,102.9,102.9,102.9c26.4,0,50.4-9.9,68.6-26.2v26.2
		c0,37.9-30.7,68.6-68.6,68.6v34.3c56.8,0,102.9-46.1,102.9-102.9V171.5C651.7,114.7,605.6,68.6,548.8,68.6z M548.8,240.1
		c-37.9,0-68.6-30.7-68.6-68.6s30.7-68.6,68.6-68.6c37.9,0,68.6,30.7,68.6,68.6S586.6,240.1,548.8,240.1z"/>
</g>
</svg>
