<?xml version="1.0" encoding="UTF-8" standalone="no" ?>
<!DOCTYPE svg PUBLIC "-//W3C//DTD SVG 1.1//EN" "http://www.w3.org/Graphics/SVG/1.1/DTD/svg11.dtd">
<svg xmlns="http://www.w3.org/2000/svg" xmlns:xlink="http://www.w3.org/1999/xlink" version="1.1" width="1080" height="500" viewBox="0 0 1080 500" xml:space="preserve">
<desc>Created with Fabric.js 5.2.4</desc>
<defs>
</defs>
<g transform="matrix(0 0 0 0 0 0)" id="5c017d8b-8ead-4a2e-860c-6bff59ee9b57"  >
</g>
<g transform="matrix(1 0 0 1 540 250)" id="66a730fc-8aa3-424e-8a9c-03bd4cdde233"  >
<rect style="stroke: none; stroke-width: 1; stroke-dasharray: none; stroke-linecap: butt; stroke-dashoffset: 0; stroke-linejoin: miter; stroke-miterlimit: 4; fill: rgb(255,255,255); fill-rule: nonzero; opacity: 1; visibility: hidden;" vector-effect="non-scaling-stroke"  x="-540" y="-250" rx="0" ry="0" width="1080" height="500" />
</g>
<g transform="matrix(6.33 0 0 6.33 540 250)"  >
<g style=""   >
		<g transform="matrix(1 0 0 1 -53.8 6.94)"  >
<path style="stroke: none; stroke-width: 1; stroke-dasharray: none; stroke-linecap: butt; stroke-dashoffset: 0; stroke-linejoin: miter; stroke-miterlimit: 4; fill: rgb(38,51,59); fill-rule: nonzero; opacity: 1;" vector-effect="non-scaling-stroke"  transform=" translate(-29.2, -22.93)" d="M 33.0556 18.359 L 25.3406 24.0256 L 27.8917 27.5094 L 33.0556 23.7153 L 33.0556 18.359 Z" stroke-linecap="round" />
</g>
		<g transform="matrix(1 0 0 1 -68.56 4.54)"  >
<path style="stroke: none; stroke-width: 1; stroke-dasharray: none; stroke-linecap: butt; stroke-dashoffset: 0; stroke-linejoin: miter; stroke-miterlimit: 4; fill: rgb(229,229,229); fill-rule: nonzero; opacity: 1;" vector-effect="non-scaling-stroke"  transform=" translate(-14.44, -20.54)" d="M 18.3668 32 C 12.7944 32 8.13758 27.989 7.12699 22.6997 L 0 22.6997 L 0 18.3802 L 7.12699 18.3802 C 8.13934 13.0909 12.7944 9.0799 18.3668 9.0799 C 22.0007 9.0799 25.4515 10.8324 27.5995 13.7679 L 28.8742 15.5099 L 19.0728 22.6997 L 11.5708 22.6997 C 12.4863 25.5841 15.1871 27.6804 18.3685 27.6804 L 18.3685 32 L 18.3668 32 Z M 11.5708 18.3802 L 17.6625 18.3802 L 22.5747 14.7782 C 21.3669 13.8966 19.8932 13.4012 18.3685 13.4012 C 15.1871 13.3995 12.4863 15.4958 11.5708 18.3802 Z" stroke-linecap="round" />
</g>
		<g transform="matrix(1 0 0 1 31.32 4.54)"  >
<path style="stroke: none; stroke-width: 1; stroke-dasharray: none; stroke-linecap: butt; stroke-dashoffset: 0; stroke-linejoin: miter; stroke-miterlimit: 4; fill: rgb(229,229,229); fill-rule: nonzero; opacity: 1;" vector-effect="non-scaling-stroke"  transform=" translate(-114.32, -20.54)" d="M 114.789 32 C 108.479 32 103.345 26.8588 103.345 20.5399 C 103.345 14.2211 108.479 9.0799 114.789 9.0799 C 118.423 9.0799 121.874 10.8324 124.022 13.7679 L 125.296 15.5099 L 115.495 22.6997 L 107.993 22.6997 C 108.908 25.5841 111.609 27.6804 114.791 27.6804 L 114.791 32 L 114.789 32 Z M 107.991 18.3802 L 114.083 18.3802 L 118.995 14.7782 C 117.787 13.8966 116.314 13.4012 114.789 13.4012 C 111.607 13.3995 108.907 15.4958 107.991 18.3802 Z" stroke-linecap="round" />
</g>
		<g transform="matrix(1 0 0 1 -30.05 4.54)"  >
<path style="stroke: none; stroke-width: 1; stroke-dasharray: none; stroke-linecap: butt; stroke-dashoffset: 0; stroke-linejoin: miter; stroke-miterlimit: 4; fill: rgb(229,229,229); fill-rule: nonzero; opacity: 1;" vector-effect="non-scaling-stroke"  transform=" translate(-52.96, -20.54)" d="M 53.4278 32 C 47.1177 32 41.9837 26.8588 41.9837 20.5399 C 41.9837 14.2211 47.1177 9.0799 53.4278 9.0799 C 57.0617 9.0799 60.5125 10.8324 62.6604 13.7679 L 63.9334 15.5099 L 49.2287 26.3088 C 50.4065 27.1709 51.859 27.6804 53.4278 27.6804 L 53.4278 32 L 53.4278 32 Z M 53.4278 13.3995 C 49.4963 13.3995 46.2972 16.603 46.2972 20.5399 C 46.2972 21.3404 46.4293 22.1109 46.6723 22.8284 L 57.6356 14.7782 C 56.4279 13.8966 54.9542 13.3995 53.4278 13.3995 Z" stroke-linecap="round" />
</g>
		<g transform="matrix(1 0 0 1 75.88 -0.02)"  >
<path style="stroke: none; stroke-width: 1; stroke-dasharray: none; stroke-linecap: butt; stroke-dashoffset: 0; stroke-linejoin: miter; stroke-miterlimit: 4; fill: rgb(229,229,229); fill-rule: nonzero; opacity: 1;" vector-effect="non-scaling-stroke"  transform=" translate(-158.89, -15.98)" d="M 166 13.7327 L 166 9.48364 L 159.919 9.48364 L 159.919 0 L 155.605 0 L 155.605 9.48364 L 151.772 9.48364 L 151.772 13.7327 L 155.605 13.7327 L 155.605 31.9647 L 166 31.9647 L 166 27.7157 L 159.919 27.7157 L 159.919 13.7327 L 166 13.7327 Z" stroke-linecap="round" />
</g>
		<g transform="matrix(1 0 0 1 -47.78 -0.02)"  >
<path style="stroke: none; stroke-width: 1; stroke-dasharray: none; stroke-linecap: butt; stroke-dashoffset: 0; stroke-linejoin: miter; stroke-miterlimit: 4; fill: rgb(229,229,229); fill-rule: nonzero; opacity: 1;" vector-effect="non-scaling-stroke"  transform=" translate(-35.21, -15.98)" d="M 37.3692 0 L 33.0556 0 L 33.0556 31.9647 L 37.3692 31.9647 L 37.3692 0 Z" stroke-linecap="round" />
</g>
		<g transform="matrix(1 0 0 1 -3.03 4.72)"  >
<path style="stroke: none; stroke-width: 1; stroke-dasharray: none; stroke-linecap: butt; stroke-dashoffset: 0; stroke-linejoin: miter; stroke-miterlimit: 4; fill: rgb(229,229,229); fill-rule: nonzero; opacity: 1;" vector-effect="non-scaling-stroke"  transform=" translate(-79.97, -20.72)" d="M 93.7424 9.48187 L 86.008 15.1625 L 86.008 9.48187 L 80.205 9.48187 L 72.4706 15.1625 L 72.4706 9.48187 L 68.1571 9.48187 L 68.1571 18.3308 L 60.4016 24.0256 L 62.9527 27.5094 L 68.1571 23.6871 L 68.1571 31.9647 L 72.4706 31.9647 L 72.4706 20.5188 L 81.6945 13.745 L 81.6945 31.9647 L 86.008 31.9647 L 86.008 20.5188 L 95.2337 13.745 L 95.2337 31.9647 L 99.5472 31.9647 L 99.5472 9.48187 L 93.7424 9.48187 Z" stroke-linecap="round" />
</g>
		<g transform="matrix(1 0 0 1 51.49 4.72)"  >
<path style="stroke: none; stroke-width: 1; stroke-dasharray: none; stroke-linecap: butt; stroke-dashoffset: 0; stroke-linejoin: miter; stroke-miterlimit: 4; fill: rgb(229,229,229); fill-rule: nonzero; opacity: 1;" vector-effect="non-scaling-stroke"  transform=" translate(-134.49, -20.72)" d="M 141.494 9.48187 L 133.76 15.1625 L 133.76 9.48187 L 129.446 9.48187 L 129.446 18.3308 L 121.689 24.0256 L 124.24 27.5094 L 129.446 23.6871 L 129.446 31.9647 L 133.76 31.9647 L 133.76 20.5188 L 142.983 13.745 L 142.983 31.9647 L 147.297 31.9647 L 147.297 9.48187 L 141.494 9.48187 Z" stroke-linecap="round" />
</g>
</g>
</g>
</svg>