<?xml version="1.0" encoding="UTF-8"?> <svg xmlns="http://www.w3.org/2000/svg" width="91" height="35" viewBox="0 0 91 35" fill="none"> <path fill-rule="evenodd" clip-rule="evenodd" d="M74.2238 2.12997C75.5471 1.68334 76.8738 1.24562 78.2006 0.807881C79.0147 0.539278 79.8288 0.270671 80.6422 0C80.6422 3.80029 80.642 7.60059 80.6418 11.4009C80.6414 19.0015 80.641 26.6021 80.6422 34.2026C78.5069 34.2044 76.3716 34.2062 74.2345 34.2009C74.2195 27.7863 74.2218 21.3724 74.2242 14.9583C74.2258 10.6823 74.2273 6.40629 74.2238 2.12997ZM88.4328 0.855515L88.433 0.85546C89.2887 0.571336 90.1443 0.287212 91.0005 0.00537109C90.9873 9.39277 90.991 18.7802 90.9947 28.1676C90.9955 30.1793 90.9963 32.191 90.997 34.2026C90.1902 34.1966 89.3833 34.2002 88.5763 34.2037H88.5763C87.2384 34.2096 85.9006 34.2155 84.5642 34.1777C84.5851 27.6177 84.5823 21.0577 84.5796 14.4978C84.5779 10.374 84.5762 6.2502 84.5803 2.12642C85.8658 1.70792 87.1493 1.28172 88.4328 0.855515ZM57.8314 10.4177C53.9746 10.7674 50.3444 13.1346 48.5123 16.5543C47.3332 18.6023 46.8551 21.0248 47.0317 23.3742C47.2065 26.2052 48.4749 28.9239 50.4389 30.9557C52.3691 32.8895 54.9558 34.1668 57.678 34.4575C60.0274 34.759 62.4178 34.2524 64.5478 33.2516C64.5353 33.5656 64.5228 33.8795 64.5139 34.1953C65.6417 34.2058 66.7695 34.2045 67.8976 34.2033C68.8786 34.2022 69.8598 34.2011 70.8414 34.2078C70.839 30.6664 70.8394 27.125 70.8399 23.5835C70.8404 19.1563 70.841 14.729 70.836 10.3018C69.3913 10.3189 67.9465 10.3159 66.5023 10.3129C65.8406 10.3115 65.1789 10.3102 64.5175 10.3107C64.521 10.7603 64.5335 11.2116 64.5549 11.6611C62.4731 10.6675 60.1362 10.1627 57.8314 10.4177ZM53.4109 23.1244C52.9899 20.3433 55.0236 17.5141 57.7404 16.8969C59.2746 16.5098 60.9693 16.7791 62.2608 17.7085C64.6227 19.1785 65.4843 22.5233 64.2088 24.9779C63.2634 27.0222 60.9586 28.3067 58.7305 28.1497C56.0707 28.0159 53.6571 25.7949 53.4109 23.1244Z" fill="#E4F3F4"></path> <path d="M0 11.822C2.13532 11.0942 4.27243 10.3699 6.42024 9.68848C6.43094 17.8427 6.44522 25.9986 6.41311 34.1528C4.28492 34.1671 2.15673 34.151 0.0267573 34.1582C0.00891839 26.7122 0.0606525 19.2662 0 11.822Z" fill="#65D3AE"></path> <path fill-rule="evenodd" clip-rule="evenodd" d="M33.3225 17.699C34.2695 17.1168 35.4709 16.9485 36.5284 17.3114C37.5862 17.636 38.4835 18.4495 38.9027 19.4734C39.1989 20.1513 39.2292 20.9095 39.2256 21.6409C39.221 23.442 39.2223 25.2432 39.2237 27.0443C39.2254 29.446 39.2271 31.8477 39.2149 34.2495C40.5377 34.2461 41.8611 34.2463 43.1844 34.2464H43.1866H43.1926C43.9849 34.2465 44.7771 34.2466 45.5692 34.2459C45.561 31.7075 45.5622 29.1691 45.5633 26.6307L45.5633 26.6224C45.5642 24.7217 45.5651 22.8209 45.562 20.9202C45.5852 18.2622 44.481 15.6202 42.5829 13.7614C40.6456 11.7634 37.8431 10.6664 35.0691 10.752C33.478 10.7887 31.5534 11.6656 30.1293 12.4535C31.5794 13.9258 32.682 15.7355 33.3225 17.699ZM31.5101 26.7314C31.0481 39.9931 25.2433 33.4604 25.1525 20.7596L26.5748 14.4168L27.9225 13.7442C30.0816 15.6926 31.4447 18.5311 31.4937 21.4588C31.5114 23.2166 31.5123 24.974 31.5101 26.7314Z" fill="#E4F3F4"></path> <path d="M10.1603 10.3577C12.2831 10.3702 14.4077 10.3756 16.5305 10.3506C16.5288 10.8661 16.5252 11.3817 16.5127 11.899C19.1332 10.7948 22.1766 10.7502 24.8167 11.8187C28.7038 13.3226 31.4243 17.3006 31.4939 21.4589C31.5367 25.7206 31.4814 29.9806 31.5206 34.2423C29.3978 34.2709 27.2749 34.237 25.1521 34.2601C25.1271 30.109 25.1485 25.9597 25.1432 21.8085C25.1521 20.8577 24.8167 19.9319 24.2709 19.1595C23.2362 17.7787 21.3399 17.0812 19.6702 17.5736C18.0379 17.9625 16.7393 19.4431 16.543 21.1021C16.5091 25.478 16.527 29.8539 16.5341 34.228C14.4024 34.2619 12.2706 34.2762 10.1406 34.2209C10.1906 26.2665 10.1478 18.3121 10.1603 10.3577Z" fill="#65D3AE"></path> </svg> 