<svg fill="none" xmlns="http://www.w3.org/2000/svg" viewBox="0 0 44 26"><path d="M43.98 21.88h-7.306v3.352h7.306v-3.353Z" fill="#fff"/><path fill-rule="evenodd" clip-rule="evenodd" d="m18.674 7.504-2.955 9.236-2.957-9.236H9.3L6.341 16.74 3.386 7.504H0l4.538 14.181h1.69l.113-.037.114.037h1.69l2.886-9.016 2.886 9.016h1.69l.112-.037.114.037h1.689l4.54-14.181h-3.388ZM36.722 14.646V0h-3.35v8.488a7.3 7.3 0 0 0-3.98-1.177h-.052a7.37 7.37 0 0 0-7.367 7.372 7.37 7.37 0 0 0 7.367 7.374l.026-.002a9.302 9.302 0 0 0 1.752-.278 7.7 7.7 0 0 0 .662-.194l.032-.01.142-.05a8.671 8.671 0 0 0 1.118-.487c.1-.059.204-.117.3-.18v.016c1.64-.954 3.185-2.676 3.336-5.775.008-.15.014-.301.014-.45Zm-7.332 4.067a4.066 4.066 0 0 1 0-8.133 4.065 4.065 0 0 1 4.064 4.066 4.065 4.065 0 0 1-4.064 4.067Z" fill="#fff"/></svg>