<?xml version="1.0" encoding="UTF-8"?> <svg xmlns="http://www.w3.org/2000/svg" xmlns:xlink="http://www.w3.org/1999/xlink" xmlns:xodm="http://www.corel.com/coreldraw/odm/2003" xml:space="preserve" width="220mm" height="120mm" version="1.1" style="shape-rendering:geometricPrecision; text-rendering:geometricPrecision; image-rendering:optimizeQuality; fill-rule:evenodd; clip-rule:evenodd" viewBox="0 0 22000 12000"> <defs> <style type="text/css"> .fil1 {fill:#003C50;fill-rule:nonzero} .fil2 {fill:red;fill-rule:nonzero} .fil0 {fill:url(#id0);fill-rule:nonzero} </style> <linearGradient id="id0" gradientUnits="userSpaceOnUse" x1="4455.98" y1="5028.73" x2="4455.98" y2="8355.1"> <stop offset="0" style="stop-opacity:1; stop-color:#003C50"></stop> <stop offset="0.45098" style="stop-opacity:1; stop-color:#7F1E28"></stop> <stop offset="1" style="stop-opacity:1; stop-color:red"></stop> </linearGradient> </defs> <g id="Layer_x0020_1"> <metadata id="CorelCorpID_0Corel-Layer"></metadata> <path class="fil0" d="M9802.27 4888.43c-43.13,-145.44 -95.87,-285.46 -156.7,-419.48 -68.78,-151.45 -147.99,-295.26 -235.63,-430.6 -180.64,-279 -397.05,-523.2 -632.65,-726.63 -247.95,-214.13 -517.01,-383.2 -787.84,-500.46 -323.58,-140.09 -648.18,-225.18 -966.29,-263.18 -340.1,-40.64 -672.54,-27.51 -988.46,29.47 -338.14,61.03 -657.97,172.4 -948.41,321.95 -302.59,155.83 -573.21,353.08 -799.41,577.99 -177.31,176.31 -329.86,367.01 -457.87,567.83 -132.28,207.52 -238.67,426.15 -319.41,651.3 -104.91,292.7 -166.88,597.15 -186.76,903.39 -20.12,310.15 2.88,622.26 68.03,926.1 65.45,305.26 173.7,602.01 323.4,879.61 145.55,269.78 330.43,521.72 553.44,746 171.54,172.53 365.96,329.11 582.52,465.17 663.83,417.26 1189.94,497.91 1955.77,530.68l-0.33 333.7c259.21,-289.73 518.51,-556.99 796.73,-855.97 -283.27,-300.24 -505.29,-536.05 -792.74,-842.96l-3.42 343.73 -240.11 -6.61c-229.36,-6.24 -442.58,-43.31 -638.84,-104.91 -210.76,-66.14 -402.33,-160.63 -573.68,-275.64 -184.88,-124.11 -346.17,-272.13 -482.65,-434.32 -145.98,-173.46 -263.66,-363.05 -351.6,-556.81 -99.21,-218.45 -157.87,-439.01 -182.95,-655.78 -27.22,-234.97 -14.96,-465.65 27.75,-684.61 46.53,-238.51 129.94,-463.69 238.24,-665.78 115.28,-215.02 258.92,-404.07 416.57,-555.36 233.8,-224.43 489.08,-387.02 753.46,-494.25 283.15,-114.85 577.02,-166.33 866.45,-162.64 156.03,2.01 310.21,20 460.03,52.68 152.49,33.22 301.26,81.82 443.66,144.3 141.98,62.26 277.62,138.28 404.38,226.59 126,87.79 243.68,188.02 350.43,299.25 91.43,95.24 175.05,198.68 249.17,309.34 68.97,102.9 129.79,212.11 181.24,326.91l1074.48 0z"></path> <path class="fil1" d="M5652.01 7107.7l1543.76 0c83.78,0 163.94,-9.58 240.53,-28.71 76.59,-19.17 146.01,-69.42 208.24,-150.78 52.66,-67.05 86.75,-141.83 102.31,-224.4 15.55,-82.57 23.33,-163.34 23.33,-242.33 0,-28.72 -1.8,-63.44 -5.37,-104.11 -3.61,-40.7 -10.79,-83.17 -21.54,-127.47 -10.78,-44.28 -26.94,-88.55 -48.48,-132.82 -21.53,-44.27 -51.45,-84.37 -89.74,-120.27 -38.3,-35.92 -86.78,-68.21 -145.41,-96.95 -58.63,-28.72 -129.84,-56.23 -213.62,-82.57l-919.07 -290.78c-100.53,-33.52 -164.56,-75.42 -192.08,-125.67 -27.51,-50.25 -41.27,-102.9 -41.27,-157.96 0,-23.94 2.98,-55.06 8.95,-93.35 6.01,-38.3 24.54,-71.79 55.66,-100.53 28.71,-26.31 60.43,-42.47 95.15,-48.45 34.7,-6.01 68.79,-8.98 102.31,-8.98l1285.27 0 0 -376.98 -1446.84 0c-62.2,0 -130.44,7.78 -204.63,23.33 -74.19,15.56 -143.6,54.46 -208.21,116.69 -71.82,67.02 -116.69,142.41 -134.65,226.18 -17.93,83.77 -26.92,163.96 -26.92,240.55 0,35.9 1.21,74.19 3.58,114.89 2.4,40.67 8.38,81.97 17.96,123.84 9.58,41.9 22.74,83.17 39.5,123.87 16.76,40.7 39.5,77.79 68.21,111.28 23.94,31.12 51.45,57.46 82.57,79 31.12,21.53 61.03,40.1 89.75,55.65 28.71,15.56 54.45,27.52 77.19,35.9 22.74,8.38 38.9,13.75 48.48,16.16l990.86 312.34c55.05,16.76 98.72,36.49 131.04,59.23 32.32,22.74 56.86,46.68 73.59,71.79 16.76,25.14 27.54,50.88 32.32,77.19 4.81,26.34 7.18,51.48 7.18,75.39 0,21.57 -1.77,47.88 -5.38,79 -3.6,31.11 -13.15,61.03 -28.71,89.74 -15.56,28.72 -38.9,53.26 -70.02,73.62 -31.11,20.34 -75.39,30.52 -132.85,30.52l-1392.95 0 0 376.95zm2347.68 0l356.2 0 0 -1230c0,-30.46 1.53,-51.25 4.56,-62.42 3.06,-11.17 6.61,-18.77 10.66,-22.83 4.06,-4.05 11.69,-9.13 22.83,-15.23 11.17,-6.09 29.95,-9.13 56.32,-9.13l520.64 0 0 1339.61 356.2 0 0 -1339.61 331.87 0c32.47,0 69.02,4.06 109.6,12.17 40.61,8.14 76.11,29.43 106.57,63.95 28.41,32.46 46.67,70.01 54.78,112.63 8.14,42.65 12.2,81.19 12.2,115.7l0 1035.16 356.19 0 0 -1089.95c0,-81.18 -12.67,-156.3 -38.05,-225.3 -25.35,-69.02 -61.39,-125.85 -108.07,-170.51 -58.87,-52.77 -127.35,-87.26 -205.51,-103.51 -78.15,-16.24 -146.66,-24.35 -205.5,-24.35l-1452.27 0c-36.53,0 -78.64,5.58 -126.34,16.76 -47.72,11.14 -86.77,38.05 -117.23,80.67 -20.3,28.42 -32.98,60.37 -38.05,95.91 -5.08,35.5 -7.6,64.42 -7.6,86.77l0 1333.51zm2618.33 -1613.62l0 274.01 794.63 0c28.42,0 58.33,4.06 89.81,12.17 31.45,8.14 59.35,27.42 83.71,57.85 20.3,24.36 33.01,49.74 38.05,76.11 5.08,26.4 7.63,51.78 7.63,76.11l0 112.67 -700.26 0c-42.62,0 -89.8,4.56 -141.56,13.69 -51.75,9.13 -103.02,36.02 -153.75,80.68 -60.88,52.77 -98.94,113.66 -114.17,182.68 -15.23,69.02 -22.85,139.03 -22.85,210.07 0,30.46 1.02,64.97 3.06,103.5 2.01,38.57 7.6,78.16 16.73,118.77 9.13,40.57 23.34,79.65 42.62,117.2 19.28,37.54 45.17,70.52 77.64,98.97 46.68,40.57 95.91,63.91 147.66,70.01 51.78,6.1 99.96,9.13 144.62,9.13l770.28 0c38.56,0 78.15,-3.54 118.73,-10.66 40.61,-7.09 75.12,-24.87 103.53,-53.29 28.42,-28.41 46.17,-62.89 53.29,-103.5 7.09,-40.61 10.63,-75.09 10.63,-103.5l0 -837.26c0,-91.34 -11.14,-168.98 -33.49,-232.93 -22.32,-63.91 -50.73,-113.14 -85.24,-147.65 -36.53,-38.57 -84.22,-69.03 -143.09,-91.34 -58.87,-22.32 -122.79,-33.49 -191.81,-33.49l-916.4 0zm1013.83 882.93l0 371.43c0,12.19 -1.02,23.85 -3.03,35.02 -2.04,11.14 -9.16,21.81 -21.33,31.96 -12.16,10.15 -25.89,15.74 -41.08,16.76 -15.23,0.99 -27.94,1.5 -38.09,1.5l-496.26 0c-22.31,0 -44.15,-5.07 -65.44,-15.23 -21.33,-10.12 -38.06,-21.29 -50.25,-33.49 -22.32,-22.31 -36.02,-51.75 -41.09,-88.27 -5.08,-36.56 -7.6,-66.98 -7.6,-91.34 0,-58.87 5.04,-100.47 15.2,-124.83 10.15,-24.36 18.29,-40.61 24.36,-48.72 20.3,-26.37 44.15,-42.11 71.54,-47.19 27.42,-5.07 47.19,-7.6 59.38,-7.6l593.69 0zm599.79 730.69l356.2 0 0 -910.33c0,-60.88 5.08,-118.73 15.23,-173.55 10.15,-54.79 32.47,-102.48 66.98,-143.09 42.62,-50.73 92.36,-82.21 149.19,-94.37 56.83,-12.17 108.58,-18.27 155.25,-18.27l149.19 0 0 -274.01 -240.53 0c-30.42,0 -65.95,1.02 -106.53,3.03 -40.61,2.04 -82.72,7.63 -126.36,16.76 -43.65,9.13 -87.29,23.34 -130.93,42.62 -43.61,19.28 -83.71,45.17 -120.24,77.64 -69.02,58.87 -114.19,129.4 -135.49,211.61 -21.32,82.18 -31.96,167.96 -31.96,257.26l0 1004.7zm1991.12 0l0 -274.02 -88.28 0c-32.49,0 -76.62,-3.03 -132.45,-9.13 -55.81,-6.1 -104.02,-26.37 -144.63,-60.88 -26.37,-20.31 -46.16,-45.18 -59.35,-74.61 -13.18,-29.41 -22.32,-59.35 -27.39,-89.81 -5.08,-30.43 -7.63,-60.88 -7.63,-91.34 0,-32.47 0,-62.92 0,-91.34l0 -648.48 450.6 0 0 -274.01 -450.6 0 0 -517.59 -356.2 0 0 517.59 -222.26 0 0 274.01 222.26 0 0 812.9c0,103.5 13.7,186.73 41.09,249.66 27.39,62.92 67.49,115.7 120.27,158.32 50.73,40.58 108.07,70.52 172.01,89.81 63.95,19.28 150.69,28.92 260.32,28.92l222.24 0zm618.05 0l423.21 0 216.17 -538.88 1026 0 219.2 538.88 423.21 0 -803.76 -1915.04c-38.57,-89.29 -83.75,-151.71 -135.5,-187.24 -51.75,-35.5 -123.3,-53.28 -214.63,-53.28 -95.4,0 -167.97,17.78 -217.68,53.28 -49.74,35.53 -93.89,97.95 -132.45,187.24l-803.77 1915.04zm1093.01 -1692.77c6.07,-16.25 14.21,-35.02 24.36,-56.35 10.15,-21.29 22.32,-31.96 36.53,-31.96 14.2,0 26.4,10.67 36.52,31.96 10.15,21.33 18.29,40.1 24.36,56.35l347.09 867.68 -818.99 0 350.13 -867.68zm1245.24 1692.77l356.19 0 0 -1613.62 -356.19 0 0 1613.62zm356.19 -1848.06l0 -283.15 -356.19 0 0 283.15 356.19 0zm243.59 1848.06l356.2 0 0 -910.33c0,-60.88 5.08,-118.73 15.23,-173.55 10.15,-54.79 32.47,-102.48 66.98,-143.09 42.62,-50.73 92.36,-82.21 149.19,-94.37 56.83,-12.17 108.58,-18.27 155.26,-18.27l149.18 0 0 -274.01 -240.52 0c-30.43,0 -65.96,1.02 -106.54,3.03 -40.61,2.04 -82.72,7.63 -126.36,16.76 -43.65,9.13 -87.29,23.34 -130.93,42.62 -43.61,19.28 -83.71,45.17 -120.23,77.64 -69.03,58.87 -114.2,129.4 -135.5,211.61 -21.32,82.18 -31.96,167.96 -31.96,257.26l0 1004.7z"></path> <path class="fil2" d="M9685.58 7868l-240.98 0 0 523.89 -664.43 0 0 -523.89 -240.97 0 0 1277.79 240.97 0 0 -562.21 664.43 0 0 562.21 240.98 0 0 -1277.79zm1243.1 1277.79l0 -191.66 -682.72 0c-19.46,0 -36.19,-0.93 -50.19,-2.73 -13.99,-1.83 -24.66,-6.4 -31.96,-13.7 -12.16,-9.73 -18.23,-26.16 -18.23,-49.28l0 -299.37 757.54 0 0 -191.66 -757.54 0 0 -257.38c0,-9.76 0.9,-20.1 2.74,-31.06 1.83,-10.93 7.59,-21.29 17.33,-31.03 9.73,-8.5 20.39,-13.69 31.95,-15.49 11.57,-1.84 22.8,-2.77 33.76,-2.77l690.02 0 0 -191.66 -819.62 0c-24.33,0 -50.82,2.43 -79.42,7.3 -28.59,4.87 -53.22,18.86 -73.91,41.99 -13.4,15.83 -24.03,35.59 -31.96,59.32 -7.9,23.73 -11.87,48.39 -11.87,73.95l0 905.41c0,24.33 2.44,50.19 7.33,77.55 4.87,27.39 18.23,51.42 40.16,72.12 20.66,20.69 43.19,32.56 67.52,35.59 24.36,3.03 50.52,4.56 78.48,4.56l830.59 0zm0 0l253.71 0 129.61 -323.09 615.17 0 131.44 323.09 253.71 0 -481.9 -1148.18c-23.13,-53.56 -50.19,-90.95 -81.22,-112.25 -31.02,-21.29 -73.94,-31.96 -128.7,-31.96 -57.19,0 -100.71,10.67 -130.51,31.96 -29.82,21.3 -56.28,58.69 -79.41,112.25l-481.9 1148.18zm655.33 -1014.91c3.63,-9.73 8.5,-21 14.59,-33.79 6.07,-12.77 13.4,-19.17 21.9,-19.17 8.53,0 15.83,6.4 21.9,19.17 6.09,12.79 10.96,24.06 14.62,33.79l208.09 520.22 -491.03 0 209.93 -520.22zm1212.07 1014.91l0 -1086.13 500.16 0 0 -191.66 -1239.47 0 0 191.66 498.36 0 0 1086.13 240.95 0zm1615.49 0l0 -191.66 -682.72 0c-19.46,0 -36.19,-0.93 -50.19,-2.73 -14,-1.83 -24.66,-6.4 -31.96,-13.7 -12.16,-9.73 -18.23,-26.16 -18.23,-49.28l0 -299.37 757.54 0 0 -191.66 -757.54 0 0 -257.38c0,-9.76 0.9,-20.1 2.73,-31.06 1.83,-10.93 7.6,-21.29 17.33,-31.03 9.73,-8.5 20.4,-13.69 31.96,-15.49 11.56,-1.84 22.8,-2.77 33.76,-2.77l690.02 0 0 -191.66 -819.62 0c-24.33,0 -50.83,2.43 -79.42,7.3 -28.59,4.87 -53.22,18.86 -73.92,41.99 -13.39,15.83 -24.03,35.59 -31.96,59.32 -7.9,23.73 -11.86,48.39 -11.86,73.95l0 905.41c0,24.33 2.43,50.19 7.33,77.55 4.86,27.39 18.23,51.42 40.16,72.12 20.66,20.69 43.19,32.56 67.52,35.59 24.36,3.03 50.52,4.56 78.48,4.56l830.59 0zm164.26 0l240.98 0 0 -994.85c0,-13.39 0.9,-25.86 2.74,-37.42 1.83,-11.57 9.43,-22.8 22.79,-33.76 9.77,-9.74 19.5,-15.53 29.23,-17.33 9.73,-1.84 21.29,-2.77 34.69,-2.77l390.62 0c19.46,0 41.99,1.53 67.55,4.57 25.56,3.06 48.06,14.29 67.52,33.79 13.4,13.36 24.36,33.46 32.86,60.22 8.53,26.79 12.8,65.72 12.8,116.84 0,10.93 -0.3,24.33 -0.94,40.16 -0.6,15.83 -1.8,31.93 -3.63,48.36 -1.83,16.43 -4.87,32.56 -9.13,48.38 -4.27,15.83 -9.43,28.6 -15.53,38.33 -17.03,25.56 -38.03,41.39 -62.96,47.46 -24.96,6.09 -47.78,9.13 -68.45,9.13l-240.95 0c-35.29,0 -62.08,8.23 -80.34,24.66 -18.23,16.43 -27.37,37.39 -27.37,62.95l0 29.23c0,18.23 6.7,37.42 20.07,57.49 13.39,20.09 26.79,36.82 40.16,50.19l419.84 414.37 303.03 0 -485.56 -450.87 0 -9.13 164.3 0c36.49,0 68.15,-3.96 94.91,-11.86 26.76,-7.9 49.59,-18.26 68.45,-31.03 18.87,-12.79 34.4,-26.79 46.56,-41.99 12.16,-15.2 22.5,-30.73 31.03,-46.55 25.56,-47.46 41.06,-95.82 46.55,-145.11 5.47,-49.29 8.2,-97.05 8.2,-143.3 0,-46.26 -3.03,-93.71 -9.13,-142.37 -6.07,-48.69 -24.33,-94.95 -54.75,-138.74 -18.27,-27.99 -38.63,-49.89 -61.16,-65.72 -22.52,-15.83 -45.92,-27.39 -70.28,-34.69 -24.33,-7.3 -48.66,-11.86 -73.02,-13.69 -24.33,-1.81 -47.46,-2.74 -69.35,-2.74l-606.04 0c-24.33,0 -50.19,3.04 -77.58,9.13 -27.39,6.1 -52.62,20.1 -75.75,41.99 -25.56,24.33 -40.76,51.43 -45.63,81.22 -4.89,29.83 -7.33,58.12 -7.33,84.88l0 1060.57z"></path> </g> </svg> 