<svg width="257" height="66" viewBox="0 0 257 66" fill="none" xmlns="http://www.w3.org/2000/svg">
<path d="M66.5616 39.7212H76.6421C76.8758 39.7375 77.1089 39.6824 77.3122 39.5627C77.4923 39.4096 77.6089 39.1917 77.6383 38.9534H78V42H77.6383C77.6051 41.7643 77.4917 41.5484 77.3181 41.3907C77.1125 41.272 76.8772 41.2189 76.6421 41.2384H64V40.8423C64.2293 40.8082 64.4395 40.6916 64.593 40.5133C64.7085 40.302 64.7601 40.0602 64.7412 39.8186V26.4136C64.7601 26.1721 64.7085 25.9302 64.593 25.719C64.4395 25.5406 64.2293 25.424 64 25.39V25H67.2969V25.39C67.0682 25.426 66.8587 25.5423 66.7039 25.719C66.5864 25.9296 66.5327 26.1715 66.5498 26.4136L66.5616 39.7212Z" fill="#4A5568"/>
<path d="M82.4485 34.943V39.9204H90.6485C90.8894 39.9382 91.1299 39.8825 91.3394 39.7605C91.519 39.6038 91.6338 39.3841 91.6606 39.1452H92V42H91.6606C91.6309 41.762 91.5167 41.5433 91.3394 41.3847C91.1282 41.2615 90.8853 41.2058 90.6424 41.2248H80V40.9295C80.2351 40.8929 80.4498 40.773 80.6061 40.5911C80.7251 40.3802 80.7799 40.1383 80.7636 39.8958V29.1411C80.7823 28.8945 80.7274 28.648 80.6061 28.4336C80.4499 28.2535 80.2344 28.1376 80 28.1075V27.7814H90.5697C90.8112 27.7973 91.0518 27.7394 91.2606 27.6153C91.4364 27.4547 91.552 27.2373 91.5879 27H91.9333V29.8548H91.6121C91.5765 29.6188 91.4633 29.402 91.2909 29.2395C91.0804 29.1142 90.8375 29.0563 90.594 29.0734H82.4727V33.6263H87.6424C87.8822 33.6449 88.1217 33.5868 88.3273 33.4602C88.5051 33.3013 88.6212 33.0831 88.6546 32.845H88.9939V35.6998H88.6546C88.6238 35.4607 88.5073 35.2417 88.3273 35.0845C88.1217 34.9579 87.8822 34.8998 87.6424 34.9184L82.4485 34.943Z" fill="#4A5568"/>
<path d="M100.37 34.016L104.697 39.7647C104.841 40.0013 105.031 40.2054 105.255 40.3647C105.479 40.524 105.733 40.635 106 40.6912V41H102.44V40.6912C102.813 40.6556 103.022 40.5308 103.022 40.3052C102.949 40.0382 102.813 39.7936 102.626 39.5925L99.3982 35.2988L96.1177 39.5925C95.933 39.7854 95.8181 40.0367 95.7919 40.3052C95.7919 40.4655 95.9606 40.5902 96.3038 40.6912V41H93V40.6912C93.3265 40.6152 93.6287 40.4558 93.8783 40.228C94.1752 39.9374 94.4494 39.6237 94.6984 39.2896L98.6537 34.206L94.9078 29.265C94.6256 28.8087 94.1853 28.4779 93.6747 28.3385V28H97.281V28.3385C96.9378 28.4098 96.7691 28.5464 96.7691 28.7364C96.7723 29.0082 96.8714 29.2697 97.0483 29.4728L99.5843 32.9173L102.283 29.4075C102.429 29.2404 102.526 29.0345 102.562 28.8136C102.562 28.7533 102.547 28.694 102.519 28.6411C102.49 28.5882 102.449 28.5434 102.4 28.5107C102.293 28.424 102.163 28.3722 102.027 28.3623V28.0238H105.285V28.3623C104.964 28.4611 104.669 28.6338 104.424 28.8671C104.143 29.1516 103.886 29.4595 103.656 29.7876L100.37 34.016Z" fill="#4A5568"/>
<path d="M133.56 26.6465L131.809 29.4275L131.485 29.2363C131.547 29.0646 131.58 28.8847 131.583 28.7033C131.568 28.5699 131.518 28.4424 131.435 28.3336C131.353 28.2248 131.241 28.1385 131.113 28.0833C130.779 27.8804 130.43 27.7003 130.069 27.5445C128.632 26.8883 127.055 26.5552 125.46 26.5712C124.469 26.5652 123.484 26.7119 122.542 27.0057C121.662 27.2774 120.845 27.7082 120.137 28.2746C119.451 28.8366 118.903 29.5348 118.532 30.3198C118.137 31.17 117.942 32.091 117.958 33.0197C117.954 33.8931 118.15 34.7569 118.532 35.5516C118.912 36.3511 119.465 37.0657 120.155 37.649C121.643 38.8868 123.575 39.5359 125.552 39.4624C127.433 39.4717 129.263 38.8844 130.752 37.7938L131.143 37.5099C131.309 37.3905 131.464 37.2587 131.607 37.1159C131.72 37.0204 131.792 36.8882 131.809 36.7451C131.782 36.5379 131.705 36.3395 131.583 36.1658L131.9 35.934L134 38.3906L133.707 38.6223C133.56 38.4827 133.373 38.3862 133.17 38.3442C132.997 38.3825 132.837 38.4623 132.706 38.576C131.68 39.3497 130.536 39.9691 129.312 40.4126C128.036 40.811 126.699 41.0067 125.356 40.992C122.932 41.0884 120.559 40.3101 118.715 38.8135C118.29 38.4479 117.904 38.0443 117.561 37.6084C117.231 37.1794 116.949 36.7193 116.718 36.2353C116.252 35.2534 116.009 34.1894 116.004 33.1124C115.953 31.6148 116.37 30.1364 117.203 28.8638C118.037 27.5913 119.249 26.5817 120.686 25.9628C122.182 25.3089 123.813 24.9803 125.46 25.001C127.168 24.9805 128.865 25.2696 130.459 25.8527C130.967 26.0443 131.462 26.2629 131.943 26.5074C132.407 26.7392 132.645 26.8551 132.657 26.8551C132.732 26.853 132.805 26.8287 132.865 26.7855C132.938 26.743 133.004 26.6903 133.06 26.6291L133.243 26.4379L133.56 26.6465Z" fill="#4A5568"/>
<path d="M152 34.5073C152 35.4115 151.793 36.3052 151.393 37.1277C151.002 37.9518 150.42 38.6835 149.689 39.2695C148.034 40.3944 146.043 41 144 41C141.957 41 139.966 40.3944 138.311 39.2695C137.583 38.6849 137.003 37.9551 136.613 37.1334C136.209 36.3078 136 35.4101 136 34.5016C136 33.5932 136.209 32.6955 136.613 31.8699C137.003 31.0516 137.583 30.3256 138.311 29.7452C139.068 29.1426 139.95 28.6945 140.901 28.4293C141.91 28.1452 142.959 28.0032 144.012 28.0078C146.066 27.9224 148.083 28.5397 149.689 29.7452C150.421 30.3258 151.003 31.0541 151.393 31.8756C151.795 32.7017 152.002 33.5994 152 34.5073ZM150.229 34.5073C150.25 33.5287 149.954 32.5672 149.38 31.7503C148.814 30.9591 148.024 30.3318 147.099 29.9389C146.128 29.5259 145.075 29.3123 144.009 29.3123C142.943 29.3123 141.89 29.5259 140.919 29.9389C139.992 30.3309 139.2 30.9583 138.632 31.7503C138.072 32.5745 137.774 33.5322 137.774 34.5102C137.774 35.4882 138.072 36.4459 138.632 37.2701C139.2 38.0621 139.992 38.6895 140.919 39.0815C141.89 39.4945 142.943 39.7081 144.009 39.7081C145.075 39.7081 146.128 39.4945 147.099 39.0815C148.024 38.6886 148.814 38.0613 149.38 37.2701C149.958 36.4502 150.256 35.4846 150.235 34.5016L150.229 34.5073Z" fill="#4A5568"/>
<path d="M156.177 30.0489V39.6935C156.158 39.9251 156.21 40.1571 156.327 40.3586C156.484 40.5326 156.695 40.6497 156.927 40.6912V41H154V40.6912C154.232 40.6497 154.443 40.5326 154.6 40.3586C154.717 40.1571 154.769 39.9251 154.75 39.6935V29.3362C154.769 29.1008 154.717 28.8651 154.6 28.6592C154.446 28.4832 154.233 28.3691 154 28.3385V28H158.277V28.3385C157.863 28.4395 157.677 28.6176 157.677 28.8849C157.716 29.2229 157.878 29.5353 158.133 29.7638L165.847 38.3157V29.3362C165.866 29.1008 165.814 28.8651 165.697 28.6592C165.543 28.4832 165.33 28.3691 165.097 28.3385V28H168V28.3385C167.767 28.3691 167.554 28.4832 167.4 28.6592C167.281 28.8645 167.227 29.1002 167.244 29.3362V39.6935C167.227 39.9249 167.28 40.1562 167.394 40.3586C167.553 40.5302 167.763 40.6468 167.994 40.6912V41H164.563V40.6912C164.722 40.6412 164.879 40.5817 165.031 40.513C165.076 40.4834 165.111 40.4424 165.135 40.3943C165.158 40.3463 165.168 40.2929 165.163 40.2398C165.167 40.0878 165.118 39.939 165.025 39.8182C164.935 39.7113 164.791 39.545 164.587 39.3312L156.177 30.0489Z" fill="#4A5568"/>
<path d="M182.788 28.8621L181.548 31.2657L181.267 31.1572C181.295 30.9987 181.31 30.8384 181.314 30.6776C181.311 30.6072 181.289 30.5387 181.251 30.4787C181.214 30.4188 181.16 30.3693 181.097 30.3351C180.936 30.2298 180.766 30.1382 180.588 30.0611C179.433 29.4855 178.147 29.2028 176.85 29.2389C175.808 29.2306 174.774 29.4247 173.808 29.8098C173.391 29.9388 173.028 30.1969 172.775 30.5451C172.522 30.8933 172.392 31.3127 172.404 31.7396C172.403 32.0882 172.512 32.4288 172.714 32.7158C172.928 33.0056 173.228 33.2232 173.574 33.3381C174.085 33.4872 174.611 33.5792 175.142 33.6122L176.365 33.6636C176.809 33.6636 177.166 33.7035 177.435 33.7092C178.465 33.7435 179.278 33.7949 179.881 33.8748C180.468 33.9451 181.035 34.1295 181.548 34.4172C182.021 34.6815 182.4 35.0797 182.636 35.559C182.881 36.0434 183.005 36.5775 182.999 37.1176C183.011 37.5275 182.937 37.9355 182.78 38.3158C182.623 38.6961 182.386 39.0405 182.086 39.3271C181.445 39.9263 180.664 40.3634 179.81 40.6003C178.942 40.859 178.039 40.9936 177.131 40.9999C175.649 41.0058 174.18 40.7345 172.802 40.2006C172.204 39.9719 171.618 39.7127 171.047 39.4242C170.976 39.3605 170.886 39.3205 170.79 39.31C170.624 39.3405 170.476 39.43 170.374 39.5612L170.257 39.6982L170 39.5383L171.445 37.1633L171.726 37.3003C171.629 37.4414 171.588 37.6115 171.609 37.7799C171.619 37.8803 171.669 37.9726 171.749 38.0368C171.855 38.1427 171.973 38.2366 172.1 38.3166L172.51 38.5507L172.773 38.6877C174.087 39.3624 175.552 39.7096 177.037 39.6982C177.697 39.6956 178.353 39.6132 178.991 39.4527C179.619 39.3113 180.205 39.0321 180.705 38.6363C180.935 38.4529 181.118 38.2206 181.24 37.9573C181.363 37.694 181.422 37.4068 181.413 37.1176C181.412 36.7754 181.306 36.4414 181.109 36.1585C180.913 35.8759 180.634 35.6588 180.308 35.5362C179.978 35.4319 179.639 35.3574 179.296 35.3135C178.95 35.2736 178.5 35.2393 177.944 35.2222H177.084C175.967 35.1708 175.154 35.1194 174.633 35.0738C174.051 35.0083 173.478 34.88 172.925 34.6912C172.334 34.5026 171.808 34.1589 171.404 33.6978C170.989 33.1757 170.781 32.5249 170.819 31.8652C170.806 31.4566 170.88 31.0499 171.036 30.6706C171.192 30.2912 171.427 29.9476 171.726 29.6614C172.36 29.0652 173.136 28.6317 173.984 28.3997C174.846 28.1378 175.743 28.0031 176.646 28C178.372 27.997 180.08 28.3552 181.653 29.0505C181.78 29.1086 181.914 29.1527 182.051 29.1818C182.203 29.1818 182.349 29.0505 182.49 28.7765L182.788 28.8621Z" fill="#4A5568"/>
<path d="M185 28.3076V28H188.096V28.3076C187.872 28.3433 187.667 28.4538 187.514 28.621C187.393 28.8196 187.338 29.0511 187.357 29.2825V36.3859C187.357 37.5814 187.624 38.3997 188.154 38.8408C188.833 39.3863 189.997 39.6591 191.645 39.6591C193.479 39.6591 194.706 39.3283 195.341 38.6609C195.731 38.272 195.923 37.5698 195.923 36.5484V29.2825C195.941 29.0511 195.886 28.8196 195.765 28.621C195.612 28.4549 195.407 28.3446 195.184 28.3076V28H198V28.3076C197.776 28.3419 197.57 28.4526 197.418 28.621C197.303 28.8215 197.25 29.0519 197.267 29.2825V36.1306C197.287 36.9117 197.205 37.692 197.022 38.452C196.834 39.0802 196.438 39.6263 195.899 40.0015C195.328 40.4095 194.671 40.6833 193.979 40.8023C193.156 40.9394 192.323 41.0055 191.488 40.9996C190.896 41.0024 190.303 40.9733 189.714 40.9126C189.176 40.857 188.646 40.7382 188.137 40.5586C187.64 40.385 187.181 40.117 186.786 39.7693C186.361 39.3592 186.067 38.8319 185.943 38.2546C185.802 37.5556 185.737 36.8435 185.751 36.1306V29.2825C185.767 29.0519 185.715 28.8215 185.599 28.621C185.445 28.4461 185.232 28.3345 185 28.3076Z" fill="#4A5568"/>
<path d="M203.275 39.9524H210.762C210.984 39.9699 211.207 39.915 211.4 39.7949C211.567 39.6402 211.675 39.4244 211.703 39.1891H212V42H211.703C211.672 41.7657 211.564 41.551 211.4 41.3942C211.206 41.2762 210.984 41.2235 210.762 41.2428H201V40.9459C201.218 40.9115 201.417 40.7932 201.56 40.6127C201.67 40.4051 201.721 40.1669 201.706 39.9282V29.3388C201.722 29.0981 201.671 28.8576 201.56 28.6482C201.416 28.4696 201.217 28.3534 201 28.3211V28H203.981V28.3211C203.765 28.3583 203.568 28.4737 203.421 28.6482C203.305 28.8556 203.252 29.0972 203.269 29.3388L203.275 39.9524Z" fill="#4A5568"/>
<path d="M218.336 29.0337V39.6684C218.318 39.9032 218.373 40.1378 218.494 40.3403C218.658 40.5121 218.869 40.6321 219.101 40.6853V41H215.862V40.6853C216.096 40.64 216.309 40.5212 216.47 40.3463C216.584 40.1393 216.634 39.9037 216.616 39.6684V29.0337H212.337C212.095 29.0146 211.852 29.0717 211.644 29.1971C211.47 29.3569 211.355 29.5699 211.316 29.8024H211V27.006H211.316C211.351 27.2411 211.47 27.4559 211.65 27.6113C211.859 27.7302 212.098 27.7849 212.337 27.7687H222.669C222.906 27.7865 223.142 27.7293 223.344 27.6053C223.52 27.4483 223.634 27.2336 223.666 27H224V29.7903H223.666C223.631 29.5565 223.515 29.3424 223.338 29.185C223.128 29.0629 222.887 29.006 222.645 29.0216L218.336 29.0337Z" fill="#4A5568"/>
<path d="M225 28.3076V28H228.096V28.3076C227.872 28.3446 227.667 28.4549 227.514 28.621C227.393 28.8196 227.338 29.0511 227.357 29.2825V36.3859C227.357 37.5814 227.624 38.3997 228.154 38.8408C228.833 39.3863 229.997 39.6591 231.645 39.6591C233.477 39.6591 234.708 39.3263 235.341 38.6609C235.731 38.272 235.923 37.5698 235.923 36.5484V29.2825C235.941 29.0511 235.886 28.8196 235.765 28.621C235.612 28.4549 235.407 28.3446 235.184 28.3076V28H238V28.3076C237.775 28.3405 237.569 28.4515 237.418 28.621C237.298 28.8196 237.243 29.0511 237.261 29.2825V36.1306C237.281 36.9117 237.199 37.692 237.017 38.452C236.828 39.0802 236.433 39.6263 235.893 40.0015C235.322 40.4095 234.666 40.6833 233.973 40.8023C233.152 40.9394 232.321 41.0055 231.488 40.9996C230.896 41.0025 230.303 40.9735 229.714 40.9126C229.176 40.8576 228.646 40.7388 228.137 40.5586C227.639 40.3868 227.18 40.1185 226.786 39.7693C226.341 39.3728 226.026 38.8507 225.885 38.272C225.743 37.5731 225.679 36.8609 225.692 36.148V29.3C225.708 29.0701 225.658 28.8407 225.547 28.6384C225.408 28.469 225.215 28.3522 225 28.3076Z" fill="#4A5568"/>
<path d="M248.878 41L243.2 30.0489V39.6935C243.183 39.9249 243.236 40.1562 243.353 40.3586C243.515 40.5302 243.729 40.6468 243.964 40.6912V41H241V40.6912C241.236 40.6497 241.451 40.5326 241.611 40.3586C241.73 40.1571 241.784 39.9251 241.764 39.6935V29.3362C241.783 29.1008 241.73 28.8651 241.611 28.6592C241.455 28.4832 241.237 28.3691 241 28.3385V28H245.089V28.3385C244.679 28.4157 244.477 28.5583 244.477 28.7661C244.523 29.0507 244.622 29.3247 244.771 29.5738L249.006 37.8881L253.235 29.5738C253.387 29.3435 253.487 29.0843 253.529 28.8136C253.529 28.582 253.333 28.4217 252.917 28.3385V28H257V28.3385C256.765 28.375 256.549 28.4881 256.389 28.6592C256.268 28.8645 256.212 29.1002 256.23 29.3362V39.6935C256.212 39.9219 256.268 40.1501 256.389 40.3467C256.549 40.5224 256.763 40.6432 257 40.6912V41H253.773V40.6912C254.009 40.6456 254.224 40.5268 254.384 40.3527C254.506 40.1541 254.561 39.9239 254.543 39.6935V30.0489L248.878 41Z" fill="#4A5568"/>
<path d="M17.3753 35.0947H26.7539C26.9712 35.1089 27.1884 35.0646 27.3784 34.9673C27.5419 34.8407 27.6493 34.6643 27.6806 34.4708H28V37H27.6692C27.6403 36.8101 27.5394 36.6354 27.3841 36.5061C27.1925 36.4077 26.9732 36.3633 26.7539 36.3788H15V36.0538C15.2091 36.0297 15.4016 35.9374 15.5418 35.7939C15.6492 35.62 15.6979 35.4211 15.6815 35.2221V24.1593C15.6984 23.9594 15.6498 23.7595 15.5418 23.5848C15.4009 23.4421 15.2088 23.35 15 23.3249V23H18.0597V23.3249C17.8526 23.3527 17.6624 23.4444 17.5207 23.5848C17.4091 23.7583 17.3583 23.9588 17.3753 24.1593V35.0947Z" fill="#4A5568"/>
<path d="M41.6187 29.538L40.061 32.1429L39.777 31.9667C39.832 31.806 39.8621 31.6378 39.8663 31.468C39.8522 31.3426 39.8063 31.2229 39.7329 31.1204C39.6595 31.0179 39.5611 30.936 39.4471 30.8825C39.151 30.6936 38.842 30.526 38.5222 30.381C37.244 29.7643 35.841 29.4517 34.4224 29.4675C33.5435 29.462 32.6695 29.5993 31.8344 29.8741C31.0522 30.1269 30.3273 30.5312 29.7006 31.0641C29.0893 31.5893 28.6016 32.2438 28.2727 32.9805C27.9232 33.7779 27.7489 34.6414 27.7616 35.5123C27.7592 36.3324 27.9335 37.1433 28.2727 37.8895C28.611 38.6406 29.103 39.312 29.7169 39.8602C30.9663 40.9914 32.5627 41.5571 34.5063 41.5571C36.1769 41.5668 37.8028 41.0162 39.1253 39.993L39.4741 39.722C39.6208 39.6103 39.7582 39.487 39.8852 39.3533C39.984 39.2641 40.0466 39.1416 40.061 39.0091C40.0352 38.8233 39.9687 38.6456 39.8663 38.4886L40.1367 38.269L42 40.5731L41.7296 40.79C41.6001 40.6557 41.4349 40.5616 41.2536 40.5189C41.0981 40.5523 40.9549 40.6283 40.8398 40.7385C39.929 41.4621 38.913 42.0416 37.8272 42.457C36.6932 42.8309 35.5052 43.0141 34.3115 42.9992C31.8957 42.9992 29.9296 42.3179 28.4134 40.9553C28.0344 40.6143 27.691 40.2356 27.3884 39.825C27.0957 39.4224 26.8447 38.991 26.6393 38.5374C26.4293 38.0774 26.2706 37.5956 26.1661 37.1007C26.0588 36.6111 26.0044 36.1112 26.0038 35.6099C25.9579 34.2051 26.3289 32.8183 27.0698 31.625C27.8107 30.4317 28.8881 29.4856 30.1658 28.9064C31.4923 28.2915 32.9394 27.9821 34.4008 28.001C35.9192 27.981 37.4274 28.2524 38.844 28.8007C39.2937 28.9811 39.7333 29.1856 40.161 29.4133C40.5721 29.6302 40.783 29.7413 40.7966 29.7413C40.8639 29.739 40.929 29.7164 40.9832 29.6762C41.0459 29.6349 41.1032 29.5857 41.1535 29.5299L41.3158 29.3482L41.6187 29.538Z" fill="#4A5568"/>
<path fill-rule="evenodd" clip-rule="evenodd" d="M27.0014 0L40.5364 8.29119L40.5366 8.29135L54 16.5416V49.4584L27.0014 66L0 49.4584V16.5416L13.4634 8.29135L27.0014 0ZM3.78312 18.6902V47.3098L27.0012 61.5337L50.2169 47.3098V18.6902L38.5734 11.5551L38.5732 11.555L27.0012 4.46627L3.78312 18.6902Z" fill="#4A5568"/>
<path fill-rule="evenodd" clip-rule="evenodd" d="M27.9531 53.3348L10.4699 43L2 47.6612V47.7967L15 55.3997L28 63L27.9531 53.3348Z" fill="#4A5568"/>
<path fill-rule="evenodd" clip-rule="evenodd" d="M44.6076 43L54 48.3469V49.7808L40.7858 57.775L26.2792 65L26 54.5226L44.6076 43ZM44.6566 45.6423L28.3115 55.7639L28.4611 61.3755L39.684 55.7859L50.7332 49.1015L44.6566 45.6423Z" fill="#4A5568"/>
<path fill-rule="evenodd" clip-rule="evenodd" d="M27.0477 12.6652L43.8541 23L52 18.3388V18.206L39.5013 10.603L27 3L27.0477 12.6652Z" fill="#4A5568"/>
<path fill-rule="evenodd" clip-rule="evenodd" d="M28.7108 1L29 11.4774L9.72492 23L0 17.653V16.2219L13.6861 8.22502L28.7108 1ZM14.8274 10.214L3.38532 16.8998L9.67442 20.3577L26.6059 10.236L26.451 4.62451L14.8274 10.214Z" fill="#4A5568"/>
</svg>
