<svg width="188" height="78" viewBox="0 0 188 78" fill="none" xmlns="http://www.w3.org/2000/svg">
<path d="M172.567 71.6865L160.593 54.3903H159.883H147.377V71.6865H133.008V9.59741H159.883C165.383 9.59741 170.143 10.514 174.164 12.3471C178.244 14.1802 181.378 16.782 183.566 20.1526C185.754 23.5231 186.848 27.5146 186.848 32.1269C186.848 36.7392 185.724 40.7307 183.477 44.1012C181.289 47.4126 178.155 49.9553 174.075 51.7293L188.001 71.6865H172.567ZM172.301 32.1269C172.301 28.6381 171.178 25.9771 168.931 24.144C166.684 22.2518 163.402 21.3056 159.085 21.3056H147.377V42.9481H159.085C163.402 42.9481 166.684 42.002 168.931 40.1098C171.178 38.2175 172.301 35.5566 172.301 32.1269Z" fill="#004A7A"/>
<path d="M111.236 34.8647C116.689 35.7513 120.868 37.7904 123.772 40.9821C126.676 44.1146 128.129 48.0155 128.129 52.6848C128.129 56.2902 127.18 59.6296 125.284 62.7031C123.387 65.7174 120.482 68.1407 116.57 69.973C112.717 71.8052 107.976 72.7213 102.345 72.7213C97.9583 72.7213 93.6313 72.1598 89.3636 71.0368C85.1552 69.8547 81.5692 68.1998 78.6055 66.072L84.2068 55.0785C86.5778 56.8517 89.3044 58.2407 92.3866 59.2454C95.5281 60.1911 98.7289 60.664 101.989 60.664C105.605 60.664 108.45 59.9842 110.524 58.6248C112.599 57.2063 113.636 55.2263 113.636 52.6848C113.636 47.6018 109.754 45.0603 101.989 45.0603H95.4096V35.574L108.213 21.1228H81.7173V9.59741H125.284V18.9064L111.236 34.8647Z" fill="#004A7A"/>
<path d="M64.4623 16.8467L49.8227 24.4122C53.3048 27.1113 55.8557 30.8296 57.1188 35.0475C58.382 39.2654 58.2942 43.7722 56.8678 47.9378C55.4414 52.1035 52.7476 55.7199 49.163 58.2817C45.5784 60.8434 41.282 62.2225 36.8744 62.2262H36.8441C31.2454 62.2244 25.8767 60.0014 21.9187 56.0462C17.9608 52.0909 15.7378 46.7273 15.7387 41.135V41.1047C15.7355 35.885 17.6671 30.8488 21.1611 26.9673C24.6551 23.0858 29.4641 20.6339 34.6608 20.0842V4.45176V4.43494C26.3523 4.92027 18.4537 8.20366 12.2536 13.7494C6.05359 19.2952 1.91806 26.7759 0.521782 34.9712C-0.874498 43.1665 0.550885 51.5925 4.56538 58.8746C8.57987 66.1567 14.9465 71.8649 22.6266 75.0681C30.3066 78.2712 38.8467 78.7802 46.8536 76.5119C54.8605 74.2436 61.8614 69.3319 66.7143 62.5783C71.5672 55.8247 73.9855 47.6277 73.5746 39.3247C73.1638 31.0217 69.9481 23.1029 64.4522 16.8601L64.4623 16.8467Z" fill="#004A7A"/>
<path d="M62.5278 11.7212C62.8409 11.8831 63.1034 12.1283 63.2867 12.4299C63.47 12.7314 63.567 13.0778 63.567 13.431C63.567 13.7842 63.47 14.1305 63.2867 14.4321C63.1034 14.7337 62.8409 14.9789 62.5278 15.1407L40.3441 26.5447C40.0511 26.6957 39.7243 26.7685 39.3951 26.7561C39.0659 26.7437 38.7455 26.6465 38.4646 26.4738C38.1838 26.3012 37.952 26.059 37.7916 25.7705C37.6312 25.4819 37.5476 25.1569 37.5488 24.8265L37.6261 1.91754C37.6272 1.58771 37.7128 1.26369 37.8747 0.976599C38.0366 0.68951 38.2695 0.448996 38.5508 0.278156C38.8322 0.107316 39.1526 0.0118894 39.4814 0.00104099C39.8101 -0.00980746 40.1361 0.0642869 40.4281 0.216208L62.5278 11.7212Z" fill="#E71F2A"/>
<path d="M6.34761 36.9465L8.17586 35.9976C8.18498 35.8511 8.19511 35.7365 8.20624 35.6536L8.3868 34.3093L6.73169 34.087L6.83606 33.3099L12.2754 34.0405L11.9905 36.1619C11.8958 36.8664 11.653 37.3981 11.262 37.7569C10.871 38.1157 10.3803 38.2555 9.78971 38.1762C9.3701 38.1198 9.02657 37.9682 8.75913 37.7213C8.49168 37.4745 8.31636 37.1503 8.23316 36.7489L6.23385 37.7935L6.34761 36.9465ZM8.86986 35.719C8.80376 36.2111 8.85951 36.6009 9.03712 36.8885C9.21472 37.176 9.50037 37.3463 9.89408 37.3991C10.2878 37.452 10.6056 37.3629 10.8476 37.1317C11.0948 36.9012 11.2515 36.5399 11.3176 36.0478L11.495 34.7268L9.04729 34.398L8.86986 35.719Z" fill="white"/>
<path d="M8.43978 42.9611C8.38233 42.9633 8.30639 42.961 8.21198 42.9542L8.08197 39.5854C7.71818 39.6465 7.42923 39.8172 7.21513 40.0975C7.00645 40.3828 6.90997 40.7291 6.92569 41.1365C6.94484 41.6327 7.12739 42.0258 7.47335 42.3158L7.00364 42.7498C6.77702 42.5702 6.60081 42.3416 6.47502 42.064C6.34944 41.7916 6.27999 41.4831 6.26669 41.1384C6.24976 40.6997 6.32353 40.3071 6.48801 39.9608C6.65771 39.6142 6.90085 39.3407 7.21741 39.1402C7.53418 38.9449 7.89626 38.8394 8.30365 38.8236C8.70582 38.8081 9.07224 38.8829 9.40292 39.048C9.73379 39.2183 9.99407 39.4567 10.1837 39.7632C10.3788 40.0748 10.484 40.429 10.4994 40.826C10.5147 41.2229 10.4369 41.579 10.266 41.8942C10.1005 42.2144 9.85916 42.467 9.54199 42.6518C9.22502 42.8419 8.85762 42.945 8.43978 42.9611ZM9.86478 40.8504C9.85087 40.4901 9.7295 40.1914 9.50066 39.9544C9.27203 39.7226 8.97932 39.5926 8.62255 39.5646L8.72534 42.2283C9.07367 42.173 9.35278 42.0184 9.56267 41.7644C9.77798 41.5155 9.87869 41.2108 9.86478 40.8504Z" fill="white"/>
<path d="M13.078 47.1408L7.3847 48.3364L7.23646 47.6305L7.88098 47.4951C7.62153 47.3787 7.40667 47.2075 7.23638 46.9816C7.06609 46.7556 6.94926 46.4918 6.88588 46.19C6.80317 45.7961 6.816 45.4249 6.9244 45.0763C7.03279 44.7278 7.2242 44.4312 7.49863 44.1866C7.77925 43.9461 8.12418 43.7829 8.5334 43.697C8.94262 43.611 9.3215 43.6222 9.67006 43.7306C10.0197 43.8441 10.3142 44.0386 10.5537 44.3142C10.7931 44.5897 10.9542 44.9244 11.0369 45.3182C11.0981 45.6098 11.0983 45.8902 11.0373 46.1593C10.9814 46.4274 10.8633 46.6659 10.6828 46.8747L12.9233 46.4042L13.078 47.1408ZM7.54329 46.116C7.597 46.3718 7.70471 46.5921 7.8664 46.7772C8.03321 46.9611 8.23639 47.0893 8.47594 47.1619C8.7206 47.2333 8.9836 47.2395 9.26494 47.1804C9.54628 47.1214 9.78201 47.0104 9.97215 46.8477C10.1674 46.6838 10.3018 46.4847 10.3754 46.2503C10.449 46.0158 10.459 45.7707 10.4053 45.515C10.3505 45.2541 10.2423 45.0311 10.0806 44.8461C9.91994 44.6662 9.71676 44.538 9.47102 44.4614C9.23148 44.3889 8.97103 44.3821 8.68969 44.4412C8.40835 44.5003 8.17006 44.6118 7.97481 44.7756C7.78575 44.9435 7.65132 45.1426 7.57153 45.373C7.49792 45.6075 7.48851 45.8551 7.54329 46.116Z" fill="white"/>
<path d="M13.2521 52.1547L9.40366 53.7221L9.13455 53.0613L9.71544 52.8248C9.45979 52.7652 9.22898 52.6419 9.02301 52.4549C8.82386 52.2708 8.66907 52.0432 8.55867 51.7721C8.34969 51.259 8.32545 50.7976 8.48595 50.388C8.65129 49.9763 9.00988 49.6582 9.56173 49.4334L11.7764 48.5314L12.0603 49.2285L9.9255 50.098C9.55276 50.2498 9.30605 50.4546 9.18537 50.7126C9.06952 50.9686 9.07962 51.2636 9.21566 51.5976C9.36549 51.9655 9.59512 52.2106 9.90454 52.3329C10.214 52.4552 10.572 52.4336 10.9786 52.268L12.9682 51.4577L13.2521 52.1547Z" fill="white"/>
<path d="M11.1969 56.9135C10.9757 56.5535 10.8552 56.183 10.8353 55.8021C10.8182 55.4255 10.8955 55.0731 11.0672 54.7448C11.2433 54.4137 11.5039 54.1405 11.8492 53.9253C12.1944 53.71 12.5511 53.5982 12.9194 53.5899C13.2921 53.5787 13.6397 53.6662 13.9622 53.8524C14.2918 54.0402 14.5672 54.3141 14.7884 54.674C14.985 54.994 15.0956 55.3184 15.1202 55.6473C15.1475 55.9806 15.0817 56.292 14.9229 56.5816L14.3119 56.2895C14.4118 56.0736 14.4533 55.8572 14.4364 55.6403C14.4195 55.4235 14.3495 55.215 14.2267 55.0151C14.0847 54.784 13.9055 54.6069 13.689 54.4837C13.4752 54.365 13.2404 54.3116 12.9846 54.3236C12.7359 54.3373 12.4899 54.4201 12.2464 54.5718C11.9986 54.7264 11.8109 54.9141 11.6834 55.135C11.5631 55.3575 11.508 55.5916 11.5181 55.8373C11.531 56.0874 11.6085 56.328 11.7504 56.5591C11.8733 56.7591 12.0273 56.915 12.2124 57.027C12.3975 57.139 12.6083 57.1981 12.8448 57.2044L12.8384 57.8814C12.5103 57.8954 12.2021 57.8171 11.9137 57.6466C11.6324 57.4778 11.3935 57.2334 11.1969 56.9135Z" fill="white"/>
<path d="M16.9145 60.8929C16.8709 60.9303 16.8099 60.9756 16.7317 61.0289L14.5378 58.4692C14.2906 58.743 14.1701 59.0562 14.1763 59.4088C14.1899 59.762 14.3294 60.0934 14.5947 60.403C14.9178 60.78 15.305 60.9747 15.7563 60.9872L15.6576 61.6191C15.3685 61.6191 15.0885 61.5493 14.8175 61.4098C14.5499 61.2743 14.3038 61.0756 14.0793 60.8137C13.7936 60.4803 13.6077 60.1269 13.5215 59.7532C13.4393 59.3762 13.46 59.0108 13.5836 58.6571C13.7106 58.3073 13.9289 57.9997 14.2384 57.7344C14.544 57.4725 14.8777 57.3036 15.2394 57.2276C15.6045 57.1556 15.9565 57.1808 16.2955 57.3033C16.6419 57.4263 16.9444 57.6387 17.2029 57.9403C17.4614 58.2419 17.6216 58.5693 17.6833 58.9225C17.7525 59.2763 17.7202 59.6241 17.5864 59.9659C17.456 60.3118 17.232 60.6207 16.9145 60.8929ZM16.7207 58.3536C16.486 58.0797 16.2054 57.921 15.8788 57.8773C15.5557 57.8376 15.2456 57.9176 14.9485 58.1171L16.6833 60.1411C16.9219 59.8814 17.0447 59.5869 17.0515 59.2575C17.0657 58.9287 16.9554 58.6274 16.7207 58.3536Z" fill="white"/>
<path d="M25.3635 69.0569L25.0472 67.0215C24.9114 66.9661 24.8059 66.9199 24.7309 66.883L23.5144 66.2831L22.7758 67.7808L22.0727 67.434L24.5 62.5118L26.4197 63.4585C27.0572 63.7729 27.4837 64.1726 27.699 64.6577C27.9144 65.1427 27.8903 65.6524 27.6268 66.1868C27.4396 66.5665 27.1863 66.8437 26.867 67.0185C26.5477 67.1932 26.1846 67.256 25.7776 67.2068L26.1299 69.4349L25.3635 69.0569ZM25.0046 66.2749C25.4499 66.4945 25.8372 66.566 26.1663 66.4894C26.4955 66.4128 26.7479 66.1963 26.9236 65.84C27.0993 65.4838 27.1162 65.1541 26.9743 64.851C26.8347 64.5432 26.5422 64.2795 26.0969 64.0599L24.9015 63.4704L23.8092 65.6854L25.0046 66.2749Z" fill="white"/>
<path d="M31.7711 68.9268C31.7558 68.9822 31.7307 69.0539 31.6956 69.1418L28.4456 68.2454C28.3937 68.6106 28.4688 68.9377 28.6711 69.2266C28.8798 69.5119 29.1806 69.7088 29.5736 69.8172C30.0523 69.9492 30.4822 69.8943 30.8634 69.6524L31.1348 70.2315C30.895 70.3931 30.6238 70.4918 30.3211 70.5276C30.0235 70.5648 29.7084 70.5375 29.3758 70.4458C28.9526 70.329 28.6008 70.1398 28.3206 69.8782C28.0417 69.6115 27.8547 69.2969 27.7594 68.9345C27.6692 68.5735 27.6784 68.1964 27.7868 67.8034C27.8938 67.4154 28.076 67.0889 28.3335 66.8237C28.596 66.56 28.9021 66.3841 29.2516 66.2962C29.6076 66.2046 29.9771 66.2117 30.36 66.3173C30.743 66.4229 31.0588 66.6049 31.3074 66.8632C31.5625 67.1179 31.7301 67.4244 31.8102 67.7827C31.8953 68.1423 31.8823 68.5237 31.7711 68.9268ZM30.1912 66.9295C29.8435 66.8336 29.5221 66.8588 29.2269 67.0051C28.9368 67.1528 28.7243 67.3924 28.5895 67.7239L31.1592 68.4327C31.212 68.084 31.1492 67.7712 30.9707 67.4942C30.7987 67.2136 30.5389 67.0254 30.1912 66.9295Z" fill="white"/>
<path d="M36.9396 67.3519L36.5796 71.4916L35.8688 71.4298L35.9231 70.805C35.7536 71.0053 35.5386 71.1545 35.2782 71.2526C35.0235 71.3458 34.7504 71.3798 34.4588 71.3544C33.9068 71.3064 33.4852 71.1176 33.1938 70.788C32.9029 70.4531 32.7832 69.9889 32.8348 69.3953L33.042 67.013L33.7918 67.0782L33.5921 69.3746C33.5573 69.7755 33.6271 70.0885 33.8017 70.3136C33.9767 70.5334 34.2438 70.6589 34.6031 70.6902C34.9989 70.7246 35.3217 70.632 35.5717 70.4124C35.8216 70.1928 35.9656 69.8643 36.0036 69.4269L36.1897 67.2867L36.9396 67.3519Z" fill="white"/>
<path d="M39.6072 71.3606C39.2692 71.3884 38.9407 71.371 38.6217 71.3083C38.3022 71.2405 38.0485 71.1436 37.8605 71.0178L38.125 70.3992C38.3174 70.5142 38.5467 70.6 38.8129 70.6565C39.0791 70.7131 39.3448 70.7304 39.61 70.7086C40.2652 70.6545 40.5777 70.4403 40.5478 70.0659C40.5378 69.941 40.4857 69.8459 40.3915 69.7804C40.2973 69.7148 40.1813 69.6721 40.0436 69.652C39.9107 69.6263 39.7204 69.6028 39.4727 69.5813C39.1358 69.5567 38.858 69.5194 38.6394 69.4694C38.426 69.419 38.2375 69.3193 38.0738 69.1706C37.9101 69.0218 37.8166 68.8018 37.7933 68.5105C37.7634 68.1361 37.8954 67.8242 38.1895 67.5748C38.4832 67.3203 38.8926 67.1713 39.4178 67.128C39.6934 67.1053 39.9716 67.1164 40.2526 67.1613C40.5336 67.2061 40.7671 67.2785 40.953 67.3783L40.6807 67.9976C40.3252 67.807 39.9187 67.7306 39.4611 67.7684C39.144 67.7945 38.9064 67.8665 38.7483 67.9842C38.5902 68.1019 38.5181 68.2466 38.5318 68.4182C38.5426 68.5534 38.5979 68.6562 38.6978 68.7265C38.7976 68.7968 38.9166 68.8445 39.0547 68.8698C39.198 68.8946 39.3963 68.9202 39.6496 68.9464C39.9869 68.9761 40.2597 69.0165 40.4679 69.0673C40.6809 69.1126 40.8664 69.2072 41.0245 69.3512C41.1825 69.4953 41.2728 69.7077 41.2953 69.9885C41.3252 70.363 41.188 70.6753 40.8835 70.9255C40.5838 71.1701 40.1584 71.3151 39.6072 71.3606Z" fill="white"/>
<path d="M45.907 68.1189C45.9203 68.1749 45.9329 68.2498 45.9446 68.3437L42.6659 69.1284C42.7968 69.4733 43.0206 69.7234 43.3373 69.8787C43.6578 70.0277 44.0163 70.0548 44.4128 69.9599C44.8957 69.8443 45.2456 69.5886 45.4626 69.1927L45.9799 69.5687C45.848 69.826 45.6581 70.0434 45.4104 70.221C45.1678 70.3973 44.8787 70.5256 44.5432 70.6059C44.1162 70.7081 43.7168 70.7123 43.345 70.6185C42.972 70.5197 42.6563 70.3346 42.3979 70.0633C42.1446 69.7907 41.9704 69.4561 41.8755 69.0596C41.7819 68.6682 41.7837 68.2943 41.8811 67.9377C41.9836 67.58 42.1667 67.2782 42.4303 67.0324C42.6978 66.7802 43.0247 66.6079 43.411 66.5155C43.7974 66.423 44.1618 66.4298 44.5043 66.536C44.8506 66.6358 45.1454 66.8232 45.3886 67.0982C45.6368 67.372 45.8096 67.7123 45.907 68.1189ZM43.5589 67.1331C43.2081 67.217 42.9388 67.3944 42.751 67.665C42.5683 67.9345 42.4979 68.2469 42.54 68.6023L45.1325 67.9818C45.0103 67.651 44.8042 67.4074 44.5142 67.2511C44.228 67.0885 43.9096 67.0491 43.5589 67.1331Z" fill="white"/>
<path d="M57.0059 64.2194L55.0523 63.5857C54.942 63.6823 54.8535 63.7558 54.7869 63.8062L53.7062 64.6236L54.7072 65.9582L54.0825 66.4307L50.793 62.0446L52.4983 60.7547C53.0646 60.3263 53.612 60.125 54.1405 60.1508C54.6689 60.1767 55.1118 60.4277 55.4689 60.9039C55.7227 61.2422 55.8556 61.5935 55.8676 61.9576C55.8796 62.3217 55.7722 62.6746 55.5455 63.0163L57.6868 63.7044L57.0059 64.2194ZM54.3687 63.2877C54.7643 62.9885 55.002 62.6745 55.0817 62.3457C55.1615 62.017 55.0824 61.6938 54.8443 61.3764C54.6062 61.0589 54.3203 60.8954 53.9868 60.8858C53.6501 60.872 53.284 61.0148 52.8884 61.314L51.8265 62.1172L53.3068 64.091L54.3687 63.2877Z" fill="white"/>
<path d="M59.7771 58.4917C59.8196 58.5302 59.8721 58.5847 59.9346 58.6554L57.6623 61.1343C57.9646 61.3446 58.2904 61.4251 58.6398 61.3757C58.9888 61.319 59.3007 61.1408 59.5755 60.841C59.9102 60.4759 60.056 60.0699 60.013 59.6231L60.6525 59.6429C60.688 59.9283 60.6531 60.2132 60.5479 60.4977C60.4462 60.7784 60.2791 61.0455 60.0466 61.2992C59.7507 61.622 59.4225 61.8488 59.0621 61.9797C58.6979 62.107 58.3325 62.1314 57.9661 62.0528C57.6032 61.9703 57.271 61.7927 56.9695 61.5197C56.6719 61.2503 56.4632 60.9417 56.3434 60.5941C56.2271 60.2427 56.2089 59.8922 56.2889 59.5426C56.3685 59.1857 56.5422 58.8612 56.8099 58.5691C57.0777 58.277 57.3831 58.0788 57.7262 57.9746C58.069 57.863 58.4183 57.8522 58.7742 57.9423C59.1336 58.0286 59.4679 58.2117 59.7771 58.4917ZM57.2795 58.9943C57.0364 59.2594 56.9133 59.5558 56.91 59.8834C56.9103 60.2072 57.0277 60.5034 57.2623 60.7721L59.059 58.8121C58.7719 58.6084 58.4644 58.5233 58.1365 58.557C57.8082 58.5833 57.5226 58.7291 57.2795 58.9943Z" fill="white"/>
<path d="M63.2079 57.226C62.9743 57.5764 62.6895 57.8397 62.3533 58.016C62.0199 58.188 61.6692 58.2643 61.3011 58.2448C60.9286 58.2225 60.5734 58.0994 60.2354 57.8754C59.8974 57.6514 59.6482 57.374 59.4876 57.0431C59.3228 56.7094 59.2575 56.3575 59.2919 55.9874C59.3247 55.61 59.458 55.2462 59.6915 54.8959C59.8991 54.5845 60.1465 54.3493 60.4336 54.1903C60.7237 54.0271 61.0325 53.9574 61.3602 53.9812L61.35 54.6573C61.1132 54.6563 60.9004 54.7085 60.7113 54.814C60.5223 54.9195 60.3629 55.0695 60.2332 55.2642C60.0832 55.4891 59.9975 55.7254 59.9761 55.9731C59.9575 56.2165 60.0068 56.4518 60.124 56.6791C60.2396 56.8991 60.4166 57.0881 60.655 57.2461C60.8976 57.4069 61.1453 57.4993 61.3979 57.5233C61.6491 57.54 61.8837 57.4928 62.1015 57.3815C62.3223 57.2659 62.5077 57.0956 62.6576 56.8707C62.7874 56.6761 62.8644 56.4715 62.8888 56.2569C62.9131 56.0423 62.879 55.8264 62.7864 55.6091L63.4012 55.3337C63.5501 55.6257 63.6074 55.938 63.573 56.2707C63.5372 56.5962 63.4155 56.9146 63.2079 57.226Z" fill="white"/>
<path d="M62.4366 49.5147L65.7362 53.2652C66.0456 53.6044 66.2279 53.9194 66.2833 54.2101C66.3409 54.496 66.2993 54.7908 66.1586 55.0943C66.0729 55.2792 65.9585 55.4451 65.8156 55.592C65.6795 55.7363 65.5282 55.839 65.3617 55.9001L64.9847 55.371C65.2598 55.2623 65.4566 55.0799 65.5753 54.8239C65.6523 54.6579 65.671 54.4995 65.6314 54.3487C65.5988 54.1953 65.4967 54.0241 65.3251 53.8351L65.118 53.5921L60.5835 53.5123L60.9133 52.801L64.5392 52.8831L62.1267 50.1834L62.4366 49.5147Z" fill="white"/>
<path d="M67.0541 48.6328C66.9332 49.0387 66.7371 49.3764 66.4659 49.6459C66.1961 49.9104 65.8813 50.0882 65.5213 50.1793C65.1564 50.2689 64.7781 50.2566 64.3866 50.1424C63.995 50.0282 63.673 49.8362 63.4205 49.5665C63.163 49.2953 62.996 48.977 62.9193 48.6115C62.8392 48.2395 62.8596 47.8506 62.9805 47.4446C63.0879 47.0838 63.2563 46.7843 63.4854 46.5461C63.7161 46.303 63.9926 46.1439 64.315 46.0691L64.5054 46.7211C64.2774 46.7907 64.088 46.9044 63.9374 47.062C63.7868 47.2196 63.6779 47.4111 63.6107 47.6366C63.5331 47.8972 63.5207 48.1496 63.5734 48.3938C63.6277 48.6329 63.7448 48.8441 63.9249 49.0273C64.1014 49.2041 64.3277 49.3327 64.6037 49.4133C64.8849 49.4952 65.1505 49.5101 65.4007 49.4578C65.6474 49.399 65.859 49.2837 66.0357 49.1119C66.2138 48.9351 66.3417 48.7164 66.4193 48.4558C66.4865 48.2303 66.5 48.0109 66.4599 47.7977C66.4197 47.5845 66.3229 47.3874 66.1695 47.2064L66.6793 46.7587C66.9092 46.9946 67.0568 47.2773 67.1223 47.6069C67.1843 47.93 67.1616 48.272 67.0541 48.6328Z" fill="white"/>
<path d="M61.9473 44.7955L62.0807 44.0548L67.806 45.086L67.6726 45.8267L61.9473 44.7955Z" fill="white"/>
<path d="M66.2722 39.4851C66.3296 39.4886 66.4049 39.4986 66.4982 39.5148L66.2888 42.8796C66.6569 42.8554 66.9616 42.7146 67.2028 42.4573C67.4391 42.1945 67.5699 41.8596 67.5952 41.4527C67.626 40.9571 67.4839 40.5476 67.1689 40.2243L67.6798 39.8397C67.8873 40.0412 68.0396 40.2863 68.1368 40.5751C68.2344 40.8588 68.2725 41.1727 68.251 41.517C68.2238 41.9552 68.1109 42.3384 67.9125 42.6664C67.7088 42.9942 67.4394 43.2419 67.1042 43.4095C66.7694 43.572 66.3986 43.6406 65.9917 43.6153C65.59 43.5903 65.233 43.479 64.9205 43.2815C64.6085 43.0788 64.3735 42.8155 64.2156 42.4914C64.0528 42.1618 63.9837 41.7988 64.0084 41.4023C64.0331 41.0059 64.1463 40.6594 64.348 40.363C64.5448 40.061 64.8103 39.834 65.1445 39.682C65.479 39.5247 65.8549 39.4591 66.2722 39.4851ZM64.6422 41.4418C64.6198 41.8017 64.7106 42.1111 64.9144 42.3699C65.1186 42.6235 65.3968 42.7822 65.7489 42.846L65.9144 40.1855C65.5623 40.2055 65.2691 40.3313 65.0347 40.5628C64.7955 40.7888 64.6646 41.0818 64.6422 41.4418Z" fill="white"/>
</svg>
