<svg width="166" height="50" viewBox="0 0 166 50" fill="none" xmlns="http://www.w3.org/2000/svg">
<g clip-path="url(#clip0_0_3)">
<path d="M78.27 17.96V48.69H86.87V14.84L78.27 17.96Z" fill="#AED000"/>
<path d="M119.14 3.12V18.73H119.09C117.66 16.34 113.55 13.88 107.4 13.88C99.21 13.88 92.11 20.16 92.11 31.22V32.31C92.11 43.37 99.28 49.65 107.4 49.65C113.54 49.65 117.65 47.19 119.22 44.6H119.27V48.69H127.73V0L119.13 3.12H119.14ZM119.28 32.1C119.28 38.65 115.25 42.13 110 42.13C104.75 42.13 100.72 38.65 100.72 32.1V31.42C100.72 24.87 104.68 21.39 110 21.39C115.32 21.39 119.28 24.87 119.28 31.42V32.1Z" fill="#AED000"/>
<path d="M165.21 31.36C165.21 20.98 158.73 13.89 148.76 13.89C138.79 13.89 131.83 20.71 131.83 31.36V32.18C131.83 42.83 138.72 49.65 148.89 49.65C158.17 49.65 162.2 44.4 164.11 40.78L157.08 37.09C155.92 39.68 153.94 42.14 149.16 42.14C144.38 42.14 140.76 38.93 140.56 34.29H165.2V31.36H165.21ZM140.64 27.88C141.25 23.99 144.05 21.4 148.7 21.4C153.35 21.4 156.07 23.99 156.48 27.88H140.64Z" fill="#AED000"/>
<path d="M76.6 4.56H78.87C83.29 4.56 86.87 8.15 86.87 12.56V14.83H84.6C80.18 14.83 76.6 11.24 76.6 6.83V4.56Z" fill="#AED000"/>
<path d="M73.72 19.61L73.49 20.33L72.7 22.81L64.45 48.69H50.8L45.68 32.62L40.05 14.95L49.18 14.92L52.86 27.82L53.42 29.81L57.01 42.42H58.24L62.8 26.41L63.49 23.96L63.7 23.25L73.72 19.61Z" fill="#AED000"/>
<path d="M6.22 26.62C5.64 26.27 4.97 26.09 4.21 26.09C3.45 26.09 2.72 26.28 2.08 26.65C1.44 27.02 0.93 27.53 0.56 28.17C0.19 28.81 0 29.53 0 30.33C0 31.13 0.19 31.86 0.57 32.5C0.95 33.14 1.46 33.65 2.11 34.02C2.76 34.39 3.49 34.57 4.31 34.57C4.94 34.57 5.54 34.45 6.11 34.21C6.68 33.97 7.16 33.62 7.55 33.16L6.36 31.96C6.11 32.24 5.81 32.46 5.45 32.6C5.09 32.75 4.71 32.82 4.29 32.82C3.8 32.82 3.37 32.72 3 32.51C2.63 32.3 2.34 32 2.13 31.62C2.03 31.44 1.96 31.24 1.91 31.03H7.98C8.01 30.86 8.04 30.71 8.06 30.56C8.08 30.42 8.09 30.28 8.09 30.14C8.09 29.36 7.92 28.66 7.59 28.05C7.26 27.44 6.8 26.96 6.22 26.61V26.62ZM2.12 28.97C2.31 28.6 2.58 28.32 2.93 28.11C3.28 27.91 3.69 27.8 4.17 27.8C4.65 27.8 5 27.89 5.32 28.07C5.63 28.25 5.87 28.51 6.04 28.85C6.13 29.04 6.2 29.26 6.25 29.49H1.92C1.97 29.3 2.03 29.12 2.12 28.96V28.97Z" fill="#AED000"/>
<path d="M11.89 28.21C12.25 28 12.66 27.9 13.12 27.9C13.52 27.9 13.88 27.97 14.21 28.11C14.54 28.25 14.83 28.46 15.07 28.75L16.29 27.51C15.91 27.06 15.44 26.71 14.89 26.47C14.34 26.23 13.75 26.11 13.12 26.11C12.32 26.11 11.59 26.3 10.94 26.67C10.29 27.04 9.78 27.55 9.4 28.19C9.02 28.83 8.84 29.55 8.84 30.35C8.84 31.15 9.03 31.86 9.4 32.5C9.77 33.14 10.28 33.65 10.94 34.03C11.59 34.4 12.32 34.59 13.12 34.59C13.75 34.59 14.34 34.47 14.89 34.23C15.44 33.99 15.9 33.64 16.29 33.19L15.07 31.95C14.83 32.23 14.55 32.45 14.21 32.59C13.88 32.73 13.51 32.8 13.12 32.8C12.66 32.8 12.25 32.7 11.89 32.49C11.53 32.28 11.26 31.99 11.06 31.62C10.86 31.25 10.76 30.83 10.76 30.36C10.76 29.89 10.86 29.45 11.06 29.09C11.26 28.73 11.53 28.44 11.89 28.23V28.21Z" fill="#AED000"/>
<path d="M23.19 26.66C22.55 26.29 21.82 26.1 21.02 26.1C20.22 26.1 19.51 26.29 18.87 26.67C18.23 27.05 17.71 27.56 17.33 28.19C16.95 28.82 16.76 29.54 16.76 30.33C16.76 31.12 16.95 31.84 17.33 32.48C17.71 33.12 18.22 33.64 18.87 34.02C19.51 34.4 20.23 34.59 21.02 34.59C21.81 34.59 22.55 34.4 23.19 34.02C23.83 33.64 24.35 33.13 24.73 32.48C25.11 31.84 25.3 31.12 25.3 30.33C25.3 29.54 25.11 28.82 24.73 28.18C24.35 27.54 23.84 27.04 23.19 26.66ZM23.08 31.6C22.88 31.97 22.61 32.26 22.25 32.47C21.89 32.68 21.48 32.78 21.02 32.78C20.56 32.78 20.16 32.68 19.81 32.47C19.45 32.26 19.18 31.97 18.98 31.6C18.78 31.23 18.68 30.8 18.68 30.33C18.68 29.86 18.78 29.44 18.98 29.07C19.18 28.71 19.45 28.42 19.81 28.21C20.17 28 20.57 27.9 21.02 27.9C21.47 27.9 21.89 28 22.24 28.21C22.59 28.42 22.87 28.7 23.07 29.07C23.27 29.43 23.38 29.85 23.38 30.33C23.38 30.81 23.28 31.23 23.08 31.6Z" fill="#AED000"/>
<path d="M6.77 40.85C6.18 40.47 5.51 40.28 4.78 40.28C4.17 40.28 3.62 40.41 3.13 40.68C2.8 40.86 2.52 41.09 2.28 41.36V37.05H0.419998V48.59H2.29V47.69C2.52 47.96 2.8 48.18 3.12 48.36C3.61 48.63 4.16 48.76 4.78 48.76C5.51 48.76 6.18 48.57 6.77 48.2C7.36 47.83 7.83 47.32 8.18 46.68C8.52 46.04 8.7 45.33 8.7 44.53C8.7 43.73 8.53 43.01 8.18 42.37C7.83 41.73 7.37 41.22 6.77 40.84V40.85ZM6.48 45.81C6.28 46.18 6.01 46.47 5.67 46.68C5.32 46.89 4.93 46.99 4.47 46.99C4.01 46.99 3.62 46.89 3.27 46.68C2.92 46.47 2.65 46.18 2.46 45.81C2.27 45.44 2.17 45.01 2.17 44.52C2.17 44.03 2.27 43.6 2.46 43.23C2.65 42.86 2.92 42.57 3.27 42.36C3.62 42.15 4.02 42.05 4.47 42.05C4.92 42.05 5.32 42.15 5.67 42.36C6.01 42.57 6.29 42.86 6.48 43.23C6.68 43.6 6.78 44.03 6.78 44.52C6.78 45.01 6.68 45.44 6.48 45.81Z" fill="#AED000"/>
<path d="M15.92 41.36C15.68 41.09 15.41 40.86 15.08 40.68C14.6 40.41 14.05 40.28 13.43 40.28C12.69 40.28 12.03 40.47 11.44 40.85C10.85 41.23 10.38 41.74 10.03 42.38C9.68 43.02 9.51 43.74 9.51 44.54C9.51 45.34 9.68 46.05 10.03 46.69C10.37 47.33 10.84 47.83 11.44 48.21C12.03 48.58 12.7 48.77 13.43 48.77C14.05 48.77 14.61 48.64 15.09 48.37C15.42 48.19 15.69 47.97 15.92 47.7V48.6H17.79V40.46H15.92V41.37V41.36ZM15.4 46.3C14.98 46.76 14.42 47 13.73 47C13.28 47 12.88 46.9 12.53 46.69C12.18 46.48 11.91 46.19 11.72 45.82C11.52 45.45 11.42 45.02 11.42 44.53C11.42 44.04 11.52 43.61 11.72 43.24C11.92 42.87 12.19 42.58 12.53 42.37C12.87 42.16 13.27 42.06 13.73 42.06C14.19 42.06 14.6 42.16 14.94 42.37C15.28 42.58 15.55 42.87 15.75 43.24C15.94 43.61 16.04 44.04 16.04 44.53C16.04 45.25 15.83 45.85 15.4 46.31V46.3Z" fill="#AED000"/>
<path d="M21.12 37.05H19.25V48.59H21.12V37.05Z" fill="#AED000"/>
<path d="M25.79 37.05H23.93V40.45H21.97V42.14H23.93V48.59H25.79V42.14H27.74V40.45H25.79V37.05Z" fill="#AED000"/>
<path d="M30.73 40.45H28.86V48.59H30.73V40.45Z" fill="#AED000"/>
<path d="M29.79 36.71C29.47 36.71 29.21 36.82 29 37.03C28.79 37.24 28.69 37.51 28.69 37.83C28.69 38.15 28.79 38.41 29 38.63C29.21 38.84 29.47 38.95 29.79 38.95C30.11 38.95 30.38 38.84 30.59 38.63C30.79 38.42 30.9 38.15 30.9 37.83C30.9 37.51 30.8 37.25 30.59 37.03C30.39 36.82 30.12 36.71 29.79 36.71Z" fill="#AED000"/>
<path d="M38.18 40.45V41.36C37.94 41.09 37.67 40.86 37.34 40.68C36.86 40.41 36.31 40.28 35.69 40.28C34.95 40.28 34.29 40.47 33.7 40.85C33.11 41.23 32.64 41.74 32.29 42.38C31.94 43.02 31.77 43.74 31.77 44.54C31.77 45.34 31.94 46.05 32.29 46.69C32.63 47.33 33.1 47.83 33.7 48.21C34.29 48.58 34.96 48.77 35.69 48.77C36.31 48.77 36.87 48.64 37.35 48.37C37.68 48.19 37.95 47.97 38.18 47.7V48.6H40.05V40.46H38.18V40.45ZM37.66 46.3C37.24 46.76 36.68 47 35.99 47C35.54 47 35.14 46.9 34.79 46.69C34.44 46.48 34.17 46.19 33.98 45.82C33.78 45.45 33.68 45.02 33.68 44.53C33.68 44.04 33.78 43.61 33.98 43.24C34.18 42.87 34.45 42.58 34.79 42.37C35.13 42.16 35.53 42.06 35.99 42.06C36.45 42.06 36.86 42.16 37.2 42.37C37.54 42.58 37.81 42.87 38.01 43.24C38.2 43.61 38.3 44.04 38.3 44.53C38.3 45.25 38.09 45.85 37.66 46.31V46.3Z" fill="#AED000"/>
</g>
<defs>
<clipPath id="clip0_0_3">
<rect width="165.21" height="49.65" fill="white"/>
</clipPath>
</defs>
</svg>
