<svg width="119" height="75" viewBox="0 0 119 75" fill="none" xmlns="http://www.w3.org/2000/svg">
<rect x="5" y="3" width="50" height="51" fill="white"/>
<rect x="66" y="3" width="50" height="51" fill="white"/>
<path fill-rule="evenodd" clip-rule="evenodd" d="M0 0V57.915H58.2859V0H0ZM48.5643 33.783V33.7917H19.5089V48.2727H9.76098V34.1482L9.726 24.1494V9.67279H19.452V16.9111L9.73914 24.1494H38.8689V9.67279H48.5862L48.5643 33.783ZM38.847 41.0257L48.5643 33.7983V48.264H38.847V41.0257ZM60.7141 0V57.915H119V0H60.7141ZM80.1442 48.2553H70.4269V28.9575L80.1442 36.2002V48.2553ZM109.287 48.2553H99.5699V36.2002L109.287 28.9575V48.2553ZM109.287 16.8676L89.8571 31.379L70.4269 16.8676V9.65541H77.4885L89.8571 18.9282L102.23 9.65541H109.287V16.8676ZM11.7429 67.5922H9.71285L9.69971 74.8739H11.7298V72.1091H14.3549V74.8739H16.3893V67.5835H14.368V70.3093H11.7429V67.5922ZM22.1251 67.54H24.0808L27.2003 74.874H25.0127L24.479 73.5698H21.6483L21.1276 74.874H19.0144L22.1251 67.54ZM23.9059 72.0047L23.0877 69.9311L22.2608 72.0047H23.9059ZM31.7023 67.5923H29.8209L29.8079 74.874H31.8204V70.8789L34.9487 74.874H36.7293V67.5923H34.7212V71.4397L31.7023 67.5923ZM39.3938 73.7871L40.527 72.4481C41.195 73.0003 42.0338 73.3073 42.9027 73.3176C43.4496 73.3176 43.7427 73.1263 43.7427 72.8176V72.7959C43.7427 72.4916 43.5021 72.3264 42.5045 72.1003C40.947 71.7438 39.7395 71.3091 39.7395 69.8093V69.7875C39.7395 68.4355 40.8201 67.4574 42.5789 67.4574C43.6674 67.4166 44.7354 67.76 45.5934 68.4268L44.5784 69.8527C43.9834 69.4118 43.2681 69.1602 42.5264 69.1311C42.032 69.1311 41.7914 69.3397 41.7914 69.6006V69.6223C41.7914 69.9527 42.0451 70.1005 43.0602 70.3309C44.7446 70.6918 45.7947 71.2352 45.7947 72.5959V72.6176C45.7947 74.1044 44.609 74.9913 42.8283 74.9913C41.5736 75.0222 40.3511 74.5936 39.3938 73.7871ZM53.0224 67.54H51.0623L47.9341 74.874H50.0692L50.5942 73.5698H53.4206L53.9543 74.874H56.1419L53.0224 67.54ZM52.0248 69.9311L52.843 72.0047H51.198L52.0248 69.9311ZM58.7626 67.5923H60.9065L62.6566 70.4094L64.4066 67.5923H66.5505V74.874H64.516V70.6919L62.6434 73.5438H62.5997L60.7359 70.7137V74.874H58.7495L58.7626 67.5923ZM74.2509 67.54H72.2909L69.1626 74.874H71.2977L71.8227 73.5698H74.6491L75.1828 74.874H77.3704L74.2509 67.54ZM73.2577 69.9311L74.0715 72.0047H72.4308L73.2577 69.9311ZM80.8399 69.3616H78.6523V67.5923H85.0794V69.3616H82.8919V74.874H80.8618L80.8399 69.3616ZM91.3357 67.5923H87.8662L87.8793 74.8523H89.9138V72.6482H90.7888L92.2676 74.8523H94.6127L92.8627 72.3135C93.3186 72.1457 93.7097 71.8396 93.9806 71.4385C94.2516 71.0374 94.3885 70.5617 94.3721 70.079C94.3875 69.7669 94.3375 69.4551 94.2253 69.1632C94.113 68.8714 93.9411 68.6059 93.7202 68.3835C93.2302 67.8836 92.4558 67.5923 91.3357 67.5923ZM92.3288 70.2007C92.3288 70.7354 91.9307 71.0701 91.2394 71.0701H89.9182V69.3312H91.2307C91.8914 69.3312 92.3288 69.6268 92.3288 70.2007ZM97.3298 67.5923H99.373V74.874H97.3298V67.5923ZM102.208 67.6008L104.614 71.1787L102.121 74.8826H104.4L105.818 72.6872L107.218 74.8826H109.554L107.043 71.1569L109.449 67.6008H107.165L105.853 69.6484L104.54 67.6008H102.208Z" fill="#030303"/>
</svg>
