<svg width="228" height="26" viewBox="0 0 228 26" fill="none" xmlns="http://www.w3.org/2000/svg">
<g clip-path="url(#clip0_895_1090)">
<path d="M82.9726 17.3728H69.8827C69.9632 18.8346 70.4657 19.9694 71.3902 20.7771C72.3146 21.5848 73.5613 21.9896 75.1301 21.9915C77.0807 21.9915 78.5632 21.484 79.5778 20.4692L81.2378 23.7382C79.7322 24.9584 77.4853 25.5684 74.4972 25.5684C71.7028 25.5684 69.4924 24.7502 67.866 23.1138C66.2396 21.4773 65.4273 19.1934 65.4292 16.262C65.4292 13.3728 66.322 11.0332 68.1076 9.24327C68.9371 8.37882 69.9354 7.69416 71.0405 7.2318C72.1456 6.76943 73.3339 6.53923 74.5317 6.55549C77.19 6.55549 79.3227 7.34878 80.9299 8.93536C82.5372 10.5219 83.3417 12.5363 83.3437 14.9785C83.3009 15.7871 83.1766 16.5892 82.9726 17.3728ZM70.0265 14.1555H79.0254C78.7301 11.4697 77.2475 10.1267 74.5778 10.1267C72.1439 10.1306 70.6306 11.4735 70.038 14.1555H70.0265Z" fill="white"/>
<path d="M116.63 0.0144043H108.287V10.1238C114.486 8.88923 116.227 6.85182 116.63 0.0144043Z" fill="white"/>
<path d="M117.613 25.2288H133.477V9.87915C133.307 10.5094 131.425 21.7468 117.613 25.2288Z" fill="white"/>
<path d="M127.959 0.0144043H123.321C123.439 3.2403 122.481 15.554 108.275 16.2187V20.3367C111.73 21.1396 128.968 19.3381 127.959 0.0144043Z" fill="white"/>
<path d="M0.00570944 20.5813C0.906135 21.0561 1.89803 21.3318 2.91425 21.3899C4.29228 21.3899 5.2618 20.9525 5.82855 20.046C6.3953 19.1395 6.67148 17.7928 6.69162 15.9654V0.0258789H10.9005V15.8331C10.9005 18.9755 10.236 21.3007 8.8867 22.846C7.53743 24.3913 5.43441 25.1309 2.44243 25.1309C1.61685 25.138 0.794157 25.0325 -0.00292969 24.8172L0.00570944 20.5813Z" fill="white"/>
<path fill-rule="evenodd" clip-rule="evenodd" d="M51.4679 23.9539L52.8833 20.5583C54.1221 21.5664 55.6707 22.1163 57.2677 22.1151C58.9219 22.1151 59.7188 21.5395 59.8167 20.2762C59.8425 19.9395 59.6555 19.2259 58.9536 18.5755C58.5163 18.164 57.5151 17.669 56.1256 17.0187C52.9293 15.7525 51.3557 13.9252 51.3154 11.4993C51.3051 10.7834 51.4667 10.0755 51.7866 9.43511C52.1065 8.79467 52.5753 8.24034 53.1537 7.81869C54.3477 6.95538 55.8839 6.52085 57.8229 6.54675C59.6919 6.52765 61.5374 6.96421 63.1999 7.81869L61.9254 11.0762C60.9962 10.3338 59.6958 9.94243 57.9639 9.94243C56.5255 9.92228 55.8436 10.518 55.8436 11.6431C55.8436 12.2187 55.9961 12.4518 56.5485 12.9151C57.1008 13.3784 58.0387 13.8388 59.6642 14.4719C61.2896 15.105 62.4145 15.8561 63.1999 16.7367C63.8492 17.6974 64.1941 18.8316 64.1895 19.9913C64.2186 20.7706 64.0679 21.5461 63.7491 22.2577C63.4303 22.9693 62.952 23.598 62.3512 24.0949C61.0479 25.0216 59.3362 25.4993 57.1152 25.5108C56.1633 25.5339 55.2122 25.4372 54.2843 25.223C53.2868 24.9322 52.3349 24.5031 51.4564 23.9482L51.4679 23.9539Z" fill="white"/>
<path d="M48.3205 19.4246C48.2946 21.8275 48.7722 23.2749 49.736 23.9541C49.4252 24.5296 48.5852 24.9526 48.1767 25.0879C47.6709 25.2301 47.1445 25.2846 46.6203 25.249C46.0515 25.2378 45.5032 25.035 45.0639 24.6735C44.7904 24.4521 44.5707 24.1717 44.4212 23.8532C44.2718 23.5347 44.1964 23.1865 44.2008 22.8346L44.0598 14.6246C44.1289 13.0764 43.8383 11.9483 43.1968 11.2289C42.6214 10.4951 41.4879 10.0318 40.2249 10.0951C39.5786 10.1561 38.9523 10.3522 38.3866 10.6706C37.7411 10.9789 37.1632 11.4122 36.6863 11.9454V25.2289H32.4717V6.82888H36.2922V8.66774C37.5178 7.22889 39.1029 6.55263 41.3843 6.54688C43.5449 6.54688 45.1041 7.22314 46.3383 8.52673C47.7106 9.96558 48.2889 11.6289 48.3205 13.9052V19.4246Z" fill="white"/>
<path d="M101.106 19.4246C101.08 21.8275 101.557 23.2749 102.518 23.9541C102.21 24.5296 101.382 24.9526 100.962 25.0879C100.456 25.2297 99.9296 25.2842 99.4054 25.249C98.8366 25.2382 98.2881 25.0354 97.849 24.6735C97.5756 24.4521 97.3559 24.1717 97.2064 23.8532C97.0569 23.5347 96.9816 23.1865 96.986 22.8346L96.845 14.6246C96.914 13.0764 96.6235 11.9483 95.9819 11.2289C95.4065 10.4951 94.2759 10.0318 93.0129 10.0951C92.3667 10.1561 91.7404 10.3522 91.1746 10.6706C90.5292 10.9789 89.9513 11.4122 89.4744 11.9454V25.2289H85.231V6.82888H89.0515V8.66774C90.277 7.22889 91.8593 6.55263 94.1436 6.54688C96.3041 6.54688 97.8634 7.22314 99.0976 8.52673C100.47 9.96558 101.048 11.6289 101.08 13.9052V19.4246H101.106Z" fill="white"/>
<path fill-rule="evenodd" clip-rule="evenodd" d="M210.275 23.6806C209.95 24.4001 209.196 24.9958 208.244 25.4073C207.277 25.7929 206.245 25.9883 205.203 25.9828C203.135 25.9627 201.61 25.4706 200.422 24.3886C199.271 23.3555 198.696 21.9943 198.696 20.1871C198.696 17.908 199.458 16.2475 201.158 14.9727C202.726 13.7871 204.898 13.1713 208.152 13.1943C208.722 13.2097 209.29 13.2713 209.85 13.3785C209.89 11.2231 208.503 10.1152 205.649 10.0461C204.044 10.1152 202.675 10.3799 201.593 10.9094L200.58 7.57417C202.111 6.80583 203.903 6.45475 205.94 6.4231C208.854 6.44324 210.943 7.0936 212.312 8.43748C213.63 9.69792 214.297 12.1583 214.326 15.8303V19.885C214.283 22.3339 214.778 23.8965 215.764 24.5238C215.546 25.0494 215.134 25.4708 214.614 25.7008C214.108 25.9008 213.566 25.9929 213.023 25.9713C212.701 25.971 212.383 25.9068 212.087 25.7823C211.79 25.6578 211.522 25.4755 211.297 25.2461C210.839 24.8013 210.492 24.2552 210.284 23.6519L210.275 23.6806ZM209.988 16.7281C209.411 16.6465 208.83 16.5975 208.247 16.5814C204.772 16.5814 203.051 17.6691 203.034 19.9137C203.034 21.6404 204.001 22.4835 205.931 22.5238C208.601 22.4835 209.916 21.1655 209.988 18.4663V16.7396V16.7281Z" fill="white"/>
<path d="M228.003 21.154C227.097 21.5953 226.11 21.8423 225.103 21.8791C223.665 21.9165 222.675 21.4676 222.062 20.5755C221.515 19.6288 221.231 18.236 221.199 16.3741V0H216.852V16.2273C216.91 19.4446 217.591 21.8331 219.027 23.4734C220.327 24.9669 222.514 25.7468 225.546 25.7899C226.385 25.7815 227.217 25.6347 228.009 25.3554V21.154H228.003Z" fill="white"/>
<path d="M165.203 25.2287H160.888L158.298 11.7035L153.261 25.5539H151.682L146.63 11.7035L143.914 25.2287H139.599L144.653 0.172607H147.03L152.464 17.0388L157.746 0.172607H160.085L165.203 25.2287Z" fill="white"/>
<path d="M197.939 21.2347C197.407 21.5224 195.96 21.9886 195.034 21.9598C193.552 21.9972 192.557 21.5483 191.981 20.6534C191.406 19.7037 191.118 18.3052 191.118 16.4375V10.3368H196.202V6.84904H191.118V0.0202637H186.76V6.84904H184.579V10.3368H186.76V16.308C186.76 19.5339 187.459 21.9282 188.794 23.5742C190.201 25.0706 192.396 25.8534 195.477 25.8994C196.317 25.8813 197.15 25.7338 197.945 25.462V21.2347H197.939Z" fill="white"/>
<path d="M30.2389 17.3728H17.1519C17.2324 18.8346 17.734 19.9694 18.6565 20.7771C19.5829 21.5886 20.8228 21.9915 22.3965 21.9915C24.347 21.9915 25.8296 21.484 26.8442 20.4692L28.5041 23.7382C27.0005 24.9584 24.7536 25.5684 21.7636 25.5684C18.9672 25.5684 16.7616 24.7502 15.1467 23.1138C13.5318 21.4773 12.7196 19.1934 12.71 16.262C12.71 13.3728 13.6018 11.0332 15.3855 9.24326C16.2156 8.37886 17.2144 7.69427 18.32 7.23193C19.4256 6.76958 20.6143 6.53933 21.8125 6.55548C24.4688 6.55548 26.6015 7.34877 28.2107 8.93534C29.8198 10.5219 30.6235 12.5363 30.6215 14.9785C30.5765 15.7876 30.4483 16.5899 30.2389 17.3728ZM17.2929 14.1555H26.2918C25.9984 11.4696 24.5158 10.1267 21.8441 10.1267C19.4103 10.1306 17.897 11.4735 17.3044 14.1555H17.2929Z" fill="white"/>
<path d="M183.532 17.5627H170.261C170.344 19.0447 170.853 20.1929 171.788 21.0159C172.723 21.8389 173.986 22.2476 175.571 22.2476C177.549 22.2476 179.052 21.7325 180.08 20.7022L181.763 24.0173C180.238 25.2547 177.959 25.8735 174.927 25.8735C172.094 25.8735 169.854 25.0437 168.207 23.3843C166.559 21.7248 165.735 19.4082 165.735 16.4346C165.735 13.507 166.641 11.1358 168.451 9.32093C169.292 8.44471 170.305 7.75069 171.425 7.28191C172.545 6.81313 173.75 6.57959 174.964 6.59576C177.65 6.59576 179.811 7.40056 181.449 9.01015C183.087 10.6197 183.905 12.6687 183.903 15.1569C183.86 15.9692 183.736 16.7752 183.532 17.5627ZM170.419 14.2936H179.542C179.242 11.5751 177.739 10.2149 175.031 10.213C172.556 10.2188 171.019 11.579 170.419 14.2936Z" fill="white"/>
</g>
<defs>
<clipPath id="clip0_895_1090">
<rect width="228" height="26" fill="white"/>
</clipPath>
</defs>
</svg>
