<svg width="1280" height="101" viewBox="0 0 1280 101" fill="none" xmlns="http://www.w3.org/2000/svg">
<path fill-rule="evenodd" clip-rule="evenodd" d="M785.68 96.6931H734.083H734.057L787.17 0H865.4L918.486 96.6931H866.89L857.873 79.7488H794.697L785.68 96.6931ZM826.298 19.0208L806.59 56.9341H846.006L826.298 19.0208ZM489.537 96.9238H537.918V79.3129C537.893 67.3459 528.854 61.8662 528.469 61.6326L528.456 61.6252L527.228 60.933L528.378 60.1127C528.378 60.1127 537.892 53.3453 537.892 42.3737V30.0692C537.892 13.5862 524.222 0.179409 507.415 0.179409L376.569 0.230679V96.9238H424.95V72.3147H482.323C486.296 72.2891 489.511 75.4421 489.511 79.3386V96.9494L489.537 96.9238ZM424.976 49.4488V23.071L482.349 23.0453C486.322 23.0453 489.537 26.1984 489.537 30.0948V42.3993C489.537 46.2958 486.322 49.4488 482.349 49.4488H424.976ZM1118.65 67.88C1119.15 83.9528 1132.61 96.8725 1149.1 96.8725H1249.52C1266.33 96.8725 1280 83.4657 1280 66.9828C1280 50.4998 1266.33 37.1186 1249.52 37.1186H1174.22C1170.25 37.1186 1167.03 33.94 1167.03 30.0692C1167.03 26.1984 1170.25 23.0197 1174.22 23.0197H1224.43C1228.09 23.0197 1231.1 25.7113 1231.57 29.172H1280C1279.5 13.0992 1266.04 0.179409 1249.55 0.179409H1149.13C1132.32 0.179409 1118.65 13.5862 1118.65 30.0692C1118.65 46.5521 1132.32 59.9589 1149.13 59.9589H1224.46C1228.43 59.9589 1231.64 63.1376 1231.64 67.0084C1231.64 70.8792 1228.43 74.0579 1224.46 74.0579H1174.25C1170.59 74.0579 1167.55 71.3663 1167.11 67.9056H1118.68L1118.65 67.88ZM1063.6 96.8469H932.758V0.230679L1063.6 0.179409C1080.41 0.179409 1094.08 13.5862 1094.08 30.0692V67.0084C1094.08 83.4913 1080.41 96.8725 1063.6 96.8469ZM981.139 74.0066L1038.51 74.0579C1042.48 74.0579 1045.7 70.9048 1045.7 67.0084V30.0692C1045.7 26.1727 1042.48 23.0197 1038.51 23.0453H981.139V74.0066ZM564.893 0.256313V96.9238L695.713 96.8982C712.52 96.8982 726.19 83.4914 726.19 67.0084C726.19 54.4732 717.172 49.5514 716.78 49.3463L715.447 48.6285L716.702 47.8082C716.702 47.8082 726.19 41.4765 726.19 30.0692C726.19 13.5862 712.52 0.179409 695.713 0.179409L564.893 0.256313ZM613.248 74.0579V59.9846L670.621 59.9589C674.594 59.9589 677.809 63.112 677.809 67.0084C677.809 70.9048 674.594 74.0579 670.621 74.0579H613.248ZM613.248 37.1699V23.0966L670.621 23.071C674.594 23.071 677.809 26.224 677.809 30.1204C677.809 34.0169 674.594 37.1699 670.621 37.1699H613.248ZM188.271 67.0084V0.230713H188.298H236.679V67.0084C236.679 70.8792 239.894 74.0579 243.867 74.0579H294.078C298.051 74.0579 301.266 70.9049 301.266 67.0084V0.230713H349.647V67.0084C349.647 83.4914 335.977 96.8982 319.17 96.8982H218.748C201.942 96.8982 188.271 83.4914 188.271 67.0084ZM114.85 96.9495H171.831L129.592 47.3212L170.341 0.205093H114.85L86.6995 37.1187L48.3813 37.1443V0.230728L0.0261379 0.256363L0 96.9239H48.3813V59.9846L86.5688 59.9333L114.85 96.9495Z" fill="#EFBE41"/>
</svg>
