<?xml version="1.0" encoding="UTF-8" standalone="no" ?>
<!DOCTYPE svg PUBLIC "-//W3C//DTD SVG 1.1//EN" "http://www.w3.org/Graphics/SVG/1.1/DTD/svg11.dtd">
<svg xmlns="http://www.w3.org/2000/svg" xmlns:xlink="http://www.w3.org/1999/xlink" version="1.1" width="1080" height="1080" viewBox="0 0 1080 1080" xml:space="preserve">
<desc>Created with Fabric.js 5.2.4</desc>
<defs>
</defs>
<g transform="matrix(1 0 0 1 540 540)" id="010c87f5-3a9e-4ceb-b456-3f4cd974c97e"  >
<rect style="stroke: none; stroke-width: 1; stroke-dasharray: none; stroke-linecap: butt; stroke-dashoffset: 0; stroke-linejoin: miter; stroke-miterlimit: 4; fill: rgb(255,255,255); fill-rule: nonzero; opacity: 1; visibility: hidden;" vector-effect="non-scaling-stroke"  x="-540" y="-540" rx="0" ry="0" width="1080" height="1080" />
</g>
<g transform="matrix(1 0 0 1 540 540)" id="d3b5901d-ca6a-4247-bbb6-ac89c0268631"  >
</g>
<g transform="matrix(9.64 0 0 9.64 540 540)"  >
<g style=""   >
		<g transform="matrix(1 0 0 1 -28.36 1.76)" clip-path="url(#CLIPPATH_3)"  >
<clipPath id="CLIPPATH_3" >
	<path transform="matrix(1 0 0 1 27.36 -3.68) translate(-55, -18.08)" id="a" d="M 0 0 L 110 0 L 110 36.164 L 0 36.164 z" stroke-linecap="round" />
</clipPath>
<path style="stroke: none; stroke-width: 1; stroke-dasharray: none; stroke-linecap: butt; stroke-dashoffset: 0; stroke-linejoin: miter; stroke-miterlimit: 4; fill: rgb(255,255,255); fill-rule: nonzero; opacity: 1;" vector-effect="non-scaling-stroke"  transform=" translate(-27.64, -21.76)" d="M 5.186 7.365 L 0 7.365 L 0 36.165 L 5.186 36.165 L 5.186 7.364999999999998 Z M 9.362 14.577 L 14.118 14.577 L 14.118 16.564 C 15.131 14.614 17.782 13.876 19.811 13.876 C 22.031 13.876 24.216 14.812 25.58 16.564 C 25.773999999999997 16.758 25.93 16.994 26.086 17.226 C 26.22571783309463 16.9739045951586 26.41043284763309 16.749535164655008 26.631 16.564 C 28.151 14.733 30.607 13.876 32.948 13.876 C 35.484 13.876 37.822 14.615 39.536 16.564 C 41.523 18.706 41.756 21.241 41.756 24.046 L 41.756 36.164 L 36.57 36.164 L 36.57 24.667 C 36.57 23.419 36.532000000000004 21.627000000000002 35.79 20.537000000000003 C 35.127 19.525000000000002 33.802 18.939000000000004 32.553 18.939000000000004 C 31.109999999999996 18.939000000000004 29.746999999999996 19.563000000000002 28.965999999999998 20.808000000000003 C 28.070999999999998 22.212000000000003 28.147 24.317000000000004 28.147 25.874000000000002 L 28.147 36.16 L 22.967 36.16 L 22.967 24.667 C 22.967 23.263 22.967 21.938000000000002 22.148999999999997 20.693 C 21.406999999999996 19.563000000000002 20.081999999999997 18.939 18.755999999999997 18.939 C 14.624999999999996 18.939 14.545999999999996 22.836 14.545999999999996 25.877 L 14.545999999999996 36.164 L 9.361 36.164 L 9.361 14.577 Z M 45.614 7.365 L 50.8 7.365 L 50.8 14.577 L 55.285 14.577 L 55.285 19.174 L 50.8 19.174 L 50.8 36.164 L 45.614 36.164 L 45.614 7.364000000000001 Z" stroke-linecap="round" />
</g>
		<g transform="matrix(1 0 0 1 43.16 -1.83)" clip-path="url(#CLIPPATH_4)"  >
<clipPath id="CLIPPATH_4" >
	<path transform="matrix(1 0 0 1 -44.16 -0.09) translate(-55, -18.08)" id="a" d="M 0 0 L 110 0 L 110 36.164 L 0 36.164 z" stroke-linecap="round" />
</clipPath>
<path style="stroke: none; stroke-width: 1; stroke-dasharray: none; stroke-linecap: butt; stroke-dashoffset: 0; stroke-linejoin: miter; stroke-miterlimit: 4; fill: rgb(181,0,47); fill-rule: nonzero; opacity: 1;" vector-effect="non-scaling-stroke"  transform=" translate(-99.16, -18.17)" d="M 99.555 27.15 C 98.771 27.15 98.022 26.886 97.548 26.439999999999998 C 97.357 26.255999999999997 92.932 21.999 91.238 20.406999999999996 C 90.648 19.851999999999997 90.342 19.129999999999995 90.374 18.371999999999996 C 90.40599999999999 17.607999999999997 90.77799999999999 16.900999999999996 91.428 16.378999999999998 L 100.109 10.108999999999998 C 100.99799999999999 9.508 101.91199999999999 9.188999999999998 102.753 9.188999999999998 C 104.17 9.188999999999998 105.349 10.105999999999998 105.687 11.468999999999998 L 107.904 20.689 C 108.14 21.667 107.585 22.963 106.716 23.463 L 100.90199999999999 26.823 C 100.53599999999999 27.036 100.05799999999999 27.150000000000002 99.55499999999999 27.150000000000002 Z M 109.88900000000001 20.212 L 107.671 10.985 C 107.10400000000001 8.689 105.126 7.148 102.75 7.148 C 101.491 7.148 100.176 7.590999999999999 98.943 8.431 L 90.205 14.741999999999999 L 90.176 14.764 C 89.042 15.661999999999999 88.386 16.91 88.32900000000001 18.28 C 88.272 19.623 88.819 20.942 89.83900000000001 21.897000000000002 C 91.55300000000001 23.507 96.09200000000001 27.877000000000002 96.13700000000001 27.921000000000003 L 96.14300000000001 27.927000000000003 C 97.00000000000001 28.733000000000004 98.24500000000002 29.195000000000004 99.55500000000002 29.195000000000004 C 100.42400000000002 29.195000000000004 101.24300000000002 28.988000000000003 101.92200000000003 28.593000000000004 L 107.73500000000003 25.233000000000004 C 109.39200000000002 24.278000000000006 110.33800000000002 22.072000000000003 109.88900000000002 20.213000000000005 Z" stroke-linecap="round" />
</g>
		<g transform="matrix(1 0 0 1 36.78 -10.04)" clip-path="url(#CLIPPATH_5)"  >
<clipPath id="CLIPPATH_5" >
	<path transform="matrix(1 0 0 1 -37.78 8.12) translate(-55, -18.08)" id="a" d="M 0 0 L 110 0 L 110 36.164 L 0 36.164 z" stroke-linecap="round" />
</clipPath>
<path style="stroke: none; stroke-width: 1; stroke-dasharray: none; stroke-linecap: butt; stroke-dashoffset: 0; stroke-linejoin: miter; stroke-miterlimit: 4; fill: rgb(224,0,39); fill-rule: nonzero; opacity: 1;" vector-effect="non-scaling-stroke"  transform=" translate(-92.78, -9.96)" d="M 93.878 17.875 C 93.60671740334362 17.876819901194274 93.33680955293235 17.83633372363258 93.078 17.755 L 87.83200000000001 16.051 C 86.539 15.630999999999998 85.402 14.070999999999998 85.402 12.707999999999998 L 85.402 4.7 C 85.402 3.846 85.624 3.149 86.042 2.6780000000000004 C 86.414 2.2640000000000002 86.937 2.0440000000000005 87.562 2.0440000000000005 C 87.982 2.0440000000000005 88.437 2.1430000000000007 88.91199999999999 2.3340000000000005 L 98.01199999999999 6.011000000000001 C 98.95599999999999 6.394000000000001 99.64999999999999 7.094000000000001 99.96599999999998 7.979000000000001 C 100.28099999999998 8.868 100.18199999999997 9.849 99.69199999999998 10.739 L 96.57299999999998 16.375 C 96.08599999999998 17.258 94.97699999999998 17.875 93.87799999999999 17.875 Z M 101.893 7.295 C 101.38 5.849 100.275 4.718999999999999 98.777 4.114 L 89.68 0.436 C 88.96 0.146 88.246 0 87.564 0 C 85.09 0 83.36 1.933 83.36 4.7 L 83.36 12.707999999999998 C 83.36 14.970999999999998 85.049 17.296 87.202 17.993 L 92.452 19.697 C 92.904 19.843 93.385 19.919 93.882 19.919 C 95.72 19.919 97.52300000000001 18.891000000000002 98.36800000000001 17.363 L 101.483 11.727 C 102.263 10.317 102.41000000000001 8.743 101.894 7.295 Z" stroke-linecap="round" />
</g>
		<g transform="matrix(1 0 0 1 28.39 -3.03)" clip-path="url(#CLIPPATH_6)"  >
<clipPath id="CLIPPATH_6" >
	<path transform="matrix(1 0 0 1 -29.39 1.11) translate(-55, -18.08)" id="a" d="M 0 0 L 110 0 L 110 36.164 L 0 36.164 z" stroke-linecap="round" />
</clipPath>
<path style="stroke: none; stroke-width: 1; stroke-dasharray: none; stroke-linecap: butt; stroke-dashoffset: 0; stroke-linejoin: miter; stroke-miterlimit: 4; fill: rgb(236,109,31); fill-rule: nonzero; opacity: 1;" vector-effect="non-scaling-stroke"  transform=" translate(-84.39, -16.97)" d="M 75.586 16.322 L 89.842 11.014 C 90.12444492740588 10.909372236432288 90.42281622519377 10.854231055548585 90.724 10.850999999999999 C 91.699 10.850999999999999 92.409 11.481 92.623 12.532 L 93.50800000000001 16.869 L 94.58500000000001 22.155 C 94.652 22.489 94.623 22.779 94.49900000000001 22.928 C 94.38400000000001 23.068 94.171 23.098000000000003 94.01200000000001 23.098000000000003 C 93.90600000000002 23.098000000000003 93.79500000000002 23.084000000000003 93.67400000000002 23.058000000000003 L 76.39200000000002 19.471000000000004 L 76.38200000000002 19.467000000000002 L 76.37300000000002 19.464000000000002 C 75.06400000000002 19.213 74.21300000000002 18.614 74.15600000000002 17.907000000000004 C 74.10800000000002 17.299000000000003 74.68200000000002 16.659000000000002 75.58600000000003 16.322000000000003 Z M 96.586 21.747 L 94.623 12.125 C 94.21900000000001 10.141 92.65100000000001 8.807 90.721 8.807 C 90.19800000000001 8.807 89.67 8.903 89.141 9.091000000000001 L 74.87 14.405 C 73.07000000000001 15.075999999999999 71.99000000000001 16.519 72.12 18.079 C 72.187 18.891000000000002 72.58 19.636 73.248 20.231 C 73.927 20.833000000000002 74.84400000000001 21.251 75.98100000000001 21.473000000000003 L 93.257 25.062 C 93.51100000000001 25.116 93.76700000000001 25.142 94.00800000000001 25.142 C 94.858 25.142 95.59500000000001 24.817 96.07900000000001 24.221999999999998 C 96.605 23.583999999999996 96.783 22.705 96.58600000000001 21.746999999999996 Z" stroke-linecap="round" />
</g>
		<g transform="matrix(1 0 0 1 14.99 -6.63)" clip-path="url(#CLIPPATH_7)"  >
<clipPath id="CLIPPATH_7" >
	<path transform="matrix(1 0 0 1 -15.99 4.72) translate(-55, -18.08)" id="a" d="M 0 0 L 110 0 L 110 36.164 L 0 36.164 z" stroke-linecap="round" />
</clipPath>
<path style="stroke: none; stroke-width: 1; stroke-dasharray: none; stroke-linecap: butt; stroke-dashoffset: 0; stroke-linejoin: miter; stroke-miterlimit: 4; fill: rgb(240,132,0); fill-rule: nonzero; opacity: 1;" vector-effect="non-scaling-stroke"  transform=" translate(-70.99, -13.37)" d="M 64.759 20.967 C 63.769 21.237 63.112 21.294999999999998 62.812 20.935 C 62.602 20.68 62.634 20.145 63.147 19.075 L 68.964 7.001999999999999 C 69.404 6.0939999999999985 70.021 5.571999999999999 70.658 5.571999999999999 C 71.203 5.571999999999999 71.786 5.934999999999999 72.305 6.593999999999999 C 74.019 8.774999999999999 78.73400000000001 14.735999999999999 78.778 14.793999999999999 C 79.19200000000001 15.322 79.345 15.846999999999998 79.20800000000001 16.279999999999998 C 79.07100000000001 16.709999999999997 78.64500000000001 17.049999999999997 78.00400000000002 17.241999999999997 L 64.76 20.967 Z M 80.384 13.523 C 80.336 13.463 75.624 7.505 73.914 5.327 C 73 4.165 71.84700000000001 3.525 70.662 3.525 C 69.206 3.525 67.91600000000001 4.467 67.122 6.1129999999999995 L 61.306 18.186999999999998 C 60.36 20.148999999999997 60.662 21.354999999999997 61.08 22.020999999999997 C 61.559999999999995 22.787999999999997 62.443 23.208999999999996 63.558 23.208999999999996 C 64.096 23.208999999999996 64.692 23.112999999999996 65.329 22.924999999999997 L 78.562 19.2 L 78.572 19.197 C 79.86500000000001 18.814 80.808 17.974 81.152 16.895 C 81.499 15.815 81.219 14.585999999999999 80.384 13.523 Z" stroke-linecap="round" />
</g>
</g>
</g>
</svg>