<svg width="169" height="49" viewBox="0 0 169 49" fill="none" xmlns="http://www.w3.org/2000/svg">
<path fill-rule="evenodd" clip-rule="evenodd" d="M78.3582 17.3943L69.7984 32.9805H69.7297L61.1393 17.3943H56.6992V43.44H61.1165V25.9846H61.1775L68.2954 38.4277H71.1945L78.3201 25.9846H78.3735V43.44H82.7983V17.3943H78.3582Z" fill="#EC5504"/>
<path fill-rule="evenodd" clip-rule="evenodd" d="M94.7912 39.9993C94.0898 40.0192 93.3922 39.8893 92.745 39.6183C92.0977 39.3473 91.5157 38.9414 91.0377 38.4277C90.0527 37.3697 89.5238 35.9665 89.5653 34.5216C89.5193 33.071 90.0391 31.6594 91.0148 30.585C91.4974 30.06 92.0887 29.6466 92.7476 29.3738C93.4064 29.1011 94.1169 28.9755 94.8294 29.0058C95.5219 28.9873 96.2107 29.1134 96.8518 29.3761C97.4928 29.6389 98.072 30.0324 98.5524 30.5316C99.0588 31.059 99.4546 31.6823 99.7166 32.3649C99.9787 33.0475 100.102 33.7756 100.078 34.5064C100.099 35.23 99.9752 35.9505 99.7131 36.6254C99.451 37.3002 99.0563 37.9156 98.5524 38.4353C98.0735 38.9323 97.4967 39.3244 96.8585 39.5871C96.2203 39.8497 95.5346 39.9771 94.8446 39.9612L94.7912 39.9993ZM94.7912 43.7223C96.4772 43.7515 98.1434 43.3553 99.6357 42.5703C101.041 41.8245 102.205 40.6948 102.993 39.3127C103.808 37.8495 104.221 36.1964 104.19 34.5216C104.222 32.8395 103.809 31.1788 102.993 29.7077C102.218 28.3239 101.064 27.1908 99.6662 26.4424C98.1728 25.6522 96.5035 25.2533 94.8141 25.2828C93.0936 25.25 91.3945 25.6682 89.8857 26.4958C88.4864 27.257 87.3347 28.4035 86.5671 29.7992C85.7877 31.2498 85.3912 32.8751 85.4151 34.5216C85.4067 35.7719 85.6371 37.0122 86.0941 38.176C86.5234 39.2664 87.1667 40.2599 87.9861 41.0979C88.8298 41.9432 89.8442 42.5986 90.9614 43.0204C92.1816 43.4965 93.4816 43.7347 94.7912 43.7223Z" fill="#EC5504"/>
<path fill-rule="evenodd" clip-rule="evenodd" d="M112.064 43.7223C112.934 43.7421 113.803 43.6523 114.65 43.4553C115.33 43.2745 115.987 43.0186 116.611 42.6924L115.535 39.1449C114.727 39.6099 113.819 39.8717 112.888 39.9078C112.641 39.9245 112.395 39.8811 112.169 39.7815C111.943 39.6818 111.744 39.5288 111.591 39.3356C111.261 38.7543 111.115 38.0867 111.171 37.4207V29.0287H116.428V25.5575H111.171V19.1643L107.067 19.6144V25.5575H104.885V29.044H107.067V37.7793C106.951 39.3706 107.421 40.9494 108.387 42.2194C108.85 42.7266 109.42 43.1245 110.056 43.3845C110.692 43.6444 111.378 43.7598 112.064 43.7223Z" fill="#EC5504"/>
<path fill-rule="evenodd" clip-rule="evenodd" d="M118.647 43.4323H122.752V25.5574H118.647V43.4323ZM120.73 22.8872C121.21 22.8897 121.682 22.7632 122.096 22.521C122.513 22.2827 122.863 21.9412 123.11 21.5292C123.356 21.1161 123.485 20.6442 123.484 20.1636C123.487 19.8056 123.415 19.4509 123.275 19.1215C123.134 18.7921 122.928 18.4951 122.668 18.2487C122.416 17.9913 122.114 17.7877 121.781 17.65C121.448 17.5123 121.091 17.4435 120.73 17.4477C120.368 17.4361 120.007 17.4978 119.668 17.6288C119.33 17.7599 119.022 17.9577 118.762 18.2106C118.506 18.4619 118.303 18.7617 118.164 19.0925C118.026 19.4232 117.954 19.7783 117.954 20.1369C117.954 20.4955 118.026 20.8506 118.164 21.1813C118.303 21.5121 118.506 21.8119 118.762 22.0632C119.017 22.3271 119.323 22.5362 119.661 22.6779C120 22.8195 120.363 22.8907 120.73 22.8872Z" fill="#EC5504"/>
<path fill-rule="evenodd" clip-rule="evenodd" d="M138.392 25.5574L133.814 38.298H133.738L129.069 25.5574H124.682L131.808 43.44H135.729L142.816 25.5574H138.392Z" fill="#EC5504"/>
<path fill-rule="evenodd" clip-rule="evenodd" d="M152.437 39.9995C151.746 40.0225 151.058 39.8984 150.419 39.6354C149.78 39.3723 149.204 38.9763 148.729 38.4736C147.755 37.4146 147.239 36.0131 147.295 34.5752C147.292 33.7942 147.428 33.019 147.699 32.2865C147.928 31.6287 148.292 31.0259 148.767 30.5165C149.234 30.0433 149.792 29.6695 150.408 29.4179C151.046 29.1534 151.731 29.0186 152.422 29.0212C153.106 29.0062 153.786 29.1419 154.412 29.4188C155.038 29.6957 155.596 30.1069 156.046 30.6233C157.017 31.7179 157.533 33.1428 157.487 34.6057C157.515 35.3216 157.398 36.0356 157.144 36.7054C156.889 37.3751 156.503 37.9868 156.007 38.5042C155.546 38.9952 154.988 39.3845 154.368 39.6472C153.748 39.91 153.08 40.0403 152.406 40.03L152.437 39.9995ZM157.358 25.5576V27.7014H157.281C156.605 26.9035 155.755 26.2708 154.796 25.8517C153.837 25.4326 152.796 25.238 151.75 25.2829C150.575 25.276 149.41 25.5151 148.333 25.9848C147.3 26.4314 146.368 27.0828 145.594 27.8997C144.802 28.7549 144.187 29.7583 143.786 30.8522C143.337 32.0418 143.112 33.3039 143.122 34.5752C143.118 35.6076 143.262 36.6353 143.549 37.6268C143.803 38.5373 144.208 39.3986 144.747 40.1749C145.259 40.9005 145.879 41.5437 146.585 42.0822C147.31 42.6236 148.123 43.0341 148.989 43.2952C149.896 43.5728 150.84 43.7117 151.789 43.7072C152.884 43.7573 153.976 43.5389 154.967 43.0708C155.959 42.6028 156.822 41.8993 157.48 41.0218H157.533V43.4173H161.455V25.5576H157.358Z" fill="#EC5504"/>
<path d="M168.534 16.4407H164.438V43.4324H168.534V16.4407Z" fill="#EC5504"/>
<path fill-rule="evenodd" clip-rule="evenodd" d="M13.7935 9.43714C13.7935 8.85773 13.9653 8.29132 14.2872 7.80956C14.6091 7.32779 15.0666 6.9523 15.6019 6.73057C16.1372 6.50884 16.7263 6.45082 17.2946 6.56386C17.8628 6.6769 18.3848 6.95591 18.7946 7.36562C19.2043 7.77533 19.4833 8.29733 19.5963 8.86561C19.7094 9.43389 19.6513 10.0229 19.4296 10.5582C19.2079 11.0935 18.8324 11.5511 18.3506 11.873C17.8689 12.1949 17.3025 12.3667 16.723 12.3667C16.338 12.3677 15.9566 12.2926 15.6008 12.1458C15.2449 11.9989 14.9215 11.7831 14.6493 11.5109C14.377 11.2387 14.1613 10.9153 14.0144 10.5594C13.8675 10.2035 13.7925 9.82214 13.7935 9.43714Z" fill="#EC5504"/>
<path fill-rule="evenodd" clip-rule="evenodd" d="M3.05176 43.44C3.05176 39.4347 3.05176 25.176 3.05176 17.3943C5.1769 18.4714 7.108 19.8945 8.76595 21.6055C8.76595 27.5181 8.76595 40.5486 8.76595 43.44H3.05176Z" fill="#EC5504"/>
<path fill-rule="evenodd" clip-rule="evenodd" d="M16.6009 31.9964H20.8198C23.1577 25.6164 26.184 19.5101 29.845 13.7858C35.521 5.18778 42.967 3.46361 42.967 3.46361L38.8092 0C38.8092 0 31.8362 1.92253 25.2599 11.7564C21.8039 16.9137 18.7218 25.5956 18.7218 25.5956C18.7218 25.5956 15.8685 20.0111 13.2212 16.9747C9.40667 12.6185 3.34917 10.1085 3.34917 10.1085L0 13.8697C0 13.8697 5.73708 15.1209 10.5815 21.4988C13.0069 24.7406 15.0282 28.2657 16.6009 31.9964Z" fill="#EC5504"/>
<path fill-rule="evenodd" clip-rule="evenodd" d="M41.899 48.8262C40.5183 48.7969 39.152 48.5391 37.8556 48.0633C36.0977 47.4495 34.559 46.3326 33.4307 44.8514C32.2289 43.2821 31.4111 41.4531 31.0428 39.5111C30.5937 37.3513 30.3889 35.1479 30.4325 32.9424V15.3116C32.0341 13.0921 33.9693 11.1337 36.1696 9.50586V32.5304C36.0708 36.0178 36.6942 39.488 38.0005 42.7229C39.1525 45.7745 40.8157 46.9265 43.4172 46.9265L41.899 48.8262Z" fill="#EC5504"/>
</svg>
