<?xml version="1.0" encoding="UTF-8" standalone="no" ?>
<!DOCTYPE svg PUBLIC "-//W3C//DTD SVG 1.1//EN" "http://www.w3.org/Graphics/SVG/1.1/DTD/svg11.dtd">
<svg xmlns="http://www.w3.org/2000/svg" xmlns:xlink="http://www.w3.org/1999/xlink" version="1.1" width="1080" height="1080" viewBox="0 0 1080 1080" xml:space="preserve">
<desc>Created with Fabric.js 5.2.4</desc>
<defs>
</defs>
<g transform="matrix(1 0 0 1 540 540)" id="b804da49-538e-4f06-be55-71d3e5e74345"  >
<rect style="stroke: none; stroke-width: 1; stroke-dasharray: none; stroke-linecap: butt; stroke-dashoffset: 0; stroke-linejoin: miter; stroke-miterlimit: 4; fill: rgb(255,255,255); fill-rule: nonzero; opacity: 1; visibility: hidden;" vector-effect="non-scaling-stroke"  x="-540" y="-540" rx="0" ry="0" width="1080" height="1080" />
</g>
<g transform="matrix(1 0 0 1 540 540)" id="328733c9-4671-49b3-907d-8bc03cc87a5c"  >
</g>
<g transform="matrix(8.44 0 0 8.44 540 540)"  >
<g style=""   >
		<g transform="matrix(1 0 0 1 -0.4 0)"  >
<path style="stroke: none; stroke-width: 1; stroke-dasharray: none; stroke-linecap: butt; stroke-dashoffset: 0; stroke-linejoin: miter; stroke-miterlimit: 4; fill: rgb(16,24,32); fill-rule: evenodd; opacity: 1;" vector-effect="non-scaling-stroke"  transform=" translate(-63.6, -20)" d="M 13.5298 8.90928 C 14.3694 8.54507 15.6842 8.20008 16.6374 8.09386 C 18.5543 7.88025 20.9729 8.33468 22.823 9.25616 C 23.585 9.63571 24.6438 10.3261 25.1589 10.7791 L 25.5153 11.0928 L 23.6471 13.1781 L 21.7789 15.2634 L 21.2832 14.8044 C 20.087 13.6969 18.2454 13.2545 17.0725 13.7928 C 16.503 14.0543 16.2668 14.3868 16.2668 14.9278 C 16.2668 15.3861 16.4805 15.7562 16.9086 16.0394 C 17.0839 16.1555 18.0039 16.578 18.953 16.9783 C 21.9179 18.2289 22.8538 18.7824 24.072 20.0057 C 24.7028 20.6391 24.8885 20.8896 25.2069 21.5362 C 26.0258 23.1995 26.1922 24.9791 25.7041 26.853 C 25.299 28.4083 24.3297 29.7843 22.9669 30.7386 C 22.3183 31.1928 20.6374 31.8351 20.6374 31.8351 L 17.5858 26.4742 C 17.5858 26.4742 18.5343 26.433 19.0262 25.5727 C 19.205 25.227 19.1861 24.6918 18.9835 24.364 C 18.6315 23.7946 17.8232 23.3372 15.6477 22.477 C 13.3013 21.5492 12.0297 20.859 11.0264 19.9683 C 10.079 19.1273 9.49363 18.2073 9.17553 17.0597 C 8.94279 16.2195 8.94122 14.6312 9.17248 13.7967 C 9.77702 11.6152 11.3444 9.85715 13.5298 8.90928 Z M 33.9157 32 L 27.9776 32 L 27.9776 8 L 33.4849 8 C 36.7157 8 39.2681 8.03455 39.6596 8.08371 C 42.6733 8.46161 45.2117 10.8534 45.8441 13.9111 C 45.9438 14.3932 45.9667 14.8317 45.9359 15.6685 C 45.9005 16.6341 45.8601 16.8877 45.6349 17.5612 C 44.5159 20.9072 41.4209 22.8866 37.8605 22.6392 L 36.5926 20.3711 C 35.8953 19.1237 35.3197 18.0085 35.3178 17.9794 C 35.3178 17.9794 35.9931 17.9983 36.8436 17.9794 C 38.0528 17.9525 38.4796 17.8983 38.7271 17.7901 C 40.5975 16.9729 40.6902 14.3055 38.8642 13.4433 C 38.4502 13.2478 38.3268 13.2441 36.1632 13.1959 L 33.9157 13.1937 L 33.9157 32 Z M 68.3075 32 C 68.2522 23.9995 68.3075 8 68.3075 8 L 74.658 8 L 74.658 26.3918 L 77.798 26.3918 L 80.926 26.3918 C 80.926 26.3918 78.8545 30.3023 77.9157 32 L 68.3075 32 Z M 106.576 13.8557 L 100.72 13.8557 L 100.72 8 L 115.043 8 C 115.231 8.33498 115.419 8.66955 115.607 9.00417 C 116.506 10.6036 117.405 12.2041 118.204 13.8557 L 112.596 13.8557 L 112.596 32 L 106.576 32 L 106.576 13.8557 Z M 61.0085 22.4742 L 48.0188 22.5164 L 48.0188 17.3186 L 61.0085 17.3608 L 61.0085 22.4742 Z M 93.792 22.5155 L 80.8436 22.5155 L 80.8436 17.3196 L 93.792 17.3196 L 93.792 22.5155 Z M 65.5858 32 L 48.1013 32 C 48.1013 32 50.2588 28.152 51.2766 26.3988 L 65.5858 26.3918 L 65.5858 32 Z M 98.3281 32 L 80.8436 32 C 81.7217 30.4583 82.6158 28.9258 83.5099 27.3933 C 83.7046 27.0594 83.8994 26.7256 84.094 26.3918 L 98.3281 26.3918 L 98.3281 32 Z" stroke-linecap="round" />
</g>
		<g transform="matrix(1 0 0 1 -7.2 -9.07)"  >
<path style="stroke: none; stroke-width: 1; stroke-dasharray: none; stroke-linecap: butt; stroke-dashoffset: 0; stroke-linejoin: miter; stroke-miterlimit: 4; fill: rgb(255,198,0); fill-rule: evenodd; opacity: 1;" vector-effect="non-scaling-stroke"  transform=" translate(-56.8, -10.93)" d="M 65.5858 8 L 48.0188 8 C 48.0188 8 50.3 12.1024 51.3178 13.8557 L 65.5858 13.8557 L 65.5858 8 Z" stroke-linecap="round" />
</g>
		<g transform="matrix(1 0 0 1 25.59 -9.07)"  >
<path style="stroke: none; stroke-width: 1; stroke-dasharray: none; stroke-linecap: butt; stroke-dashoffset: 0; stroke-linejoin: miter; stroke-miterlimit: 4; fill: rgb(214,0,28); fill-rule: evenodd; opacity: 1;" vector-effect="non-scaling-stroke"  transform=" translate(-89.59, -10.93)" d="M 98.328 8 L 80.8435 8 C 80.8435 8 83.1247 12.1024 84.1425 13.8557 L 98.328 13.8557 L 98.328 8 Z" stroke-linecap="round" />
</g>
</g>
</g>
</svg>