<svg width="244" height="74" viewBox="0 0 244 74" fill="none" xmlns="http://www.w3.org/2000/svg">
<g clip-path="url(#clip0_18_61)">
<path d="M42.341 26.6958V53.3843H48.9768H55.6199V32.4897V11.5878L60.4661 11.6098C65.8646 11.6391 65.5773 11.6098 66.6747 12.1379C67.7942 12.6659 68.5969 13.458 69.1419 14.5654C69.5765 15.4455 69.6796 15.9002 69.6796 16.9196C69.6796 17.9097 69.5765 18.3717 69.1714 19.2005C68.6411 20.3153 67.8457 21.1147 66.7336 21.6574C65.6289 22.1928 65.7099 22.1855 62.0201 22.2148C60.2157 22.2295 58.7574 22.2661 58.7648 22.2954C58.7795 22.3248 60.0757 24.6716 61.6592 27.5099L64.5315 32.6657L66.1371 32.6364C69.0609 32.585 71.0126 32.1303 73.4283 30.9496C78.2376 28.61 81.5813 24.0336 82.4062 18.6431C82.5829 17.5064 82.5829 15.1448 82.4062 14.008C81.3972 7.41477 76.6321 2.13429 70.2172 0.513481C68.214 0.00743558 69.2745 0.0440912 55.0676 0.0220892L42.3115 -0.00720376L42.341 26.6958Z" fill="white"/>
<path d="M87.2449 0.0514494C87.2449 0.0881194 88.8873 2.99235 90.8906 6.51267L94.5362 12.9226H110.378H126.235L126.257 6.61537C126.264 3.14639 126.257 0.24209 126.235 0.154082L126.198 0.00740248H106.725C96.0092 0.00740248 87.2449 0.0294474 87.2449 0.0514494Z" fill="#FFC609"/>
<path d="M132.407 0.051512C132.377 0.073514 132.355 12.0866 132.355 26.7399V53.377L143.108 53.3623L153.868 53.3403L157.285 47.2017C159.171 43.8281 160.725 41.0265 160.74 40.9752C160.769 40.9165 159.325 40.8945 153.647 40.8945H146.518V20.4473V0.00015976H139.492C135.618 0.00749375 132.429 0.0295101 132.407 0.051512Z" fill="white"/>
<path d="M160.496 0.0514494C160.496 0.0881194 162.139 2.99235 164.142 6.51267L167.788 12.9226H183.63H199.479L199.501 6.61537C199.508 3.14639 199.501 0.24209 199.479 0.154082L199.442 0.00740248H179.969C169.253 0.00740248 160.496 0.0294474 160.496 0.0514494Z" fill="#D62027"/>
<path d="M204.922 6.48339V12.9593H211.491H218.061V33.1717V53.3843H224.667H231.273V33.1717V12.9593H237.637C242.144 12.9593 244 12.9373 244 12.886C244 12.8419 242.674 10.4437 241.047 7.55413C239.419 4.6572 237.806 1.78964 237.46 1.16625L236.827 0.0440877L220.867 0.0221001L204.907 0.00741778L204.922 6.48339Z" fill="white"/>
<path d="M17.9999 0.139403C15.0318 0.425429 12.8665 0.902096 10.8927 1.70883C8.18243 2.81627 6.59897 3.79905 4.88295 5.44187C2.40097 7.81808 0.780682 10.7223 0.162028 13.9053C0.0220948 14.5946 0.00736493 14.91 0 16.4648C0 18.5404 0.0589194 18.973 0.589194 20.6892C0.839602 21.5106 1.03845 22.002 1.4067 22.6987C2.33468 24.4662 3.11536 25.3977 4.99342 27.0038C7.13661 28.83 10.0384 30.3408 15.0907 32.2476C16.5048 32.7757 18.3829 33.5751 19.2814 34.0298C20.445 34.6091 21.1889 35.1152 21.837 35.7606C22.5588 36.4793 22.7134 36.8607 22.7134 37.8288C22.7134 38.4155 22.6913 38.5475 22.5293 38.9069C22.4262 39.1269 22.2789 39.4129 22.1979 39.5303C21.999 39.8236 21.3877 40.293 20.8722 40.5497C20.4377 40.7697 19.5686 41.041 19.2961 41.041C19.2151 41.041 19.1341 41.0704 19.1046 41.0998C19.0825 41.1438 20.1063 42.9919 21.373 45.2068C22.6398 47.4217 24.1717 50.1132 24.7682 51.1693C25.3722 52.2327 25.9024 53.0981 25.954 53.0981C26.1676 53.0981 28.3255 52.2034 29.3787 51.6827C30.0194 51.36 31.5587 50.3406 32.332 49.7172C33.5399 48.7491 34.7183 47.3996 35.5652 46.0355C36.1323 45.1188 36.9056 43.3732 37.1929 42.3611C38.2829 38.5255 38.1061 34.3525 36.7215 31.1475C35.9998 29.4754 35.3664 28.4706 34.3353 27.3558C31.5513 24.3416 28.8484 22.6767 22.6766 20.1538C20.4303 19.2371 19.0089 18.6357 18.5228 18.3864C17.4328 17.8437 16.7257 17.2422 16.3943 16.5822C16.1734 16.1421 16.085 15.2914 16.2102 14.7707C16.7037 12.6659 19.6717 11.7418 23.089 12.6439C23.9066 12.8565 24.4147 13.0619 25.3648 13.5606C26.418 14.1107 27.206 14.6827 27.9499 15.4528L28.5759 16.0835L30.999 13.3773C32.332 11.8885 34.2101 9.81294 35.1528 8.75685L36.8836 6.84263L36.6258 6.60793C36.0366 6.07988 34.5341 4.92112 33.8418 4.45908C30.4687 2.22955 26.5874 0.799434 22.4778 0.256718C21.292 0.117373 18.9647 0.0513952 17.9999 0.139403Z" fill="white"/>
<path d="M87.1786 26.5271V32.2549H101.658H116.138V26.5271V20.7992H101.658H87.1786V26.5271Z" fill="white"/>
<path d="M160.423 26.5271V32.2549H174.902H189.382V26.5271V20.7992H174.902H160.423V26.5271Z" fill="white"/>
<path d="M90.8905 47.099C88.8873 50.5093 87.2523 53.3183 87.2523 53.3329C87.2523 53.3623 96.0313 53.3843 106.762 53.3843H126.272V47.1504V40.9165H110.4H94.5214L90.8905 47.099Z" fill="white"/>
<path d="M164.135 47.099C162.131 50.5093 160.496 53.3183 160.496 53.3329C160.496 53.3623 169.275 53.3843 180.006 53.3843H199.516V47.1504V40.9165H183.644H167.773L164.135 47.099Z" fill="white"/>
<path d="M96.0386 68.9396H98.7637V72.8266C98.2481 73.1933 97.5853 73.4866 96.8488 73.7067C96.1123 73.9267 95.3758 74 94.7129 74C93.7555 74 92.8717 73.78 92.0616 73.4133C91.2514 72.9733 90.6622 72.4599 90.2203 71.7265C89.7784 70.9931 89.5575 70.1863 89.5575 69.2329C89.5575 68.2795 89.7784 67.4728 90.2203 66.7394C90.6622 66.006 91.3251 65.4192 92.0616 65.0525C92.8717 64.6125 93.7555 64.4658 94.7866 64.4658C95.6704 64.4658 96.4805 64.6125 97.217 64.9059C97.9535 65.1992 98.5427 65.6393 98.9846 66.226L96.9961 67.9861C96.4069 67.3261 95.744 66.9594 94.9339 66.9594C94.271 66.9594 93.6819 67.1794 93.3136 67.5461C92.8717 67.9861 92.7244 68.4995 92.7244 69.2329C92.7244 69.893 92.9454 70.4797 93.3136 70.9197C93.6819 71.3598 94.271 71.5798 94.9339 71.5798C95.3021 71.5798 95.744 71.5065 96.0386 71.3598V68.9396Z" fill="white"/>
<path d="M107.749 72.2399H104.214L103.625 73.8534H100.458L104.508 64.6125H107.602L111.652 73.8534H108.412L107.749 72.2399ZM106.865 69.9664L105.981 67.6195L105.097 69.9664H106.865Z" fill="white"/>
<path d="M121.742 73.8534V69.673L119.754 73.0466H118.354L116.366 69.8197V73.8534H113.42V64.6125H115.998L119.017 69.5263L121.963 64.6125H124.541V73.8534H121.742V73.8534Z" fill="white"/>
<path d="M127.413 64.6125H130.506V73.8534H127.413V64.6125Z" fill="white"/>
<path d="M142.511 64.6125V73.8534H139.934L136.398 69.673V73.8534H133.379V64.6125H135.957L139.492 68.7929V64.6125H142.511Z" fill="white"/>
<path d="M151.497 68.9396H154.222V72.8266C153.706 73.1933 153.043 73.4866 152.307 73.7067C151.57 73.9267 150.834 74 150.171 74C149.213 74 148.33 73.78 147.519 73.4133C146.709 72.9733 146.12 72.4599 145.678 71.7265C145.236 70.9931 145.015 70.1863 145.015 69.2329C145.015 68.2795 145.236 67.4728 145.678 66.7394C146.12 66.006 146.783 65.4192 147.519 65.0525C148.33 64.6125 149.213 64.4658 150.244 64.4658C151.128 64.4658 151.938 64.6125 152.675 64.9059C153.411 65.1992 154.001 65.6393 154.442 66.226L152.454 67.9861C151.865 67.3261 151.202 66.9594 150.392 66.9594C149.729 66.9594 149.14 67.1794 148.771 67.5461C148.33 67.9861 148.182 68.4995 148.182 69.2329C148.182 69.893 148.403 70.4797 148.771 70.9197C149.14 71.3598 149.729 71.5798 150.392 71.5798C150.76 71.5798 151.202 71.5065 151.497 71.3598V68.9396Z" fill="white"/>
<path d="M86.3906 67.6194V70.6997H0V67.6194H86.3906Z" fill="white"/>
<path d="M244 67.5461V70.6264H157.388V67.5461H244Z" fill="white"/>
</g>
<defs>
<clipPath id="clip0_18_61">
<rect width="244" height="74" fill="white"/>
</clipPath>
</defs>
</svg>
