<?xml version="1.0" encoding="UTF-8" standalone="no" ?>
<!DOCTYPE svg PUBLIC "-//W3C//DTD SVG 1.1//EN" "http://www.w3.org/Graphics/SVG/1.1/DTD/svg11.dtd">
<svg xmlns="http://www.w3.org/2000/svg" xmlns:xlink="http://www.w3.org/1999/xlink" version="1.1" width="1080" height="1080" viewBox="0 0 1080 1080" xml:space="preserve">
<desc>Created with Fabric.js 5.2.4</desc>
<defs>
</defs>
<g transform="matrix(1 0 0 1 540 540)" id="78f8967f-7ba2-4b7f-86be-b7d1dd38803d"  >
<rect style="stroke: none; stroke-width: 1; stroke-dasharray: none; stroke-linecap: butt; stroke-dashoffset: 0; stroke-linejoin: miter; stroke-miterlimit: 4; fill: rgb(255,255,255); fill-rule: nonzero; opacity: 1; visibility: hidden;" vector-effect="non-scaling-stroke"  x="-540" y="-540" rx="0" ry="0" width="1080" height="1080" />
</g>
<g transform="matrix(1 0 0 1 540 540)" id="54eca60f-e7dc-4824-9fe4-88b7659e724f"  >
</g>
<g transform="matrix(3.66 0 0 3.66 540 540)"  >
<g style=""   >
		<g transform="matrix(1 0 0 1 -5.25 -0.44)"  >
<path style="stroke: none; stroke-width: 1; stroke-dasharray: none; stroke-linecap: butt; stroke-dashoffset: 0; stroke-linejoin: miter; stroke-miterlimit: 4; fill: rgb(45,39,43); fill-rule: evenodd; opacity: 1;" vector-effect="non-scaling-stroke"  transform=" translate(-142.25, -35.56)" d="M 233.686 30.484 L 243.85 30.484 L 243.85 71.125 L 233.686 71.125 L 233.686 30.485 L 213.372 30.485 L 213.372 20.325 L 233.686 20.325 L 233.686 30.484 z M 10.158 60.961 L 10.158 71.125 L 20.317999999999998 71.125 L 20.317999999999998 60.961 L 10.16 60.961 L 10.16 30.485 L 10.158 20.325 L 0 20.325 L 0 0.001 L 10.16 0.001 L 10.16 20.325000000000003 L 30.482 20.325000000000003 L 30.482 30.485000000000003 L 10.16 30.485000000000003 L 0 30.484 L 0 60.961 L 10.158 60.961 z M 182.887 30.483999999999998 L 193.042 30.483999999999998 L 193.042 60.961 L 182.887 60.961 L 182.887 30.485 L 162.572 30.485 L 162.572 20.325 L 182.887 20.325 L 182.887 30.484 z M 81.279 10.16 L 81.279 0 L 91.446 0 L 91.446 10.16 L 81.279 10.16 z M 111.76599999999999 20.325 L 111.76599999999999 0.001 L 121.92599999999999 0.001 L 121.92599999999999 20.325000000000003 L 111.76599999999999 20.325000000000003 z M 50.8 30.485 L 50.8 20.325 L 71.12 20.325 L 71.12 30.485 L 50.8 30.485 z M 81.279 71.125 L 81.279 20.324 L 91.446 20.324 L 91.446 71.125 L 81.279 71.125 z M 121.928 30.485 L 121.928 20.325 L 142.244 20.325 L 142.244 30.485 L 121.928 30.485 z M 264.177 30.485 L 264.177 20.325 L 284.492 20.325 L 284.492 30.485 L 264.177 30.485 z M 111.766 60.961 L 111.766 30.484 L 121.926 30.484 L 121.926 60.961 L 111.766 60.961 z M 254.01 40.649 L 254.01 30.485 L 264.17699999999996 30.485 L 264.17699999999996 40.649 L 254.01 40.649 z M 264.17699999999996 50.809 L 264.17699999999996 40.649 L 284.49199999999996 40.649 L 284.49199999999996 50.809 L 264.17699999999996 50.809 z M 152.406 60.961 L 152.406 30.484 L 162.57 30.484 L 162.57 60.961 L 152.406 60.961 z M 254.01 60.961 L 254.01 50.81 L 264.17699999999996 50.81 L 264.17699999999996 60.961 L 254.01 60.961 z M 40.643 71.125 L 40.643 30.484 L 50.799 30.484 L 50.799 71.125 L 40.643 71.125 z M 121.926 71.125 L 121.926 60.961 L 132.086 60.961 L 132.086 71.125 L 121.92600000000002 71.125 z M 162.572 71.125 L 162.572 60.961 L 182.887 60.961 L 182.887 71.125 L 162.572 71.125 z M 203.202 71.125 L 203.202 30.484 L 213.37 30.484 L 213.37 71.125 L 203.202 71.125 z M 264.177 71.125 L 264.177 60.961 L 284.492 60.961 L 284.492 71.125 L 264.177 71.125 z" stroke-linecap="round" />
</g>
		<g transform="matrix(1 0 0 1 142.07 -10.59)"  >
<path style="stroke: none; stroke-width: 1; stroke-dasharray: none; stroke-linecap: butt; stroke-dashoffset: 0; stroke-linejoin: miter; stroke-miterlimit: 4; fill: rgb(228,211,60); fill-rule: evenodd; opacity: 1;" vector-effect="non-scaling-stroke"  transform=" translate(-289.57, -25.41)" d="M 284.492 30.485 L 294.648 30.485 L 294.648 20.325 L 284.492 20.325 z" stroke-linecap="round" />
</g>
		<g transform="matrix(1 0 0 1 142.07 9.73)"  >
<path style="stroke: none; stroke-width: 1; stroke-dasharray: none; stroke-linecap: butt; stroke-dashoffset: 0; stroke-linejoin: miter; stroke-miterlimit: 4; fill: rgb(231,29,37); fill-rule: evenodd; opacity: 1;" vector-effect="non-scaling-stroke"  transform=" translate(-289.57, -45.73)" d="M 284.492 50.809 L 294.648 50.809 L 294.648 40.649 L 284.492 40.649 z" stroke-linecap="round" />
</g>
		<g transform="matrix(1 0 0 1 142.07 30.04)"  >
<path style="stroke: none; stroke-width: 1; stroke-dasharray: none; stroke-linecap: butt; stroke-dashoffset: 0; stroke-linejoin: miter; stroke-miterlimit: 4; fill: rgb(60,135,67); fill-rule: evenodd; opacity: 1;" vector-effect="non-scaling-stroke"  transform=" translate(-289.57, -66.04)" d="M 284.492 71.125 L 294.648 71.125 L 294.648 60.961 L 284.492 60.961 z" stroke-linecap="round" />
</g>
</g>
</g>
</svg>