<svg width="169" height="30" viewBox="0 0 169 30" fill="none" xmlns="http://www.w3.org/2000/svg">
<path fill-rule="evenodd" clip-rule="evenodd" d="M2.42409 0.111378C1.47365 0.280732 0 0.857868 0 1.06058C0 1.17183 0.237763 1.64589 0.528453 2.11393C0.819344 2.58175 1.6601 4.02933 2.39702 5.33058C3.13415 6.63204 4.31731 8.69205 5.02656 9.90873C5.73581 11.1254 6.65413 12.7019 7.06744 13.412C7.48075 14.1221 8.35484 15.6177 9.01015 16.7354C9.66526 17.8531 10.2468 18.8793 10.3024 19.0155C10.7597 20.1378 14.8361 26.6819 15.5449 27.4318C17.1941 29.1768 19.986 30.2364 22.1928 29.9549C23.4141 29.7989 25.049 29.2487 25.049 28.9932C25.049 28.8273 18.9705 17.9532 14.8088 10.6739C14.2185 9.64125 13.5644 8.47923 13.3555 8.09167C10.3602 2.53441 8.52998 0.730906 5.31705 0.170338C4.12863 -0.0371043 3.34565 -0.0530271 2.42409 0.111378ZM16.6656 0.32463C15.578 0.494199 14.5446 0.836135 14.5446 1.02615C14.5446 1.26651 15.3267 2.72313 18.3641 8.13987C19.7246 10.5661 21.3991 13.5545 22.0849 14.7804C24.0278 18.254 25.7051 19.6469 28.7732 20.3353C30.7088 20.7698 33.7353 20.3508 33.7353 19.6484C33.7353 19.4778 33.4234 18.8189 33.0422 18.184C32.6612 17.5492 31.5815 15.6833 30.6432 14.0376C29.7048 12.3916 28.3221 9.97974 27.5704 8.67785C26.8185 7.37595 26.0119 5.95032 25.7778 5.50983C24.5637 3.22581 22.2178 1.21594 20.0998 0.645046C19.0328 0.357553 17.4199 0.207136 16.6656 0.32463ZM34.8497 0.645046C33.9288 0.997741 32.7998 1.60479 31.9104 2.55227C30.6824 3.8604 30.7539 4.22472 33.1 8.61264C34.1951 10.6606 35.2059 12.3361 35.3465 12.3361C35.4871 12.3361 36.9145 9.86957 38.5186 6.85498C41.7926 0.702932 41.713 1.12707 39.7119 0.494199C38.5635 0.13096 35.7434 0.302895 34.8497 0.645046Z" fill="#1D2E42"/>
<path d="M68.2795 25.4874L63.3645 12.4538L58.8748 25.4874H58.1187L51.8332 8.77311C51.7544 8.55462 51.6678 8.41177 51.5733 8.34454C51.4945 8.26051 51.3606 8.20168 51.1716 8.16807L50.2973 8.06723V7.56303H58.0478V8.06723L57.1263 8.16807C56.9057 8.20168 56.7954 8.33613 56.7954 8.57143C56.7954 8.62185 56.8112 8.71429 56.8427 8.84874L60.4344 18.8319L62.9628 11.3697L61.994 8.77311C61.9152 8.55462 61.8286 8.41177 61.734 8.34454C61.6553 8.26051 61.5214 8.20168 61.3323 8.16807L60.5053 8.06723V7.56303H68.2558V8.06723L67.287 8.16807C67.0665 8.20168 66.9562 8.33613 66.9562 8.57143C66.9562 8.62185 66.972 8.71429 67.0035 8.84874L70.5952 18.8319L74.0215 8.7479C74.0687 8.61345 74.0924 8.52101 74.0924 8.47059C74.0924 8.28572 73.9742 8.18487 73.7379 8.16807L72.7455 8.06723V7.56303H76.3372V8.06723L75.4629 8.16807C75.2738 8.18487 75.1399 8.2353 75.0612 8.31933C74.9824 8.40336 74.8958 8.55462 74.8013 8.77311L69.0356 25.4874H68.2795Z" fill="#1D2E42"/>
<path d="M82.9177 18.7563C82.9334 20.6219 83.2091 22.042 83.7447 23.0168C84.2961 23.9916 85.32 24.479 86.8166 24.479C87.557 24.479 88.2107 24.3613 88.7778 24.1261C89.3607 23.8908 89.9593 23.5546 90.5737 23.1176L90.8809 23.5966C89.4159 24.874 87.4782 25.5126 85.068 25.5126C82.8941 25.5126 81.177 24.958 79.9167 23.8487C78.6722 22.7227 78.05 21.084 78.05 18.9328C78.05 16.8992 78.688 15.3445 79.964 14.2689C81.24 13.1933 83.028 12.6555 85.3279 12.6555C86.6354 12.6555 87.7381 12.874 88.6361 13.3109C89.534 13.7479 90.1956 14.3361 90.621 15.0756C91.0621 15.7983 91.2826 16.605 91.2826 17.4958C91.2826 17.9496 91.2432 18.3698 91.1644 18.7563H82.9177ZM85.1861 13.2605C84.3197 13.2605 83.729 13.6471 83.4139 14.4202C83.0988 15.1933 82.9334 16.4202 82.9177 18.1008H86.8875V16.2101C86.8875 15.1849 86.7693 14.437 86.533 13.9664C86.3125 13.4958 85.8635 13.2605 85.1861 13.2605Z" fill="#1D2E42"/>
<path d="M92.9887 24.7563L93.8158 24.5546C94.0521 24.5042 94.2017 24.4454 94.2647 24.3782C94.3435 24.3109 94.3829 24.1849 94.3829 24V8.77311C94.3829 8.58824 94.3435 8.46218 94.2647 8.39496C94.2017 8.32773 94.0521 8.26891 93.8158 8.21849L92.9887 8.01681V7.56303L98.6599 6.80672H99.1088V24C99.1088 24.1849 99.1403 24.3109 99.2033 24.3782C99.2821 24.4454 99.4396 24.5042 99.6759 24.5546L100.503 24.7563V25.2101H92.9887V24.7563Z" fill="#1D2E42"/>
<path d="M101.642 24.7563L102.469 24.5546C102.706 24.5042 102.855 24.4454 102.918 24.3782C102.997 24.3109 103.036 24.1849 103.036 24V8.77311C103.036 8.58824 102.997 8.46218 102.918 8.39496C102.855 8.32773 102.706 8.26891 102.469 8.21849L101.642 8.01681V7.56303L107.313 6.80672H107.762V24C107.762 24.1849 107.794 24.3109 107.857 24.3782C107.936 24.4454 108.093 24.5042 108.329 24.5546L109.156 24.7563V25.2101H101.642V24.7563Z" fill="#1D2E42"/>
<path d="M114.1 11.042C113.36 11.042 112.769 10.8655 112.328 10.5126C111.887 10.1429 111.666 9.61345 111.666 8.92437C111.666 8.2353 111.887 7.71429 112.328 7.36135C112.769 6.9916 113.36 6.80672 114.1 6.80672C114.84 6.80672 115.431 6.9916 115.872 7.36135C116.313 7.71429 116.534 8.2353 116.534 8.92437C116.534 9.61345 116.313 10.1429 115.872 10.5126C115.431 10.8655 114.84 11.042 114.1 11.042ZM110.343 24.7563L111.17 24.5546C111.406 24.5042 111.556 24.4454 111.619 24.3782C111.698 24.3109 111.737 24.1849 111.737 24V14.4706C111.737 14.2857 111.698 14.1597 111.619 14.0924C111.556 14.0252 111.406 13.9664 111.17 13.916L110.343 13.7143V13.2605L116.014 12.5042H116.463V24C116.463 24.1849 116.494 24.3109 116.557 24.3782C116.636 24.4454 116.794 24.5042 117.03 24.5546L117.857 24.7563V25.2101H110.343V24.7563Z" fill="#1D2E42"/>
<path d="M134.283 24C134.283 24.1849 134.314 24.3109 134.377 24.3782C134.456 24.4454 134.613 24.5042 134.85 24.5546L135.677 24.7563V25.2101H130.762C130.336 25.2101 130.029 25.0924 129.84 24.8571C129.651 24.6219 129.557 24.2689 129.557 23.7983V16.1345C129.557 15.3782 129.438 14.8403 129.202 14.521C128.982 14.2017 128.604 14.042 128.068 14.042C127.123 14.042 126.154 14.4622 125.161 15.3025V24C125.161 24.1849 125.193 24.3193 125.256 24.4034C125.335 24.4706 125.484 24.5294 125.705 24.5798L126.508 24.7563V25.2101H119.041V24.7563L119.868 24.5546C120.105 24.5042 120.254 24.4454 120.317 24.3782C120.396 24.3109 120.436 24.1849 120.436 24V14.4706C120.436 14.2857 120.396 14.1597 120.317 14.0924C120.254 14.0252 120.105 13.9664 119.868 13.916L119.041 13.7143V13.2605L124.713 12.5042H125.114V14.5462C125.713 14.0252 126.445 13.5798 127.312 13.2101C128.178 12.8403 129.139 12.6555 130.195 12.6555C131.66 12.6555 132.707 12.9832 133.337 13.6387C133.967 14.2941 134.283 15.2773 134.283 16.5882V24Z" fill="#1D2E42"/>
<path d="M148.389 25.2101C147.964 25.2101 147.657 25.0924 147.468 24.8571C147.279 24.6219 147.184 24.2689 147.184 23.7983C146.176 24.9412 144.806 25.5126 143.073 25.5126C141.34 25.5126 139.954 24.9832 138.914 23.9244C137.89 22.8655 137.378 21.2101 137.378 18.958C137.378 16.7899 137.89 15.2017 138.914 14.1933C139.938 13.1681 141.324 12.6555 143.073 12.6555C144.018 12.6555 144.806 12.7731 145.436 13.0084C146.082 13.2437 146.649 13.5462 147.137 13.916V8.77311C147.137 8.58824 147.098 8.46218 147.019 8.39496C146.956 8.32773 146.806 8.26891 146.57 8.21849L145.743 8.01681V7.56303L151.414 6.80672H151.863V24C151.863 24.1849 151.895 24.3109 151.958 24.3782C152.036 24.4454 152.194 24.5042 152.43 24.5546L153.257 24.7563V25.2101H148.389ZM144.467 24.4286C145.396 24.4286 146.286 23.958 147.137 23.0168V14.6723C146.381 14.0336 145.53 13.7143 144.585 13.7143C143.719 13.7143 143.112 14.1261 142.766 14.9496C142.419 15.7563 142.246 17.0924 142.246 18.958C142.246 20.2857 142.309 21.3445 142.435 22.1345C142.577 22.9076 142.805 23.4874 143.12 23.874C143.451 24.2437 143.9 24.4286 144.467 24.4286Z" fill="#1D2E42"/>
<path d="M163.704 25.2101C163.263 25.2101 162.948 25.1177 162.759 24.9328C162.585 24.7311 162.499 24.4034 162.499 23.9496V23.8235C161.443 24.916 159.939 25.4622 157.985 25.4622C156.961 25.4622 156.158 25.2185 155.575 24.7311C155.008 24.2269 154.724 23.4538 154.724 22.4118C154.724 21.3697 155.008 20.5546 155.575 19.9664C156.158 19.3782 157.001 18.958 158.103 18.7059C159.206 18.4538 160.671 18.3025 162.499 18.2521V16.4118C162.499 15.4706 162.325 14.7983 161.979 14.395C161.632 13.9748 161.026 13.7647 160.159 13.7647C159.435 13.7647 158.757 13.874 158.127 14.0924C157.513 14.2941 156.883 14.605 156.237 15.0252L155.93 14.5462C156.686 13.9748 157.592 13.521 158.647 13.1849C159.718 12.8319 160.915 12.6555 162.239 12.6555C164.019 12.6555 165.287 13.0336 166.043 13.7899C166.799 14.5294 167.177 15.605 167.177 17.0168V24C167.177 24.1849 167.209 24.3109 167.272 24.3782C167.351 24.4454 167.508 24.5042 167.744 24.5546L168.571 24.7563V25.2101H163.704ZM160.632 23.874C161.309 23.874 161.931 23.5882 162.499 23.0168V18.9328C161.616 19 160.947 19.1513 160.49 19.3866C160.033 19.605 159.718 19.9244 159.545 20.3445C159.387 20.7647 159.309 21.3361 159.309 22.0588C159.309 22.6975 159.411 23.1597 159.616 23.4454C159.836 23.7311 160.175 23.874 160.632 23.874Z" fill="#1D2E42"/>
</svg>
