<?xml version="1.0" standalone="no"?>
<!DOCTYPE svg PUBLIC "-//W3C//DTD SVG 20010904//EN"
 "http://www.w3.org/TR/2001/REC-SVG-20010904/DTD/svg10.dtd">
<svg version="1.0" xmlns="http://www.w3.org/2000/svg"
 width="71.000000pt" height="71.000000pt" viewBox="0 0 71.000000 71.000000"
 preserveAspectRatio="xMidYMid meet">
<metadata>
Created by potrace 1.11, written by Peter Selinger 2001-2013
</metadata>
<g transform="translate(0.000000,71.000000) scale(0.100000,-0.100000)"
fill="#000000" stroke="none">
<path d="M659 596 c-2 -2 -35 -7 -72 -11 -37 -3 -76 -8 -85 -10 -9 -1 -46 -6
-82 -10 -36 -4 -72 -9 -80 -10 -8 -2 -43 -6 -77 -10 -66 -7 -74 -9 -163 -20
-30 -4 -58 -11 -61 -16 -6 -10 -4 -388 3 -394 2 -2 71 5 153 16 83 10 174 22
204 25 30 3 62 7 70 9 18 3 131 16 176 20 l30 2 3 207 c2 181 -1 218 -19 202z
m-19 -205 c0 -180 8 -164 -90 -176 -30 -3 -71 -8 -90 -10 -19 -3 -57 -7 -85
-10 -27 -3 -103 -12 -168 -21 -65 -9 -120 -14 -122 -12 -3 3 -6 74 -7 158 l-3
154 26 7 c25 6 47 9 179 25 30 3 113 14 185 24 72 10 140 18 153 19 22 1 22 1
22 -158z"/>
<path d="M506 454 c-14 -31 -26 -60 -26 -65 0 -27 -23 -11 -61 40 -43 59 -44
60 -84 54 -22 -2 -49 -6 -60 -7 -11 -1 -36 -25 -56 -53 -44 -64 -57 -59 -68
28 -1 4 -13 6 -27 5 -29 -1 -28 11 -8 -171 9 -90 9 -90 39 -93 l28 -4 -7 58
-7 58 23 -20 c13 -11 37 -33 53 -48 27 -25 35 -27 85 -22 97 11 135 18 147 27
6 6 13 6 15 2 1 -5 30 -5 63 0 l61 8 -16 127 c-15 125 -16 127 -42 130 -23 3
-29 -4 -52 -54z m-172 -79 c3 -38 8 -90 12 -115 l6 -44 -58 53 c-33 30 -61 58
-62 63 -6 14 82 137 89 124 4 -6 9 -42 13 -81z m215 -27 c7 -76 8 -98 5 -98
-1 0 -12 13 -24 30 -19 27 -20 34 -9 65 16 44 24 44 28 3z m-109 -44 c0 -1 -6
-17 -14 -35 -17 -39 -22 -31 -31 51 l-6 55 26 -35 c14 -18 25 -35 25 -36z"/>
</g>
</svg>
