<svg width="28" height="28" viewBox="0 0 28 28" fill="none" xmlns="http://www.w3.org/2000/svg"><path fill-rule="evenodd" clip-rule="evenodd" d="M27.79 6.227a.42.42 0 01.016.112v5.908c0 .076-.02.15-.06.216a.44.44 0 01-.165.158l-5.157 2.855v5.658a.429.429 0 01-.224.374l-10.765 5.959c-.024.013-.051.022-.078.031-.01.003-.02.01-.03.012a.467.467 0 01-.23 0c-.012-.003-.024-.01-.035-.014-.025-.009-.05-.016-.074-.03L.225 21.509a.44.44 0 01-.165-.158.418.418 0 01-.06-.216V3.412c0-.04.006-.077.016-.114.003-.012.01-.023.015-.036.009-.022.017-.045.029-.066.008-.014.02-.026.03-.039.014-.017.025-.035.04-.05.013-.012.03-.021.045-.032.016-.013.03-.027.049-.037L5.607.057a.463.463 0 01.448 0l5.382 2.98c.019.01.034.024.05.036.015.011.031.02.044.033.016.015.027.033.04.05.01.013.023.025.03.039.013.021.02.044.03.066.004.013.012.024.015.037a.42.42 0 01.016.113v11.07l4.484-2.483v-5.66c0-.037.006-.075.016-.111.004-.013.011-.025.016-.037.009-.023.017-.046.029-.067.008-.014.02-.025.03-.038.014-.017.025-.035.04-.05.013-.012.03-.022.044-.032.017-.013.031-.027.05-.037l5.382-2.98a.462.462 0 01.448 0l5.382 2.98c.019.01.033.024.05.036.014.01.03.02.043.032.016.016.027.034.04.051.01.013.023.024.03.038.014.021.02.044.03.067.005.012.012.024.016.037zm-.88 5.77V7.086l-1.884 1.042-2.602 1.44v4.914l4.486-2.483zm-5.383 8.888V15.97l-2.559 1.406-7.308 4.01v4.962l9.867-5.462zM.898 4.156v16.73l9.866 5.46v-4.96L5.61 18.58l-.002-.002h-.002c-.017-.01-.032-.024-.048-.036-.014-.01-.03-.02-.043-.031v-.002c-.015-.013-.025-.03-.038-.045-.011-.015-.024-.027-.033-.042v-.002c-.011-.016-.017-.035-.024-.054-.008-.016-.017-.03-.022-.048-.005-.021-.006-.043-.009-.064-.002-.016-.006-.032-.006-.048V6.639L2.78 5.2.897 4.156zM5.831.93L1.347 3.41 5.83 5.892l4.483-2.482L5.83.929zm2.332 15.488l2.6-1.44V4.157L8.88 5.198 6.28 6.639V17.46l1.884-1.043zm13.813-12.56L17.493 6.34l4.483 2.482 4.483-2.482-4.483-2.482zm-.448 5.71l-2.602-1.44-1.883-1.042v4.913l2.6 1.44 1.884 1.043V9.568zM11.21 20.64l6.576-3.61 3.288-1.803-4.48-2.48-5.159 2.855-4.7 2.602 4.475 2.436z" fill="#fff"/></svg>