<svg viewBox="0 0 23 47" fill="none" xmlns="http://www.w3.org/2000/svg"><g clip-path="url(#mongo_svg__a)"><path d="M9.231 8.56c1.07-.82 1.851-2.131 1.851-2.131s.782 1.311 1.852 2.13c1.028.82 7.693 6.64 7.693 18.116 0 10.983-7.817 15.205-8.434 15.533l-1.11-25.082-.042-1.025-1.07 26.107c-.617-.328-8.474-4.55-8.474-15.533C1.497 15.199 8.16 9.38 9.23 8.56Z" fill="#fff"/><path d="M9.972 42.166c.041.04 0 .04 0 0Z" fill="#606060"/><path d="M9.93 42.208h2.181v4.22h-2.18v-4.22Z" fill="#fff"/></g><defs><clipPath id="mongo_svg__a"><path fill="#fff" transform="matrix(-1 0 0 1 22.061 .429)" d="M0 0h22v46H0z"/></clipPath></defs></svg>