<svg viewBox="0 0 40 39" fill="none" xmlns="http://www.w3.org/2000/svg"><path fill-rule="evenodd" clip-rule="evenodd" d="M9.398 6.771c-.36-.057-.897-.057-1.183 0v.058h.057c.229.401.467.8.753 1.144.229.402.504.807.733 1.21l.057-.058c.4-.287.571-.746.571-1.206 0-.46-.06-.57-.231-.742-.23-.23-.397-.348-.757-.406Z" fill="#fff"/><path fill-rule="evenodd" clip-rule="evenodd" d="M36.555 29.962c-2.114-.057-3.77.173-5.2.747-.4.172-1.028.172-1.085.689.229.23.229.574.457.86.343.517.857 1.264 1.372 1.665.57.402 1.142.861 1.714 1.263 1.028.632 2.228 1.034 3.256 1.665.572.402 1.2.861 1.772 1.263.285.23.457.574.857.689v-.058c-.172-.23-.229-.574-.4-.86l-.8-.804c-.8-1.034-1.714-1.952-2.8-2.698-.857-.574-2.742-1.378-3.085-2.411l-.057-.058c.571-.057 1.257-.287 1.828-.459.914-.23 1.714-.172 2.685-.402.457-.115.857-.23 1.315-.402v-.23c-.458-.459-.858-1.147-1.315-1.607-1.37-1.205-2.856-2.353-4.4-3.33-.856-.516-1.885-.86-2.799-1.32-.343-.172-.857-.229-1.028-.516-.457-.574-.743-1.378-1.086-2.067-.8-1.492-1.543-3.1-2.171-4.65-.457-1.033-.8-2.066-1.371-3.042-2.743-4.592-5.771-7.348-10.342-10.046-.971-.574-2.171-.803-3.428-1.09-.686 0-1.314-.058-2-.115-.457-.172-.857-.689-1.257-.919C5.644.744 1.759-1.323.617 1.432c-.743 1.723 1.085 3.445 1.656 4.363.457.632 1.029 1.32 1.372 2.01.17.459.228.918.457 1.434.4 1.206.8 2.526 1.37 3.617.287.574.63 1.148.972 1.665.229.287.572.401.686.918-.4.517-.4 1.32-.629 2.01-.971 3.042-.571 6.773.8 9.012.4.689 1.429 2.124 2.8 1.607 1.2-.46.914-2.009 1.257-3.33.057-.344 0-.516.171-.746v.058c.4.746.743 1.492 1.086 2.239.857 1.32 2.114 2.922 3.314 3.84.628.46 1.314 1.096 2.114 1.383v-.057h-.114c-.172-.23-.557-.581-.785-.754-.458-.459-.872-.853-1.215-1.37-1.143-1.492-2.114-3.157-2.971-4.88-.457-.86-.8-1.721-1.143-2.583-.171-.344-.171-.803-.4-.975-.4.574-.971 1.09-1.257 1.837-.514 1.148-.571 2.583-.743 4.075-.114 0-.057 0-.114.058-.857-.23-1.143-1.091-1.486-1.837-.8-1.895-.914-4.994-.228-7.176.171-.574.971-2.354.686-2.87-.172-.517-.686-.804-.972-1.206-.343-.516-.743-1.148-.971-1.722-.629-1.492-.971-3.157-1.657-4.65-.343-.688-.857-1.435-1.314-2.066-.514-.746-1.086-1.263-1.486-2.067-.114-.287-.343-.803-.114-1.09.057-.23.171-.287.4-.345.343-.287 1.314.058 1.657.23.971.402 1.828.803 2.628 1.32.4.287.8.804 1.257.919h.572c.857.172 1.828.057 2.628.287 1.428.459 2.685 1.148 3.828 1.837a23.904 23.904 0 0 1 8.342 9.184c.343.632.457 1.206.743 1.837.571 1.32 1.257 2.64 1.828 3.961.572 1.263 1.086 2.526 1.886 3.617.4.574 2 .86 2.742 1.148.514.23 1.372.459 1.829.746a44.32 44.32 0 0 1 2.685 1.837c.343 0 1.714.689 1.771 1.205Z" fill="#fff"/></svg>