<svg viewBox="0 0 42 43" fill="none" xmlns="http://www.w3.org/2000/svg"><path d="M21.04 27.74c-.137 4.907.034 9.848.515 11.049.48 1.2 1.508 3.536 5.044 2.78 2.953-.634 4.028-1.86 4.494-4.565.344-1.99 1.006-7.516 1.09-8.649M16.802 3.141S.796-3.4 1.54 11.476c.158 3.165 4.536 23.949 9.758 17.671a86.666 86.666 0 0 1 3.634-4.096M25.447 1.947c-.554.174 8.904-3.457 14.279 3.41 1.898 2.427-.302 12.34-5.565 20.15" stroke="#fff" stroke-width="1.235" stroke-linecap="round" stroke-linejoin="round"/><path d="M34.162 25.507s.343 1.688 5.328.66c2.184-.452.87 1.265-1.346 2.294-1.818.844-5.894 1.06-5.96-.106-.172-3.008 2.145-2.094 1.978-2.848-.151-.679-1.187-1.345-1.873-3.006-.598-1.45-8.205-12.57 2.11-10.92.378-.077-2.69-9.81-12.343-9.968-9.65-.159-9.334 11.868-9.334 11.868" stroke="#fff" stroke-width="1.235" stroke-linecap="round" stroke-linejoin="bevel"/><path d="M18.338 26.536c-1.346 1.503-.95 1.767-3.64 2.32-2.72.561-1.122 1.56-.078 1.82 1.265.317 4.192.765 6.17-2.004.603-.843-.003-2.189-.83-2.532-.4-.165-.935-.373-1.622.396v0Z" stroke="#fff" stroke-width="1.235" stroke-linecap="round" stroke-linejoin="round"/><path d="M18.25 26.51c-.135-.884.29-1.936.747-3.166.686-1.846 2.269-3.692 1.003-9.547-.944-4.363-7.274-.908-7.278-.316-.003.591.287 2.999-.105 5.802-.512 3.658 2.327 6.752 5.596 6.435" stroke="#fff" stroke-width="1.235" stroke-linecap="round" stroke-linejoin="round"/><path d="M16.745 13.392c-.029.202.37.742.89.814.518.072.962-.35.99-.551.028-.202-.37-.425-.89-.497-.519-.073-.963.033-.99.234Z" fill="#fff" stroke="#fff" stroke-width=".412"/><path d="M32.542 12.98c.029.202-.37.742-.889.814-.52.072-.963-.35-.991-.551-.028-.202.37-.425.89-.497.519-.073.962.033.99.234Z" fill="#fff" stroke="#fff" stroke-width=".206"/><path d="M34.399 11.582c.085 1.585-.342 2.664-.395 4.352-.08 2.452 1.169 5.26-.713 8.07" stroke="#fff" stroke-width="1.235" stroke-linecap="round" stroke-linejoin="round"/></svg>