<svg width="28" height="28" viewBox="0 0 28 28" fill="none" xmlns="http://www.w3.org/2000/svg"><path fill-rule="evenodd" clip-rule="evenodd" d="M18.597 19.032v-9.05a.583.583 0 00-.584-.584h-9.04V.057h18.372a.583.583 0 01.583.583v18.392h-9.331z" fill="#fff"/><path opacity=".405" fill-rule="evenodd" clip-rule="evenodd" d="M8.974.057v9.341H.346A.292.292 0 01.14 8.9L8.974.057zm9.623 27.612v-8.637h9.331l-8.833 8.843a.292.292 0 01-.498-.206zM8.974 9.399h9.33a.292.292 0 01.293.291v9.342h-9.04a.582.582 0 01-.583-.584v-9.05z" fill="#fff"/></svg>