<svg width="46" height="28" viewBox="0 0 46 28" fill="none" xmlns="http://www.w3.org/2000/svg"><g clip-path="url(#clip0)"><path fill-rule="evenodd" clip-rule="evenodd" d="M16.063 28.13l-1.66-6.615 6.558 1.857-4.898 4.759zm10.21-9.913l-4.898 4.754-1.66-6.611 6.558 1.857zm.091-.32l-6.558-1.857 4.902-4.758 1.657 6.616zm.323-.081L25.03 11.2l6.559 1.857-4.903 4.759zm10.215-9.914l-4.899 4.754-1.66-6.611 6.559 1.857zM23.23 4.03l6.559 1.858-4.898 4.753-1.66-6.61zm-5.317 5.16l6.564 1.853-4.903 4.758-1.66-6.611zm-.322.082l1.66 6.611-6.558-1.858 4.898-4.753zm-.232-.239l-4.898 4.754-1.66-6.612 6.559 1.858zm.093-.32l-6.56-1.857 4.898-4.759 1.662 6.617zm.321-.086l-1.66-6.612 6.563 1.858-4.903 4.754zm.228.242l4.907-4.757 1.66 6.611-6.567-1.854zm-7.34-2.252l4.898-4.758L9 0l1.66 6.616zm8.5 9.586l-6.56-1.858 1.661 6.611 4.898-4.753zm1.891 6.85l-6.558-1.858 4.898-4.753 1.66 6.61zm10.629-10.315l-6.559-1.858 4.898-4.754 1.661 6.612z" fill="#fff"/></g><defs><clipPath id="clip0"><path fill="#fff" d="M0 0h45.718v28H0z"/></clipPath></defs></svg>