<svg id="Layer_1" data-name="Layer 1" xmlns="http://www.w3.org/2000/svg" viewBox="0 0 108 228.85"><defs><style>.cls-1,.cls-2{fill:#00608a;}.cls-2,.cls-7{stroke:#00608a;}.cls-2,.cls-5,.cls-6,.cls-7{stroke-miterlimit:10;}.cls-2,.cls-5,.cls-6{stroke-width:5px;}.cls-3{fill:#010101;}.cls-4{fill:#e5ebea;}.cls-5,.cls-8{fill:#fff;}.cls-5,.cls-6{stroke:#e5ebea;}.cls-6{fill:none;}.cls-7{fill:#03608a;stroke-width:8px;}</style></defs><title>kalmars_ikona_originala_versija_1</title><line class="cls-1" x1="90.26" y1="144.05" x2="72.26" y2="132.65"/><path class="cls-1" d="M461.72,317.61l-18-11.4c-2.73-1.73-5.24,2.6-2.53,4.32l18,11.4c2.73,1.72,5.24-2.6,2.53-4.32Z" transform="translate(-370.19 -175.71)"/><line class="cls-1" x1="90.26" y1="144.05" x2="90.26" y2="168.88"/><path class="cls-1" d="M458,319.77v24.82c0,3.22,5,3.23,5,0V319.77c0-3.22-5-3.22-5,0Z" transform="translate(-370.19 -175.71)"/><circle class="cls-2" cx="54" cy="200.44" r="5"/><path class="cls-3" d="M424.19,376.15" transform="translate(-370.19 -175.71)"/><path class="cls-4" d="M424.19,378.65c3.22,0,3.23-5,0-5s-3.22,5,0,5Z" transform="translate(-370.19 -175.71)"/><circle class="cls-1" cx="90.26" cy="176.75" r="5"/><path class="cls-1" d="M463,352.47c-.17,3.21-5,3.23-5,0s4.83-3.21,5,0,5.18,3.22,5,0a7.5,7.5,0,1,0-7.77,7.48,7.63,7.63,0,0,0,7.77-7.48C468.13,349.25,463.13,349.26,463,352.47Z" transform="translate(-370.19 -175.71)"/><path class="cls-3" d="M460.45,352.47" transform="translate(-370.19 -175.71)"/><path class="cls-4" d="M460.45,355c3.22,0,3.23-5,0-5s-3.22,5,0,5Z" transform="translate(-370.19 -175.71)"/><polygon class="cls-1" points="0 82 18 100 9 117 98 117 90 100 108 81 53 0 0 82"/><circle class="cls-5" cx="77.67" cy="79.81" r="5.03"/><polygon class="cls-6" points="12.09 83.67 26.07 97.65 19.08 110.85 88.21 110.85 82 97.65 95.98 82.89 53.26 19.97 12.09 83.67"/><line class="cls-7" x1="14.58" y1="111.85" x2="93.36" y2="111.85"/><path class="cls-4" d="M444.86,274.32l5.42-18.13c.92-3.09-3.9-4.41-4.82-1.33L440,273c-.92,3.09,3.9,4.41,4.82,1.33Z" transform="translate(-370.19 -175.71)"/><line class="cls-6" x1="72.26" y1="117.35" x2="72.26" y2="97.94"/><path class="cls-4" d="M426.22,272.33l10.26-11.87c2.1-2.42-1.42-6-3.53-3.54L422.69,268.8c-2.1,2.42,1.42,6,3.53,3.53Z" transform="translate(-370.19 -175.71)"/><line class="cls-6" x1="64.52" y1="82.98" x2="51.63" y2="67.78"/><line class="cls-6" x1="54.26" y1="117.35" x2="54.26" y2="94.85"/><path class="cls-4" d="M408.22,269.8l-11-12c-2.18-2.38-5.71,1.16-3.53,3.53l11,12c2.17,2.38,5.7-1.16,3.53-3.53Z" transform="translate(-370.19 -175.71)"/><path class="cls-4" d="M397.61,260.83l24.7-37.8,3.47-5.31c1.77-2.7-2.56-5.21-4.31-2.52L396.77,253l-3.47,5.31c-1.77,2.71,2.56,5.21,4.31,2.53Z" transform="translate(-370.19 -175.71)"/><path class="cls-4" d="M449.17,251.36l-20.42-31.57-3-4.59c-1.74-2.69-6.07-.19-4.31,2.52l20.41,31.56,3,4.6c1.75,2.69,6.08.19,4.32-2.52Z" transform="translate(-370.19 -175.71)"/><line class="cls-6" x1="36.26" y1="117.35" x2="36.26" y2="95.85"/><line class="cls-2" x1="54.26" y1="117" x2="54" y2="195.44"/><line class="cls-2" x1="72.26" y1="117" x2="72.26" y2="132.65"/><line class="cls-1" x1="18.26" y1="161.85" x2="36.26" y2="142.85"/><path class="cls-1" d="M390.22,339.33l18-19c2.21-2.33-1.32-5.87-3.53-3.53l-18,19c-2.22,2.33,1.31,5.88,3.53,3.53Z" transform="translate(-370.19 -175.71)"/><line class="cls-1" x1="18.26" y1="161.85" x2="18.26" y2="216.35"/><path class="cls-1" d="M386,337.57v54.5c0,3.21,5,3.22,5,0v-54.5c0-3.22-5-3.23-5,0Z" transform="translate(-370.19 -175.71)"/><circle class="cls-2" cx="18.09" cy="221.35" r="5"/><line class="cls-2" x1="36.26" y1="117" x2="36.26" y2="142.85"/><path class="cls-8" d="M388.28,397.07" transform="translate(-370.19 -175.71)"/><path class="cls-4" d="M388.28,399.57c3.22,0,3.23-5,0-5s-3.22,5,0,5Z" transform="translate(-370.19 -175.71)"/><circle class="cls-1" cx="77.67" cy="79.81" r="3.19"/></svg>