<?xml version="1.0" encoding="utf-8"?>
<!-- Generator: Adobe Illustrator 23.0.1, SVG Export Plug-In . SVG Version: 6.00 Build 0)  -->
<svg version="1.1" id="Layer_1" xmlns="http://www.w3.org/2000/svg" xmlns:xlink="http://www.w3.org/1999/xlink" x="0px" y="0px"
	 viewBox="0 0 805.79 318.64" style="enable-background:new 0 0 805.79 318.64;" xml:space="preserve">
<style type="text/css">
	.st0{fill:#01608A;}
	.st1{fill:none;stroke:#01608A;stroke-width:15.9657;stroke-miterlimit:10;}
</style>
<path class="st0" d="M87.58,252.1l-20.72,2.47L54.49,150.8l20.76-2.47l3.23,27.3l10.1,9.06l27.22-41.07l26.54-3.15l-39.24,57.08
	l51.61,46.58l-27.62,3.35l-44.86-40.51L87.58,252.1z"/>
<path class="st0" d="M263.16,231.23l-22.27,2.67l-57.4-14.37l-6.47,21.95l-22.63,2.67l31.93-109.17l19.96-2.39L263.16,231.23z
	 M200.02,163.37l-10.1,34.57l35.56,9.3L200.02,163.37z"/>
<path class="st0" d="M376.6,217.74l-20.88,2.51l-12.37-103.78l20.64-2.47l37.76,50.33l24.95-57.92l20.48-2.43l12.33,103.78
	l-20.72,2.47l-7.38-61.99l-15.21,35.36l20.28,27.02l-23.95,2.83l-5.83-7.78l-3.99,8.94l-23.95,2.87l13.41-30.97l-23.03-30.85
	L376.6,217.74z"/>
<path class="st0" d="M576.17,194.03l-22.51,2.67l-57.32-14.25l-6.43,21.79l-22.63,2.71l31.93-109.21l19.96-2.35L576.17,194.03z
	 M513.02,126.17l-10.1,34.53l35.52,9.34L513.02,126.17z"/>
<path class="st0" d="M643.1,151.88l29.46,30.65l-25.98,3.11l-27.3-28.34l-18.32,2.2l3.71,31.13l-20.76,2.43l-6.19-51.89l23.31-2.79
	l-26.98-27.94l-2.51-21.15l49.85-5.95c20.1-2.36,38.3,12.03,40.66,32.13c1.75,14.89-5.76,29.35-18.94,36.49L643.1,151.88z
	 M627.14,135.35h0.52c8.63-1.03,14.8-8.85,13.77-17.48c-1.03-8.63-8.85-14.8-17.48-13.77l0,0L600,106.97L627.14,135.35z"/>
<path class="st0" d="M723.57,179.22c-21.03,2.47-42.95-7.06-45.22-26.18l-0.24-2.04l20.76-2.47l0.24,2.04
	c0.72,6.07,12.69,9.02,21.99,7.98c6.92-0.46,13.4-3.58,18.08-8.7l-65.78-38.52l-0.64-5.27c-2.24-18.84,15.97-33.45,37.8-35.92
	s42.95,7.18,45.22,26.18l0.24,2.04l-20.76,2.47l-0.24-2.04c-0.72-6.07-12.69-9.02-21.99-7.98c-6.91,0.51-13.37,3.62-18.08,8.7
	l65.78,38.52l0.64,5.23C763.77,161.9,745.25,176.62,723.57,179.22z"/>
<polygon class="st1" points="783.72,191.59 33.34,283.39 33.34,131.72 783.72,39.92 "/>
<polygon class="st0" points="341.83,221.85 339.24,201.13 289.31,207.08 279.41,123.94 258.65,126.41 271.02,230.31 "/>
</svg>
