<svg xmlns="http://www.w3.org/2000/svg" viewBox="0 0 192 65.52"><title>logo-text-black</title><path d="M19.59,58.16l-5.19.62-3.1-26,5.2-.62L17.31,39l2.53,2.27,6.82-10.29,6.65-.79L23.48,44.49,36.41,56.16,29.49,57,18.25,46.85Z" transform="translate(-4 -2.74)"/><path d="M63.58,52.93,58,53.6,43.62,50,42,55.5l-5.67.67,8-27.35,5-.6Zm-15.82-17-2.53,8.66,8.91,2.33Z" transform="translate(-4 -2.74)"/><path d="M92,49.55l-5.23.63-3.1-26,5.17-.62L98.3,36.17l6.25-14.51,5.13-.61,3.09,26-5.19.62-1.85-15.53L101.92,41,107,47.77l-6,.71-1.46-1.95-1,2.24-6,.72,3.36-7.76L90.13,34Z" transform="translate(-4 -2.74)"/><path d="M142,43.61l-5.64.67L122,40.71l-1.61,5.46-5.67.68,8-27.36,5-.59Zm-15.82-17-2.53,8.65,8.9,2.34Z" transform="translate(-4 -2.74)"/><path d="M158.77,33.05l7.38,7.68-6.51.78-6.84-7.1-4.59.55.93,7.8-5.2.61-1.55-13,5.84-.7-6.76-7-.63-5.3,12.49-1.49a9.18,9.18,0,0,1,5.44,17.19Zm-4-4.14.13,0a3.94,3.94,0,0,0-.93-7.83l-6,.72Z" transform="translate(-4 -2.74)"/><path d="M178.93,39.9c-5.27.62-10.76-1.77-11.33-6.56l-.06-.51,5.2-.62.06.51c.18,1.52,3.18,2.26,5.51,2a6.74,6.74,0,0,0,4.53-2.18l-16.48-9.65-.16-1.32c-.56-4.72,4-8.38,9.47-9s10.76,1.8,11.33,6.56l.06.51-5.2.62-.06-.51c-.18-1.52-3.18-2.26-5.51-2a6.87,6.87,0,0,0-4.53,2.18l16.48,9.65.16,1.31C189,35.56,184.36,39.25,178.93,39.9Z" transform="translate(-4 -2.74)"/><polygon points="190 40.26 2 63.26 2 25.26 190 2.26 190 40.26" fill="none" stroke="#000" stroke-miterlimit="10" stroke-width="4"/><polygon points="79.29 47.84 78.64 42.65 66.13 44.14 63.65 23.31 58.45 23.93 61.55 49.96 79.29 47.84"/></svg>