<svg xmlns="http://www.w3.org/2000/svg" viewBox="0 0 70 70"><defs><style>.cls-1{fill:#fff;}.cls-2{fill:none;stroke:#fff;stroke-miterlimit:10;stroke-width:4px;}</style></defs><title>logo-text-small</title><g id="Small"><path class="cls-1" d="M17.55,51.37l-5.2.62L9.26,26l5.19-.62.81,6.82,2.53,2.27,6.83-10.29,6.65-.79L21.43,37.7,34.36,49.37l-6.92.83L16.21,40.06Z"/><path class="cls-1" d="M40,48.34,34.72,49l-3.1-26,5.17-.61L46.27,35l6.25-14.5,5.13-.61,3.09,26-5.19.62L53.7,31l-3.81,8.84L55,46.55l-6,.72-1.46-2-1,2.23-6,.72,3.36-7.76-5.78-7.7Z"/><polygon class="cls-2" points="65.43 50.18 5.24 57.46 4.84 21.19 65.43 13.56 65.43 50.18"/></g></svg>