<?xml version="1.0" encoding="UTF-8"?> <svg xmlns="http://www.w3.org/2000/svg" version="1.1" id="Layer_1" x="0" y="0" xml:space="preserve" viewBox="0 0 331.316 72.787"><style type="text/css" id="style2">.st0{fill:#08080e}</style><g transform="matrix(.1 0 0 -.1 -.001 1023.999)" id="g24"><path class="st0" d="M574.89 9876.01v-363.89h180.32v569.87l65.81-.28c73.34-.37 69.43 0 84.3-7.16 15.24-7.25 26.12-18.03 33.55-33.09 5.86-11.99 7.34-18.22 7.34-32.07 0-13.48-1.39-19.8-6.88-31.14-7.25-15.24-18.03-26.12-33.09-33.55-14.96-7.34-13.94-7.25-63.95-7.62-24.45-.19-44.34-.65-44.15-1.12.19-.37 17.85-32.44 39.32-71.11l39.04-70.27 21.84.37c39.69.74 66.18 6.88 98.99 22.96 65.34 31.88 110.7 94.34 121.86 167.77 2.42 15.52 2.42 47.68 0 63.21-13.66 89.88-78.36 161.92-165.45 184.04-27.23 6.88-12.83 6.41-205.7 6.69l-173.16.37v-363.98z" id="path4"></path><path d="M1184.63 10239.26c0-.46 22.31-40.06 49.54-88.12l49.54-87.37h430.26l.28 85.98c.09 47.31 0 86.91-.28 88.12l-.46 2.04h-264.44c-145.46 0-264.44-.28-264.44-.65z" id="path6" fill="#ffc609"></path><path class="st0" d="M1797.82 10239.26c-.37-.28-.65-164.06-.65-363.9v-363.24l146.02.19 146.12.28 46.38 83.65c25.56 46.01 46.66 84.21 46.94 84.86.37.84-19.24 1.12-96.3 1.12h-96.76v557.7h-95.55c-52.61-.01-95.92-.29-96.2-.66z" id="path8"></path><path d="M2179.19 10239.26c0-.46 22.31-40.06 49.54-88.12l49.54-87.37h430.26l.28 85.98c.09 47.31 0 86.91-.28 88.12l-.46 2.04h-264.44c-145.47 0-264.44-.28-264.44-.65z" id="path10" fill="#d62027"></path><path class="st0" d="M2782.43 10151.61v-88.3h178.46v-551.18h179.4v551.18h86.44c61.16 0 86.44.28 86.44 1.02 0 .56-18.03 33.28-40.15 72.69-22.12 39.5-43.96 78.63-48.71 87.09l-8.55 15.34-216.66.28-216.66.19v-88.31z" id="path12"></path><path class="st0" d="M244.46 10238.05c-40.34-3.9-69.71-10.41-96.48-21.38-36.81-15.06-58.28-28.54-81.61-50.94-33.65-32.44-55.68-72.04-64.13-115.44-1.86-9.39-2.14-13.66-2.23-34.86 0-28.26.84-34.21 7.99-57.63 3.44-11.25 6.13-17.94 11.15-27.42 12.64-24.07 23.24-36.81 48.71-58.65 29.09-24.91 68.5-45.45 137.1-71.48 19.24-7.25 44.71-18.12 56.88-24.26 15.8-7.9 25.93-14.78 34.67-23.61 9.76-9.85 11.9-14.96 11.9-28.16 0-7.99-.28-9.85-2.51-14.69-1.39-2.97-3.44-6.88-4.55-8.55-2.7-4-10.97-10.41-18.03-13.94-5.86-2.97-17.66-6.69-21.38-6.69-1.12 0-2.23-.37-2.6-.84-.28-.56 13.57-25.75 30.77-56.05 17.2-30.3 38.02-66.92 46.1-81.33 8.18-14.5 15.43-26.3 16.08-26.3 2.88 0 32.16 12.18 46.47 19.33 8.74 4.37 29.65 18.31 40.06 26.77 16.36 13.2 32.35 31.6 43.87 50.19 7.71 12.55 18.22 36.34 22.12 50.1 14.78 52.33 12.36 109.21-6.41 152.9-9.76 22.77-18.4 36.53-32.44 51.68-37.83 41.08-74.45 63.76-158.29 98.15-30.49 12.46-49.82 20.73-56.42 24.07-14.78 7.44-24.35 15.62-28.91 24.63-2.97 5.95-4.18 17.57-2.51 24.72 6.69 28.72 47.03 41.27 93.41 29 11.15-2.88 18.03-5.67 30.86-12.46 14.31-7.53 25-15.34 35.13-25.84l8.46-8.64 32.9 36.9c18.13 20.26 43.59 48.61 56.42 63.02l23.52 26.12-3.53 3.16c-7.99 7.25-28.35 22.96-37.83 29.28-45.82 30.39-98.53 49.91-154.3 57.35-15.8 2.16-47.31 3-60.41 1.79z" id="path14"></path><path class="st0" d="M1183.7 9878.34v-78.08h393.18v156.16H1183.7z" id="path16"></path><path class="st0" d="M2178.26 9878.34v-78.08h393.18v156.16h-393.18z" id="path18"></path><path class="st0" d="M1234.08 9597.82c-27.23-46.47-49.45-84.77-49.45-85.05 0-.37 119.25-.65 264.9-.65h264.9v170.1h-431.01z" id="path20"></path><path class="st0" d="M2228.64 9597.82c-27.23-46.47-49.45-84.77-49.45-85.05 0-.37 119.25-.65 264.9-.65H2709v170.1h-431.01z" id="path22"></path></g></svg> 