<?xml version="1.0" encoding="UTF-8"?> <svg xmlns="http://www.w3.org/2000/svg" xmlns:xlink="http://www.w3.org/1999/xlink" version="1.1" id="Layer_1" x="0px" y="0px" viewBox="0 0 532.67 85.48" style="enable-background:new 0 0 532.67 85.48;" xml:space="preserve"> <style type="text/css"> .st0{fill-rule:evenodd;clip-rule:evenodd;fill:#010101;} </style> <g id="Layer_13"> </g> <g id="Layer_12"> </g> <g id="Layer_11"> </g> <g id="Layer_10"> </g> <g id="Layer_9"> </g> <g id="Layer_8"> </g> <g id="Layer_7"> </g> <g id="Layer_6"> </g> <g id="Layer_5"> </g> <g id="Layer_3"> </g> <g> <g> <path d="M54.44,1.91v1.43c0,0.6-0.36,0.96-0.96,0.96H28.77c-0.24,0-0.36,0.12-0.36,0.36v78.91c0,0.6-0.36,0.96-0.96,0.96h-1.67 c-0.6,0-0.96-0.36-0.96-0.96V4.66c0-0.24-0.12-0.36-0.36-0.36H0.96C0.36,4.3,0,3.94,0,3.34V1.91c0-0.6,0.36-0.96,0.96-0.96h52.53 C54.08,0.96,54.44,1.31,54.44,1.91z"></path> <path d="M122.37,83.69L103.5,44.77c-0.12-0.24-0.24-0.36-0.48-0.36H78.79c-0.24,0-0.48,0.24-0.48,0.48v38.44 c0,0.72-0.48,1.19-1.19,1.19h-2.27c-0.72,0-1.19-0.48-1.19-1.19V1.91c0-0.72,0.48-1.19,1.19-1.19h29.25 c13.13,0,21.85,8.95,21.85,22.09c0,11.34-6.81,19.58-17.43,21.25c-0.36,0.12-0.48,0.36-0.36,0.6l18.62,38.44 c0.36,0.84,0,1.43-0.84,1.43h-2.15C123.2,84.52,122.61,84.29,122.37,83.69z M78.31,5.49v34.38c0,0.24,0.24,0.48,0.48,0.48h25.19 c10.39,0,17.31-7.16,17.31-17.55c0-10.63-6.92-17.79-17.31-17.79H78.79C78.55,5.01,78.31,5.25,78.31,5.49z"></path> <path d="M143.85,58.74V2.51c0-0.96,0.6-1.55,1.55-1.55h5.37c0.96,0,1.55,0.6,1.55,1.55v56.47c0,11.34,8,19.1,19.94,19.1 s19.94-7.76,19.94-19.1V2.51c0-0.96,0.6-1.55,1.55-1.55h5.37c0.96,0,1.55,0.6,1.55,1.55v56.23c0,16.12-11.34,26.74-28.41,26.74 C155.31,85.48,143.85,74.85,143.85,58.74z"></path> <path d="M216.91,62.2v-2.87c0-1.07,0.72-1.79,1.79-1.79h7.64c1.08,0,1.79,0.72,1.79,1.79v2.27c0,7.88,7.28,13.97,19.22,13.97 c11.34,0,16.59-5.37,16.59-12.54c0-7.52-6.45-10.86-20.42-16.48c-13.61-5.25-25.55-10.03-25.55-24.59 C217.99,8.12,228.61,0,245.21,0c17.91,0,29.49,9.55,29.49,23.76v1.79c0,1.07-0.72,1.79-1.79,1.79h-7.76 c-1.07,0-1.79-0.6-1.79-1.55v-1.43c0-8-6.57-14.45-18.62-14.45c-9.91,0-15.52,4.18-15.52,11.82c0,8,6.21,10.63,20.3,16 c13.25,5.13,25.91,10.39,25.91,24.95c0,13.61-10.86,22.8-28.89,22.8C228.49,85.48,216.91,76.29,216.91,62.2z"></path> <path d="M346.21,2.87v8.24c0,1.19-0.72,1.91-1.91,1.91h-21.37c-0.48,0-0.72,0.24-0.72,0.72v68.88c0,1.19-0.72,1.91-1.91,1.91 h-10.03c-1.19,0-1.91-0.72-1.91-1.91V13.73c0-0.36-0.24-0.72-0.72-0.72h-20.54c-1.19,0-1.91-0.72-1.91-1.91V2.87 c0-1.19,0.72-1.91,1.91-1.91h57.19C345.49,0.96,346.21,1.67,346.21,2.87z"></path> <path d="M406.01,82.85l-3.34-11.1c-0.12-0.48-0.36-0.6-0.72-0.6h-29.25c-0.36,0-0.6,0.12-0.72,0.6l-3.34,11.1 c-0.36,1.08-1.07,1.67-2.27,1.67h-13.85c-1.43,0-2.15-0.96-1.67-2.27l25.43-79.63c0.36-1.07,1.07-1.67,2.27-1.67h17.55 c1.19,0,1.91,0.6,2.27,1.67l25.43,79.63c0.48,1.31-0.24,2.27-1.67,2.27h-13.85C407.09,84.52,406.37,83.93,406.01,82.85z M376.76,58.14h21.13c0.48,0,0.72-0.24,0.6-0.84l-10.74-36.41c-0.24-0.6-0.72-0.6-0.96,0L376.17,57.3 C376.05,57.9,376.29,58.14,376.76,58.14z"></path> <path d="M435.02,82.26V3.22c0-1.43,0.83-2.27,2.27-2.27h30.2c19.58,0,32.71,10.74,32.71,26.86v29.85 c0,16.12-13.13,26.86-32.71,26.86h-30.2C435.86,84.52,435.02,83.69,435.02,82.26z M458.42,65.3h9.91c5.37,0,9.19-4.54,9.43-11.46 V31.64c0-6.92-3.82-11.46-9.55-11.46h-9.79c-0.6,0-0.96,0.36-0.96,0.96v43.22C457.46,64.95,457.82,65.3,458.42,65.3z"></path> </g> <g id="Layer_4"> <path class="st0" d="M528.64,18.3c3.32-1.42,4.91-5.27,3.54-8.62c-0.98-2.41-3.31-4.01-5.92-4.03c-2.36-0.02-4.35,1.36-4.86,3.7 c-1.82-0.73-3.57-1.22-5.35-1.72c-1.03-0.29-2.08-0.59-3.15-0.93c2.64-0.78,4.57-2.37,6.59-4.13c-2.83-1.58-5.73-2.95-9.08-2.45 c-2.08,0.31-3.82,1.38-4.93,3.26l-0.77-0.47l-1.08,1.26c3.41,3.92,4.95,7.27,6.41,10.48c0.77,1.69,1.53,3.34,2.53,5.02 c-2.23,0.86-3.29,3.04-2.91,5.37c0.42,2.55,2.35,4.63,4.9,5.23c3.52,0.83,7.08-1.33,7.98-4.83c0.83-3.24-1.2-7.31-4.68-7.77 c-1.41-0.19-2.73,0.31-3.81,1.19c-0.97-1.64-1.72-3.26-2.48-4.92c-1.08-2.35-2.19-4.78-4.02-7.46c2.6,1.12,5.32,1.98,8.05,2.75 c1.76,0.5,3.48,0.98,5.25,1.69c-0.7,1.19-1,2.55-0.59,3.95C521.24,18.24,525.57,19.62,528.64,18.3z"></path> </g> <g id="Layer_2_1_"> </g> </g> </svg> 