<?xml version="1.0" encoding="UTF-8"?> <svg xmlns="http://www.w3.org/2000/svg" width="187" height="140" fill="none"><path d="M100.669 139.009h67.143c5.298 0 10.095-2.174 13.568-5.687a19.476 19.476 0 005.62-13.73V59.854h-86.331v79.155z" fill="#FFCA05"></path><path d="M156.499 126.36v-11.091h-4.115v-3.85h12.489v3.85h-4.114v11.091h-4.26zm13.665 0l-4.9-14.941h4.425l2.688 9.144 2.523-9.144h4.054l-4.86 14.941h-3.93z" fill="#231F20"></path><path d="M0 55.042v83.967h114.449L187 71.185V0H54.393C40.795 0 28.361 5.05 18.825 13.398 7.295 23.491 0 38.404 0 55.042z" fill="#C41D3F"></path><path d="M50.65 64.967H27.698s-1.279-16.468 8.28-26.293c9.56-9.826 23.448-10.053 34.786-9.216 12.508.924 27.505 7.733 27.505 24.486 0 17.521-6.603 20.397-37.083 42.075H95.85v18.888H25.877s-1.165-12.287 9.14-25.29C45.322 76.614 73.26 68.269 73.26 56.994c0-7.44-4.541-9.193-9.364-9.193-4.824 0-13.245 2.67-13.245 17.166z" fill="#fff"></path><path d="M138.35 78.067h-17.314l17.315-16.03-.001 16.03zm0 38.597l41.289-38.597h-17.201V29.822h-19.853L95.849 73.513v22.506h42.501v20.645z" fill="#fff"></path><path d="M138.351 116.732a.064.064 0 01-.049-.022.065.065 0 01.004-.095l41.287-38.593c.026-.03.068-.026.094.003a.067.067 0 01-.003.096l-41.288 38.593a.059.059 0 01-.045.018z" fill="#fff"></path></svg> 