<svg width="2094" height="1225" viewBox="0 0 2094 1225" fill="none" xmlns="http://www.w3.org/2000/svg">
    <path d="M1287.01 697.685L1296.42 704.104L1299.22 703.965L1322.6 695.931L1325.26 704.494L1323.39 711.722L1318.33 715.736L1305.7 714.929L1287.62 703.823L1287.01 697.685Z" fill="black"/>
    <path d="M1329.18 605.103L1331.19 613.137L1353.95 615.146L1355.54 598.66L1359.94 596.264L1361.13 590.236L1353.95 592.247L1345.97 604.323L1329.18 605.103Z" fill="black"/>
    <path d="M1375.61 517.621L1379.28 546.391L1388.42 548.4L1389.28 553.573L1382.72 559.046L1394.93 568.905L1418.66 560.363L1420.55 550.251L1435.49 540.926L1441.22 519.315L1445.49 514.715L1441.06 507.004L1455.51 498.064L1453.67 495.479L1447 495.893L1446.39 502.033L1437.44 501.945L1437.27 493.751L1434.39 490.31L1429.54 494.715L1429.68 498.761L1422.36 501.529L1408.85 500.677L1391.31 519.056L1375.61 517.621Z" fill="black"/>
    <path d="M1121.44 477.703V488.344L1124.49 494.093L1126.68 493.836L1130.44 486.982L1128.25 483.911L1127.4 476.314L1124.49 473.611L1121.44 477.703Z" fill="black"/>
    <path d="M1273.11 478L1284.19 492.452L1280.94 496.264L1273.09 494.902L1263.35 486.173L1263.87 480.441L1273.11 478Z" fill="black"/>
    <path d="M1085.89 816.984L1093.76 846.373L1093.58 855.663L1082.06 868.037L1080.33 888.142L1124.65 888.535L1139.06 893.754L1150.95 892.205L1144.02 883.521L1144.05 858.729L1157.67 858.149V848.478L1146.61 848.018L1144.39 825.114L1139.73 825.178L1137.21 822.913L1134.47 823.057L1130.82 830.125H1116.79L1113.53 826.848L1114.5 822.205L1110.66 816.594L1085.89 816.984Z" fill="black"/>
    <path d="M1081.11 808.949L1085.13 814.166L1090.32 809.246L1088.79 804.147L1087.5 804.053L1081.11 808.949Z" fill="black"/>
    <path d="M663.079 958.953L667.557 963.15L650.542 988.436L644.563 995.058L646.638 1023.94L659.772 1039.9L648.737 1059.15L640.381 1062.76H630.822L633.501 1077.79L618.564 1082.92L622.143 1095.55L613.185 1124.13L624.245 1133.16L618.265 1147.89L608.106 1163.85L613.484 1174.97L600.35 1177.07L589.593 1163.85L587.793 1122.63L571.08 1052.62L576.135 1028.15L565.378 996.863L572.535 956.253L579.113 948.424L577.497 942.489L585.947 934.775L604.786 936.066L615.314 947.311L627.479 947.519L639.945 955.139L636.273 963.732L637.152 972.413L654.81 971.579L663.079 958.953Z" fill="black"/>
    <path d="M624.875 1191.2L625.476 1204.43L635.632 1203.52L644.291 1197.8L629.655 1194.8L624.875 1191.2Z" fill="black"/>
    <path d="M1067.44 432.352L1065.94 435.469L1067.23 437.686L1072.61 436.577H1077.18L1082.14 440.776L1092.69 438.861L1100.45 434.243L1102.43 431.126L1102.13 427.109L1095.16 421.89L1085.81 421.983L1085.02 427.293L1075.19 432.093L1067.44 432.352Z" fill="#f2f2f2"/>
    <path d="M1715.08 981.534L1714.27 1040.13L1705.27 1046.73L1704.46 1052.51L1716.74 1060.75L1747.05 1054.98H1762.61L1768.34 1046.71L1802.73 1040.11L1827.3 1047.54L1825.66 1057.45L1828.94 1067.35L1847.78 1064.05L1848.59 1068.99L1836.31 1078.06L1840.39 1081.37L1849.39 1078.06L1846.94 1105.31L1864.14 1118.51L1873.98 1115.21L1878.89 1120.16L1907.56 1116.03L1934.6 1072.27L1944.43 1069.8L1964.08 1033.49L1969 1002.13L1956.71 986.454L1961.63 983.153L1951.8 952.607L1941.16 945.174L1942.8 903.912L1932.96 896.481L1930.51 873.371H1925.59L1909.2 927.839L1900.2 928.672L1879.72 908.03L1891.2 877.482L1869.91 873.35L1846.15 879.953L1839.6 898.928L1828.96 901.398L1828.14 888.193L1784.74 914.607L1785.55 924.511L1779 933.584H1762.6L1727.38 948.435L1715.08 981.534Z" fill="black"/>
    <path d="M1864.14 1139.18L1860.05 1155.69L1860.86 1167.24L1873.14 1166.4L1887.07 1144.95L1864.14 1139.18Z" fill="black"/>
    <path d="M1277.01 472.992L1274.68 476.961L1285.55 491.229L1289.34 490.006L1295.57 496.539L1298.27 485.089L1305.04 486.173L1304.76 482.89L1293.64 473.152L1291.51 478.876L1277.01 472.992Z" fill="black"/>
    <path d="M1100.15 452.719L1099.3 454.126L1114.79 470.101L1120.47 461.741L1120.27 458.445L1115.31 452.419L1100.15 452.719Z" fill="black"/>
    <path d="M1563.64 577.786L1560.61 583.259L1568.46 598.174L1568.69 609.812L1570.12 612.926L1579.33 613.089L1584.55 608.081L1588.33 610.365L1589.09 617.448L1592.12 615.557L1592.3 606.505L1589.76 606.206L1588.17 598.516L1581.75 598.286L1580.16 594.013L1584.09 588.772L1584.15 586.181H1572.75L1563.64 577.786Z" fill="black"/>
    <path d="M1023.53 400.954L1022.05 404.648L1037.94 415.132L1039.01 415.268L1040.01 412.346L1042.24 410.776L1038.67 406.772H1036.23L1032.88 402.963L1023.53 400.954Z" fill="black"/>
    <path d="M998.093 672.842L1006.5 672.174L1020.28 691.66L1007.49 701.31L998.23 698.927L985.784 699.093L983.776 706.385L973.342 706.892L970.481 702.99L974.18 691.125L998.093 672.842Z" fill="black"/>
    <path d="M1138.57 460.683L1138.94 472.182L1142.82 480.262L1157.38 480.516L1163.94 475.876L1170.38 473.315L1168.81 465.969L1170.27 462.046L1166.99 460.334L1162.48 460.705L1158.95 464.263L1144.13 464.377L1138.57 460.683Z" fill="black"/>
    <path d="M1195.75 792.741L1205.61 792.533L1203.05 801.166L1200.55 803.335H1197.5L1195.33 797.493L1195.75 792.741Z" fill="black"/>
    <path d="M1016.84 731.049H1021.73L1022.01 717.149L1028.19 708.166L1027.92 692.536L1022.3 692.397L1012.68 699.918L1016.69 707.584L1016.84 731.049Z" fill="black"/>
    <path d="M1758.02 730.493L1751.37 738.555L1756.82 740.267L1759.88 735.972L1758.02 730.493Z" fill="black"/>
    <path d="M555.133 854.111L574.132 845.82L580.411 846.423L584.591 863.876L613.538 873.502L618.318 888.254L630.254 889.755L635.333 902.387L631.754 913.813L612.339 915.314L605.181 933.67L589.945 933.37L585.165 932.47L576.37 941.01L572.031 940.593L557.094 905.984L561.225 899.798L562.681 875.324L558.987 860.754L555.133 854.111Z" fill="black"/>
    <path d="M683.325 1006.63L697.752 978.879L698.28 955.561L725.198 938.197H740.274L752.118 918.132L754.265 879.622L749.418 869.325L777.951 843.28L779.036 814.537L740.274 795.559L693.457 780.922L671.387 778.753L677.318 766.282L675.705 747.307L670.877 745.716L663.743 759.893L660.004 764.578L650.403 760.331L618.107 771.713L607.35 758.163L609.08 744.009L598.921 754.351L587.702 748.301L586.569 749.896L586.594 754.813L596.267 760.008L581.746 775.313L572.581 775.222L563.3 765.78L552.796 766.103L551.504 777.322L557.529 784.638L550.417 807.427L542.106 808.07L528.878 816.431L525.646 832.847L537.12 845.131L539.221 842.754L547.279 840.585L554.158 852.177L573.852 843.726L581.493 844.166L586.756 862.8L614.852 871.713L619.699 886.574L631.658 888.009L637.36 902.202L633.506 914.833L638.538 921.442L637.801 931.279L651.282 930.005L663.634 945.614L662.664 956.579L669.982 962.765L652.436 989.342L683.325 1006.63Z" fill="#f2f2f2"/>
    <path d="M511.041 591.686L508.133 590.786L507.903 596.398L511.482 600.001L513.931 596.398L511.041 591.686Z" fill="black"/>
    <path d="M516.834 600.46L512.817 602.699L516.601 608.097L518.61 605.396L516.834 600.46Z" fill="black"/>
    <path d="M529.786 604.502L525.537 604.269L525.978 606.972L529.094 611.478L531.77 608.543L529.786 604.502Z" fill="black"/>
    <path d="M527.778 599.122L520.853 596.187L519.515 589.218L522.191 588.083L524.869 593.486L527.545 595.516L527.778 599.122Z" fill="black"/>
    <path d="M521.083 584.944L517.504 584.044L516.834 579.541L513.049 578.203L515.498 575.729L519.953 577.3L523.299 579.335L521.083 584.944Z" fill="black"/>
    <path d="M1563.24 566.175L1566.82 571.071L1578.92 571.162L1577.69 564.466L1563.24 566.175Z" fill="black"/>
    <path d="M1131.81 942.863L1136.77 944.386L1136.07 958.58L1141.18 959.274L1152.9 948.699L1166.99 950.222L1170.72 940.753L1188.54 924.473L1167.14 899.839L1166.87 895.795L1164.51 895.1L1158.02 901.083L1141.17 901.495L1138.8 922.505L1132.18 924.027L1131.81 942.863Z" fill="black"/>
    <path d="M1136.77 377.334L1140.23 383.037L1138.85 387.586L1139.08 391.189L1140.35 395.505L1147.5 391.443L1156.39 391.672L1162.63 394.234H1178.44L1183.06 383.173L1185.83 378.996V376.205L1175.9 362.235L1167.13 358.749L1159.97 357.94L1153.74 359.925L1153.97 366.204L1145.32 377.15L1136.77 377.334Z" fill="black"/>
    <path d="M430.125 645.416L430.01 653.841H431.949L438.551 641.514H434.072L430.125 645.416Z" fill="black"/>
    <path d="M323.15 105.748L327.743 112.698L330.051 121.98L341.548 124.867L349.605 116.187L356.509 119.675L376.061 121.403L389.865 115.607L392.173 134.723H400.23V126.62L408.287 127.196L428.419 150.955L441.647 159.062L434.746 170.074L437.633 172.962L463.466 178.178L464.043 189.77L470.946 190.927L472.677 173.539L483.597 170.654L491.655 182.823L508.899 190.927L517.533 192.655L523.28 185.705L523.857 174.69L534.201 168.314L537.641 177.599L528.43 193.83L529.583 201.931L534.756 193.83L545.1 184.548L545.677 172.379L539.929 163.095L541.66 155.571L555.465 148.618L561.791 153.26L562.945 193.828L572.712 185.147L578.459 188.633L570.402 202.532L580.745 204.843L595.706 181.661L608.357 194.979L603.187 218.738L590.536 225.69L578.462 219.897L556.624 224.534L558.931 232.061L553.184 241.345L535.363 245.408L515.231 261.06L497.41 284.821L495.102 292.345L507.176 296.985L511.77 308.574L528.438 325.383L554.893 336.973L549.146 363.616L548.569 371.143L555.473 375.78L564.684 363.613L565.837 340.432L580.219 339.855L587.12 326.532L588.276 306.261L606.674 270.336L629.666 278.44L641.74 295.249L636.567 312.055L645.778 317.274L668.196 302.193L674.52 343.338L695.228 368.25L695.805 380.994L672.813 386.79L661.896 398.377L638.904 393.16L627.407 392.581L607.275 408.233L619.349 405.345L634.308 402.461L637.195 405.946L633.178 418.69L633.755 430.282L640.659 434.919L647.56 433.188L651.021 427.972H655.614L648.134 441.874L633.752 442.448L627.428 451.733H619.371L617.063 444.78L628.56 433.193L614.756 437.833L614.134 418.137L610.162 415.832L598.088 421.048L596.935 430.907H569.325L545.738 447.147L514.112 457.585L510.672 452.943L526.6 429.165L517.552 420.455L511.805 409.419L500.099 400.481L487.542 399.442L465.033 383.673L301.798 356.848L299.098 345.784L284.137 331.884V320.295L286.447 309.859L285.29 304.068L279.543 298.27L278.389 288.988L293.35 278.55L284.139 228.727L271.488 228.147L259.991 213.07L323.15 105.748Z" fill="#f2f2f2"/>
    <path d="M266.844 289.875L262.918 297.402L264.28 302.733L266.842 304.33L266.241 306.499L263.493 307.284L264.278 315.204L267.232 318.182L269.587 315.621L266.633 307.909L268.388 301.769L272.704 296.021L269.566 290.687L266.844 289.875Z" fill="black"/>
    <path d="M279.818 334.991L276.285 336.38L282.772 343.907L284.342 352.817L290.829 359.74L296.325 358.75V349.652L289.654 345.493L279.818 334.991Z" fill="black"/>
    <path d="M633.968 144.881L629.882 149.013L633.461 154.692L650.361 156.749L639.604 145.391L633.968 144.881Z" fill="black"/>
    <path d="M428.208 76.2629L428.715 85.5447L410.293 104.637L414.911 120.105L428.208 116.504L435.894 105.145L455.331 97.9168L471.189 96.8777L458.907 83.4639L452.767 88.1034L448.15 86.557L445.588 80.8784L439.956 75.1998L428.208 76.2629Z" fill="black"/>
    <path d="M452.265 48.925L448.179 56.1528L468.148 63.3805L475.305 52.5496L478.376 59.78H483.501L493.22 48.949L481.445 45.856L476.827 42.2555L470.688 48.4415L452.265 48.925Z" fill="black"/>
    <path d="M487.077 63.3752L471.219 70.0741V75.2238L491.695 82.9591L487.077 88.1088L490.148 94.805L502.938 89.1265H513.696L518.82 97.3693L527.524 88.595L525.468 80.3282L518.31 82.9137L517.296 72.5955L520.874 66.4095H517.296L511.663 70.0127L509.102 72.0667L510.648 79.2971L506.562 82.3902L500.422 81.8827L498.876 72.5982L487.077 63.3752Z" fill="black"/>
    <path d="M508.06 47.3785L506.514 52.5256L516.233 57.1678L523.39 53.0357L522.883 49.9427L508.06 47.3785Z" fill="black"/>
    <path d="M515.725 38.6042L508.57 41.1898L509.078 44.7956L524.936 43.7566L524.429 40.1534L515.725 38.6042Z" fill="black"/>
    <path d="M550.03 47.3785L549.015 50.979L546.454 54.5822V59.7346L556.172 58.1881L566.401 66.9624H569.979V58.1881L559.751 46.8282L550.03 47.3785Z" fill="black"/>
    <path d="M576.141 57.6939L580.227 62.3361L576.648 68.5222L579.209 75.2185L590.474 69.0297V64.3928L583.824 56.6576L576.141 57.6939Z" fill="black"/>
    <path d="M590.984 45.832L591.492 54.0747H605.32L608.899 57.1677L608.392 60.7683L596.109 62.3175L604.813 74.1848L616.588 76.2415L632.954 69.0163L609.407 33.4117L602.249 38.0539L602.757 44.24L594.56 41.147L590.984 45.832Z" fill="black"/>
    <path d="M471.723 104.13L452.286 109.279L441.019 119.09L442.034 129.918L462.51 136.107L457.892 146.428L443.049 137.141L438.962 144.876L448.681 151.572L448.173 162.4L463.017 166.532L480.932 165.493L484 159.815L497.298 174.775L506.509 171.685L508.055 161.364L514.705 166.004L515.72 155.683L507.526 150.533L508.034 118.048L500.876 112.37L493.211 122.69L471.723 104.13Z" fill="black"/>
    <path d="M534.171 126.825L527.524 123.732L523.945 128.372L531.103 139.732L531.61 150.56L546.964 141.278V127.864L552.596 122.186L546.964 118.054H537.753L534.171 126.825Z" fill="black"/>
    <path d="M566.93 122.183L556.172 130.957L558.734 141.786H565.383L568.452 136.107L573.07 140.747L577.687 140.239L589.97 129.918L566.93 122.183Z" fill="black"/>
    <path d="M565.891 105.145L563.33 110.294L574.594 114.429L577.666 109.787L565.891 105.145Z" fill="black"/>
    <path d="M559.241 85.542L547.976 87.0885L541.326 93.2719L553.609 93.7794L550.03 103.061L552.591 107.196L556.17 106.688L564.873 92.7671L559.241 85.542Z" fill="black"/>
    <path d="M578.702 81.9441L572.562 84.0008L573.577 92.2436L583.805 98.9398L584.313 104.087L581.244 107.183L582.791 117.503L622.196 130.386L632.954 133.989L643.711 124.707L630.921 114.386L619.146 117.479L602.78 115.933L596.641 109.747L595.094 92.7297L584.866 87.58L578.702 81.9441Z" fill="black"/>
    <path d="M610.929 135.597L599.664 134.555L586.367 139.702L579.209 149.494L581.263 176.319L603.264 177.361L624.247 187.682L639.094 204.699L650.358 204.191L647.287 220.167L637.061 237.184L625.796 242.328L617.6 240.784L613.514 237.184L607.374 245.426L609.935 253.669L618.639 254.174L629.396 249.024L638.608 272.759L661.645 287.725L677.503 267.614L664.206 245.958L671.892 237.186L682.649 255.237L702.086 238.22L698.51 230.485L685.211 234.619L676.002 209.335L684.706 194.904L667.298 176.343L657.58 183.039L648.369 162.929L628.934 165.515L623.809 141.273L607.951 152.104L606.405 165.515H597.701L598.716 153.647L610.929 135.597Z" fill="black"/>
    <path d="M617.6 86.581V91.2232L606.335 93.8088L609.404 98.9558L622.194 104.105L636.53 105.655L646.761 112.88L656.987 107.199L649.827 99.9734H659.038L664.671 93.7874L678.499 91.7307V88.6377L670.813 83.4879L671.825 77.8067L693.319 81.4072L725.062 69.0324L713.285 65.4319L716.356 61.2998H740.918L745.007 57.1677L695.351 39.6218L683.573 35.4898L670.784 44.7743L656.448 32.9069L648.761 32.3994L647.215 42.2154L637.499 33.4411L626.234 37.0443L628.288 42.7229L645.188 46.3288L644.173 54.5715L653.384 60.2475L675.919 54.5715L676.427 62.3068L658.005 71.0811L646.74 62.3068L636.511 63.3458L646.74 77.7987L641.615 80.3869L633.929 73.688L628.296 77.2885L633.421 87.0804H642.125L640.071 96.3622L632.914 95.3232L623.703 85.5099L617.6 86.581Z" fill="black"/>
    <path d="M571.985 228.553L562.219 240.837L561.618 254.366L570.158 249.449H580.523L587.841 256.215L594.558 250.669L571.985 228.553Z" fill="black"/>
    <path d="M690.896 388.328L666.497 411.694L668.943 417.234L698.817 428.295L703.088 420.928L700.641 408.644L690.875 409.867L685.381 403.727L694.523 394.514L690.896 388.328Z" fill="black"/>
    <path d="M1087.64 814.676L1111.44 814.262L1116.27 821.118L1116.09 826.174L1117.86 827.791H1129.68L1133.08 821.116H1137.9L1139.87 823.098L1146.49 822.913L1148.45 846.189L1159.9 846.56V848.363L1190.67 862.239L1192.1 864.942H1198.54L1197.82 855.198L1186.19 849.61L1186.91 842.222L1191.92 830.491L1203.37 830.12L1193.53 797.469L1193.71 783.593L1209.27 759.26L1209.45 755.847L1207.12 754.573L1207.21 747.97L1204.37 747.716L1201.51 744.067L1154.54 741.944L1145.92 750.326L1131.82 741.044L1126.86 744.092L1123.26 774.408L1114.34 781.285L1111.67 787.383L1112.14 796.414L1096.07 809.55L1091.8 807.611L1092.38 810.122L1087.64 814.676Z" fill="black"/>
    <path d="M1102.14 741.576L1112.9 753.21L1117.14 747.716L1123.91 747.994L1125.36 742.636L1132.01 738.48L1145.81 747.994L1153.78 740.098L1184.69 741.461L1156.01 711.86L1159.87 709.465L1160.4 704.245L1153.89 701.176H1144.33L1128.93 716.441L1128.4 722.721L1116.19 722.331L1115.8 725.01L1107.83 724.195L1100.65 737.839L1102.14 741.576Z" fill="black"/>
    <path d="M1091.38 761.133L1091.24 764.485L1102.28 764.762L1102.67 793.417L1092.58 793.139L1086.74 788.591L1082.22 791.131L1082.01 792.402L1084.34 793.532L1085.01 799.419L1078.78 804.777L1080.11 807.6L1087.02 802.242H1090.34L1091.4 805.448L1095.79 807.317L1109.87 795.405L1109.59 786.7L1112.52 779.613L1121.55 772.917L1123.97 750.27L1117.56 750.294L1110.12 760.476L1091.38 761.133Z" fill="black"/>
    <path d="M1049.62 430.645L1039.55 441.359L1039.76 442.44L1043.89 441.15L1047.61 446.324L1053.89 444.107L1058.23 447.481L1060.01 446.466L1065.37 438.063L1064 436.77L1058.72 436.634L1056.16 431.39L1049.62 430.645Z" fill="black"/>
    <path d="M955.339 747.807L965.213 740.817L977.498 738.664L990.031 741.37L983.635 731.695L981.763 725.784L983.635 708.305L972.439 708.834L967.365 703.989L956.699 704.267L951.622 705.079L952.151 716.898L949.475 717.982L946.262 723.899L954.527 733.568L955.339 747.807Z" fill="black"/>
    <path d="M615.917 1180.37L606.06 1202.03L623.075 1203.83L623.374 1189.4L615.917 1180.37Z" fill="black"/>
    <path d="M612.569 1176.98L605.158 1185.17L604.257 1194.8L589.921 1186.67L574.685 1164.71L570.207 1156.88L576.485 1148.75L575.884 1138.52L568.727 1135.52L563.049 1131.32L564.248 1125.6L571.705 1123.49L573.206 1090.41L561.572 1083.78L553.977 911.564L555.94 908.151L570.808 942.436L575.564 942.529L577.11 948.002L570.783 955.663L563.511 996.925L573.855 1028.7L569.074 1052.75L585.926 1123.5L587.705 1164.87L599.779 1178.84L612.569 1176.98Z" fill="black"/>
    <path d="M563.375 1090.42L560.397 1094.92L561.898 1102.76L564.876 1103.05L566.377 1093.12L563.375 1090.42Z" fill="black"/>
    <path d="M1060.96 742.107L1068.39 748.948L1067.86 759.522L1108.63 758.577L1111.95 754.84L1100.27 742.257L1098.54 737.708L1105.97 723.786L1100.92 714.55L1096.67 712.266V707.579L1101.58 704.368L1101.86 689.776L1097.96 689.338L1097.9 697.004L1080.77 728.982L1070.29 729.513L1063.11 734.455L1060.96 742.107Z" fill="black"/>
    <path d="M1505.53 386.061L1497.55 406.149L1486.53 405.57L1474.92 430.992L1484.78 443.549L1464.46 471.605L1454.03 469.848L1447.05 478.622L1448.79 483.887L1456.91 484.466L1460.97 493.815L1469.1 495.572L1494.06 527.731V544.102L1506.24 551.698L1519.59 549.367L1536.42 559.3L1556.73 565.142L1566.59 563.969L1577.62 562.791L1600.82 547.598L1608.38 548.774L1611.26 555.63L1617.66 557.548L1626.37 570.403L1620.57 583.262L1624.06 592.036L1633.91 595.54L1635.64 606.07L1647.26 607.242L1648.99 601.978L1665.82 593.203L1676.25 593.783L1688.44 607.218L1696.56 603.714L1701.78 604.291L1704.11 610.733L1708.18 611.31L1713.97 603.137L1737.17 594.362L1758.06 569.22L1765.03 545.25L1764.45 529.459L1755.75 527.707L1760.97 521.863L1759.81 512.512L1737.76 490.305V479.202L1744.13 471.023L1750.51 468.09L1751.09 461.648H1734.84L1731.93 470.422L1724.38 468.67L1715.1 458.739L1720.89 443.546L1729.02 434.772L1736.57 435.352L1735.41 448.789L1739.47 452.296L1749.33 442.368L1752.82 441.791L1751.66 434.195L1760.94 423.089L1767.91 423.666L1771.97 410.81L1776.73 408.294L1777.22 400.281L1772.6 395.433L1772.21 382.783L1781.1 382.204L1780.52 349.58L1774.29 353.319L1771.98 361.68L1761.57 361.656L1731.4 344.684L1709.61 318.409L1687.49 318.179L1681.86 323.075L1689.02 339.467L1686.52 354.847L1677.62 358.541L1672.61 358.149L1672.24 373.363L1677.45 374.541L1686.74 370.454L1698.92 376.295V382.14L1690.22 382.717L1683.24 397.909L1676.87 398.483L1654.25 428.292L1630.47 438.819L1614.22 439.996L1603.21 432.4L1587.53 440.595L1570.7 435.33L1566.64 424.224L1538.22 422.469L1523.14 397.928H1516.77L1511.64 386.544L1505.53 386.061Z" fill="black"/>
    <path d="M1711.98 617.176L1706.47 618.722L1702.5 623.618L1705.8 630.058L1710.65 630.493L1716.16 625.6L1717.48 619.16L1711.98 617.176Z" fill="black"/>
    <path d="M543.636 685.543L538.88 685.057L507.438 710.984L504.113 720.103L499.819 720.589L501.734 740.745L490.771 767.642L502.682 777.728L517.942 778.697L528.421 794.074L543.657 794.563L543.171 806.081H548.873L555.059 784.955L549.333 777.76L550.764 764.322L562.675 763.352L561.244 732.133L534.556 723.501L528.371 706.692L543.636 685.543Z" fill="black"/>
    <path d="M459.721 697.546L462.932 703.829L465.541 707.293L462.032 717.705L455.336 712.993L444.395 702.971V696.347L459.721 697.546Z" fill="black"/>
    <path d="M467.73 609.673V612.611L480.013 612.841L485.805 609.467L486.705 611.94L498.755 614.873L509.467 624.548L507.018 627.918L507.459 631.754L516.392 633.995L525.326 629.951L529.342 625.91L523.55 622.977L493.654 605.431L483.175 604.299L467.73 609.673Z" fill="black"/>
    <path d="M852.588 664.21L848.203 666.726L851.341 669.239L855.104 667.348L852.588 664.21Z" fill="black"/>
    <path d="M863.367 669.287L860.507 671.827L862.542 675.591L867.435 673.398L863.367 669.287Z" fill="black"/>
    <path d="M857.113 676.421L853.44 678.614L857.39 683.9L860.51 682.266L857.113 676.421Z" fill="black"/>
    <path d="M1211.91 524.061L1214.75 526.121L1205.95 534.452L1201.75 534.313L1198.63 532.12L1199.05 528.036L1205.42 527.622L1211.91 524.061Z" fill="black"/>
    <path d="M1085.45 420.231H1092.3H1095.68L1101.15 424.133L1111.28 415.706L1101.45 408.689L1091.71 403.975L1085.03 405.177L1075.98 410.995L1085.45 420.231Z" fill="black"/>
    <path d="M1045.53 381.002L1053.78 379.666V373.849L1060.68 372.714L1064.46 376.525L1068.46 376.963L1074.69 374.26L1080.25 375.831L1085.15 380.083L1085.82 395.989L1090.71 402.501L1084.27 403.401L1073.58 410.118L1074.48 412.359L1084.04 421.318L1083.37 425.797L1074.48 430.277L1066.24 430.506L1064.23 434.753H1060.01L1058 430.277L1050.66 428.474L1050.42 421.083L1046.71 419.026L1047.02 414.056L1045.93 410.508L1040.64 405.636L1041.75 398.013L1047.52 395.313L1045.53 381.002Z" fill="#f2f2f2"/>
    <path d="M1058.53 343.185L1048.95 353.784L1048.61 360.686L1052.97 372.072L1059.81 370.78L1058.96 361.477L1063.67 356.212L1063.58 352.077L1060.25 343.469L1058.53 343.185Z" fill="black"/>
    <path d="M1063.49 362.625L1060.65 363.237V367.465L1063.66 369.802L1066.33 369.134L1065.68 365.12L1063.49 362.625Z" fill="black"/>
    <path d="M1072.37 358.603L1069.84 359.217L1067.02 361.802L1068.21 367.022L1071.66 368.376L1068.1 369.805L1067.42 371.634H1072.78L1074.38 368.699L1072.33 367.689L1073 365.12L1075.45 361.901L1074.78 359.118L1072.37 358.603Z" fill="black"/>
    <path d="M1277.17 689.603L1275.85 697.357L1285 697.218L1285.14 685.81L1281.79 683.753L1277.17 689.603Z" fill="black"/>
    <path d="M602.134 651.14L600.102 655.457L602.551 658.737L605.598 656.082L602.134 651.14Z" fill="black"/>
    <path d="M565.29 640.889L553.077 632.9L545.367 630.173L543.823 644.919L545.367 644.794L547.399 648.696L550.054 645.625L557.788 643.568L564.508 645L565.29 640.889Z" fill="black"/>
    <path d="M1051.86 518.639L1042.44 515.471L1003.25 522.838L994.704 529.326L999.92 556.271L984.337 556.893L974.966 571.974L952.642 577.329L952.708 588.294L1026.24 644.513L1038.77 645.576L1080.57 612.907L1076.39 607.643L1068.55 606.58L1063.84 598.687V566.012L1060.69 562.85L1061.23 554.423L1052.87 545.996L1051.83 537.037L1055.48 534.403L1053.9 524.913L1051.86 518.639Z" fill="black"/>
    <path d="M489.315 768.822L478.397 775.61L477.612 785.682L475.419 788.978L482.299 795.583L479.321 798.839L480.013 807.154L492.317 810.087L510.947 788.035L510.902 780.348L501.968 779.771L489.315 768.822Z" fill="black"/>
    <path d="M407.986 774.199L406.554 780.551L403.899 783.227L405.723 786.507L410.408 784.664L412.646 780.762L411.214 776.657L407.986 774.199Z" fill="black"/>
    <path d="M1153.18 325.084L1140.25 324.622L1132.06 329.63L1131.94 333.348L1137.25 338.356L1153.76 341.153L1153.18 325.084Z" fill="#f2f2f2"/>
    <path d="M1125.6 327.069L1122.11 328.244L1125.6 328.847L1127.19 330.69L1129.09 328.415L1127.19 325.169L1125.6 327.069Z" fill="#f2f2f2"/>
    <path d="M1127.08 331.743L1122.11 333.968L1120.39 336.935L1122.11 338.864L1128.42 336.527L1131.46 334.518L1127.08 331.743Z" fill="#f2f2f2"/>
    <path d="M1162.79 554.586L1168.95 554.751L1180.95 558.074L1186.66 558.237L1193.72 552.326H1197.02L1203.02 555.651H1210.62L1211.98 555.558L1216.79 569.367L1218.15 573.822L1219.42 580.494L1217.15 582.156L1213.25 580.195L1208.75 565.51L1204.69 565.214L1204.39 570.2L1207.09 578.833L1228.72 605.615L1229.19 617.114L1222.89 624.387L1163.7 623.717L1162.79 554.586Z" fill="black"/>
    <path d="M1243.08 673.812L1242.5 660.208L1251.64 649.546L1254.11 651.439L1258.62 666.496L1280.22 682.583L1276.3 687.413L1260.48 673.814L1243.08 673.812Z" fill="black"/>
    <path d="M992.945 466.709H963.53L957.596 464.028L954.736 464.236L951.272 471.437L952.495 478.849L963.739 479.888L965.17 484.618L960.275 512.21L960.483 517.154L968.444 521.473L977.629 522.093L996.005 517.568L1004.99 506.262L1005.19 494.742L1021.12 480.331L1021.93 473.958L1007.43 473.75L992.945 466.709Z" fill="black"/>
    <path d="M917.365 579.218L913.325 581.55L915.194 583.443L917.365 579.218Z" fill="black"/>
    <path d="M903.328 579.656L898.321 580.927L900.818 584.715H904.576L903.328 579.656Z" fill="black"/>
    <path d="M891.417 575.871L888.276 579.033L892.664 582.821L895.161 577.142L891.417 575.871Z" fill="black"/>
    <path d="M1022.36 494.902L1018.68 496.149L1019.5 499.448H1024.81L1027.05 496.977L1022.36 494.902Z" fill="black"/>
    <path d="M1226.41 713.201L1243.21 675.794L1259.9 675.887L1274.7 688.746L1273.66 699.344H1285.13L1286.31 705.717L1304.87 716.821L1316.31 717.4L1294.55 740.788L1264.65 750H1257.25L1244.04 738.731L1238.83 736.541L1228.72 721.647L1222.04 721.741L1221.26 714.905L1226.41 713.201Z" fill="black"/>
    <path d="M1127.83 263.392L1132.61 265.491L1135.56 271.031L1132.61 274.866L1117.79 291.074L1115.25 299.619L1118.64 311.993L1130.07 320.538L1145.31 313.286L1157.59 311.577L1169.01 293.221L1160.54 273.157L1152.48 253.947L1153.75 241.572L1148.68 240.717L1147.36 231.689L1140.53 220.538L1132.95 225.778L1129.98 237.947L1121.95 233.121L1110.77 230.394L1108.27 233.305L1112.57 237.186L1120.39 237.045L1126.69 247.227L1127.83 263.392Z" fill="black"/>
    <path d="M668.804 1166.71L662.734 1166.04L656.685 1170.1L661.07 1174.86L668.804 1166.71Z" fill="black"/>
    <path d="M674.853 1163.66L672.845 1170.1L667.119 1175.17L667.466 1176.86L677.228 1173.12L681.268 1168.04L674.853 1163.66Z" fill="black"/>
    <path d="M1020.74 405.986L1015.64 407.234L1005.44 418.34L1002.37 418.548L998.284 415.661L995.632 416.283L993.596 422.656L978.684 423.07L979.1 426.372L989.302 433.164L1001.15 442.627L1000.94 453.942L994.617 465.045L1008.31 471.627L1022.2 472.038L1026.49 467.097L1035.27 467.305L1037.72 469.57L1046.49 468.948L1050.99 463.173L1045.26 456.386L1044.85 452.069L1046.07 447.339L1043.21 443.228L1038.32 444.657L1037.7 440.963L1048.52 429.027V421.823L1042.25 419.774L1038.43 417.138L1020.74 405.986Z" fill="black"/>
    <path d="M655.368 736.383L668.877 744.807L661.81 758.843L659.249 762.075L651.747 757.762L651.958 742.636L655.368 736.383Z" fill="black"/>
    <path d="M1360.05 922.406L1354.78 922.751L1354.44 927.35L1357.94 928.068L1363.21 925.598L1360.05 922.406Z" fill="black"/>
    <path d="M1298.18 857.596L1299.93 861.499H1302.75L1304.15 856.539L1298.18 857.596Z" fill="black"/>
    <path d="M609.059 663.029L606.61 665.291L608.434 668.985L611.896 667.97L609.059 663.029Z" fill="black"/>
    <path d="M1060.98 471.234L1056.47 475.761L1056.06 479.869L1059.73 482.132L1061.16 481.929L1061.97 475.946L1060.98 471.234Z" fill="black"/>
    <path d="M596.432 647.652L592.971 649.081L594.194 652.15L598.256 649.495L597.447 648.664L596.432 647.652Z" fill="black"/>
    <path d="M1080.74 761.386L1080.46 767.132L1067.44 766.854L1059.48 782.255L1078.2 802.734L1082.84 798.853L1082.7 794.838L1079.52 793.359V790.535L1086.7 785.992L1093.07 790.818L1100.12 790.957L1099.97 766.739L1088.82 766.216L1088.68 761.133L1080.74 761.386Z" fill="black"/>
    <path d="M987.774 337.598L983.549 343.995L985.234 346.556H994.977V350.83L992.435 354.243L994.122 363.202L999.619 373.87L1003.84 383.678L1010.61 386.24L1013.56 391.368L1013.14 396.056L1008.92 398.617L1008.5 400.74L1011.45 402.45L1008.92 405.866L1002.98 408.428L991.556 407.154L973.759 415.26L967.827 412.282L984.772 402.469L982.647 401.195L973.759 400.34L979.255 392.239L980.107 385.401L987.307 384.549L986.038 371.319L977.562 370.905L975.025 367.927L975.439 358.114L970.362 358.53L975.439 341.468L984.764 334.63L987.774 337.598Z" fill="#f2f2f2"/>
    <path d="M970.001 366.202L962.381 367.056L961.965 373.894L967.042 377.308L972.538 376.039L974.664 372.203L970.001 366.202Z" fill="#f2f2f2"/>
    <path d="M1240.19 464.77L1247.74 474.629L1257.16 478.969L1262.95 478.943L1272.9 476.245L1275.4 472.342L1245.97 461.33L1240.19 464.77Z" fill="black"/>
    <path d="M983.667 725.416L986.252 731.487L992.992 742.062L996.731 741.923L1006.93 736.124L1006.21 703.126L998.318 700.818L987.259 701.118L983.667 725.416Z" fill="black"/>
    <path d="M699.231 108.996L696.09 114.01L701.747 119.664L699.231 125.321L707.403 135.989L717.448 132.848L730.63 131.604L745.703 147.926L755.747 174.914L747.599 191.862L758.888 189.971L765.175 193.734L765.794 201.907L751.992 202.53L759.518 210.054L768.935 211.948L748.227 239.563L745.711 256.511L750.099 270.318L746.958 278.491L752.615 296.061L763.279 307.998L766.419 307.378L773.32 305.484L773.943 315.527L778.328 321.809L786.479 321.184L792.763 297.96L811.599 274.73L839.857 263.44L857.425 241.46L865.57 245.221H882.515L896.323 231.417L913.271 224.515L915.162 213.847L904.498 204.426L895.081 201.288L890.047 188.101L901.982 181.199L920.821 191.242L927.105 184.34L917.06 178.686L938.415 149.804L934.652 137.245L924.608 136.625L928.368 125.332L940.928 119.675L966.665 97.0754L959.145 88.9208L930.264 91.4342L915.188 106.515L923.988 87.0511L913.941 84.535L908.287 94.5807L900.139 87.6761L877.535 90.1895L883.819 80.1465L920.847 78.8992L911.428 66.3401L871.261 58.8158L854.944 61.3292L855.566 69.5052L838.621 63.848L839.24 58.1908L827.302 60.7042L824.787 66.9891L837.347 71.3749L824.164 80.7956L814.745 70.1275L801.562 66.3667L799.669 76.4098H786.484L781.45 65.7417L760.742 62.6006L749.45 68.2551L748.828 75.7821L734.401 73.8883L725.604 77.6518L726.229 86.4474V90.8386L709.908 93.9797L702.382 88.9662L697.348 97.1181L704.877 105.291L720.575 103.398L721.822 108.433L709.887 114.09L699.231 108.996Z" fill="black"/>
    <path d="M749.464 206.937L753.226 212.597L751.336 219.499H747.573L742.539 213.839L743.786 209.45L749.464 206.937Z" fill="black"/>
    <path d="M906.399 191.239L917.063 194.38L916.438 203.176L905.149 197.519L902.633 194.378L906.399 191.239Z" fill="black"/>
    <path d="M897.212 682.218L896.916 684.779L912.887 684.549L913.698 682.169L913.351 679.771L908.755 681.641L897.212 682.218Z" fill="black"/>
    <path d="M905.36 704.382L912.382 715.189L921.523 707.245L930.9 706.831L938.704 717.197L945.327 721.564L947.818 716.714L950.035 715.469L949.872 704.804L945.466 692.151L931.939 693.652L915.202 692.314L915.111 696.604L905.36 704.382Z" fill="black"/>
    <path d="M1058.69 749.335L1057.64 753.883L1060.82 755.614L1063.87 753.331L1062.81 748.643L1058.69 749.335Z" fill="black"/>
    <path d="M1068.27 761.523L1068.13 764.733L1078.61 765.262L1078.47 761.64L1068.27 761.523Z" fill="black"/>
    <path d="M1127.65 495.799L1127.39 498.871L1138.08 504.25L1143.19 506.211L1140.51 509.029L1134.55 509.635L1133.7 512.333L1135.76 516.975L1142.43 520.528L1145.34 520.784L1145.71 512.822L1150.08 507.554L1138.17 493.473L1139.74 488.694L1142.53 488.58L1146.78 491.996L1149.46 490.658L1150.31 485.876L1160.28 487.303L1163.31 478.651L1158.09 482.324L1142.78 481.95L1132.83 487.102L1127.65 495.799Z" fill="black"/>
    <path d="M1150.85 525.792L1154.61 525.907L1156.18 528.239H1161.66L1165.3 526.901L1166.52 528.378L1164.1 531.561L1153.41 531.933L1151.47 529.371L1149.41 528.148L1150.85 525.792Z" fill="black"/>
    <path d="M407.78 666.469L421.47 676.491L435.274 659.335L432.921 655.78L428.21 655.614V645.568L424.68 643.421L413.992 646.605L418.078 656.023L407.78 666.469Z" fill="black"/>
    <path d="M901.157 696.507L904.391 702.905L913.46 695.1L913.554 692.699L902.863 691.152L901.157 696.507Z" fill="black"/>
    <path d="M615.939 718.672L632.606 733.768L625.98 741.434L625.449 745.983L634.153 754.963L633.944 763.595L618.802 769.365L609.729 757.105L611.668 742.374L607.791 731.41L615.939 718.672Z" fill="black"/>
    <path d="M437.029 660.144L458.36 659.335L464.686 666.859L460.739 665.956L453.144 666.28L443.217 675.607L438.971 685.051L436.177 683.569L436.153 673.227L430.013 669.116L437.029 660.144Z" fill="black"/>
    <path d="M1102.05 443.99L1093.9 450.707H1085.63L1084.64 456.525L1088.43 457.518L1090.32 454.7L1093.29 457.31L1095.67 465.622L1111.99 473.243L1113.6 471.397L1097.05 454.313L1098.74 451.199L1114.46 450.595L1116.06 445.584L1105.81 445.881L1102.05 443.99Z" fill="black"/>
    <path d="M537.01 629.206L544.953 630.037L544.007 639.78L543.222 644.906L533.966 644.399L532.326 646.872L529.487 646.666L528.472 641.332L538.236 640.52L537.635 634.983L533.156 633.138L537.01 629.206Z" fill="black"/>
    <path d="M1104.63 431.153L1101.96 435.354L1102.16 441.773L1106.43 443.963L1119.57 444.356L1137.88 428.933L1137.97 425.517L1135.98 424.526L1122.76 430.53L1104.63 431.153Z" fill="black"/>
    <path d="M1625.76 726.615L1625.12 731.88L1640.79 758.221H1645.36L1678.02 812.873L1691.09 814.187L1697.62 795.095L1687.17 788.513L1685.21 777.987L1625.76 726.615Z" fill="black"/>
    <path d="M1780.55 799.435L1785.77 805.835L1782.37 815.44V817.267H1790.08L1792.81 793.257L1795.3 793.951L1799.83 815.886L1804.14 817.045L1808.23 807.664L1804.14 793.487L1800.75 787.317L1811.41 779.541L1808.91 776.101L1798.71 782.725H1795.99L1791 775.407L1792.6 772.199L1801 768.088L1813.7 771.969L1817.55 771.731L1827.08 762.823L1823.23 758.948L1814.38 765.799H1808.7L1800.09 761.691L1793.98 761.921L1787.17 772.888L1782.85 791.865L1780.55 799.435Z" fill="black"/>
    <path d="M1837.48 756.469L1833.16 766.979L1839.97 775.893H1842.23L1845.19 769.955L1846.78 767.898L1843.83 764.69L1839.51 763.096L1837.48 756.469Z" fill="black"/>
    <path d="M1850.87 790.989L1841.57 793.046L1838.84 796.024L1841.1 799.905L1847.22 797.621L1851.07 795.338L1856.75 799.91L1859.25 797.851L1854.72 792.357L1850.87 790.989Z" fill="black"/>
    <path d="M1696.61 820.704L1690.26 825.045L1691.62 828.688L1711.82 833.261L1722.03 835.088L1726.34 839.66L1737.91 840.582L1743.35 845.152L1748.34 843.998L1752.88 839.888L1744.48 836.009L1737.23 829.845L1718.4 825.269L1696.61 820.704Z" fill="black"/>
    <path d="M1762.64 840.579L1757.65 843.328L1760.6 846.536L1767.85 843.793L1762.64 840.579Z" fill="black"/>
    <path d="M1771.24 838.525L1772.15 842.866L1777.36 844.228L1779.4 841.712L1777.13 838.272L1771.24 838.525Z" fill="black"/>
    <path d="M1783.73 849.955L1777.39 850.881L1783.06 855.684H1787.59L1783.73 849.955Z" fill="black"/>
    <path d="M1785.53 842.406L1784.17 845.149L1794.37 846.741L1802.32 842.171L1797.79 840.806L1790.54 842.866L1787.81 840.579L1785.53 842.406Z" fill="black"/>
    <path d="M1818.89 844.02L1807.1 853.857L1808.23 856.373L1813.21 855.452L1819.1 849.952L1830.67 848.357L1828.4 844.479L1818.89 844.02Z" fill="black"/>
    <path d="M1878.43 776.878L1868.8 777.963L1862.62 782.485L1865.18 787.661L1875.67 789.6V791.542L1869.04 796.924L1872.25 808.121L1875.46 808.33L1878.23 797.338H1883.35L1885.5 808.094L1910.5 828.784L1911.15 844.946L1919.69 854.207L1923.54 854.001L1924.39 796.924L1909.87 786.815L1896.18 796.075L1891.26 799.099L1883.13 793.925L1882.92 777.557L1878.43 776.878Z" fill="black"/>
    <path d="M1762.42 742.385L1757.09 762.425L1728.17 772.191L1719.51 762.03L1715.31 763.187L1723.16 793.476L1734.9 794.793L1750.58 800.728V806.663L1757.76 805.346L1768.21 790.869V779.023L1774.1 767.177L1780.63 768.489L1772.78 752.027L1771.58 741.429L1762.42 742.385Z" fill="black"/>
    <path d="M972.514 377.933L970.415 391.787L951.787 398.625H945.85L941.625 395.647V393.083L950.951 387.105L948.411 381.977L948.828 374.728L956.888 375.142L960.581 366.461L960.093 374.172L966.353 379.135L972.514 377.933Z" fill="#f2f2f2"/>
    <path d="M1216.78 543.039L1213.13 554.652L1217.86 568.576L1223.29 548.234V543.872L1216.78 543.039Z" fill="black"/>
    <path d="M1506.87 716.091L1517.44 710.915L1523.72 688.198L1523.45 660.31L1559.41 621.473V612.266L1566.82 609.379L1566.55 598.738L1558.56 583.2L1563.13 574.864L1573.12 584.076L1585.96 584.653V589.83L1581.97 594.146L1582.82 596.451L1589.68 596.729L1591.11 604.486H1593.12L1598.26 595.273L1600.82 571.122L1609.39 565.072L1609.67 556.739L1606.25 550.112L1600.83 549.834L1579.59 563.873L1580.93 572.901L1566.01 572.85L1560.75 566.413L1557.89 566.782L1558.86 575.74L1526.61 573.435L1506.62 564.522L1505.56 553.555L1492.24 545.291L1492.08 528.274L1482.94 517.814L1461.93 519.822L1464.21 528.968L1474.5 537.302L1456.7 573.737L1444.79 574.637L1442.83 579.028L1454.56 589.878L1453.99 600.842L1442 600.658L1440.71 606.107L1450.67 605.669L1450.94 609.985L1443.81 613.725L1448.38 622.357L1457.22 625.242L1462.65 621.225L1465.21 614.045L1468.35 612.616L1472.07 616.35L1470.94 625.563L1468.37 629.882L1468.95 637.36L1506.87 716.091Z" fill="black"/>
    <path d="M1260.62 512.958L1257.02 530.758L1242.1 543.178L1243.05 549.041L1257.62 550.032L1280.82 568.916L1293.79 568.547L1294.14 564.183L1298.89 559.081L1305.54 562.844L1306.42 562.011L1293.56 544.903L1287.47 544.532L1279.37 534.12L1280.98 526.46L1283.45 526.137L1284.31 522.742L1273.27 511.128L1260.62 512.958Z" fill="black"/>
    <path d="M1272.95 496.609L1270.12 499.541L1270.4 504.184L1273.91 509.104L1286.35 522.729L1284.46 528.177H1282.29L1281.2 533.626L1288.25 542.63L1294.74 543.183L1307.73 561.164L1315.03 561.72L1320.7 565.804L1320.98 573.983L1343.44 587.071H1351.83L1356.97 582.706L1363.46 582.428L1367.25 591.157L1391.51 594.528L1392.23 585.615L1400.27 582.706L1400.64 579.52L1394.24 570.791L1379.99 559.34L1387.48 552.529L1386.95 549.527L1377.57 548.074L1373.6 516.441L1373.14 509.168L1347.72 499.443L1336.46 501.983L1330.15 509.718L1324.57 509.347L1322.95 510.712L1310.51 509.902L1294.81 498.449L1288.97 492.055L1286.29 492.696L1281.46 498.214L1272.95 496.609Z" fill="black"/>
    <path d="M895.989 264.244L891.468 261.682L885.371 265.536L880.131 270.382L880.27 273.087L887.056 273.939L886.639 278.787L884.241 281.213L884.821 282.783L891.607 283.221V291.069L901.371 292.781L907.166 296.063L913.674 296.341L924.854 290.777L933.483 279.37L933.624 271.658L928.382 267.224L923.996 263.506L922.012 264.938L919.034 268.792L915.64 268.354L912.245 264.634L907.86 265.05L901.488 270.336L897.65 274.468L895.527 272.625L895.386 268.052L897.509 266.621L895.989 264.244Z" fill="black"/>
    <path d="M1048.14 448.196L1046.71 451.818L1047.1 455.766L1052.62 462.209L1061.3 461.907L1080.46 484.167L1092.42 487.631L1099.49 494.304L1101.17 509.515L1104.96 507.303L1108.24 499.012L1107.43 493.059L1113.04 492.551L1113.85 489.178L1098.04 481.608L1083.03 466.856L1077.05 458.034L1075.6 449.655L1083.24 447.828L1081.28 442.31L1076.59 438.362L1072.55 438.177L1066.92 439.727L1061.61 447.155L1058.4 449.278L1053.44 446.231L1048.14 448.196Z" fill="#f2f2f2"/>
    <path d="M1094.7 508.313L1091.36 506.513L1079.93 508.313L1080.32 511.406L1090.6 516.58L1092.14 518.265L1094.85 518.658L1094.7 508.313Z" fill="#f2f2f2"/>
    <path d="M1060.35 486.058L1054.24 489.151L1055.05 501.088L1059.95 501.919L1063.62 498.414V487.102L1060.35 486.058Z" fill="#f2f2f2"/>
    <path d="M509.47 638.926L501.437 640.958V643.202L506.124 645.902H511.041L514.157 642.299L509.47 638.926Z" fill="black"/>
    <path d="M1225.05 549.321L1219.37 569.129L1219.11 572.156H1228.05L1238.04 563.333L1238.3 559.986L1234.21 555.809L1241.53 549.74L1240.47 544.107L1238.46 544.569L1232.37 548.936L1225.05 549.321Z" fill="black"/>
    <path d="M1812.17 493.075L1808.41 496.862L1809.95 502.194L1813.25 502.423L1815.47 513.994L1818.12 516.879L1822.77 512.653L1823.17 499.905L1817.83 494.229L1812.17 493.075Z" fill="black"/>
    <path d="M1831.86 482.377L1824.76 488.136L1823.18 495.399L1828.02 498.737L1835.03 491.392L1836.02 483.213L1831.86 482.377Z" fill="black"/>
    <path d="M1823.65 471.279L1812.38 484.186V490.388L1819.33 489.554L1830.24 479.96L1837.54 478.619L1839.31 480.7L1839.35 487.049L1841.18 490.388H1844.54L1849.24 484.624L1851.23 477.049L1860.72 476.819L1870 465.692L1865.15 447.219L1862.94 437.432L1867.78 433.436L1856.75 416.767L1854.23 414.779L1849.22 416.767L1847.93 423.669V429.232L1850.59 432.349L1851.46 447.035L1844.63 455.486L1840.66 453.036L1837.57 459.938L1836.9 466.381L1839.32 470.168L1837.78 473.053L1832.7 468.827H1829.17L1826.08 470.606L1823.65 471.279Z" fill="black"/>
    <path d="M1842.65 370.75L1839.12 373.87L1840.9 380.542L1843.99 383.657L1843.76 393.887L1839.79 395.43L1836.7 402.332L1845.75 414.777L1851.7 412.768L1852.81 409.651L1846.41 403.879L1850.38 398.753L1854.58 399.421L1863.74 405.578L1864.73 398.676L1869.08 390.719L1875.17 384.543L1868.58 381.539L1866.06 376.728L1862.76 378.945L1859.9 382.5L1853.71 381.162L1847.31 376.936L1842.65 370.75Z" fill="black"/>
    <path d="M1875.96 363.848L1869.77 372.529L1870.21 376.755L1873.3 375.414L1880.57 366.295L1875.96 363.848Z" fill="black"/>
    <path d="M1884.13 351.172L1881.92 357.176L1882.15 361.172L1885.91 358.72L1889.44 351.61V348.955L1884.13 351.172Z" fill="black"/>
    <path d="M1229.5 747.281L1235.65 759.258L1228.28 774.704L1227.31 779.389L1264.09 802.135L1275.49 784.218L1269.72 779.533L1269.61 755.935L1276.83 748.039L1265.31 751.872L1256.61 751.99L1242.99 740.491L1238.7 738.643L1230.74 739.38L1229.33 741.738L1229.5 747.281Z" fill="black"/>
    <path d="M1427.99 453.338L1427.27 459.182L1427.85 462.788L1447.94 469.527L1430.3 476.637L1428.29 474.973L1424.48 477.423L1424.66 478.761L1426.7 479.685L1439.07 480.008L1445.35 478.115L1453.41 467.957L1463.5 469.709L1475.67 452.852L1443.12 448.418L1438.62 459.337L1432.93 453.245L1427.99 453.338Z" fill="black"/>
    <path d="M1667.31 684.824L1676.76 694.91L1694.32 681.889L1695.86 661.344L1686.79 667.602L1682.08 664.971L1675.68 664.116L1672.1 661.603L1670.37 661.696L1665.69 669.383L1666.45 672.941L1671.21 675.596L1670.63 682.821L1667.31 684.824Z" fill="black"/>
    <path d="M1291.51 850.51L1292.57 854.039L1297.13 854.757L1298.89 850.163L1291.51 850.51Z" fill="black"/>
    <path d="M1754.58 441.936L1758.82 443.715L1760.12 458.581L1768.54 459.07L1776.49 449.767L1773.74 447.32L1774.06 437.347L1781.35 428.524L1777.64 421.831L1780.06 419.056L1781.4 412.132L1777.17 410.212L1773.57 412.039L1769.11 425.565L1761.91 424.945L1753.58 434.78L1754.58 441.936Z" fill="black"/>
    <path d="M1777.8 451.006L1792.07 462.641L1794.49 473.913L1794.01 479.96L1787.03 487.81L1781.03 488.131L1774.22 473.424L1771.63 466.402L1774.38 464.279L1773.73 461.343L1770.34 459.823L1777.8 451.006Z" fill="black"/>
    <path d="M1304.44 564.073L1299.24 561.253L1295.64 564.874L1296.03 572.126L1304.41 575.334L1304.44 564.073Z" fill="black"/>
    <path d="M1289.2 428.89L1298.67 424.849L1309.24 424.478L1309.98 440.64H1303.79L1299.05 448.354L1305.24 458.629L1314.36 463.779L1315.19 469.669L1318.54 468.558L1321.63 464.885L1326.73 465.996L1329.3 471.146H1335.85V464.54L1331.84 452.788L1330.01 443.255L1341.67 438.103L1357.34 440.664L1367.18 450.571L1389.41 448.378L1401.81 465.999L1416.38 466.731L1420.39 460.128L1425.49 459.017L1426.23 451.677L1433.87 451.305L1437.88 456.084L1441.9 446.548L1476.51 451.327L1482.33 443.616L1472.49 431.497L1485.6 402.867L1496.17 403.601L1503.47 385.989L1488.9 384.509L1480.52 376.432L1457.43 379.108L1427.7 350.362L1417.21 359.663L1385.43 345.234L1346.43 364.327L1345.35 377.903L1354.47 388.547L1336.69 398.59L1313.63 398.083L1308.8 390.997L1290.73 390L1273.6 401.013L1273.22 416.072L1289.2 428.89Z" fill="black"/>
    <path d="M1655.75 600.46L1650.16 603.297L1645.52 616.826L1653.28 626.706L1651.98 637.63L1653.28 638.154L1666.18 631.898L1683.49 651.244L1683.07 663.432L1686.84 665.468L1696.14 657.917L1695.38 651.939L1668.53 626.425L1668.78 622.523L1672.13 620.191L1669.8 613.679L1658.69 611.852L1655.75 600.46Z" fill="black"/>
    <path d="M1218.81 530.063L1218.95 534.566L1217.06 541.404L1223.57 541.96L1223.99 532.261L1218.81 530.063Z" fill="black"/>
    <path d="M608.854 672.265L607.214 675.754L609.869 678.614L613.33 676.769L608.854 672.265Z" fill="black"/>
    <path d="M1528.94 704.635L1529.52 710.915L1530.1 715.488L1526.7 716.065L1528.41 726.343L1533.51 729.201L1541.43 724.631L1539.17 713.802L1539.75 709.809L1532.39 702.974L1528.94 704.635Z" fill="black"/>
    <path d="M927.869 730.352L953.216 747.299L952.61 734.465L944.947 725.437L937.467 718.81L927.869 730.352Z" fill="black"/>
    <path d="M1175.43 975.556L1182.48 970.129L1185.8 970.27L1189.81 975.279L1189.4 980.292L1182.64 982.787V984.731L1175.18 984.315L1173.38 978.89L1175.43 975.556Z" fill="black"/>
    <path d="M1125.34 356.968L1119.61 357.937L1120.07 363.346L1129.03 364.014L1132.43 366.797L1133.31 371.632L1136.08 375.486L1144.27 375.139L1152.12 365.141L1151.66 359.206L1136.88 356.89L1125.34 356.968Z" fill="#f2f2f2"/>
    <path d="M1040.64 416.654L1042.67 418.468L1045.02 418.69L1045.54 414.058L1044.86 411.457L1041.59 413.014L1040.64 416.654Z" fill="black"/>
    <path d="M1153.87 342.886L1136.88 340.116L1133.98 347.657L1129.09 349.12L1126.53 345.987L1123.96 341.15L1121.18 343.185L1119.61 351.551V356.113L1125.6 355.111L1138.06 355.333L1153.06 358.122L1159.06 356.367L1158.72 349.625L1153.87 342.886Z" fill="#E05C0F"/>
    <path d="M1066.1 566.06L1069.71 565.459L1070.77 557.147H1072.57L1079.93 545.053L1098.1 550.339L1103.06 558.05L1120.93 566.229L1130.23 562.302L1129.32 558.373L1125.26 554.449L1125.72 551.722L1132.33 546.132H1145.4L1150.36 552.78L1160.86 554.303L1162.23 639.479L1154.42 639.179L1107.28 614.657L1102.18 617.544L1082.81 612.699L1077.55 605.746L1069.88 604.686L1065.99 597.733L1066.1 566.06Z" fill="black"/>
    <path d="M992.784 529.695H966.126L960.907 541.284L948.879 547.08L938.947 573.956L919.603 585.551L892.432 630.32L919.093 629.788L920.132 616.628H926.918V598.711H950.446L950.97 575.529L973.457 570.262L982.873 554.976L997.509 554.447L992.784 529.695Z" fill="black"/>
    <path d="M1160.06 426.788L1167.22 437.801L1166.62 444.035L1169.18 444.15L1175.25 433.874L1167.96 424.822L1163.82 423.113L1160.06 426.788Z" fill="black"/>
    <path d="M1118.77 467.657L1115.39 472.436L1116.36 475.371L1120.38 476.106L1123.54 471.814L1118.77 467.657Z" fill="black"/>
    <path d="M1325.24 854.413L1320.32 866.096L1311.89 880.962L1297.14 882.02L1290.82 889.454L1291.88 912.125L1282.73 922.748L1283.79 940.806L1291.53 949.65L1300.67 948.593L1309.81 941.851L1307.71 931.228L1328.79 894.75L1324.57 890.156L1328.79 881.31L1333.36 882.715L1334.77 879.183L1330.54 861.127L1328.07 853.691L1325.24 854.413Z" fill="black"/>
    <path d="M1137.37 473.659L1129.59 476.221L1129.96 482.826L1131.79 485.158L1141.02 480.868L1137.37 473.659Z" fill="black"/>
    <path d="M926.229 676.445L933.338 671.576L972.861 671.344L963.72 607.758L974.154 607.458L1024.64 645.996L1031.42 646.963L1028.86 668.387L997.119 671.272L972.626 689.56L968.169 702.077L951.157 702.795L946.817 690.303L933.774 691.227L934.278 687.14L926.229 676.445Z" fill="black"/>
    <path d="M1641.83 694.477L1635.43 684.226L1640.07 677.714L1635.68 669.653L1631.55 668.868L1630.76 655.342L1624.58 643.36L1622.78 646.22L1618.64 653.24L1613.47 654.025L1610.89 650.63L1609.59 641.511L1605.71 634.219L1589.92 619.326L1593.8 616.764L1594.52 605.981L1600.29 596.283L1602.79 572.158L1611.15 566.453L1611.42 557.657L1616.43 559.319L1624.33 570.748L1618.47 583.304L1622.42 593.163L1632.18 596.996L1633.96 607.736L1647.07 609.769L1643.45 616.027L1626.92 622.539L1625.12 633.204L1637.26 648.814L1637.77 657.147L1634.93 660.011L1635.18 662.62L1644.23 675.898L1644.49 689.68L1641.83 694.477Z" fill="black"/>
    <path d="M1513.38 386.293L1526.82 368.469L1542.96 375.927L1553.92 378.86L1567.35 366.533L1558.23 359.81L1564.24 351.337L1582.15 357.665L1588.36 367.847L1599.57 368.146L1605.44 363.782L1617.51 363.296L1620.14 367.777L1640.2 368.792L1652.9 355.841L1670.47 357.684L1669.45 375.323L1677.14 377.075L1686.58 372.786L1696.58 377.727L1696.34 380.224L1689.1 380.433L1681.55 396.272L1675.68 396.849L1652.88 426.657L1629.58 436.933L1615.01 438.065L1602.92 430.258L1587.45 438.525L1572.22 433.794L1567.9 422.734L1539.04 420.698L1524.27 395.652L1517.09 395.187L1513.38 386.293Z" fill="black"/>
    <path d="M892.616 632.163L897.65 638.741L896.612 667.188L903.929 661.92L909.142 660.86L916.463 663.491L924.816 675.083L932.665 669.819L970.824 669.287L961.407 605.541L971.518 605.493L952.679 591.064L952.703 600.439L928.854 600.466L928.74 618.356L921.884 618.332L921.008 631.538L892.616 632.163Z" fill="black"/>
    <path d="M1095.1 525.517L1091.24 526.302L1091.38 530.576L1094.85 531.732L1096.39 530.44L1095.1 525.517Z" fill="black"/>
    <path d="M1373.05 914.601L1369.54 919.198L1370.23 924.158L1377.63 918.132L1373.05 914.601Z" fill="black"/>
    <path d="M1473.21 733.982L1473.91 740.008L1477.76 741.415L1478.45 736.103L1473.21 733.982Z" fill="black"/>
    <path d="M1478.13 746.723L1477.78 754.159L1480.6 755.561L1483.07 750.604L1478.13 746.723Z" fill="black"/>
    <path d="M1478.85 761.25L1476.38 763.721L1479.2 766.192L1482.7 763.721L1478.85 761.25Z" fill="black"/>
    <path d="M1221.03 869.37L1228.21 876.876L1228.07 886.484L1229.46 890.527L1238.99 880.231L1237.88 867.145L1232.78 863.246L1228.23 840.267L1220.36 839.989L1223.94 856.539L1221.03 869.37Z" fill="black"/>
    <path d="M275.291 513.879L286.441 548.993L281.247 551.901L281.823 558.873L291.635 566.424V580.39L303.755 592.025L298.56 557.711L291.635 535.015L293.366 519.318L299.137 519.897L301.447 525.138L299.137 538.506L329.147 597.242V618.185L353.389 646.674L379.935 658.889L390.901 652.489L406.484 665.281L415.719 655.977L411.679 645.494L424.952 641.431L428.993 643.763L433.033 639.7H439.381L450.924 619.336L445.153 614.096L422.644 619.336L417.45 634.46L404.174 636.794L388.594 630.394L381.669 608.302L386.908 580.433L376.196 573.761L371.095 546.997L366.825 545.173L359.021 553.093L350.064 548.314L346.557 530.466L311.075 526.746L292.746 512.963L275.291 513.879Z" fill="black"/>
    <path d="M1649.38 721.722L1654.01 732.133L1655.06 745.659L1661.26 755.286L1674.87 763.521L1677.54 761.408L1681.45 760.639L1680.89 755.537L1675.97 743.576L1668.77 728.268L1668.16 730.948L1659.48 730.558L1653.25 721.599L1649.38 721.722Z" fill="black"/>
    <path d="M1721.93 762.054L1728.9 770.115L1755.64 760.855L1760.93 740.44L1772.84 739.588L1783.73 731.693L1769.61 721.399L1766.37 715.739L1759.4 728.6L1761.96 735.988L1757.71 742.158L1749.7 740.098L1730.29 754.343L1730.79 762.586L1721.93 762.054Z" fill="black"/>
    <path d="M1207.2 947.591L1213.41 952.741L1228.05 943.833L1230.4 930.603V908.76L1253.88 889.552L1257.9 889.694L1272.11 876.053L1269.9 847.93L1233.02 852.586L1234.4 861.501L1239.8 866.194L1241.32 881.502L1228.62 893.901L1225.57 886.948L1226.12 877.76L1218.81 869.819L1200.85 878.179L1217.56 886.678L1218.12 911.449L1207.06 927.865L1207.2 947.591Z" fill="black"/>
    <path d="M1104.19 967.634L1111.93 968.19L1116.48 972.784L1127.26 972.923L1129.89 942.308V922.267L1136.79 920.878L1139.42 899.865L1156.97 899.315L1163.17 894.168L1152.67 893.751L1138.44 895.69L1123.12 890.129H1080.04L1081.15 902.363L1095.51 923.512L1093.01 934.361L1093.15 940.067L1104.19 967.634Z" fill="black"/>
    <path d="M2050.9 964.197L2050.09 968.329L2060.73 983.177L2066.46 985.65L2067.27 979.878L2050.9 964.197Z" fill="black"/>
    <path d="M1021.87 690.669L1027.76 690.527L1033.07 682.565L1041.98 680.97L1051.46 686.766L1071.71 687.343L1087.36 680.97L1093.25 675.911L1093.68 669.263L1104.6 658.25L1107.49 633.933L1100.31 618.88L1081.93 614.4L1039.41 647.556L1033.38 646.976L1030.8 669.992L1009.1 672.164L1021.87 690.669Z" fill="black"/>
    <path d="M1023.44 730.774L1032.49 731.212L1043.41 743.384L1048.72 744.837L1052.88 742.804L1059.2 741.928L1061.35 733.106L1069.96 727.451L1079.29 727.016L1096.37 695.589L1096.09 688.502L1088.2 682.431L1072.41 689.384L1051.29 689.087L1041.22 682.714L1034.04 684.306L1030.3 690.818L1030.02 709.195L1024 717.737L1023.44 730.774Z" fill="black"/>
    <path d="M460.552 667.831L465.608 668.849L465.77 679.215L459.884 696.024L444.026 694.453L440.493 686.35L445.204 676.515L454.137 668.203L460.552 667.831Z" fill="black"/>
    <path d="M1043.11 381.904L1032.65 387.054L1034.87 389.063L1035.1 394.213L1032.89 393.774L1030.44 389.966L1024.6 399.226L1033.58 401.093L1036.92 404.627L1038.7 404.672L1039.88 396.686L1045.53 394.306L1043.11 381.904Z" fill="black"/>
    <path d="M1147.85 229.221L1152.51 225.805L1152.09 221.972L1149.14 220.26L1149.56 215.575H1152.1V213.011L1141.09 210.035L1124.58 211.745L1122.89 218.994L1119.08 217.72L1116.54 213.449L1108.48 213.863L1107.63 221.964L1103.82 223.676L1101.7 219.403L1084.75 233.049L1088.15 236.884L1081.79 239.863L1067.39 268.445L1062.31 271.861L1062.73 274.423L1067.8 276.984L1066.53 282.524L1058.06 282.086L1055.52 279.108L1050.02 285.505L1046.63 288.066L1045.78 294.049L1042.82 295.759L1035.2 297.468L1031.39 309.432L1033.93 329.058L1036.89 338.017L1040.28 341.433L1047.9 341.017L1058.92 330.349L1063.14 323.102L1064.41 333.765L1071.62 320.973L1072.03 285.118L1077.89 281.424L1079.64 261.637L1097.42 236.032L1105.89 233.054L1109.7 228.366L1122.4 231.345L1128.75 235.178L1130.87 224.515L1141.47 218.115L1147.85 229.221Z" fill="black"/>
    <path d="M1085.06 117.981L1081.25 114.149L1072.8 118.259H1057.29L1054.84 127.311L1063.54 134.999L1067.35 134.443L1072.8 125.118L1077.41 128.417L1074.13 134.999L1072.49 144.604L1076.3 150.629L1084.48 136.914L1095.1 124.007L1091.01 120.455L1085.06 117.981Z" fill="black"/>
    <path d="M1089.67 101.523L1082.86 107.824L1086.95 114.124H1094.29L1097.29 118.235L1106.27 122.899L1116.61 116.873L1123.7 110.847L1121.25 105.906L1114.16 101.795L1108.99 106.459L1105.46 102.068L1102.73 102.345L1099.2 110.033L1094.03 104.813L1093.48 101.258L1089.67 101.523Z" fill="black"/>
    <path d="M1105.19 129.779L1099.74 134.723L1095.12 138.281L1097.29 142.114L1101.66 143.479L1108.74 140.178L1112.02 136.067L1109.02 131.126L1105.19 129.779Z" fill="black"/>
    <path d="M1507.36 553.429L1508.42 563.288L1527.07 571.734L1556.96 573.95L1555.83 566.725L1535.86 561.229L1518.91 551.14L1507.36 553.429Z" fill="black"/>
    <path d="M2065.63 1106.17L2068.08 1133.41L2064.8 1145.79L2052.51 1154.86L2053.33 1165.6V1177.14L2056.61 1181.28L2090.2 1152.39V1145.79H2082L2070.52 1107L2065.63 1106.17Z" fill="black"/>
    <path d="M2041.06 1165.6L2047.62 1177.97L2029.59 1195.31L2027.95 1204.39L2015.67 1206.02L1995.19 1225L1976.35 1215.93L1974.71 1209.32L2009.11 1194.47L2041.06 1165.6Z" fill="black"/>
    <path d="M1339.27 641.813L1356.33 631.976L1359.36 617.547L1355.62 615.399L1357.17 599.929L1360.42 598.035L1363.91 603.508L1384.67 614.358V620.389L1359.53 657.393L1347.96 657.786L1339.27 641.813Z" fill="black"/>
    <path d="M467.133 708.238L463.762 718.765L474.891 721.647L481.792 723.015L482.97 714.863L490.381 711.123L496.958 714.518L499.544 718.65L502.682 718.282L505.152 710.776L496.932 707.381L490.698 703.986L484.468 708.233L477.057 711.973L469.485 708.925L467.133 708.238Z" fill="black"/>
    <path d="M477.383 800.383L472.904 804.911L473.206 812.13L512.312 883.43L552.919 909.612L559.198 899.085L560.699 875.93L557.419 861.501L546.36 842.847L539.782 844.946L536.805 848.248L523.67 833.194L526.95 815.44L542.186 805.512L540.987 796.184L525.473 795.581L517.416 782.055L512.937 780.554L513.239 788.684L493.246 812.443L478.309 808.84L477.383 800.383Z" fill="black"/>
    <path d="M1926.52 797.544L1925.67 853.972L1933.8 853.534L1944.48 841.044L1953.46 841.482L1959.23 846.656L1961.15 862.586L1979.53 872.284L1984.24 870.554V864.733L1969.49 852.449L1962.21 835.641L1967.98 832.844L1963.71 823.586L1955.17 823.378L1953.02 813.471L1930.38 798.188L1926.52 797.544Z" fill="black"/>
    <path d="M1996.07 813.103L1993.88 813.613L1992.55 819.548L1988.35 822.275L1975.72 824.492L1976.22 829.244L1989.52 828.578L1997.95 823.311L1997.44 814.144L1996.07 813.103Z" fill="black"/>
    <path d="M1990.51 799.184L1988.47 802.069L1999.58 811.906L2001.1 817.678L2004.13 817.331L2004.47 811.398L2001.1 808.353L1990.51 799.184Z" fill="black"/>
    <path d="M1780.18 680.348L1778.19 684.135L1777.09 688.799L1766.05 702.811L1766.72 705.698L1771.36 705.028L1785.7 689.005L1780.18 680.348Z" fill="black"/>
    <path d="M1798.05 675.014L1797.81 686.582L1802.01 690.807L1803.56 699.026L1807.76 699.926L1809.74 694.801L1806.44 692.354L1805.56 677.901L1798.05 675.014Z" fill="black"/>
    <path d="M1809.98 679.472L1809.75 689.699L1812.17 693.692L1816.37 688.799L1815.26 679.91L1809.98 679.472Z" fill="black"/>
    <path d="M1812.61 670.558L1816.81 676.122L1818.79 681.456H1822.56L1821.89 672.335L1817.69 669.45L1812.61 670.558Z" fill="black"/>
    <path d="M1820.79 691.475L1821.66 698.147L1813.93 704.382L1807.53 705.052L1800.69 712.395L1800.92 715.739L1807.32 713.733L1811.73 710.848L1815.49 720.405L1822.12 725.071L1824.77 724.168L1827.19 721.284L1821.91 715.95L1825 713.503L1828.53 716.388L1830.95 712.395L1828.53 707.499L1828.1 696.601L1820.79 691.475Z" fill="black"/>
    <path d="M1784.82 623.642L1778.86 627.865L1778.19 641.212L1787.48 659.22L1790.57 661.664L1794.54 658.985L1801.38 660.093L1802.69 666.098L1807.77 666.536L1810.19 663.211L1807.1 658.985L1803.34 655.43L1795.39 654.556L1791.19 647.652L1796.04 640.309L1796.48 633.869L1793.18 625.651L1784.82 623.642Z" fill="black"/>
    <path d="M1787.91 663.448L1789.66 669.685L1792.76 671.694L1794.97 668.806L1791.44 663.913L1787.91 663.448Z" fill="black"/>
    <path d="M1396.41 570.238L1402.41 579.151L1401.84 583.745L1393.85 586.913L1393.27 594.395H1402.41L1405.55 591.806H1422.96L1438.66 605.615L1440.67 598.989H1452.37L1452.65 590.655L1440.67 579.156L1443.23 572.829L1455.51 571.979L1472.07 537.459L1462.92 530.279L1459.51 518.204L1481.76 516.195L1468.63 497.498L1461.63 495.604L1458.78 499.069L1456.63 499.232L1443.49 507.565L1447.78 514.766L1442.94 519.94L1436.93 542.083L1422.09 551.573L1420.08 561.942L1396.41 570.238Z" fill="black"/>
    <path d="M1138.61 396.894L1140.57 400.495L1141.03 404.328L1139.42 408.046L1135.73 415.161L1132.61 416.566L1128.57 414.811L1126.14 414.926L1120.26 417.143L1113.56 415.161L1102.72 407.472L1092.09 401.769L1087.82 395.257L1087.01 379.899L1095.32 372.673L1106.17 369.068L1109.72 368.699L1110.56 371.389L1115.16 373.237L1127.89 373.477L1131.82 373.363L1138.28 383.267L1136.67 387.329L1137.36 392.108L1138.61 396.894Z" fill="#f2f2f2"/>
    <path d="M583.619 642.318L577.524 640.261L572.629 643.33L575.078 646.191L583.413 647.414L583.619 642.318Z" fill="black"/>
    <path d="M952.708 481.117L951.277 501.091L947.19 504.787L947.607 507.047L950.467 511.78L948.622 517.549L951.69 518.591L958.848 517.758L958.434 511.988L963.123 485.225L962.103 481.531L952.708 481.117Z" fill="black"/>
    <path d="M900.19 539.251L897.695 542.416L900.19 545.582L903.95 543.688L900.19 539.251Z" fill="black"/>
    <path d="M818.142 494.464L815.004 497.626L820.631 500.791L821.256 496.387L818.142 494.464Z" fill="black"/>
    <path d="M835.063 492.57L831.303 495.083L834.441 497.597L839.451 496.325L835.063 492.57Z" fill="black"/>
    <path d="M837.557 501.411L835.688 506.465L838.185 509.63L841.323 507.116L837.557 501.411Z" fill="black"/>
    <path d="M852.588 511.502L851.341 514.665L853.213 516.558L858.22 513.396L852.588 511.502Z" fill="black"/>
    <path d="M631.428 915.803L636.508 921.343L635.907 933.074L650.542 932.171L661.602 946.325L660.701 958.956L653.541 969.784L638.909 970.385L638.308 964.36L642.485 954.429L628.149 945.401H616.214L607.256 935.774L613.767 917.163L631.428 915.803Z" fill="black"/>
    <path d="M1326 591.435L1324.8 600.695L1328.35 603.399L1331.58 603.099L1332.78 591.44L1329.99 589.432L1326 591.435Z" fill="black"/>
    <path d="M1140.27 426.535L1139.67 429.951L1126.3 441.078L1137.48 457.47L1144.64 462.484H1157.52L1161.77 458.929L1167.47 458.191L1171.72 460.753L1179.25 452.187L1177.79 447.895L1170.15 445.934L1164.93 445.68L1165.19 438.338L1158.26 427.44L1140.27 426.535Z" fill="black"/>
    <path d="M1124.97 442.555L1120.24 446.113H1117.93L1116.36 451.006L1121.95 457.497L1122.32 462.647L1119.97 465.975L1128.16 474.514L1137.02 471.811L1136.29 459.201L1124.97 442.555Z" fill="black"/>
    <path d="M1846.2 161.781L1850.27 175.82L1858.39 178.151L1866.52 165.293L1861.88 156.519L1863.61 148.92H1875.8L1872.89 154.764L1874.04 175.82L1856.63 219.087L1858.37 228.439L1857.79 244.23L1890.27 291.584L1896.64 293.339L1897.22 254.762L1903.59 248.917L1896.62 233.725L1902.42 227.282L1889.65 210.332L1882.68 210.911L1880.37 182.858L1898.35 178.17L1899.51 169.975L1908.8 167.644L1914.01 172.334L1920.38 146.609L1931.4 127.912L1940.1 123.222L1947.65 123.802V115.027L1935.46 112.695L1918.63 98.6567L1926.76 89.3081L1919.79 73.5144L1925.59 67.6729L1932.56 77.0214L1949.97 83.4613L1969.1 85.2161L1971.44 77.0401L1961.58 67.112L1972.59 51.9192L1947.63 43.1449L1941.26 56.0032L1933.14 45.4767L1887.31 29.683L1843.79 37.2794L1837.42 40.7891V44.2961L1846.7 48.9864L1845.54 60.0899L1828.72 53.0704L1791.6 67.6889L1785.22 54.251H1759.69L1748.07 66.535L1706.89 57.1838L1669.19 64.7801L1664.55 76.4658L1670.35 78.218L1669.77 86.9923L1633.22 91.0763L1635.56 102.762L1601.89 96.9178L1610.02 81.725L1575.79 79.9702L1578.7 95.7639L1567.69 101.029L1558.4 92.2542L1520.7 98.6967L1506.21 112.135L1505.63 120.308L1496.34 120.885L1495.19 111.536L1524.78 85.8171V68.2685L1505.65 63.0039L1480.69 71.1799L1470.26 60.6508H1465.62L1459.82 72.3338L1464.46 77.5984L1431.38 95.7265L1402.95 117.362L1385.54 141.326V151.254L1404.1 158.853L1394.82 165.87L1375.11 158.853L1366.98 165.87L1354.79 151.831L1352.46 157.098L1365.8 199.188L1369.29 200.364L1378.58 195.679L1383.21 199.186V206.782L1374.51 203.275L1369.29 207.359L1372.78 214.955L1369.87 234.836L1351.89 236.591L1350.73 230.148L1361.17 223.708L1363.5 206.16L1351.88 190.967L1347.82 164.668L1329.27 161.735L1327.54 171.084L1331.02 175.769L1323.48 182.211L1326.38 199.76L1337.4 204.448L1339.73 217.306L1328.69 210.289L1300.27 205.022L1296.79 214.376L1274.16 222.549L1270.67 216.708L1241.08 233.073L1240.5 244.179L1228.89 245.934L1232.37 237.76V229.585L1220.76 225.5L1213.21 228.433L1219.58 240.717L1224.22 248.891V255.333L1215.52 253.581L1213.79 251.826L1205.08 261.177L1209.72 269.353L1190 268.774L1196.38 276.971L1194.65 280.478H1184.22L1176.67 275.213L1174.94 260.598L1162.75 255.91V250.068L1188.29 255.336L1202.21 256.511L1208 247.737L1202.79 238.385L1165.67 223.77L1152.85 226.954L1148.47 230.72L1149.83 239.374L1155.28 240.319L1154.01 253.944L1170.81 293.424L1158.67 312.68L1157.83 317.02L1164 321.361L1158.43 325.033L1154.74 325.103L1155.44 342.072L1160.54 349.299L1160.61 356.316L1167.14 356.917L1177.13 360.726L1187.7 375.272L1187.82 379.105L1184.38 384.995L1192.28 384.557L1199.96 386.774L1210.35 401.48L1235.93 403.812L1234.82 421.313L1226.01 428.864L1227.83 431.815L1219.13 441.169L1216.82 449.941L1222.04 457.54L1238.86 463.381L1245.84 459.294L1290.51 476.245L1292.24 471.554L1282.96 462.786V451.679L1277.16 449.925L1278.32 440.576L1287.6 429.47L1270.96 417.004L1272.11 399.664L1289.91 387.957L1310.8 389.135L1314.29 395.577L1335.76 396.753L1351.44 387.981L1343.31 379.207L1345.04 362.836L1385.64 342.958L1416.88 357.04L1427.31 347.691L1458.06 376.918L1481.26 374.586L1489.39 382.759L1511.44 385.091L1525.94 365.216L1544.5 373.411L1554.35 375.168L1564.21 366.394L1555.51 360.55L1563.06 348.867L1584.52 355.886L1589.16 365.237L1598.45 365.814L1604.24 361.73L1619.92 361.151L1621.64 365.237L1639.63 366.413L1651.81 353.554L1676.77 356.487L1684.32 353.554L1686.62 339.515L1679.08 322.565L1686.62 316.125H1710.4L1733.03 343.02L1762.02 359.391H1770.73L1771.88 352.374L1782.32 345.931L1783.47 383.934L1774.19 384.511V393.86L1779.41 400.302L1778.44 408.66L1782.29 410.257L1784.63 404.413L1788.11 405.591L1790.42 407.923L1800.86 405.591L1811.29 375.182L1812.45 337.176L1799.1 306.766L1782.28 286.314L1774.15 287.489V293.932L1754.43 286.333L1761.98 269.965L1768.35 226.697L1795.04 218.524L1807.8 210.35H1821.72L1818.22 215.035L1821.71 220.88L1833.89 208.021L1840.86 208.596L1839.71 200.999L1828.67 198.667L1836.22 171.191L1846.2 161.781Z" fill="black"/>
    <path d="M1119.92 365.12L1116.45 371.52L1128.91 371.634H1131.45L1130.97 368.023L1129.03 365.742L1119.92 365.12Z" fill="black"/>
    <path d="M1897.15 298.232L1894.29 301.79L1894.53 307.354L1897.18 307.124L1901.58 299.343L1897.15 298.232Z" fill="black"/>
    <path d="M1992.38 82.0322L1986.93 85.5873L1985.64 90.112L1988.2 93.0207L1993.97 91.0816L1999.74 93.0207L2002.95 93.9903L2002.63 83.3223L1992.38 82.0322Z" fill="black"/>
    <path d="M1222.55 82.9537L1226.52 84.551L1223.73 89.3535V96.1645L1217.77 99.7704H1211.43L1207.85 95.3606L1208.24 90.5581L1211.03 86.9522H1216.6L1222.55 82.9537Z" fill="black"/>
    <path d="M1237.65 78.5465V83.349L1241.62 86.5596L1247.18 86.1696L1251.96 81.7598V78.5492H1247.59L1244.01 79.7485L1241.22 76.5406L1237.65 78.5465Z" fill="black"/>
    <path d="M1260.32 78.9579L1263.11 84.9623L1268.68 85.355L1272.65 83.763L1270.67 78.1513L1265.49 76.9466L1260.32 78.9579Z" fill="black"/>
    <path d="M1282.97 70.9501L1278.6 70.1409L1274.63 74.1581L1276.62 77.7613L1277.82 83.373L1282.99 79.3772L1284.19 74.97L1282.97 70.9501Z" fill="black"/>
    <path d="M1307.21 113.411L1306 119.02L1296.86 127.034L1277.38 131.443L1261.47 157.878L1258.68 165.499L1274.59 169.519L1276.96 159.911L1281.74 145.09L1294.07 138.671L1304.41 130.658L1311.95 127.45H1315.93V116.643L1307.21 113.411Z" fill="black"/>
    <path d="M1255.93 171.893L1266.67 173.095L1270.25 185.513L1279.39 195.12L1276.21 201.536H1270.64L1265.47 195.532L1253.95 195.142L1249.18 188.723V184.313L1256.34 182.305L1255.93 171.893Z" fill="black"/>
    <path d="M1423.69 35.3055L1418.52 32.0923H1412.56L1411.37 35.6981L1405.02 39.304L1400.24 40.896L1399.45 45.6985L1410.58 46.5077L1423.69 35.3055Z" fill="black"/>
    <path d="M1436 36.5021L1433.21 42.5038L1427.64 42.1139L1418.89 48.5297L1416.52 56.5427H1422.08L1425.27 51.3262L1432.81 56.938L1439.97 53.7274L1445.15 49.3203L1443.16 42.5065L1440.37 37.704L1436 36.5021Z" fill="black"/>
    <path d="M1447.54 40.9119L1450.33 52.1329L1454.7 62.5419L1459.48 54.1388L1468.62 52.1302V46.1257L1462.67 41.716L1447.54 40.9119Z" fill="black"/>
    <path d="M1665.65 22.952L1671.86 28.1685L1676.27 26.3442L1677.56 19.0256L1668.51 12.7701L1662.55 16.6938L1648.06 18.0106V24.5413L1632.77 24.7977V35.4871L1650.64 48.786L1655.3 45.3912L1654.26 35.9919L1665.66 33.1312L1663.33 28.6974L1659.2 24.5226L1665.65 22.952Z" fill="black"/>
    <path d="M1682.23 16.6911L1686.36 24.5226L1702.43 22.6956L1706.84 16.9476L1705.8 11.9875L1701.39 10.1605L1697.26 13.3016L1685.34 15.9139L1682.23 16.6911Z" fill="black"/>
    <path d="M1681.19 47.2155L1673.15 45.1401L1668.51 50.1002L1666.44 56.8873L1677.31 55.8482L1685.6 51.6708L1681.19 47.2155Z" fill="black"/>
    <path d="M1889.39 2.07805L1882.66 0L1874.9 2.8633L1871.02 8.60866L1875.94 15.142L1888.89 9.39661L1891.48 6.5333L1889.39 2.07805Z" fill="black"/>
    <path d="M1891.86 311.809V321.598L1894.96 322.707L1897.17 319.149V311.598L1891.86 311.809Z" fill="black"/>
    <path d="M1801.58 276.437L1801.38 290.681L1819.24 318.273L1825.64 342.283L1836.91 363.64L1841.31 365.189L1845.07 362.07L1846.83 356.947L1830.72 339.377L1831.15 330.252L1834.68 328.709L1835.56 323.375L1804.01 278.675L1801.58 276.437Z" fill="black"/>
    <path d="M1926.08 232.178L1921.67 232.616L1924.33 236.404L1929.84 240.191L1931.39 238.412L1926.08 232.178Z" fill="black"/>
    <path d="M1934.67 234.86L1935.34 238.642L1942.17 240.65L1942.84 237.974L1934.67 234.86Z" fill="black"/>
    <path d="M1972.18 249.379L1975.06 254.553L1979.87 254.23L1980.83 250.672L1972.18 249.379Z" fill="black"/>
    <path d="M2020.59 257.457L2024.44 264.567L2027.32 261.338V256.49L2020.59 257.457Z" fill="black"/>
    <path d="M1199.47 778.174L1205.96 784.151L1205.68 790.551L1195.61 790.757V783.689L1199.47 778.174Z" fill="black"/>
    <path d="M1306.07 578.088L1322.26 600.639L1327.47 604.801L1329.81 614.911L1354.72 616.871L1357.53 618.351L1354.74 630.816L1338.37 640.467L1314.43 647.719L1301.67 660.187L1286.5 651.341L1277.32 659.378L1264.52 638.482L1255.75 634.465L1252.57 629.639V619.179L1220.64 580.577L1219.44 573.737H1228.62L1239.8 564.092L1240.19 559.263L1237.01 556.055L1243.4 550.838L1256.98 551.648L1280.13 570.948L1293.8 570.329L1294.68 573.702L1306.07 578.088Z" fill="black"/>
    <path d="M2011.05 823.45L2013.92 831.412L2018.97 836.332L2020.49 834.97L2019.99 829.703L2014.26 822.75L2011.05 823.45Z" fill="black"/>
    <path d="M2025.02 835.315L2025.37 840.579L2028.58 843.627L2031.61 841.757L2028.9 836.143L2025.02 835.315Z" fill="black"/>
    <path d="M2029.06 848.387L2026.36 851.274L2029.22 856.536L2032.59 857.554L2032.43 853.998L2029.06 848.387Z" fill="black"/>
    <path d="M2035.64 845.336L2038 851.108L2042.54 856.531L2045.06 852.468L2041.69 846.696L2035.64 845.336Z" fill="black"/>
    <path d="M2047.44 853.993L2048.77 861.127L2051.99 865.535L2054.69 859.947L2047.44 853.993Z" fill="black"/>
    <path d="M2051.13 869.95L2049.96 871.98L2053.83 877.084L2056.54 877.25L2054.85 870.62L2051.13 869.95Z" fill="black"/>
    <path d="M2042.54 880.108L2038.5 881.977L2042.03 886.9L2045.06 885.191L2042.54 880.108Z" fill="black"/>
    <path d="M1348.44 820.747L1347.04 823.584L1350.89 826.768L1353.71 823.584L1348.44 820.747Z" fill="black"/>
    <path d="M1368.13 799.51L1363.9 802.346L1367.07 807.307H1371.3L1368.13 799.51Z" fill="black"/>
    <path d="M1369.88 811.906L1367.07 815.092L1369.17 818.276L1373.02 818.995L1373.36 812.259L1369.88 811.906Z" fill="black"/>
    <path d="M1162.74 703.663L1155.93 699.646L1149.72 687.386L1150.07 675.978L1158.68 668.574L1159.09 641.255L1164.77 641.42L1164.13 626.249L1223.69 626.778L1232.21 618.191L1250.58 647.582L1240.51 659.447V677.57L1228.23 703.989L1225.45 710.132L1215.55 695.933L1208.32 705.124L1200.15 707.352L1173.6 704.681L1162.03 708.797L1162.74 703.663Z" fill="black"/>
    <path d="M1106.89 234.86L1111.41 239.035H1119.89L1124.55 247.993L1125.83 263.346L1114.4 271.453V279.554L1106.34 290.66L1101.68 291.071L1095.33 301.739L1095.74 311.991L1106.76 320.097L1105.91 324.782L1101.68 331.182L1095.33 336.722L1095.75 355.077L1086.01 358.493L1082.61 365.739H1077.95L1075.41 352.948L1064.81 336.698L1073.52 322.127L1074.12 286.13L1080.12 282.829L1081.58 262.238L1098.68 237.739L1106.89 234.86Z" fill="black"/>
    <path d="M1108.67 340.116L1103.8 343.971L1106.25 349.628L1110.57 345.426L1108.67 340.116Z" fill="black"/>
    <path d="M1675.96 764.215L1677.79 765.254L1681.93 764.918L1681.58 761.8L1678.21 762.332L1675.96 764.215Z" fill="black"/>
    <path d="M1100.15 436.671L1094.29 440.181L1083.35 442.579L1085.54 448.904L1093.2 448.995L1100.27 443.084L1100.15 436.671Z" fill="black"/>
    <path d="M1102.55 425.45L1104.15 426.858L1104.35 429.256L1121.97 428.866L1134.99 423.252L1134.78 417.549L1132.29 418.658L1128.71 416.74L1126.52 416.646L1120.75 418.957L1112.9 417.063L1102.55 425.45Z" fill="black"/>
    <path d="M913.463 716.364L926.506 728.971L935.808 717.681L929.989 708.559L921.977 709.368L913.463 716.364Z" fill="black"/>
    <path d="M912.448 686.932L896.98 686.555L899.843 693.508L901.434 689.216L920.853 691.248L923.005 691.173L932.099 691.494L932.422 687.477L924.114 677.506L914.854 664.971L909.107 662.572L904.671 663.705L895.578 670.307L893.505 674.004L892.859 677.698L896.205 680.099L907.382 679.936L914.561 677.992L915.37 681.523L914.726 686.187L912.448 686.932Z" fill="black"/>
    <path d="M1324.47 695.399L1334.56 691.521L1338.14 693.668L1337.75 702.627L1328.45 729.131L1278.1 783.059L1272.25 779.045L1271.86 756.285L1279.43 747.577L1295.51 742.617L1319.07 717.729L1325.24 712.232L1326.97 704.197L1324.47 695.399Z" fill="black"/>
    <path d="M634.593 734.861L639.302 739.177L646.595 734.652L653.245 734.861L652.39 737.446L649.597 743.266L649.159 757.746L635.886 763.147L636.532 753.862L627.967 745.873L628.405 741.765L634.593 734.861Z" fill="black"/>
    <path d="M1224.68 711.633L1219.23 714.032L1220.96 723.522H1227.75L1236.96 736.888L1229.57 737.833L1227.67 741.274L1227.49 746.234L1205.33 745.844L1203.06 742.404L1187.57 741.527L1159.13 712.248L1161.97 710.538L1174.04 706.895L1200.47 708.909L1209.46 706.895L1215.43 698.893L1224.68 711.633Z" fill="black"/>
    <path d="M1044.61 771.825L1047.26 770.484L1049.25 772.097L1047.26 775.164L1044.86 774.218L1044.61 771.825Z" fill="black"/>
    <path d="M1049.94 763.395L1053.94 762.725L1055.28 765.265L1053.29 767.415L1051.31 767.137L1049.94 763.395Z" fill="black"/>
    <path d="M423.409 677.439L434.257 682.84L434.094 674.274L428.531 670.879L423.409 677.439Z" fill="black"/>
    <path d="M1219.9 522.421L1219.09 528.287L1225.6 531.014L1225.32 547.27L1231.83 547.128L1238.34 542.208L1240.79 541.794L1255.56 530.047L1258.54 512.979L1229.01 515.984L1225.9 522.819L1219.9 522.421Z" fill="black"/>
    <path d="M1206.51 949.258L1200.71 950.222L1198.22 957.038L1202.65 961.08H1208.03L1212.57 954.546L1206.51 949.258Z" fill="black"/>
    <path d="M1095.51 676.814L1095.81 669.998L1106.76 659.359L1109.69 633.223L1102.4 619.278L1107.5 616.663L1156.9 642.409L1156.6 667.666L1147.9 675.078V688.099L1153.6 699.136H1143.53L1126.87 715.624L1126.43 720.611L1114.13 720.448L1113.97 722.707L1106.95 721.786L1102.15 712.712L1098.54 710.934L1099 708.164L1103.53 704.699V688.497L1097.27 687.527L1089.72 681.913L1095.51 676.814Z" fill="black"/>
    <path d="M1008.78 735.114L1014.97 731.492L1014.83 707.597L1010.81 701.086L1008.23 703.254L1008.78 735.114Z" fill="black"/>
    <path d="M1643.19 617.87L1650.67 627.496V639.206L1653.25 640.494L1665.14 634.767L1667.47 635.552L1681.67 651.947L1681.16 663.144L1676.53 662.359L1672.39 659.744L1669.3 660.003L1663.87 669.095L1664.92 674.039L1669.3 676.371L1669.05 681.844L1665.96 683.414L1655.36 676.12V669.608L1650.97 669.354L1649.17 672.212L1648.24 701.35L1655.1 713.866L1667.24 725.573L1666.74 728.968L1660.27 728.717L1654.34 719.873H1648.13L1640.38 713.61L1638.04 707.101L1641.39 701.628L1642.55 696.684L1646.19 690.217L1646.03 675.353L1637.12 662.471L1636.75 660.9L1639.64 657.991L1638.97 647.761L1627.1 632.732L1628.49 624.075L1643.19 617.87Z" fill="black"/>
    <path d="M1412.71 482.5L1422.19 470.726H1425.77L1427.02 473.355L1422.63 476.539V479.17L1425.52 481.245L1439.39 482.078L1443.91 480.136L1445.97 480.548L1447.36 484.982L1455.6 485.815L1459.73 494.541L1458.49 497.172L1456.85 497.314L1455.21 493.988L1451.63 493.711L1445.45 494.544L1445.03 500.367L1438.85 499.953L1439.12 492.607L1434.6 488.179L1427.72 493.855L1427.86 497.594L1421.81 499.672H1418.23L1418.51 486.787L1412.71 482.5Z" fill="black"/>
    <path d="M1328.81 472.69L1327.39 478.761H1317.8V486.982L1328.1 493.769L1324.92 503.07V507.365L1329.19 508.083L1334.87 500.575L1347.66 497.717L1374.99 508.083L1375.33 515.586L1390.59 517.018L1407.63 499.127L1405.5 493.398L1394.15 490.901L1362.19 470.144L1360.77 462.639H1348.69L1343.36 472.663H1338.03L1328.81 472.69Z" fill="black"/>
    <path d="M1054.24 518.265L1067 513.118L1071.2 515.843L1071.37 519.165L1069.41 521.727L1069.7 526.276L1071.67 527.333V535.509L1069.4 539.297L1069.7 541.722L1078.26 544.746L1071.36 555.483L1068.66 555.32L1068.2 563.953L1065.2 564.418L1062.64 562.15L1063.24 553.378L1054.83 545.202L1053.77 538.092L1057.84 534.908L1054.24 518.265Z" fill="black"/>
    <path d="M1180.55 481.624L1174.39 477.815L1171 475.11L1165.29 477.556L1161.35 487.546L1167.27 486.21L1171.44 483.037L1180.63 485.543L1175.43 490.556L1161.61 489.888L1156.51 495.479V498.206L1159.76 500.933V503.933L1158.4 507.49L1159.76 510.49L1164.1 508.321L1168.44 512.961L1167.36 516.241L1165.75 518.431L1168.17 521.158L1180.08 523.605L1188.47 520.049V514.876L1192.53 515.685L1202.27 521.412L1212.81 519.772L1217.41 515.41L1220.39 516.494V521.412H1224.45L1227.95 514.601L1258.8 511.318L1272.26 509.681L1268.7 505.017L1268.64 498.716L1271.34 495.484L1261.5 487.589L1262.03 480.775H1256.63L1247.67 476.386L1242.52 481.838L1223.59 481.28L1212.23 474.471L1201.33 475.449L1189.2 482.738L1180.55 481.624Z" fill="black"/>
    <path d="M609.452 697.084L607.003 699.347L604.348 699.761V703.041L609.243 707.547L611.273 704.264L612.496 700.57L612.08 697.501L609.452 697.084Z" fill="black"/>
    <path d="M1775.77 566.707L1767.6 572.941L1767.16 584.944L1774.23 593.166L1775.98 591.617L1775.77 566.707Z" fill="black"/>
    <path d="M1232.38 850.521L1269.23 846.007L1260.16 828.461L1259.68 811.655L1262.61 803.618L1224.24 779.517L1212.22 781.502L1208.04 784.595L1207.67 791.638L1204.97 801.404L1202.15 804.75L1198.1 805.127L1205.61 830.283L1218.47 837.863L1229.67 838.13L1232.38 850.521Z" fill="black"/>
    <path d="M1148.1 393.173L1141.41 396.937L1143.07 404.05L1136.88 417.095L1136.94 422.841L1139.84 424.686L1158.49 425.61L1163.71 421.297L1169.3 423.164L1177.31 433.853L1171.45 444.382L1178.42 446.415L1187.54 435.91L1192.76 436.855L1197.6 440.226L1193.33 445.859L1199.1 454.863H1205.24L1208.4 448.859L1214.91 447.539L1215.1 442.67L1203 440.8L1203.38 435.557H1215.1L1227.75 425.423L1233.34 420.551L1234.26 405.174L1209.33 402.936L1199.1 388.507L1192.04 386.082L1183.47 386.453L1179.62 395.986L1162.07 396.218L1156.37 393.585L1148.1 393.173Z" fill="black"/>
    <path d="M1200.58 776.301L1207.57 782.856L1211.96 780.065L1223.82 778.12L1225.86 778.331L1226.62 773.823L1233.31 759.741L1227.68 748.01L1209.42 748.127L1209.31 752.957L1211.76 755.313L1211.39 760.139L1200.58 776.301Z" fill="black"/>
    <path d="M301.309 358.979L298.998 368.261L290.941 363.042H286.924L284.614 372.9L256.428 436.07L263.909 491.109L273.12 495.749L274.85 510.826H293.825L312.224 524.726L348.443 528.212L352.46 546.752L358.207 550.814L366.264 542.713L372.591 545.598L378.338 572.244L388.102 578.617L396.16 563.539L420.885 545.574L436.975 553.098L450.78 554.254L451.357 545.574L480.098 546.153L485.846 552.526L486.999 567.003L483.559 575.107L487.576 589.004H496.21L504.842 575.684L501.402 569.311L497.962 555.411L503.133 539.759L526.704 519.486L544.525 514.269L542.218 497.461L566.943 470.796L591.668 466.733L587.651 452.863L611.799 438.96V420.423L609.489 419.267L600.855 422.157L599.701 433.514L571.005 433.858L548.521 448.8L513.222 460.344L507.59 453.437L523.611 429.195L515.693 421.646L510.314 411.395L499.164 402.437L487.045 401.422L464.144 385.791L301.309 358.979Z" fill="#f2f2f2"/>
    <path d="M117.573 116.571L125.561 131.513L130.686 130.359V125.182L117.573 116.571Z" fill="#f2f2f2"/>
    <path d="M72.5322 247.969L72.1396 254.919L77.1258 253.765V250.672L72.5322 247.969Z" fill="#f2f2f2"/>
    <path d="M64.8702 251.062L54.8979 256.097L56.4443 261.498L60.2767 258.405L67.9414 254.916L64.8702 251.062Z" fill="#f2f2f2"/>
    <path d="M23.4324 257.622L16.5314 256.076L15.3777 259.169L16.1388 264.962L23.4324 257.622Z" fill="#f2f2f2"/>
    <path d="M8.84254 257.248L2.31012 254.55L0 258.797L4.22497 263.047L8.84254 257.248Z" fill="#f2f2f2"/>
    <path d="M172.84 97.0406L153.472 101.637L157.467 123.454L178.544 129.2L179.674 133.794L148.347 143.562L130.686 172.836L136.943 203.844L147.193 210.724L155.181 203.264L157.467 207.861L147.773 219.336L110.165 236.561L86.2248 242.307L85.6479 250.921L140.914 234.852L163.701 228.524L184.777 202.685L208.14 187.193L196.181 207.281L209.294 209.01L231.525 199.244L235.52 215.316L250.895 218.756L266.847 234.248L267.976 245.723L265.693 248.586L268.532 259.484H272.527L273.104 241.105H277.652L278.782 286.45L290.188 276.682L282.2 229.606H270.241L257.128 212.963L321.512 103.868L257.705 53.9305L186.487 67.7155L183.648 89.5324L199.023 98.718L193.321 113.66L172.84 97.0406Z" fill="#f2f2f2"/>
    <path d="M651.282 990.653L646.547 995.712L648.51 1022.91L663.375 1027.22L682.283 1008.27L651.282 990.653Z" fill="black"/>
    <path d="M1409.78 499.175L1416.88 499.544V487.375L1410.15 483.448L1421.51 469.137H1426.13L1430.74 474.519L1442.82 469.877L1426.13 464.15L1425.48 460.686L1421.51 461.656L1417.61 468.443L1400.78 467.89L1388.43 450.413L1366.73 452.558L1356.39 442.307L1342.08 439.887L1331.69 444.112L1337.72 464.15L1337.78 470.892L1342.17 470.986L1347.55 460.732L1361.86 460.913L1363.98 468.785L1394.66 489.151L1406.53 491.878L1409.78 499.175Z" fill="#f2f2f2"/>
    <path d="M609.059 681.085L606.22 683.142L608.461 687.252L612.13 685.196L609.059 681.085Z" fill="black"/>
    <path d="M605.595 689.074L602.94 691.729L603.955 693.364H607.211L608.226 690.685L605.595 689.074Z" fill="black"/>
    <path d="M536.089 699.718L537.104 705.698L544.606 708.081L546.315 697.066L554.233 688.871L562.152 698.153L580.366 703.118L595.786 699.884L606.29 712.835L614.208 717.798L605.529 731.028L608.437 741.049L603.475 747.19L598.326 751.506L587.176 745.892L584.615 748.48V756.466L592.766 760.345L586.762 766.835L580.758 773.326L572.84 772.68L564.876 763.932L563.191 731.009L535.995 721.724L531.055 707.248L536.089 699.718Z" fill="black"/>
    <path d="M1677.89 696.323L1680.63 700.64L1681.14 705.584L1688.36 706.369L1697.14 694.662L1705.4 692.33L1709.79 680.369L1707.73 661.114L1699.22 649.404L1690.24 642.224L1678.81 622.595L1687.01 608.879L1675.27 595.42L1665.88 595.009L1657.43 599.555L1659.95 610.429L1671.21 612.413L1674.24 620.795L1670.27 623.383L1670.52 625.458L1696.95 651.322L1697.99 658.918L1696.4 682.928L1677.89 696.323Z" fill="black"/>
    <path d="M2083.75 910.517L2080.89 914.35L2082.09 918.667L2083.52 919.633L2086.13 916.263L2083.75 910.517Z" fill="black"/>
    <path d="M2085.18 922.27L2085.41 925.387L2088.51 926.356L2090.66 925.157L2088.51 921.781L2085.18 922.27Z" fill="black"/>
    <path d="M2089.71 950.112L2088.27 952.281L2090.42 954.677L2094 953.481L2089.71 950.112Z" fill="black"/>
    <path d="M1278.35 661.183L1281.67 671.066V680.716L1289.66 687.965L1345.94 665.038L1346.47 658.737L1337.44 642.532L1314.8 649.759L1301.8 662.545L1286.72 653.635L1278.35 661.183Z" fill="black"/>
    <path d="M1342.13 685.241L1347.05 690.741L1353.7 686.723L1356.1 685.912L1353.05 682.96L1347.2 684.688L1342.13 685.241Z" fill="black"/>
    <path d="M1191.02 925.317L1172.78 942.174L1168.44 952.586L1153.99 950.785L1141.96 961.475L1133.97 960.69L1134.62 945.916L1131.78 944.923L1129.8 975.142L1115.62 975.004L1111.35 969.966L1105.09 969.902L1110.8 986.273L1120.98 995.899L1113.7 1004.37L1118.41 1014.99L1129.31 1019.16L1137.99 1011.76L1162.86 1011.91L1164.64 1009.69L1175.67 1007.74L1213 970.572L1212.86 958.868L1208.87 964.042H1202.89L1195.62 957.947L1199.31 948.758L1205.66 947.471L1205.09 928.584L1191.02 925.317ZM1182.27 968.03L1185.76 967.891L1191.41 974.031L1191.25 981.142L1184.62 984.488L1184.21 986.847L1174.1 986.962L1170.93 979.341L1173.82 973.754L1182.27 968.03Z" fill="black"/>
    <path d="M1145.75 881.609L1153.06 891.764L1164.4 892.461L1168.41 894.675L1180.28 894.817L1190.5 880.482L1219.08 867.69L1221.58 856.421L1218.26 840.28L1203.34 831.784L1193.39 832.478L1188.43 843.467L1188.57 848.478L1200.3 854.183L1200.99 866.582L1190.91 867.137L1188.42 862.96L1160.39 850.996L1159.56 860.185L1146.3 860.599L1145.75 881.609Z" fill="black"/>
    <path d="M1169.09 899.157L1189.8 922.547L1205.68 926.589L1216.32 909.9L1215.49 887.781L1198.22 878.868L1191.73 881.801L1182.06 896.556L1168.67 896.414L1169.09 899.157Z" fill="black"/>
</svg>
