<?xml version="1.0" encoding="UTF-8"?> <svg xmlns="http://www.w3.org/2000/svg" width="533" height="86" viewBox="0 0 533 86" fill="none"><g clip-path="url(#clip0_502_2)"><path d="M54.44 1.90995V3.33995C54.44 3.93995 54.08 4.29995 53.48 4.29995H28.77C28.53 4.29995 28.41 4.41995 28.41 4.65995V83.57C28.41 84.17 28.05 84.53 27.45 84.53H25.78C25.18 84.53 24.82 84.17 24.82 83.57V4.65995C24.82 4.41995 24.7 4.29995 24.46 4.29995H0.96C0.36 4.29995 0 3.93995 0 3.33995V1.90995C0 1.30995 0.36 0.949951 0.96 0.949951H53.49C54.08 0.959951 54.44 1.30995 54.44 1.90995Z" fill="white"></path><path d="M122.37 83.69L103.5 44.77C103.38 44.53 103.26 44.41 103.02 44.41H78.7902C78.5502 44.41 78.3102 44.65 78.3102 44.89V83.33C78.3102 84.05 77.8302 84.52 77.1202 84.52H74.8502C74.1302 84.52 73.6602 84.04 73.6602 83.33V1.90997C73.6602 1.18997 74.1402 0.719971 74.8502 0.719971H104.1C117.23 0.719971 125.95 9.66997 125.95 22.81C125.95 34.15 119.14 42.39 108.52 44.06C108.16 44.18 108.04 44.42 108.16 44.66L126.78 83.1C127.14 83.94 126.78 84.53 125.94 84.53H123.79C123.2 84.52 122.61 84.29 122.37 83.69ZM78.3102 5.48997V39.87C78.3102 40.11 78.5502 40.35 78.7902 40.35H103.98C114.37 40.35 121.29 33.19 121.29 22.8C121.29 12.17 114.37 5.00997 103.98 5.00997H78.7902C78.5502 5.00997 78.3102 5.24997 78.3102 5.48997Z" fill="white"></path><path d="M143.85 58.74V2.50996C143.85 1.54996 144.45 0.959961 145.4 0.959961H150.77C151.73 0.959961 152.32 1.55996 152.32 2.50996V58.98C152.32 70.32 160.32 78.08 172.26 78.08C184.2 78.08 192.2 70.32 192.2 58.98V2.50996C192.2 1.54996 192.8 0.959961 193.75 0.959961H199.12C200.08 0.959961 200.67 1.55996 200.67 2.50996V58.74C200.67 74.86 189.33 85.48 172.26 85.48C155.31 85.48 143.85 74.85 143.85 58.74Z" fill="white"></path><path d="M216.91 62.2V59.33C216.91 58.26 217.63 57.54 218.7 57.54H226.34C227.42 57.54 228.13 58.26 228.13 59.33V61.6C228.13 69.48 235.41 75.57 247.35 75.57C258.69 75.57 263.94 70.2 263.94 63.03C263.94 55.51 257.49 52.17 243.52 46.55C229.91 41.3 217.97 36.52 217.97 21.96C217.99 8.12 228.61 0 245.21 0C263.12 0 274.7 9.55 274.7 23.76V25.55C274.7 26.62 273.98 27.34 272.91 27.34H265.15C264.08 27.34 263.36 26.74 263.36 25.79V24.36C263.36 16.36 256.79 9.91 244.74 9.91C234.83 9.91 229.22 14.09 229.22 21.73C229.22 29.73 235.43 32.36 249.52 37.73C262.77 42.86 275.43 48.12 275.43 62.68C275.43 76.29 264.57 85.48 246.54 85.48C228.49 85.48 216.91 76.29 216.91 62.2Z" fill="white"></path><path d="M346.21 2.86996V11.11C346.21 12.3 345.49 13.02 344.3 13.02H322.93C322.45 13.02 322.21 13.26 322.21 13.74V82.62C322.21 83.81 321.49 84.53 320.3 84.53H310.27C309.08 84.53 308.36 83.81 308.36 82.62V13.73C308.36 13.37 308.12 13.01 307.64 13.01H287.1C285.91 13.01 285.19 12.29 285.19 11.1V2.86996C285.19 1.67996 285.91 0.959961 287.1 0.959961H344.29C345.49 0.959961 346.21 1.66996 346.21 2.86996Z" fill="white"></path><path d="M406.01 82.85L402.67 71.75C402.55 71.27 402.31 71.15 401.95 71.15H372.7C372.34 71.15 372.1 71.27 371.98 71.75L368.64 82.85C368.28 83.93 367.57 84.52 366.37 84.52H352.52C351.09 84.52 350.37 83.56 350.85 82.25L376.28 2.61995C376.64 1.54995 377.35 0.949951 378.55 0.949951H396.1C397.29 0.949951 398.01 1.54995 398.37 2.61995L423.8 82.25C424.28 83.56 423.56 84.52 422.13 84.52H408.28C407.09 84.52 406.37 83.93 406.01 82.85ZM376.76 58.1399H397.89C398.37 58.1399 398.61 57.8999 398.49 57.2999L387.75 20.8899C387.51 20.2899 387.03 20.2899 386.79 20.8899L376.17 57.2999C376.05 57.8999 376.29 58.1399 376.76 58.1399Z" fill="white"></path><path d="M435.02 82.26V3.21995C435.02 1.78995 435.85 0.949951 437.29 0.949951H467.49C487.07 0.949951 500.2 11.6899 500.2 27.8099V57.66C500.2 73.78 487.07 84.52 467.49 84.52H437.29C435.86 84.52 435.02 83.69 435.02 82.26ZM458.42 65.3H468.33C473.7 65.3 477.52 60.76 477.76 53.84V31.6399C477.76 24.7199 473.94 20.18 468.21 20.18H458.42C457.82 20.18 457.46 20.5399 457.46 21.1399V64.36C457.46 64.95 457.82 65.3 458.42 65.3Z" fill="white"></path><path fill-rule="evenodd" clip-rule="evenodd" d="M528.64 18.3C531.96 16.88 533.55 13.03 532.18 9.68002C531.2 7.27002 528.87 5.67002 526.26 5.65002C523.9 5.63002 521.91 7.01002 521.4 9.35002C519.58 8.62002 517.83 8.13002 516.05 7.63002C515.02 7.34002 513.97 7.04002 512.9 6.70002C515.54 5.92002 517.47 4.33002 519.49 2.57002C516.66 0.990016 513.76 -0.379983 510.41 0.120017C508.33 0.430017 506.59 1.50002 505.48 3.38002L504.71 2.91002L503.63 4.17002C507.04 8.09002 508.58 11.44 510.04 14.65C510.81 16.34 511.57 17.99 512.57 19.67C510.34 20.53 509.28 22.71 509.66 25.04C510.08 27.59 512.01 29.67 514.56 30.27C518.08 31.1 521.64 28.94 522.54 25.44C523.37 22.2 521.34 18.13 517.86 17.67C516.45 17.48 515.13 17.98 514.05 18.86C513.08 17.22 512.33 15.6 511.57 13.94C510.49 11.59 509.38 9.16002 507.55 6.48002C510.15 7.60002 512.87 8.46002 515.6 9.23002C517.36 9.73002 519.08 10.21 520.85 10.92C520.15 12.11 519.85 13.47 520.26 14.87C521.24 18.24 525.57 19.62 528.64 18.3Z" fill="white"></path></g><defs><clipPath id="clip0_502_2"><rect width="532.67" height="85.48" fill="white"></rect></clipPath></defs></svg> 