<svg id="black" xmlns="http://www.w3.org/2000/svg" viewBox="0 0 200 70"><defs><style>.cls-1{fill:none;stroke:#000;stroke-miterlimit:10;stroke-width:4.5px;}</style></defs><title>logo_text</title><polygon class="cls-1" points="194 42.38 6.67 65.3 6.67 27.44 194 4.52 194 42.38"/><path d="M20.05,58l-5.18.62L11.78,32.64,17,32l.8,6.79,2.52,2.26,6.8-10.26L33.72,30l-9.8,14.29L36.8,56l-6.89.82-11.2-10.1Z"/><path d="M65.75,52.45l-5.62.67L45.86,49.57,44.25,55l-5.65.67,8-27.18,5-.6ZM50,35.54l-2.52,8.6,8.87,2.32Z"/><path d="M92.39,49.17l-5.21.62L84.09,23.9l5.15-.61,9.45,12.57,6.22-14.44,5.12-.6,3.08,25.89-5.18.62-1.84-15.45-3.79,8.79,5.06,6.73-6,.71-1.46-1.94-1,2.22-6,.72,3.35-7.72-5.76-7.67Z"/><path d="M142.13,43.16l-5.62.66-14.27-3.54-1.6,5.42-5.65.67,8-27.15,5-.59Zm-15.76-16.9-2.52,8.59,8.87,2.32Z"/><path d="M158.86,32.63l7.36,7.65-6.49.77L152.92,34l-4.58.55.93,7.77-5.18.61L142.55,30l5.81-.69-6.73-7L141,17l12.45-1.48a9.14,9.14,0,0,1,5.41,17.13Zm-4-4.13.13,0a3.93,3.93,0,0,0-.93-7.8l-6,.71Z"/><path d="M179.41,38.8c-5.25.6-10.72-1.68-11.29-6.24l-.06-.49,5.18-.58.06.48c.18,1.44,3.17,2.15,5.49,1.88a6.82,6.82,0,0,0,4.52-2.07L166.88,22.6l-.16-1.25c-.56-4.5,4-8,9.44-8.6s10.72,1.71,11.29,6.24l.06.48-5.18.59-.06-.48c-.18-1.44-3.17-2.15-5.49-1.88a7,7,0,0,0-4.52,2.07L188.69,29l.15,1.25C189.4,34.67,184.82,38.18,179.41,38.8Z"/><polygon points="85.26 50 84.62 44.85 72.14 46.33 69.67 25.68 64.49 26.29 67.58 52.09 85.26 50"/></svg>