<svg width="34" height="28" viewBox="0 0 34 28" fill="none" xmlns="http://www.w3.org/2000/svg">
    <path fill-rule="evenodd" clip-rule="evenodd" d="M12.205 18.267h4.336v-8.52h-4.336a4.246 4.246 0 00-3.007 1.251 4.25 4.25 0 00-1.25 3.011 4.27 4.27 0 004.257 4.258zM21.981 9.834a4.26 4.26 0 100 8.518 4.26 4.26 0 000-8.518z" fill="#fff"/>
    <path opacity=".5" fill-rule="evenodd" clip-rule="evenodd" d="M16.533 19.481h-4.411v.009a4.255 4.255 0 00.16 8.509 4.256 4.256 0 004.25-4.042h.001v-.048c.003-.056.009-.112.009-.168 0-.057-.006-.113-.009-.17v-4.09z" fill="#fff"/>
    <path d="M16.39 0h-3.828c-2.538 0-4.615 1.9-4.615 4.221 0 2.322 2.077 4.222 4.615 4.222h3.828V0z" fill="#fff"/>
    <path opacity=".5" d="M18 8.443h3.83c2.537 0 4.613-1.9 4.613-4.222C26.443 1.9 24.366 0 21.83 0H18v8.443z" fill="#fff"/>
</svg>