<svg width="46" height="28" viewBox="0 0 46 28" fill="none" xmlns="http://www.w3.org/2000/svg"><g clip-path="url(#clip0)"><path d="M10.874 7.303h8.662v.696h-7.868v5.236h7.398v.696h-7.398v5.749h7.958v.696h-8.752V7.303zm9.437 0h.92l4.08 5.749 4.168-5.75L35.148 0l-9.316 13.656 4.8 6.72h-.956L25.31 14.26l-4.385 6.116h-.938l4.836-6.72-4.511-6.353zm10.665.696v-.696h9.87v.696H36.3v12.377h-.794V7.999h-4.53zM.038 7.303h.993L14.716 28 9.06 20.376.868 8.29.832 20.376H.038V7.303zm40.73 12.167a.282.282 0 01-.285-.291c0-.164.122-.291.284-.291.164 0 .284.127.284.29a.28.28 0 01-.284.292zm.779-.766h.425c.006.232.174.389.421.389.276 0 .433-.168.433-.483v-1.993h.432v1.995c0 .567-.324.893-.861.893-.504 0-.85-.316-.85-.801zm2.277-.025h.429c.036.267.295.437.668.437.347 0 .602-.182.602-.432 0-.214-.162-.344-.53-.431l-.36-.088c-.504-.12-.734-.366-.734-.78 0-.502.406-.837 1.014-.837.566 0 .98.335 1.004.81h-.42c-.041-.26-.265-.423-.59-.423-.342 0-.57.167-.57.42 0 .202.147.317.51.403l.307.076c.572.135.808.37.808.794 0 .539-.414.877-1.074.877-.618 0-1.033-.322-1.064-.826z" fill="#fff"/></g><defs><clipPath id="clip0"><path fill="#fff" d="M0 0h46v28H0z"/></clipPath></defs></svg>