<svg width="31" height="28" viewBox="0 0 31 28" fill="none" xmlns="http://www.w3.org/2000/svg"><g clip-path="url(#clip0)" fill="#fff"><path d="M25.488 9.075c-.33-.115-.662-.221-.998-.319.056-.23.107-.46.155-.69.755-3.724.261-6.722-1.426-7.71-1.617-.946-4.262.04-6.933 2.4-.263.234-.52.473-.772.72-.168-.164-.34-.325-.513-.482C12.2.471 9.395-.593 7.71.397c-1.616.95-2.095 3.77-1.415 7.297.068.35.144.697.23 1.043-.398.114-.781.236-1.148.366C2.096 10.265 0 12.085 0 13.973c0 1.95 2.25 3.907 5.669 5.093.277.096.556.185.838.266-.092.372-.173.747-.244 1.124-.648 3.466-.142 6.219 1.47 7.163 1.664.974 4.457-.028 7.177-2.441.215-.191.43-.393.647-.605.272.266.552.525.838.776 2.635 2.301 5.237 3.23 6.847 2.285 1.663-.978 2.203-3.935 1.501-7.532a17.564 17.564 0 00-.185-.842c.196-.058.388-.12.576-.182C28.688 17.883 31 15.95 31 13.974c0-1.896-2.164-3.729-5.512-4.899zm-8.332-5.304c2.288-2.022 4.427-2.82 5.402-2.25 1.038.608 1.442 3.059.79 6.273-.043.21-.09.418-.14.625a31.286 31.286 0 00-4.145-.664 31.493 31.493 0 00-2.62-3.32c.232-.228.47-.449.713-.664zM9.153 15.587a39.707 39.707 0 001.852 3.244 27.8 27.8 0 01-2.857-.466c.274-.897.611-1.83 1.005-2.778zm-.001-3.162a29.965 29.965 0 01-.985-2.723 29.474 29.474 0 012.81-.49 39.603 39.603 0 00-1.825 3.213zm.704 1.58a37.846 37.846 0 012.822-4.966 36.957 36.957 0 015.65.002 40.59 40.59 0 011.494 2.42c.472.827.918 1.67 1.336 2.526a40.766 40.766 0 01-1.332 2.547c-.47.828-.965 1.64-1.487 2.436-.92.067-1.87.101-2.839.101-.965 0-1.903-.03-2.807-.09a38.219 38.219 0 01-2.837-4.975zm11.117 3.2c.312-.548.612-1.104.9-1.667.393.904.74 1.828 1.04 2.769-.954.218-1.92.385-2.892.5.328-.527.645-1.061.952-1.601zm.887-4.78a46.916 46.916 0 00-.892-1.637 42.813 42.813 0 00-.943-1.574c.99.127 1.937.295 2.827.502-.286.92-.617 1.824-.992 2.71zm-6.345-7.029c.645.714 1.253 1.46 1.824 2.236a38.415 38.415 0 00-3.664-.001 29.549 29.549 0 011.84-2.235zM8.374 1.561c1.037-.61 3.33.26 5.747 2.438.155.14.31.285.465.436a32.143 32.143 0 00-2.64 3.318 31.911 31.911 0 00-4.137.653c-.08-.322-.15-.645-.213-.97-.583-3.023-.196-5.303.778-5.875zM6.862 18.037a16.106 16.106 0 01-.765-.243 11.164 11.164 0 01-3.616-1.95 2.76 2.76 0 01-.77-.813 2.805 2.805 0 01-.387-1.058c0-1.145 1.683-2.607 4.49-3.6.352-.125.708-.238 1.067-.341a32.544 32.544 0 001.511 3.974 33.038 33.038 0 00-1.53 4.031zm7.177 6.128a11.193 11.193 0 01-3.47 2.206 2.704 2.704 0 01-2.175.083c-.978-.573-1.384-2.783-.83-5.747.066-.35.142-.699.227-1.045 1.377.3 2.773.505 4.178.614a32.618 32.618 0 002.66 3.337c-.192.19-.389.373-.59.552zm1.512-1.52a30.149 30.149 0 01-1.865-2.265c.594.024 1.198.036 1.814.036.632 0 1.256-.015 1.871-.043a28.493 28.493 0 01-1.82 2.273zm8.042 1.871a2.811 2.811 0 01-.308 1.084 2.77 2.77 0 01-.707.87c-.977.574-3.066-.172-5.319-2.14a19.097 19.097 0 01-.78-.722 31.517 31.517 0 002.599-3.35 30.494 30.494 0 004.198-.656c.064.259.12.512.168.76.3 1.364.351 2.772.15 4.154zm1.125-6.714c-.17.057-.344.112-.521.165a31.844 31.844 0 00-1.57-3.987 31.825 31.825 0 001.509-3.929c.317.094.625.192.921.296 2.869 1.002 4.619 2.484 4.619 3.626 0 1.217-1.89 2.796-4.958 3.829z"/><path d="M15.5 11.163a2.74 2.74 0 011.538.474c.455.308.81.747 1.02 1.26a2.85 2.85 0 01.157 1.625 2.823 2.823 0 01-.757 1.438c-.387.394-.88.661-1.418.77a2.73 2.73 0 01-1.6-.16 2.778 2.778 0 01-1.242-1.035 2.841 2.841 0 01.345-3.549 2.747 2.747 0 011.957-.823z"/></g><defs><clipPath id="clip0"><path fill="#fff" d="M0 0h31v28H0z"/></clipPath></defs></svg>