<svg id="Layer_1" data-name="Layer 1" xmlns="http://www.w3.org/2000/svg" xmlns:xlink="http://www.w3.org/1999/xlink" viewBox="0 0 381.11 291.05">
    <defs>
        <style>.cls-1{fill:url(#linear-gradient);}</style>
        <linearGradient id="linear-gradient" x1="225.94" y1="296.1" x2="615.95" y2="296.1" gradientUnits="userSpaceOnUse">
            <stop offset="0" stop-color="#2fc7e5"/>
            <stop offset="0.99" stop-color="#0e866c"/>
        </linearGradient>
    </defs>
    <path class="cls-1"
          d="M231.82,439l95.88-1.19,47.42-.52,47.18-.4c31.42-.28,62.64-.31,93.9,0l94.13,1.1-.92,1.72Q586.06,404.18,562.14,369c-7.94-11.76-16-23.46-24-35.17l-24.07-35.11c-16.11-23.36-32-46.85-48-70.31l-47.68-70.54h5.13l-11.66,17.59L400.12,193c-7.83,11.68-15.62,23.36-23.54,35l-23.71,34.91-24,34.92Zm-.53.28L323.6,297.51,347,261.67l23.64-35.85c7.86-12,15.85-23.87,23.8-35.78l11.95-17.85,12-17.79,2.59-3.83,2.54,3.83,47,71c15.59,23.72,31.23,47.41,46.68,71.21l23.27,35.65q11.64,17.82,23.36,35.59,23.49,35.51,47.42,70.71l1.15,1.7-2.07,0-95.25,1.1c-31.87.35-63.78.33-95.49.05L372.08,441l-47.28-.52Z"
          transform="translate(-231.29 -150.57)"/>
</svg>