<?xml version="1.0" encoding="UTF-8" standalone="no"?> <svg xmlns:dc="http://purl.org/dc/elements/1.1/" xmlns:cc="http://creativecommons.org/ns#" xmlns:rdf="http://www.w3.org/1999/02/22-rdf-syntax-ns#" xmlns:svg="http://www.w3.org/2000/svg" xmlns="http://www.w3.org/2000/svg" id="svg5439" version="1.1" viewBox="0 0 87.703659 15.155741" height="15.155741mm" width="87.703659mm"><defs id="defs5433"><clipPath id="clipPath5366"><rect transform="scale(1,-1)" y="-485.2576" x="172.96838" height="43.014454" width="249.38821" id="rect5368" style="opacity:1;fill:none;fill-opacity:1;stroke:#000000;stroke-width:0.29674903;stroke-miterlimit:4;stroke-dasharray:none"></rect></clipPath></defs><metadata id="metadata5436"></metadata><g transform="translate(-136.06484,-64.904269)" id="layer1"><g transform="matrix(0.35277777,0,0,-0.35277777,75.034425,236.07356)" id="g4507" clip-path="url(#clipPath5366)"><g id="g4513" transform="translate(195.2646,454.9443)"><path d="m 0,0 c -1.402,0 -2.538,1.14 -2.538,2.536 v 0.215 c 0,1.401 1.136,2.536 2.538,2.536 h 3.227 10.659 c 0.884,0 1.6,0.692 1.6,1.544 v 6.429 c 0,0.849 -0.716,1.537 -1.6,1.537 H 3.227 V 14.8 H 0 c -1.402,0 -2.538,1.135 -2.538,2.534 v 0.216 c 0,1.397 1.136,2.536 2.538,2.536 H 15.494 C 12.008,26.163 5.46,30.26 -2.048,30.26 c -11.165,0 -20.217,-9.052 -20.217,-20.216 0,-11.165 9.052,-20.213 20.217,-20.213 7.509,0 14.058,4.095 17.542,10.169 z" style="fill:#80cc28;fill-opacity:1;fill-rule:nonzero;stroke:none" id="path4515"></path></g><g id="g4517" transform="translate(243.0103,454.1953)"><path d="m 0,0 h -13.072 v 23.138 c 0,1.076 -0.616,2.223 -2.349,2.223 -1.728,0 -2.345,-1.147 -2.345,-2.223 V -2.02 c 0,-2.306 1.735,-2.306 2.307,-2.306 H 0 c 1.018,0 2.103,0.572 2.103,2.184 C 2.103,-0.8 1.316,0 0,0" style="fill:#1f52a6;fill-opacity:1;fill-rule:nonzero;stroke:none" id="path4519"></path></g><g id="g4521" transform="translate(264.27,451.6499)"><path d="m 0,0 v 12.17 c 0,2.067 0,4.204 -1.475,5.941 -1.351,1.568 -3.507,2.327 -6.595,2.327 -3.567,0 -6.123,-1.135 -7.596,-3.383 -0.281,-0.454 -0.918,-1.595 -0.918,-2.573 0,-0.956 0.606,-1.98 2.307,-1.98 1.723,0 1.974,1.056 2.087,1.589 0.342,1.023 0.868,2.55 4.12,2.55 1.744,0 3.821,-0.531 3.821,-3.05 0,-0.845 -0.169,-1.006 -0.845,-1.199 -0.377,-0.126 -1.181,-0.301 -2.449,-0.559 -10e-4,0 -3.449,-0.731 -3.449,-0.731 0.002,0 -0.05,-0.011 -0.05,-0.011 -2.248,-0.461 -6.435,-1.311 -6.435,-6.427 0,-4.162 2.832,-6.848 7.216,-6.848 1.783,0 4.206,0.435 6.149,2.368 0.02,-0.566 0.069,-0.777 0.174,-1.056 0.195,-0.489 0.678,-1.078 1.891,-1.15 1.246,0 1.923,0.661 2.041,1.962 l 0.003,0.017 C 0,-0.021 0,0 0,0 M -4.258,8.901 C -4.298,6.609 -4.394,4.907 -5.31,3.638 -5.994,2.727 -7.492,1.654 -9.45,1.654 c -1.556,0 -3.373,0.776 -3.373,2.971 0,1.984 1.569,2.506 2.16,2.705 0.538,0.19 1.325,0.394 2.014,0.511 0.019,0.004 2.129,0.491 2.124,0.491 1.265,0.274 1.768,0.391 2.267,0.569" style="fill:#1f52a6;fill-opacity:1;fill-rule:nonzero;stroke:none" id="path4523"></path></g><g id="g4525" transform="translate(276.103,453.5479)"><path d="M 0,0 C -1.073,0.078 -1.563,0.257 -1.781,1.154 -1.892,1.608 -1.932,1.885 -1.932,4.27 v 9.904 h 2.119 c 0.937,0 1.94,0.524 1.94,1.983 0,1.26 -0.708,1.98 -1.94,1.98 h -2.119 v 4.348 c 0,1.382 -0.805,2.146 -2.264,2.146 -1.394,0 -2.224,-0.804 -2.224,-2.146 v -4.348 h -1.794 c -1.213,0 -1.939,-0.739 -1.939,-1.98 0,-1.459 1.001,-1.983 1.939,-1.983 h 1.752 V 2.687 c 0,-3.098 0,-6.607 6.039,-6.607 0.692,0 2.793,0 2.793,1.979 C 2.37,-0.099 0.887,-0.035 0,0" style="fill:#1f52a6;fill-opacity:1;fill-rule:nonzero;stroke:none" id="path4527"></path></g><g id="g4529" transform="translate(296.0557,471.9292)"><path d="m 0,0 c -1.585,0 -1.961,-1.123 -2.082,-1.492 -0.001,-0.003 -2.72,-8.4 -2.72,-8.4 -0.887,-2.586 -1.322,-4.066 -1.592,-5.183 -0.201,0.947 -0.489,1.93 -1.181,4.01 0,0 -3.166,9.535 -3.163,9.526 -0.39,1.27 -1.306,1.539 -2.002,1.539 -1.478,0 -2.552,-0.885 -2.552,-2.103 0,-0.312 0.078,-0.575 0.153,-0.831 l 0.024,-0.089 c 0.01,-0.027 6.341,-17.879 6.341,-17.879 0.267,-0.697 0.75,-1.399 2.322,-1.399 1.572,0 2.055,0.702 2.318,1.39 0.003,0.009 6.416,17.985 6.416,17.985 0.097,0.29 0.145,0.577 0.145,0.863 C 2.427,-1.235 1.779,0 0,0" style="fill:#1f52a6;fill-opacity:1;fill-rule:nonzero;stroke:none" id="path4531"></path></g><g id="g4533" transform="translate(321.3193,455.0972)"><path d="m 0,0 c -0.003,-0.014 -0.008,-0.023 -0.01,-0.037 0,-0.002 0,-0.006 -0.004,-0.01 z" style="fill:#80cc28;fill-opacity:1;fill-rule:nonzero;stroke:none" id="path4535"></path></g><g id="g4537" transform="translate(319.626,461.5898)"><path d="m 0,0 c 0,2.514 -0.805,5.2 -2.103,7.006 -1.213,1.645 -2.813,2.691 -4.895,3.202 -0.824,0.197 -1.743,0.291 -2.733,0.291 -7.143,0 -10.34,-5.762 -10.34,-11.471 0,-3.244 0.988,-6.149 2.78,-8.179 2.384,-2.669 5.527,-2.973 7.682,-2.973 3.296,0 5.951,1.108 7.888,3.299 0.266,0.29 1.158,1.325 1.38,2.296 0.056,0.181 0.056,0.346 0.056,0.523 0,1.45 -1.465,2.106 -2.506,2.106 -1.085,0 -1.416,-0.56 -2.014,-1.573 l -0.074,-0.128 c -0.664,-1.028 -1.676,-2.603 -4.73,-2.603 -1.49,0 -3.048,0.225 -4.357,1.84 -0.863,1.058 -1.329,2.385 -1.464,4.141 H -2.224 C -0.812,-2.223 0,-1.415 0,0 m -4.65,1.615 h -10.672 c 0.227,0.983 0.674,2.477 1.961,3.603 1.255,1.112 2.696,1.24 3.671,1.24 4.001,0 4.858,-3.304 5.04,-4.843" style="fill:#1f52a6;fill-opacity:1;fill-rule:nonzero;stroke:none" id="path4539"></path></g><g id="g4541" transform="translate(333.5811,472.0884)"><path d="m 0,0 c -2.665,0 -4.604,-0.739 -6.15,-2.372 -0.048,0.969 -0.256,1.547 -1.095,1.969 -0.597,0.299 -1.57,0.301 -2.21,0.003 -1.011,-0.531 -1.128,-1.362 -1.128,-1.944 v -17.893 c 0,-0.65 0.128,-1.462 1.108,-1.978 l 0.022,-0.009 0.021,-0.012 c 0.411,-0.15 0.776,-0.224 1.117,-0.224 2.099,0 2.264,1.7 2.264,2.223 v 8.805 l -0.002,0.41 c -0.004,0.941 -0.009,1.826 0.194,2.706 0.285,1.301 1.339,4.318 5.052,4.318 2.988,0 3.618,-1.991 3.618,-3.66 0,-0.12 0.004,-0.243 0.014,-0.413 0.027,-0.404 0.064,-1.079 0.064,-2.592 v -9.574 c 0,-0.343 0,-1.394 1.107,-1.978 l 0.023,-0.009 0.022,-0.012 c 0.409,-0.15 0.775,-0.224 1.114,-0.224 2.103,0 2.267,1.7 2.267,2.223 v 11.483 c 0,2.055 0,4.388 -1.509,6.292 C 4.614,-0.847 2.572,0 0,0" style="fill:#1f52a6;fill-opacity:1;fill-rule:nonzero;stroke:none" id="path4543"></path></g><g id="g4545" transform="translate(364.4443,455.0972)"><path d="m 0,0 c -0.003,-0.009 -0.008,-0.023 -0.008,-0.034 0,-0.003 0,-0.005 -0.002,-0.013 z" style="fill:#80cc28;fill-opacity:1;fill-rule:nonzero;stroke:none" id="path4547"></path></g><g id="g4549" transform="translate(363.5508,461.5898)"><path d="m 0,0 c 0,2.514 -0.806,5.2 -2.104,7.006 -1.212,1.645 -2.812,2.691 -4.893,3.202 -0.826,0.197 -1.742,0.291 -2.734,0.291 -7.143,0 -10.341,-5.762 -10.341,-11.471 0,-3.244 0.989,-6.149 2.781,-8.179 2.384,-2.669 5.527,-2.973 7.681,-2.973 3.296,0 5.948,1.108 7.887,3.299 0.267,0.29 1.16,1.325 1.382,2.299 0.057,0.178 0.06,0.345 0.06,0.52 0,1.45 -1.469,2.106 -2.512,2.106 -1.086,0 -1.416,-0.563 -2.015,-1.579 L -4.88,-5.601 c -0.662,-1.028 -1.675,-2.603 -4.73,-2.603 -1.489,0 -3.048,0.225 -4.354,1.84 -0.868,1.058 -1.333,2.385 -1.464,4.141 H -2.224 C -0.811,-2.223 0,-1.415 0,0 m -4.65,1.615 h -10.674 c 0.228,0.983 0.674,2.477 1.961,3.603 1.254,1.112 2.698,1.24 3.673,1.24 4.002,0 4.858,-3.304 5.04,-4.843" style="fill:#1f52a6;fill-opacity:1;fill-rule:nonzero;stroke:none" id="path4551"></path></g><g id="g4553" transform="translate(376.3301,471.9292)"><path d="m 0,0 c -2.053,0 -3.949,-1.017 -5.08,-2.595 v 0.492 C -5.08,-1.085 -5.644,0 -7.223,0 -8.831,0 -9.405,-1.085 -9.405,-2.103 v -18.099 c 0,-1.333 0.808,-2.099 2.222,-2.099 1.505,0 2.268,0.705 2.268,2.099 v 8.076 c 0,2.376 0,5.066 2.509,6.816 0.994,0.625 1.991,0.788 2.955,0.941 l 0.042,0.007 c 1.685,0.24 2.041,1.294 2.041,2.138 C 2.632,-1.393 2.288,0 0,0" style="fill:#1f52a6;fill-opacity:1;fill-rule:nonzero;stroke:none" id="path4555"></path></g><g id="g4557" transform="translate(398.0625,453.0283)"><path d="m 0,0 v 16.919 c 0,1.214 -0.771,1.94 -2.064,1.94 -1.112,0 -1.605,-0.649 -1.764,-0.929 -0.134,-0.264 -0.186,-0.457 -0.212,-0.894 -0.434,0.483 -1.027,0.951 -1.997,1.384 -1.026,0.434 -2.168,0.64 -3.49,0.64 -4.423,0 -7.684,-2.469 -8.945,-6.776 -0.366,-1.384 -0.546,-2.785 -0.546,-4.291 0,-5.036 2.379,-10.422 9.042,-10.422 3.051,0 4.684,1.146 5.706,2.177 l -0.018,-0.795 c -0.076,-2.699 -0.156,-5.494 -4.671,-5.494 -0.805,0 -2.761,0.097 -3.558,1.001 -0.248,0.282 -0.394,0.58 -0.751,1.291 -0.33,0.699 -0.829,1.764 -2.306,1.764 -1.138,0 -2.344,-0.761 -2.344,-2.182 0,-1.317 1.123,-3.153 2.561,-4.179 1.4,-1.041 3.586,-1.614 6.155,-1.614 2.987,0 5.447,0.744 6.923,2.093 C -0.597,-6.814 0,-4.622 0,0 m -4.205,8.562 c 0,-1.003 -0.108,-3.487 -1.106,-4.928 -0.859,-1.253 -2.486,-2.058 -4.135,-2.058 -1.549,0 -2.909,0.664 -3.734,1.822 -0.791,1.052 -1.224,2.783 -1.224,4.878 0,1.11 0.159,3.207 1.227,4.766 1.178,1.667 2.855,2.02 4.054,2.02 4.277,0 4.918,-4.073 4.918,-6.5" style="fill:#1f52a6;fill-opacity:1;fill-rule:nonzero;stroke:none" id="path4559"></path></g><g id="g4561" transform="translate(421.4258,460.9829)"><path d="m 0,0 c 0,6.876 -3.965,11.15 -10.341,11.15 -3.367,0 -6.033,-1.069 -7.925,-3.178 -2.619,-2.985 -2.619,-6.954 -2.619,-8.257 0,-1.312 0,-5.302 2.701,-8.262 2.382,-2.634 5.333,-2.97 7.637,-2.97 2.126,0 5.239,0.319 7.765,3.091 C -0.938,-6.368 0,-3.535 0,0 m -4.654,-0.246 c 0,-0.894 0,-3.615 -1.418,-5.436 -0.973,-1.296 -2.572,-2.036 -4.391,-2.036 -2.654,0 -4.034,1.469 -4.395,1.916 -1.166,1.504 -1.413,3.83 -1.413,5.517 0,1.576 0.227,3.79 1.308,5.372 1.03,1.438 2.492,2.142 4.458,2.142 3.882,0 5.851,-2.517 5.851,-7.475" style="fill:#1f52a6;fill-opacity:1;fill-rule:nonzero;stroke:none" id="path4563"></path></g><g id="g4565" transform="translate(195.4473,368.2686)"><path d="m 0,0 c -1.402,0 -2.538,1.141 -2.538,2.537 v 0.215 c 0,1.4 1.136,2.535 2.538,2.535 h 3.228 10.658 c 0.884,0 1.599,0.692 1.599,1.543 v 6.43 c 0,0.849 -0.715,1.537 -1.599,1.537 H 3.228 v 0.004 H 0 c -1.402,0 -2.538,1.135 -2.538,2.534 v 0.216 c 0,1.396 1.136,2.535 2.538,2.535 H 15.493 C 12.009,26.162 5.46,30.26 -2.048,30.26 c -11.165,0 -20.217,-9.052 -20.217,-20.215 0,-11.166 9.052,-20.215 20.217,-20.215 7.51,0 14.058,4.097 17.541,10.17 z" style="fill:#80cc28;fill-opacity:1;fill-rule:nonzero;stroke:none" id="path4567"></path></g><g id="g4569" transform="translate(243.1924,367.5205)"><path d="m 0,0 h -13.072 v 23.137 c 0,1.077 -0.616,2.222 -2.348,2.222 -1.728,0 -2.346,-1.145 -2.346,-2.222 V -2.02 c 0,-2.306 1.736,-2.306 2.307,-2.306 H 0 c 1.018,0 2.104,0.571 2.104,2.183 C 2.104,-0.801 1.316,0 0,0" style="fill:#1f52a6;fill-opacity:1;fill-rule:nonzero;stroke:none" id="path4571"></path></g><g id="g4573" transform="translate(264.4521,364.9736)"><path d="m 0,0 v 12.172 c 0,2.066 0,4.203 -1.475,5.939 -1.351,1.569 -3.506,2.328 -6.594,2.328 -3.568,0 -6.123,-1.135 -7.597,-3.382 -0.28,-0.455 -0.918,-1.596 -0.918,-2.575 0,-0.956 0.607,-1.979 2.307,-1.979 1.724,0 1.974,1.056 2.088,1.589 0.341,1.023 0.868,2.551 4.12,2.551 1.744,0 3.821,-0.532 3.821,-3.051 0,-0.845 -0.17,-1.006 -0.846,-1.199 -0.377,-0.127 -1.18,-0.301 -2.449,-0.559 l -3.448,-0.732 c 10e-4,0 -0.05,-0.01 -0.05,-0.01 -2.248,-0.461 -6.436,-1.312 -6.436,-6.428 0,-4.16 2.832,-6.848 7.217,-6.848 1.783,0 4.205,0.436 6.149,2.369 0.019,-0.566 0.068,-0.777 0.173,-1.056 0.196,-0.49 0.678,-1.078 1.891,-1.15 1.246,0 1.924,0.66 2.041,1.962 l 0.003,0.016 C 0,-0.02 0,0 0,0 M -4.258,8.901 C -4.297,6.609 -4.394,4.908 -5.309,3.639 -5.994,2.728 -7.492,1.654 -9.449,1.654 c -1.557,0 -3.373,0.778 -3.373,2.971 0,1.984 1.568,2.507 2.16,2.705 0.537,0.191 1.324,0.395 2.014,0.512 0.019,0.004 2.128,0.49 2.124,0.49 1.264,0.274 1.767,0.393 2.266,0.569" style="fill:#1f52a6;fill-opacity:1;fill-rule:nonzero;stroke:none" id="path4575"></path></g><g id="g4577" transform="translate(276.2861,366.8721)"><path d="M 0,0 C -1.073,0.078 -1.564,0.258 -1.781,1.154 -1.893,1.608 -1.932,1.885 -1.932,4.27 v 9.905 h 2.118 c 0.937,0 1.941,0.522 1.941,1.983 0,1.259 -0.708,1.979 -1.941,1.979 h -2.118 v 4.348 c 0,1.382 -0.805,2.146 -2.264,2.146 -1.394,0 -2.224,-0.803 -2.224,-2.146 v -4.348 h -1.795 c -1.213,0 -1.939,-0.739 -1.939,-1.979 0,-1.461 1.002,-1.983 1.939,-1.983 h 1.752 V 2.688 c 0,-3.099 0,-6.608 6.039,-6.608 0.692,0 2.793,0 2.793,1.979 C 2.369,-0.1 0.887,-0.035 0,0" style="fill:#1f52a6;fill-opacity:1;fill-rule:nonzero;stroke:none" id="path4579"></path></g><g id="g4581" transform="translate(296.2383,385.2529)"><path d="m 0,0 c -1.585,0 -1.962,-1.122 -2.082,-1.491 -0.001,-0.003 -2.72,-8.4 -2.72,-8.4 -0.887,-2.586 -1.322,-4.066 -1.592,-5.183 -0.201,0.946 -0.489,1.929 -1.181,4.01 0,0 -3.166,9.535 -3.162,9.525 C -11.128,-0.268 -12.044,0 -12.74,0 c -1.478,0 -2.552,-0.885 -2.552,-2.102 0,-0.312 0.078,-0.576 0.153,-0.832 l 0.025,-0.088 c 0.01,-0.028 6.34,-17.878 6.34,-17.878 0.267,-0.698 0.75,-1.401 2.322,-1.401 1.572,0 2.055,0.703 2.318,1.391 0.002,0.01 6.416,17.982 6.416,17.982 0.098,0.291 0.145,0.579 0.145,0.865 C 2.427,-1.234 1.779,0 0,0" style="fill:#1f52a6;fill-opacity:1;fill-rule:nonzero;stroke:none" id="path4583"></path></g><g id="g4585" transform="translate(321.502,368.4209)"><path d="m 0,0 c -0.003,-0.014 -0.008,-0.022 -0.01,-0.035 0,-0.004 0,-0.008 -0.004,-0.011 z" style="fill:#80cc28;fill-opacity:1;fill-rule:nonzero;stroke:none" id="path4587"></path></g><g id="g4589" transform="translate(319.8086,374.9141)"><path d="m 0,0 c 0,2.515 -0.805,5.2 -2.103,7.006 -1.213,1.645 -2.813,2.691 -4.895,3.202 -0.824,0.197 -1.743,0.291 -2.733,0.291 -7.143,0 -10.341,-5.762 -10.341,-11.473 0,-3.242 0.989,-6.146 2.78,-8.177 2.385,-2.668 5.528,-2.973 7.683,-2.973 3.296,0 5.951,1.107 7.888,3.299 0.266,0.29 1.158,1.325 1.38,2.297 0.056,0.18 0.056,0.345 0.056,0.523 0,1.449 -1.465,2.106 -2.506,2.106 -1.085,0 -1.416,-0.561 -2.014,-1.574 l -0.074,-0.128 c -0.664,-1.029 -1.676,-2.603 -4.73,-2.603 -1.49,0 -3.048,0.225 -4.357,1.84 -0.864,1.058 -1.329,2.383 -1.465,4.141 H -2.224 C -0.812,-2.223 0,-1.415 0,0 m -4.65,1.614 h -10.672 c 0.227,0.985 0.674,2.479 1.961,3.604 1.255,1.111 2.696,1.241 3.671,1.241 4.001,0 4.858,-3.306 5.04,-4.845" style="fill:#80cc28;fill-opacity:1;fill-rule:nonzero;stroke:none" id="path4591"></path></g><g id="g4593" transform="translate(333.7637,385.4131)"><path d="m 0,0 c -2.665,0 -4.604,-0.739 -6.15,-2.372 -0.048,0.969 -0.256,1.548 -1.095,1.968 -0.597,0.3 -1.57,0.302 -2.21,0.004 -1.011,-0.532 -1.128,-1.362 -1.128,-1.944 v -17.895 c 0,-0.649 0.128,-1.46 1.108,-1.976 l 0.022,-0.01 0.021,-0.011 c 0.411,-0.151 0.776,-0.225 1.117,-0.225 2.099,0 2.264,1.701 2.264,2.222 v 8.807 l -0.002,0.411 c -0.004,0.94 -0.009,1.825 0.194,2.705 0.285,1.301 1.339,4.316 5.052,4.316 2.988,0 3.618,-1.988 3.618,-3.658 0,-0.121 0.004,-0.242 0.014,-0.412 0.027,-0.406 0.064,-1.08 0.064,-2.593 v -9.576 c 0,-0.341 0,-1.394 1.107,-1.976 l 0.023,-0.01 0.022,-0.011 c 0.409,-0.151 0.775,-0.225 1.114,-0.225 2.103,0 2.267,1.701 2.267,2.222 v 11.483 c 0,2.057 0,4.39 -1.509,6.294 C 4.614,-0.848 2.572,0 0,0" style="fill:#80cc28;fill-opacity:1;fill-rule:nonzero;stroke:none" id="path4595"></path></g><g id="g4597" transform="translate(364.627,368.4209)"><path d="m 0,0 c -0.003,-0.008 -0.008,-0.022 -0.008,-0.033 0,-0.002 0,-0.006 -0.002,-0.013 z" style="fill:#80cc28;fill-opacity:1;fill-rule:nonzero;stroke:none" id="path4599"></path></g><g id="g4601" transform="translate(363.7334,374.9141)"><path d="m 0,0 c 0,2.515 -0.806,5.2 -2.104,7.006 -1.212,1.645 -2.812,2.691 -4.893,3.202 -0.826,0.197 -1.742,0.291 -2.734,0.291 -7.143,0 -10.341,-5.762 -10.341,-11.473 0,-3.242 0.989,-6.146 2.781,-8.177 2.384,-2.668 5.527,-2.973 7.681,-2.973 3.296,0 5.948,1.107 7.887,3.299 0.267,0.29 1.16,1.325 1.382,2.299 0.057,0.178 0.06,0.345 0.06,0.521 0,1.449 -1.469,2.106 -2.512,2.106 -1.086,0 -1.416,-0.563 -2.015,-1.58 L -4.88,-5.601 c -0.662,-1.029 -1.675,-2.603 -4.73,-2.603 -1.489,0 -3.048,0.225 -4.354,1.84 -0.868,1.058 -1.333,2.383 -1.464,4.141 H -2.224 C -0.811,-2.223 0,-1.415 0,0 m -4.65,1.614 h -10.674 c 0.228,0.985 0.674,2.479 1.961,3.604 1.254,1.111 2.698,1.241 3.673,1.241 4.002,0 4.858,-3.306 5.04,-4.845" style="fill:#80cc28;fill-opacity:1;fill-rule:nonzero;stroke:none" id="path4603"></path></g><g id="g4605" transform="translate(376.5127,385.2529)"><path d="m 0,0 c -2.053,0 -3.949,-1.016 -5.08,-2.594 v 0.492 C -5.08,-1.084 -5.644,0 -7.223,0 -8.831,0 -9.405,-1.084 -9.405,-2.102 v -18.099 c 0,-1.334 0.808,-2.1 2.222,-2.1 1.505,0 2.268,0.705 2.268,2.1 v 8.076 c 0,2.375 0,5.065 2.509,6.816 0.994,0.625 1.991,0.786 2.955,0.941 l 0.042,0.007 c 1.685,0.238 2.041,1.295 2.041,2.138 C 2.632,-1.393 2.288,0 0,0" style="fill:#80cc28;fill-opacity:1;fill-rule:nonzero;stroke:none" id="path4607"></path></g><g id="g4609" transform="translate(398.2451,366.3525)"><path d="m 0,0 v 16.92 c 0,1.214 -0.771,1.939 -2.064,1.939 -1.112,0 -1.605,-0.648 -1.764,-0.929 -0.134,-0.264 -0.186,-0.457 -0.212,-0.894 -0.434,0.484 -1.027,0.95 -1.997,1.385 -1.026,0.433 -2.168,0.64 -3.49,0.64 -4.423,0 -7.684,-2.47 -8.945,-6.777 -0.366,-1.384 -0.546,-2.785 -0.546,-4.292 0,-5.035 2.379,-10.422 9.042,-10.422 3.051,0 4.684,1.147 5.706,2.178 l -0.018,-0.795 c -0.076,-2.699 -0.156,-5.494 -4.671,-5.494 -0.805,0 -2.761,0.098 -3.558,1.002 -0.248,0.281 -0.394,0.578 -0.751,1.289 -0.33,0.699 -0.829,1.766 -2.306,1.766 -1.138,0 -2.344,-0.763 -2.344,-2.184 0,-1.316 1.123,-3.152 2.561,-4.178 1.4,-1.041 3.586,-1.615 6.155,-1.615 2.987,0 5.447,0.744 6.923,2.094 C -0.597,-6.813 0,-4.621 0,0 M -4.205,8.562 C -4.205,7.56 -4.313,5.075 -5.311,3.633 -6.17,2.381 -7.797,1.576 -9.446,1.576 c -1.549,0 -2.909,0.664 -3.734,1.822 -0.791,1.051 -1.224,2.783 -1.224,4.877 0,1.112 0.159,3.207 1.227,4.766 1.178,1.669 2.855,2.02 4.054,2.02 4.277,0 4.918,-4.071 4.918,-6.499" style="fill:#80cc28;fill-opacity:1;fill-rule:nonzero;stroke:none" id="path4611"></path></g><g id="g4613" transform="translate(421.6084,374.3076)"><path d="m 0,0 c 0,6.876 -3.965,11.149 -10.341,11.149 -3.367,0 -6.033,-1.069 -7.925,-3.178 -2.619,-2.984 -2.619,-6.953 -2.619,-8.256 0,-1.313 0,-5.302 2.701,-8.262 2.382,-2.635 5.333,-2.971 7.637,-2.971 2.126,0 5.239,0.319 7.765,3.092 C -0.938,-6.367 0,-3.535 0,0 m -4.654,-0.246 c 0,-0.894 0,-3.615 -1.418,-5.436 -0.973,-1.297 -2.572,-2.037 -4.391,-2.037 -2.654,0 -4.034,1.471 -4.395,1.916 -1.166,1.504 -1.413,3.83 -1.413,5.518 0,1.576 0.227,3.789 1.308,5.371 1.03,1.439 2.492,2.143 4.458,2.143 3.882,0 5.851,-2.518 5.851,-7.475" style="fill:#80cc28;fill-opacity:1;fill-rule:nonzero;stroke:none" id="path4615"></path></g></g></g></svg> 