<svg width="1489" height="1735" viewBox="0 0 1489 1735" fill="none" xmlns="http://www.w3.org/2000/svg">
<path d="M0 299L0 3.05176e-05L67 2.75889e-05L67 299L32.5 283L0 299Z" fill="white"/>
<path d="M34.0293 180.262C36.5371 180.262 38.7285 180.684 40.6035 181.527C42.4668 182.371 43.8906 183.566 44.875 185.113C45.8594 186.66 46.3516 188.465 46.3516 190.527C46.3516 192.543 45.8594 194.33 44.875 195.889C43.8789 197.447 42.4668 198.66 40.6387 199.527C38.7988 200.383 36.6719 200.822 34.2578 200.846L32.4121 200.846C29.9512 200.846 27.7773 200.418 25.8906 199.562C24.0039 198.707 22.5625 197.5 21.5664 195.941C20.5586 194.371 20.0547 192.578 20.0547 190.562C20.0547 188.512 20.5527 186.707 21.5488 185.148C22.5332 183.578 23.9687 182.371 25.8555 181.527C27.7305 180.684 29.916 180.262 32.4121 180.262L34.0293 180.262ZM32.377 183.619C29.3418 183.619 27.0156 184.229 25.3984 185.447C23.7695 186.666 22.9551 188.371 22.9551 190.562C22.9551 192.695 23.7695 194.377 25.3984 195.607C27.0156 196.826 29.2656 197.453 32.1484 197.488L34.0293 197.488C36.9707 197.488 39.2852 196.873 40.9727 195.643C42.6484 194.4 43.4863 192.695 43.4863 190.527C43.4863 188.348 42.6953 186.66 41.1133 185.465C39.5195 184.27 37.2402 183.654 34.2754 183.619L32.377 183.619ZM44.1191 163.967C45.6074 165.232 46.3516 167.09 46.3516 169.539C46.3516 171.566 45.7656 173.113 44.5937 174.18C43.4102 175.234 41.6641 175.768 39.3555 175.779L26.9805 175.779L26.9805 172.527L39.2676 172.527C42.1504 172.527 43.5918 171.355 43.5918 169.012C43.5918 166.527 42.666 164.875 40.8145 164.055L26.9805 164.055L26.9805 160.803L46 160.803L46 163.896L44.1191 163.967ZM29.8984 146.652C29.8164 147.145 29.7754 147.678 29.7754 148.252C29.7754 150.385 30.6836 151.832 32.5 152.594L46 152.594L46 155.846L26.9805 155.846L26.9805 152.682L29.1777 152.629C27.4785 151.562 26.6289 150.051 26.6289 148.094C26.6289 147.461 26.7109 146.98 26.875 146.652L29.8984 146.652ZM46 133.627L29.4941 133.627L29.4941 136.633L26.9805 136.633L26.9805 133.627L25.3633 133.627C23.2422 133.627 21.5898 133.023 20.4062 131.816C19.2227 130.598 18.6309 128.881 18.6309 126.666C18.6309 125.354 18.9883 123.695 19.7031 121.691L22.4453 122.236C21.8594 123.701 21.5664 125.096 21.5664 126.42C21.5664 127.814 21.8828 128.822 22.5156 129.443C23.1367 130.053 24.0742 130.357 25.3281 130.357L26.9805 130.357L26.9805 126.473L29.4941 126.473L29.4941 130.357L46 130.357L46 133.627ZM46 120.074L46 123.344L26.9805 123.344L26.9805 120.074L46 120.074ZM46.3516 106.891C46.3516 109.469 45.5078 111.566 43.8203 113.184C42.1211 114.801 39.8535 115.609 37.0176 115.609L36.4199 115.609C34.5332 115.609 32.8516 115.252 31.375 114.537C29.8867 113.811 28.7266 112.803 27.8945 111.514C27.0508 110.213 26.6289 108.807 26.6289 107.295C26.6289 104.822 27.4434 102.9 29.0723 101.529C30.7012 100.158 33.0332 99.4727 36.0684 99.4727L37.4219 99.4727L37.4219 112.357C39.2969 112.311 40.8144 111.766 41.9746 110.723C43.123 109.668 43.6973 108.332 43.6973 106.715C43.6973 105.566 43.4629 104.594 42.9941 103.797C42.5254 103 41.9043 102.303 41.1309 101.705L42.6777 99.7187C45.1269 101.312 46.3516 103.703 46.3516 106.891ZM29.3008 107.295C29.3008 108.607 29.7812 109.709 30.7422 110.6C31.6914 111.49 33.0273 112.041 34.75 112.252L34.75 102.725L34.5039 102.725C32.8516 102.818 31.5742 103.264 30.6719 104.061C29.7578 104.857 29.3008 105.936 29.3008 107.295ZM46 92.1602L46 95.4121L19 95.4121L19 92.1602L46 92.1602ZM36.332 87.7305C33.4141 87.7305 31.0703 87.0391 29.3008 85.6562C27.5195 84.2734 26.6289 82.4629 26.6289 80.2246C26.6289 77.998 27.3906 76.2344 28.9141 74.9336L19 74.9336L19 71.6816L46 71.6816L46 74.6699L43.9609 74.8281C45.5547 76.1289 46.3516 77.9395 46.3516 80.2598C46.3516 82.4629 45.4492 84.2617 43.6445 85.6562C41.8398 87.0391 39.4844 87.7305 36.5781 87.7305L36.332 87.7305ZM36.7012 84.4785C38.8574 84.4785 40.5449 84.0332 41.7637 83.1426C42.9824 82.252 43.5918 81.0215 43.5918 79.4512C43.5918 77.3887 42.666 75.8828 40.8144 74.9336L32.0781 74.9336C30.2852 75.9062 29.3887 77.4004 29.3887 79.416C29.3887 81.0098 30.0039 82.252 31.2344 83.1426C32.4648 84.0332 34.2871 84.4785 36.7012 84.4785Z" fill="black"/>
<path d="M1422 1614L1422 1315L1489 1315L1489 1614L1454.5 1598L1422 1614Z" fill="white"/>
<path d="M1466.82 1374.87L1466.82 1366.64L1444 1366.64L1444 1363.29L1466.82 1363.29L1466.82 1355.08L1469.59 1355.08L1469.59 1374.87L1466.82 1374.87ZM1443.65 1384.29C1443.65 1381.71 1444.49 1379.62 1446.18 1378C1447.88 1376.38 1450.15 1375.57 1452.98 1375.57L1453.58 1375.57C1455.47 1375.57 1457.15 1375.93 1458.62 1376.64C1460.11 1377.37 1461.27 1378.38 1462.11 1379.67C1462.95 1380.97 1463.37 1382.37 1463.37 1383.89C1463.37 1386.36 1462.56 1388.28 1460.93 1389.65C1459.3 1391.02 1456.97 1391.71 1453.93 1391.71L1452.58 1391.71L1452.58 1378.82C1450.7 1378.87 1449.19 1379.42 1448.03 1380.46C1446.88 1381.51 1446.3 1382.85 1446.3 1384.47C1446.3 1385.62 1446.54 1386.59 1447.01 1387.38C1447.47 1388.18 1448.1 1388.88 1448.87 1389.48L1447.32 1391.46C1444.87 1389.87 1443.65 1387.48 1443.65 1384.29ZM1460.7 1383.89C1460.7 1382.57 1460.22 1381.47 1459.26 1380.58C1458.31 1379.69 1456.97 1379.14 1455.25 1378.93L1455.25 1388.46L1455.5 1388.46C1457.15 1388.36 1458.43 1387.92 1459.33 1387.12C1460.24 1386.32 1460.7 1385.25 1460.7 1383.89ZM1446.3 1403.12C1446.3 1404.28 1446.65 1405.29 1447.36 1406.16C1448.06 1407.03 1448.94 1407.51 1449.99 1407.6L1449.99 1410.68C1448.9 1410.62 1447.87 1410.24 1446.88 1409.55C1445.9 1408.86 1445.11 1407.93 1444.53 1406.77C1443.94 1405.62 1443.65 1404.41 1443.65 1403.12C1443.65 1400.53 1444.51 1398.46 1446.23 1396.93C1447.97 1395.41 1450.33 1394.64 1453.33 1394.64L1453.88 1394.64C1455.73 1394.64 1457.38 1394.98 1458.82 1395.66C1460.26 1396.34 1461.38 1397.32 1462.18 1398.58C1462.97 1399.86 1463.37 1401.37 1463.37 1403.1C1463.37 1405.23 1462.73 1407 1461.46 1408.41C1460.18 1409.83 1458.52 1410.58 1456.48 1410.68L1456.48 1407.6C1457.71 1407.51 1458.72 1407.04 1459.5 1406.19C1460.3 1405.36 1460.7 1404.33 1460.7 1403.1C1460.7 1401.45 1460.1 1400.16 1458.91 1399.25C1457.72 1398.35 1456.01 1397.9 1453.76 1397.9L1453.14 1397.9C1450.95 1397.9 1449.26 1398.35 1448.08 1399.25C1446.89 1400.15 1446.3 1401.44 1446.3 1403.12ZM1460.72 1417.58C1462.49 1419.03 1463.37 1420.9 1463.37 1423.21C1463.37 1427.23 1461.1 1429.26 1456.57 1429.29L1444 1429.29L1444 1426.04L1456.59 1426.04C1457.96 1426.03 1458.97 1425.71 1459.63 1425.09C1460.28 1424.48 1460.61 1423.53 1460.61 1422.22C1460.61 1421.17 1460.33 1420.24 1459.77 1419.45C1459.21 1418.65 1458.47 1418.03 1457.55 1417.58L1444 1417.58L1444 1414.33L1471 1414.33L1471 1417.58L1460.72 1417.58ZM1463.02 1437.24L1460.63 1437.34C1462.46 1438.79 1463.37 1440.69 1463.37 1443.04C1463.37 1447.06 1461.1 1449.08 1456.57 1449.12L1444 1449.12L1444 1445.87L1456.59 1445.87C1457.96 1445.86 1458.97 1445.54 1459.63 1444.92C1460.28 1444.31 1460.61 1443.35 1460.61 1442.05C1460.61 1441 1460.33 1440.07 1459.77 1439.28C1459.21 1438.48 1458.47 1437.86 1457.55 1437.41L1444 1437.41L1444 1434.16L1463.02 1434.16L1463.02 1437.24ZM1453.69 1453.16C1455.55 1453.16 1457.22 1453.53 1458.71 1454.25C1460.2 1454.99 1461.35 1456.01 1462.16 1457.31C1462.97 1458.62 1463.37 1460.12 1463.37 1461.79C1463.37 1464.38 1462.47 1466.47 1460.68 1468.07C1458.89 1469.67 1456.5 1470.48 1453.53 1470.48L1453.3 1470.48C1451.45 1470.48 1449.78 1470.12 1448.31 1469.4C1446.84 1468.7 1445.7 1467.69 1444.88 1466.36C1444.06 1465.05 1443.65 1463.54 1443.65 1461.83C1443.65 1459.25 1444.54 1457.16 1446.34 1455.55C1448.13 1453.96 1450.5 1453.16 1453.46 1453.16L1453.69 1453.16ZM1453.3 1456.43C1451.19 1456.43 1449.5 1456.92 1448.22 1457.89C1446.94 1458.87 1446.3 1460.19 1446.3 1461.83C1446.3 1463.48 1446.95 1464.79 1448.24 1465.77C1449.54 1466.74 1451.35 1467.22 1453.69 1467.22C1455.77 1467.22 1457.46 1466.73 1458.75 1465.73C1460.05 1464.75 1460.7 1463.43 1460.7 1461.79C1460.7 1460.19 1460.06 1458.89 1458.78 1457.91C1457.51 1456.92 1455.68 1456.43 1453.3 1456.43ZM1444 1478.09L1444 1474.84L1471 1474.84L1471 1478.09L1444 1478.09ZM1453.69 1482.45C1455.55 1482.45 1457.22 1482.81 1458.71 1483.54C1460.2 1484.28 1461.35 1485.29 1462.16 1486.6C1462.97 1487.91 1463.37 1489.4 1463.37 1491.08C1463.37 1493.67 1462.47 1495.76 1460.68 1497.35C1458.89 1498.96 1456.5 1499.76 1453.53 1499.76L1453.3 1499.76C1451.45 1499.76 1449.78 1499.4 1448.31 1498.69C1446.84 1497.99 1445.7 1496.97 1444.88 1495.65C1444.06 1494.34 1443.65 1492.82 1443.65 1491.11C1443.65 1488.54 1444.54 1486.44 1446.34 1484.84C1448.13 1483.24 1450.5 1482.45 1453.46 1482.45L1453.69 1482.45ZM1453.3 1485.72C1451.19 1485.72 1449.5 1486.2 1448.22 1487.18C1446.94 1488.16 1446.3 1489.47 1446.3 1491.11C1446.3 1492.77 1446.95 1494.08 1448.24 1495.05C1449.54 1496.02 1451.35 1496.51 1453.69 1496.51C1455.77 1496.51 1457.46 1496.01 1458.75 1495.02C1460.05 1494.03 1460.7 1492.72 1460.7 1491.08C1460.7 1489.47 1460.06 1488.18 1458.78 1487.19C1457.51 1486.21 1455.68 1485.72 1453.3 1485.72ZM1444 1507.37L1444 1504.12L1463.02 1504.12L1463.02 1507.37L1444 1507.37ZM1468.06 1503.86C1468.59 1503.86 1469.04 1504.02 1469.4 1504.33C1469.76 1504.66 1469.95 1505.14 1469.95 1505.77C1469.95 1506.41 1469.76 1506.89 1469.4 1507.21C1469.04 1507.54 1468.59 1507.71 1468.06 1507.71C1467.54 1507.71 1467.1 1507.54 1466.75 1507.21C1466.39 1506.89 1466.22 1506.41 1466.22 1505.77C1466.22 1505.14 1466.39 1504.66 1466.75 1504.33C1467.1 1504.02 1467.54 1503.86 1468.06 1503.86ZM1443.65 1520.49C1443.65 1517.91 1444.49 1515.81 1446.18 1514.19C1447.88 1512.58 1450.15 1511.77 1452.98 1511.77L1453.58 1511.77C1455.47 1511.77 1457.15 1512.12 1458.62 1512.84C1460.11 1513.57 1461.27 1514.57 1462.11 1515.86C1462.95 1517.16 1463.37 1518.57 1463.37 1520.08C1463.37 1522.55 1462.56 1524.48 1460.93 1525.85C1459.3 1527.22 1456.97 1527.9 1453.93 1527.9L1452.58 1527.9L1452.58 1515.02C1450.7 1515.07 1449.19 1515.61 1448.03 1516.65C1446.88 1517.71 1446.3 1519.04 1446.3 1520.66C1446.3 1521.81 1446.54 1522.78 1447.01 1523.58C1447.47 1524.38 1448.1 1525.07 1448.87 1525.67L1447.32 1527.66C1444.87 1526.06 1443.65 1523.67 1443.65 1520.49ZM1460.7 1520.08C1460.7 1518.77 1460.22 1517.67 1459.26 1516.78C1458.31 1515.89 1456.97 1515.34 1455.25 1515.12L1455.25 1524.65L1455.5 1524.65C1457.15 1524.56 1458.43 1524.11 1459.33 1523.32C1460.24 1522.52 1460.7 1521.44 1460.7 1520.08ZM1449.04 1542.76C1449.92 1542.76 1450.6 1542.42 1451.08 1541.76C1451.58 1541.1 1452 1539.95 1452.35 1538.29C1452.7 1536.65 1453.12 1535.35 1453.62 1534.37C1454.11 1533.41 1454.69 1532.7 1455.37 1532.23C1456.05 1531.77 1456.86 1531.54 1457.8 1531.54C1459.36 1531.54 1460.68 1532.2 1461.75 1533.51C1462.83 1534.84 1463.37 1536.52 1463.37 1538.57C1463.37 1540.73 1462.81 1542.48 1461.7 1543.81C1460.59 1545.16 1459.16 1545.83 1457.43 1545.83L1457.43 1542.56C1458.32 1542.56 1459.09 1542.18 1459.73 1541.42C1460.38 1540.67 1460.7 1539.72 1460.7 1538.57C1460.7 1537.39 1460.44 1536.46 1459.93 1535.8C1459.41 1535.13 1458.74 1534.79 1457.9 1534.79C1457.12 1534.79 1456.53 1535.11 1456.13 1535.73C1455.73 1536.35 1455.35 1537.47 1454.99 1539.08C1454.62 1540.71 1454.19 1542.03 1453.69 1543.04C1453.18 1544.05 1452.57 1544.79 1451.86 1545.27C1451.15 1545.76 1450.29 1546.01 1449.27 1546.01C1447.57 1546.01 1446.21 1545.33 1445.18 1543.97C1444.16 1542.61 1443.65 1540.85 1443.65 1538.68C1443.65 1537.16 1443.92 1535.81 1444.46 1534.64C1445 1533.46 1445.75 1532.54 1446.71 1531.88C1447.68 1531.22 1448.73 1530.89 1449.85 1530.89L1449.85 1534.14C1448.76 1534.2 1447.9 1534.64 1447.25 1535.45C1446.62 1536.27 1446.3 1537.34 1446.3 1538.68C1446.3 1539.91 1446.55 1540.89 1447.04 1541.63C1447.54 1542.38 1448.21 1542.76 1449.04 1542.76Z" fill="black"/>
<line x1="33" y1="284" x2="33" y2="645" stroke="white" stroke-width="2"/>
<line x1="32.8674" y1="283.502" x2="67.8674" y2="344.502" stroke="white" stroke-width="2"/>
<line x1="68" y1="345" x2="68" y2="380" stroke="white" stroke-width="2"/>
<line x1="1457" y1="645" x2="1457" y2="1337" stroke="white" stroke-width="2"/>
<line x1="1457" y1="1590" x2="1457" y2="1734" stroke="white" stroke-width="2"/>
<path d="M32 644L1456 644" stroke="white" stroke-width="2"/>
<path d="M34 1734L1458 1734" stroke="white" stroke-width="2"/>
</svg>
