<svg id="Layer_1" data-name="Layer 1" xmlns="http://www.w3.org/2000/svg" viewBox="0 0 453.89 457.73"><defs><style>.cls-1{fill:#b1c8ce;}.cls-2{fill:#60a346;}.cls-3{fill:#9dcf81;}.cls-4{fill:#121217;}.cls-5{fill:#e6ebea;}.cls-6{fill:#a0c5cf;}.cls-7{fill:#006089;}.cls-8{fill:#68cad4;}.cls-9{fill:#0093b7;}.cls-10{fill:#e1c2bf;}.cls-11{fill:#2b2412;}.cls-12{fill:#575669;}.cls-13{fill:#434354;}.cls-14,.cls-15{fill:none;stroke:#0093b7;stroke-miterlimit:10;}.cls-15{stroke-dasharray:11.6 11.6;}</style></defs><title>contactus</title><ellipse class="cls-1" cx="209.35" cy="432.29" rx="209.35" ry="25.43"/><path class="cls-2" d="M314.24,434.47c.49.68,1.75.62,2.81-.15,3-2.14,72.86-52.53,84.71-98.05.17-1-.64-1.58-1.8-1.31a3.41,3.41,0,0,0-2.35,2c-11.44,43.73-81.6,94.34-82.31,94.85C314.23,432.6,313.75,433.78,314.24,434.47Z" transform="translate(-6.89 -7.05)"/><path class="cls-3" d="M366.05,386.85s25.85-24.79-1.66-39C364.39,347.9,344.44,378.23,366.05,386.85Z" transform="translate(-6.89 -7.05)"/><path class="cls-3" d="M367.43,389.32s17.6-24,38.66-12.45c0,0-24.58,22.4-38.66,12.45Z" transform="translate(-6.89 -7.05)"/><path class="cls-3" d="M389.32,356.71s15.89-20.87-8-23.73C381.32,333,371,356,389.32,356.71Z" transform="translate(-6.89 -7.05)"/><path class="cls-3" d="M391.53,358.1s14.65-25.07,41.2-23.32C432.73,334.78,409.79,361,391.53,358.1Z" transform="translate(-6.89 -7.05)"/><path class="cls-3" d="M399.52,338.47s23-24.05-4.6-37.07C394.92,301.4,378.1,330.57,399.52,338.47Z" transform="translate(-6.89 -7.05)"/><path class="cls-2" d="M314,434c-.21-.59.29-1.45,1.13-1.91l.08-.05c2.39-1.27,58.89-31.06,89.41-21.33.68.22.77,1,.2,1.74a2.32,2.32,0,0,1-2.26.95c-29.32-9.38-86.07,20.54-86.62,20.94-.83.46-1.68.37-1.9-.22l0-.07Z" transform="translate(-6.89 -7.05)"/><path class="cls-3" d="M335.59,425.7s22.5-12.45,24.72,7.47C360.23,433.18,335.65,441,335.59,425.7Z" transform="translate(-6.89 -7.05)"/><path class="cls-3" d="M334.21,423.82s23.21-7.56,19.54-26.86c0,0-23.73,13.4-19.54,26.86Z" transform="translate(-6.89 -7.05)"/><path class="cls-3" d="M361.46,416.17s22-6.93,20.52,15.61C382,431.78,358.91,432.9,361.46,416.17Z" transform="translate(-6.89 -7.05)"/><path class="cls-3" d="M360.83,414.07s20.66-3,22.51-22.65c0,0-22.55,8.65-22.51,22.65Z" transform="translate(-6.89 -7.05)"/><path class="cls-3" d="M388.05,411.45s19.47-1.25,13.12,19.2C401.17,430.65,382.17,426.33,388.05,411.45Z" transform="translate(-6.89 -7.05)"/><path class="cls-3" d="M388.16,409.34s19-.42,29.28-21.11c0,0-23.13,6.13-29.28,21.11Z" transform="translate(-6.89 -7.05)"/><path class="cls-3" d="M402.47,411.48s23.06-6.76,19.66,16.3C422.13,427.78,398.44,428.63,402.47,411.48Z" transform="translate(-6.89 -7.05)"/><path class="cls-2" d="M339.14,418.71a46.26,46.26,0,0,0,7.29-10.88,42.57,42.57,0,0,1-4.06,7.46,12.3,12.3,0,0,1,3.57-2.17,11.83,11.83,0,0,0-4,2.82,52.41,52.41,0,0,1-10.39,11l-.57-.79a52.4,52.4,0,0,0,7.43-6.65l0-.07A9.84,9.84,0,0,0,340,412a9.25,9.25,0,0,1-.86,6.69Z" transform="translate(-6.89 -7.05)"/><path class="cls-2" d="M340.61,425.11l0-.05a13.2,13.2,0,0,1,6.9-.77,13.49,13.49,0,0,0-6.35.86,28.93,28.93,0,0,1,4.41.94l0-.1,5.75,0-5.26.24a21.94,21.94,0,0,1,6.33,3.09,23.91,23.91,0,0,0-8.15-3,20.59,20.59,0,0,0,3.95,4.55,20.62,20.62,0,0,1-4.68-4.69,31.38,31.38,0,0,0-4.19-.37l3.64,5.84-4.36-5.85a38,38,0,0,0-6.78.54l.3-1.12a36.72,36.72,0,0,1,8.49-.11Z" transform="translate(-6.89 -7.05)"/><path class="cls-2" d="M364.36,412.09a54.21,54.21,0,0,0,4.42-3.71,7.69,7.69,0,0,0,1.66-3.71,6.72,6.72,0,0,1-1,3.06,48.56,48.56,0,0,0,4.63-5.17c-.77,1.08-1.6,2.15-2.5,3.2a8.63,8.63,0,0,1,2.59-1.48,8.85,8.85,0,0,0-3.38,2.33,50.32,50.32,0,0,1-4.28,4.23,37.86,37.86,0,0,1,3.92-1.44,40,40,0,0,0-4.33,1.79,53.05,53.05,0,0,1-8,5.79l-.24-.7a51.63,51.63,0,0,0,5.86-3.72,9.1,9.1,0,0,0,2.48-4.8,8.26,8.26,0,0,1-1.81,4.33Z" transform="translate(-6.89 -7.05)"/><path class="cls-2" d="M358.74,415.17a22,22,0,0,1,6.15,1.45,10.28,10.28,0,0,1,4.82.57,10.47,10.47,0,0,0-4.36-.37A17.89,17.89,0,0,1,369.1,419l4.06.79-3.69-.52a14.45,14.45,0,0,1,3,3.2,16,16,0,0,0-5.56-4.29l2,3.13-2.65-3.39a22.33,22.33,0,0,0-8.08-1.82Z" transform="translate(-6.89 -7.05)"/><path class="cls-2" d="M385.76,411.2a33.47,33.47,0,0,0,5-2,6.23,6.23,0,0,0,1.82-2.74,5.93,5.93,0,0,1-1.45,2.57,38.72,38.72,0,0,0,4.63-2.76,7,7,0,0,0,2.76-4.18,6.33,6.33,0,0,1-1.67,3.39l.48-.34a37.74,37.74,0,0,0,3-2.59c-.82.83-1.69,1.63-2.6,2.4l2.23-1-2.45,1.18a39.28,39.28,0,0,1-3.21,2.39,6.05,6.05,0,0,1,2.13-.33,6.41,6.41,0,0,0-2.51.59,36.89,36.89,0,0,1-8.18,4.11Z" transform="translate(-6.89 -7.05)"/><path class="cls-2" d="M386.57,409.77a13.73,13.73,0,0,1,4.14,1.92l0,.06a11.44,11.44,0,0,1,1.91,1.68,9.66,9.66,0,0,0,4.08,2.31,10.7,10.7,0,0,1-3.23-1.23,11.71,11.71,0,0,1,1.86,4.92,10.47,10.47,0,0,0-.82-2.26,4.37,4.37,0,0,1-.41,2.11,3.56,3.56,0,0,0-.05-3,10.81,10.81,0,0,0-2.83-3.13,8.73,8.73,0,0,1-.8,5.28,7.07,7.07,0,0,0,.1-5.72,14.2,14.2,0,0,0-4.85-2Z" transform="translate(-6.89 -7.05)"/><path class="cls-2" d="M405.65,413.39a16.59,16.59,0,0,1,5.07,2.32,14.91,14.91,0,0,0-4.41-1.88,20.72,20.72,0,0,1,2.56,2.1l0,0,.08.11a19.83,19.83,0,0,1,3,3.63,19.25,19.25,0,0,0-2.76-3.09,21.42,21.42,0,0,0,1.8,3.58,20.73,20.73,0,0,1-2.22-3.95,16.29,16.29,0,0,0-1.59-1.26,5.39,5.39,0,0,0,1.32,3.27,5.52,5.52,0,0,1-1.54-3.41,21.61,21.61,0,0,0-2.28-1.34,15.67,15.67,0,0,0,2,5,15.86,15.86,0,0,1-2.4-5.15,18.94,18.94,0,0,0-3.56-1.31l.27-.73A20.08,20.08,0,0,1,405.65,413.39Z" transform="translate(-6.89 -7.05)"/><path class="cls-2" d="M365.22,365.15a26.47,26.47,0,0,1,4,6.36,32.41,32.41,0,0,0-.75-9.38A32.61,32.61,0,0,1,369.66,375a53.44,53.44,0,0,1,2.45-6.17,50.42,50.42,0,0,0-3,10.16,50.08,50.08,0,0,1-3.95,12l-1.64-.08a54.55,54.55,0,0,0,3.54-8.44l-6.12-8.78,6.41,7.75A45.2,45.2,0,0,0,369,373a27,27,0,0,0-3.82-7.8Z" transform="translate(-6.89 -7.05)"/><path class="cls-2" d="M371.27,386.67a34.59,34.59,0,0,1,7.64-5.17,31.31,31.31,0,0,0-6.93,4.88,53.11,53.11,0,0,1,6.12-2.07l0-.05,6.68-3.15-5.6,2.9a43,43,0,0,1,7.46-1.2,47.46,47.46,0,0,0-11.22,2.78,27.22,27.22,0,0,0,7.43,0,28.39,28.39,0,0,1-8.27.37,53.77,53.77,0,0,0-11.27,6.15l-.59-.81a55.83,55.83,0,0,1,8.58-4.59Z" transform="translate(-6.89 -7.05)"/><path class="cls-2" d="M387.63,346.2a10.3,10.3,0,0,1,1.58,2.42,5.18,5.18,0,0,1,.45-2.51,4.22,4.22,0,0,0-.16,2.92l-.07.05a11.25,11.25,0,0,1,.9,3.87,17.91,17.91,0,0,1,2-3.58,15.31,15.31,0,0,0-2,4.1,19.82,19.82,0,0,1-.86,6.66l-1.09.27a23.23,23.23,0,0,0,1.09-4.24,12.87,12.87,0,0,0-2.69-3.73,13.63,13.63,0,0,1,2.83,3,16.26,16.26,0,0,0-.15-4.86,3.76,3.76,0,0,0-2.77-2.05,4.4,4.4,0,0,1,2.53,1.17A10.74,10.74,0,0,0,387.63,346.2Z" transform="translate(-6.89 -7.05)"/><path class="cls-2" d="M401.36,350.21a32,32,0,0,0-5.75,4.93,50.76,50.76,0,0,1,6-3.24,26.6,26.6,0,0,1,5.34-4,22.82,22.82,0,0,0-4.74,3.66,43.9,43.9,0,0,1,5.95-2.17,47.58,47.58,0,0,0-10.21,4.84,39.29,39.29,0,0,0,5.91-2,42.26,42.26,0,0,1-6.73,2.53,48.26,48.26,0,0,0-8.33,6.84l-.73-.53a49.53,49.53,0,0,1,6.53-5.25,32.67,32.67,0,0,1,6.79-5.63Z" transform="translate(-6.89 -7.05)"/><path class="cls-2" d="M397.1,323.8a32.7,32.7,0,0,1,2.58,3.43,26.26,26.26,0,0,0-1.47-6.44,26.64,26.64,0,0,1,2,7.21c.1.81.18,1.64.22,2.48a12.86,12.86,0,0,1,2-4,11.53,11.53,0,0,0-1.95,5.15,34.71,34.71,0,0,1-1.79,11.24l-1.28-.15a35.72,35.72,0,0,0,2-7.27,21,21,0,0,0-2.62-5.1,19.94,19.94,0,0,1,2.72,4.38,31.47,31.47,0,0,0,.22-6.9,34.17,34.17,0,0,0-2.57-4.05Z" transform="translate(-6.89 -7.05)"/><rect class="cls-4" x="176.78" y="118.73" width="181.04" height="313.57" rx="22.8"/><rect class="cls-5" x="196.43" y="156.21" width="141.39" height="230.61"/><rect class="cls-5" x="247.74" y="402.64" width="38.61" height="16.17" rx="5.61"/><circle class="cls-5" cx="267.61" cy="139.6" r="6.26"/><path class="cls-3" d="M275,232.39a50.18,50.18,0,1,0,50.17,50.17A50.18,50.18,0,0,0,275,232.39ZM307,308l-6.41,6.41c-6.74,6.74-24.6-.68-40.44-16.52s-22.92-33.7-16.51-40.44L250,251a6.73,6.73,0,0,1,9.1,0l9.44,9.43a6.28,6.28,0,0,1-2.36,10.45c-3,1-5.06,4.38-4.05,7.42,1.69,7.07,10.79,15.84,17.53,17.52a6.41,6.41,0,0,0,7.41-4,6.28,6.28,0,0,1,10.45-2.36l9.44,9.43A6.73,6.73,0,0,1,307,308Z" transform="translate(-6.89 -7.05)"/><path class="cls-2" d="M198.23,360.75c.76-.34.94-1.59.4-2.79-1.53-3.32-37.4-81.67-79.75-102.12-.95-.36-1.68.32-1.64,1.51a3.44,3.44,0,0,0,1.53,2.7c40.68,19.7,76.71,98.36,77.08,99.15C196.39,360.4,197.45,361.1,198.23,360.75Z" transform="translate(-6.89 -7.05)"/><path class="cls-3" d="M161.57,300.69s-19.31-30.18-38.54-5.94C123,294.75,148.92,320.21,161.57,300.69Z" transform="translate(-6.89 -7.05)"/><path class="cls-3" d="M164.26,299.81s-20.15-21.92-4.71-40.34c0,0,17.2,28.46,4.71,40.34Z" transform="translate(-6.89 -7.05)"/><path class="cls-3" d="M136.51,272s-17.38-19.64-24.83,3.26C111.71,275.26,132.29,289.85,136.51,272Z" transform="translate(-6.89 -7.05)"/><path class="cls-3" d="M138.31,270.11s-21.76-19.24-14.88-45C123.43,225.16,144.7,252.76,138.31,270.11Z" transform="translate(-6.89 -7.05)"/><path class="cls-3" d="M120.6,258.46s-19.14-27.18-37.26-2.68C83.34,255.78,108.69,277.94,120.6,258.46Z" transform="translate(-6.89 -7.05)"/><path class="cls-2" d="M197.76,360.91c-.63.09-1.37-.56-1.66-1.47l0-.09c-.78-2.6-19-63.8-3.58-91.85.35-.63,1.13-.56,1.75.14a2.33,2.33,0,0,1,.5,2.4c-14.9,26.94,3.44,88.42,3.72,89,.3.91,0,1.73-.58,1.83h-.12Z" transform="translate(-6.89 -7.05)"/><path class="cls-3" d="M193.77,338.11s-7.85-24.49,12.12-22.8C205.89,315.38,208.74,341,193.77,338.11Z" transform="translate(-6.89 -7.05)"/><path class="cls-3" d="M191.66,339.09s-2.92-24.23-22.57-24.38c0,0,8.54,25.88,22.57,24.38Z" transform="translate(-6.89 -7.05)"/><path class="cls-3" d="M189.43,310.88s-2.52-22.92,19.31-17.1C208.74,293.78,205.36,316.62,189.43,310.88Z" transform="translate(-6.89 -7.05)"/><path class="cls-3" d="M187.26,311.09s1.09-20.84-17.86-26.48c0,0,4.11,23.8,17.86,26.48Z" transform="translate(-6.89 -7.05)"/><path class="cls-3" d="M190,283.87s2.55-19.34,21.38-9.14C211.35,274.73,203.43,292.53,190,283.87Z" transform="translate(-6.89 -7.05)"/><path class="cls-3" d="M187.92,283.36s3.28-18.74-15-32.82c0,0,1.53,23.88,15,32.82Z" transform="translate(-6.89 -7.05)"/><path class="cls-3" d="M192.8,269.74s-2.16-23.94,19.8-16.13C212.6,253.61,208.84,277,192.8,269.74Z" transform="translate(-6.89 -7.05)"/><path class="cls-2" d="M187.6,333.27a46.46,46.46,0,0,0-9.26-9.27,43.24,43.24,0,0,1,6.53,5.43,12.53,12.53,0,0,1-1.44-3.92,11.93,11.93,0,0,0,2,4.47,52.54,52.54,0,0,1,8.79,12.33l-.88.41a53.38,53.38,0,0,0-5.09-8.59l-.07,0a9.87,9.87,0,0,0-7-3.05,9.24,9.24,0,0,1,6.4,2.15Z" transform="translate(-6.89 -7.05)"/><path class="cls-2" d="M194.16,333.07l0,0a13.24,13.24,0,0,1,.58-6.92,13.46,13.46,0,0,0-.39,6.4,28.66,28.66,0,0,1,1.78-4.14l-.09-.06,1.09-5.64-.79,5.2a22,22,0,0,1,4.27-5.61,23.84,23.84,0,0,0-4.51,7.42,20.47,20.47,0,0,0,5.23-3,20.62,20.62,0,0,1-5.5,3.68,31.1,31.1,0,0,0-1.18,4L201,332l-6.6,3.14a38.28,38.28,0,0,0-.78,6.76l-1-.52a36.62,36.62,0,0,1,1.54-8.34Z" transform="translate(-6.89 -7.05)"/><path class="cls-2" d="M186,307.24a53.6,53.6,0,0,0-2.78-5.05,7.54,7.54,0,0,0-3.32-2.35,6.75,6.75,0,0,1,2.81,1.57,49,49,0,0,0-4.18-5.54c.92,1,1.8,2,2.65,3.07a9,9,0,0,1-.94-2.82,8.72,8.72,0,0,0,1.63,3.76,50.13,50.13,0,0,1,3.32,5,35.71,35.71,0,0,1-.65-4.13,38.14,38.14,0,0,0,.91,4.6,52.15,52.15,0,0,1,4.12,9l-.73.1a50,50,0,0,0-2.51-6.47,9.08,9.08,0,0,0-4.23-3.36,8.23,8.23,0,0,1,3.9,2.61Z" transform="translate(-6.89 -7.05)"/><path class="cls-2" d="M187.93,313.35a22.25,22.25,0,0,1,2.61-5.75A10.39,10.39,0,0,1,192,303a10.48,10.48,0,0,0-1.21,4.2,17.9,17.9,0,0,1,2.85-3.25l1.56-3.83L194,303.61a15.29,15.29,0,0,1,3.73-2.37,16.15,16.15,0,0,0-5.29,4.63l3.47-1.39-3.84,1.94a22.42,22.42,0,0,0-3.35,7.58Z" transform="translate(-6.89 -7.05)"/><path class="cls-2" d="M189.28,286.07a35.39,35.39,0,0,0-1-5.27,6.33,6.33,0,0,0-2.34-2.32,5.91,5.91,0,0,1,2.23,1.92,37.92,37.92,0,0,0-1.8-5.08,7,7,0,0,0-3.57-3.51,6.33,6.33,0,0,1,3,2.29l-.25-.53a39.39,39.39,0,0,0-1.94-3.49c.65,1,1.27,2,1.84,3l-.53-2.37.68,2.63a36.41,36.41,0,0,1,1.73,3.62,5.94,5.94,0,0,1,.09-2.16,6.25,6.25,0,0,0,.09,2.57,37.54,37.54,0,0,1,2.45,8.83Z" transform="translate(-6.89 -7.05)"/><path class="cls-2" d="M188,285a13.65,13.65,0,0,1,2.68-3.7l.06,0a11.44,11.44,0,0,1,2-1.54,9.83,9.83,0,0,0,3.06-3.55,11.08,11.08,0,0,1-1.84,2.93,11.44,11.44,0,0,1,5.19-.87,10.28,10.28,0,0,0-2.38.36,4.4,4.4,0,0,1,2,.81,3.56,3.56,0,0,0-3-.53,10.6,10.6,0,0,0-3.62,2.17,8.77,8.77,0,0,1,5,1.8,7.11,7.11,0,0,0-5.59-1.2,14.09,14.09,0,0,0-2.86,4.38Z" transform="translate(-6.89 -7.05)"/><path class="cls-2" d="M195.29,267a16.78,16.78,0,0,1,3.26-4.53,15.12,15.12,0,0,0-2.71,4,22.43,22.43,0,0,1,2.57-2.1l0,0,.11-.06a19.81,19.81,0,0,1,4.14-2.2,19.48,19.48,0,0,0-3.57,2.11,20.23,20.23,0,0,0,3.86-1.07,19.57,19.57,0,0,1-4.31,1.4,19,19,0,0,0-1.53,1.32,5.45,5.45,0,0,0,3.46-.65,5.54,5.54,0,0,1-3.65.84,22.1,22.1,0,0,0-1.75,2,15.66,15.66,0,0,0,5.26-1,15.54,15.54,0,0,1-5.51,1.35,19.77,19.77,0,0,0-2,3.24l-.66-.4A20.07,20.07,0,0,1,195.29,267Z" transform="translate(-6.89 -7.05)"/><path class="cls-2" d="M140.12,297.29a26.68,26.68,0,0,1,7-2.68,32.81,32.81,0,0,0-9.35-1.08,32.62,32.62,0,0,1,12.87,1.31,53.73,53.73,0,0,1-5.58-3.6,49.92,49.92,0,0,0,9.38,4.95,50.31,50.31,0,0,1,11,6.2l-.4,1.6a55.26,55.26,0,0,0-7.59-5.12l-9.8,4.3,8.85-4.78a44.84,44.84,0,0,0-8-3.33,27,27,0,0,0-8.39,2.23Z" transform="translate(-6.89 -7.05)"/><path class="cls-2" d="M162.41,295.53a33.76,33.76,0,0,1-3.59-8.5,31.24,31.24,0,0,0,3.44,7.75,52.89,52.89,0,0,1-.85-6.41l0,0-1.79-7.16,1.75,6a44.83,44.83,0,0,1,.27-7.55,46.7,46.7,0,0,0,.56,11.55,27.33,27.33,0,0,0,1.39-7.3,28.38,28.38,0,0,1-1.24,8.19,54,54,0,0,0,3.85,12.25l-.91.42a54.15,54.15,0,0,1-2.83-9.31Z" transform="translate(-6.89 -7.05)"/><path class="cls-2" d="M125.87,271.63a10,10,0,0,1,2.69-1.08,5.21,5.21,0,0,1-2.37-.94,4.19,4.19,0,0,0,2.83.73l0,.08a14.18,14.18,0,0,1,1.75-.23,15.17,15.17,0,0,1,2.21.1,18.43,18.43,0,0,1-3.12-2.69,15.73,15.73,0,0,0,3.63,2.76,19.72,19.72,0,0,1,6.37,2.14l.06,1.11a23.22,23.22,0,0,0-4-1.89,12.82,12.82,0,0,0-4.18,1.92,13.3,13.3,0,0,1,3.49-2.19,15.76,15.76,0,0,0-4.79-.8A3.75,3.75,0,0,0,128,273a4.41,4.41,0,0,1,1.64-2.26A10.93,10.93,0,0,0,125.87,271.63Z" transform="translate(-6.89 -7.05)"/><path class="cls-2" d="M132.48,258.93a31.61,31.61,0,0,0,3.72,6.6,49,49,0,0,1-2-6.48,26.49,26.49,0,0,1-2.85-6A22.91,22.91,0,0,0,134,258.4a45.5,45.5,0,0,1-1-6.25,47.47,47.47,0,0,0,2.78,11,41.91,41.91,0,0,0-.84-6.2,43.08,43.08,0,0,1,1.17,7.1,47.41,47.41,0,0,0,5.1,9.5l-.66.62a49.5,49.5,0,0,1-3.89-7.43,32.48,32.48,0,0,1-4.2-7.76Z" transform="translate(-6.89 -7.05)"/><path class="cls-2" d="M105.75,258a32.54,32.54,0,0,1,3.85-1.87,26.39,26.39,0,0,0-6.6.2,26.4,26.4,0,0,1,7.46-.57c.82.06,1.65.14,2.48.27a13,13,0,0,1-3.52-2.7,11.54,11.54,0,0,0,4.67,2.9,34.72,34.72,0,0,1,10.68,3.94l-.4,1.23a36.47,36.47,0,0,0-6.74-3.35,21,21,0,0,0-5.52,1.59,20.1,20.1,0,0,1,4.83-1.82,30.87,30.87,0,0,0-6.73-1.55,32.14,32.14,0,0,0-4.46,1.73Z" transform="translate(-6.89 -7.05)"/><rect id="sheet" class="cls-5" x="70.4" y="299.69" width="123.07" height="123.07"/><rect class="cls-6" x="100.19" y="327.01" width="63.48" height="8.5"/><rect class="cls-6" x="87.26" y="341.44" width="90.06" height="8.5"/><rect class="cls-6" x="86.99" y="355.88" width="90.06" height="8.5"/><rect class="cls-6" x="86.72" y="370.31" width="90.06" height="8.5"/><path class="cls-7" d="M138,291.59a2,2,0,0,1,2.1,0l12,7.4,13,8.05H113L126,299Z" transform="translate(-6.89 -7.05)"/><path class="cls-8" d="M155.22,400.72a2.92,2.92,0,0,1,0-4.94L184,375.28l31.5-22.45c.28-.2.72,0,.72.28v90.28c0,.31-.44.48-.72.27L184,421.21Z" transform="translate(-6.89 -7.05)"/><path class="cls-8" d="M121.93,400.72a2.91,2.91,0,0,0,0-4.94l-28.76-20.5L61.68,352.83c-.29-.2-.73,0-.73.28v90.28c0,.31.44.48.73.27l31.49-22.45Z" transform="translate(-6.89 -7.05)"/><path class="cls-9" d="M142.54,381.61a7,7,0,0,0-8.41,0L99.16,411,60.88,443.18c-.35.29-.06.74.47.74h154c.53,0,.82-.45.47-.74L177.5,411Z" transform="translate(-6.89 -7.05)"/><path class="cls-7" d="M215.48,352.91a.48.48,0,0,1,.63.06.29.29,0,0,1,0-.09,9.55,9.55,0,0,0-.5-4.48c-1.38-3.69-4.79-5.42-9.06-8.09-1.7-1.06-3.81-2.45-6.21-4.18v27.55Z" transform="translate(-6.89 -7.05)"/><path class="cls-7" d="M61.68,352.87,77.29,364V336.69c-2.48,1.73-4.66,3.12-6.41,4.18-4.4,2.67-7.92,4.4-9.33,8.09a9.11,9.11,0,0,0-.56,4.09A.47.47,0,0,1,61.68,352.87Z" transform="translate(-6.89 -7.05)"/><path class="cls-10" d="M285.82,255.11h-.1a2.64,2.64,0,0,1-1.67-.8,7.59,7.59,0,0,1-2.39-2.81,4.1,4.1,0,0,1-.39-2.53c.19-.89.84-2.17,1.87-2.4.57-.13,1,.11,1.42-.25a1.24,1.24,0,0,0,.34-.83c0-.25,0-.72-.86-1.8s-1.32-1.28-1.37-1.95c0-.3.05-.75.3-.86s1.06.57,1.45,1a8.13,8.13,0,0,1,1.22,1.77,27.05,27.05,0,0,0,1.18,2.5c.74,1,1.2.89,1.5,1.69a4.79,4.79,0,0,1,0,2.26c-.11.81-.27,1.33-.28,1.82a5.06,5.06,0,0,1-.09.72,1.31,1.31,0,0,1-.06.23C287.61,253.78,286.85,255,285.82,255.11Z" transform="translate(-6.89 -7.05)"/><path class="cls-10" d="M355.5,439.59a20.89,20.89,0,0,0,1.13,3.72c.43,1.05,1.13,2.48.58,3.51,0,.06-.06.1-.07.13a4.49,4.49,0,0,1-1.94,1.36,9.81,9.81,0,0,1-2.16.77,40.32,40.32,0,0,1-9.91,1.46c-1.17,0-3.15-.05-3.25-.58,0-.19.2-.44.48-.73a3.88,3.88,0,0,1,1.11-.77,33.51,33.51,0,0,1,5.09-1.54l3.6-1.71a1.66,1.66,0,0,0,1-1,1.07,1.07,0,0,0,0-.51c-.21-1.06-1.18-3.73-1.29-4.05Z" transform="translate(-6.89 -7.05)"/><path class="cls-10" d="M321.68,440.5a30.74,30.74,0,0,1,.37,3.23c.18,2.79-.16,3.33-.37,3.59a4.2,4.2,0,0,1-2.13,1.1,9.31,9.31,0,0,1-2.31.47c-4.42.38-6.88.58-10.43.1-1.22-.16-3.28-.49-3.34-1,0-.21.24-.42.56-.67a3.69,3.69,0,0,1,1.22-.63,36.48,36.48,0,0,1,5.42-.85l3.89-1.21a2.12,2.12,0,0,0,1.08-.88,4.67,4.67,0,0,0,.84-1.56,10.45,10.45,0,0,0,.47-3.7Z" transform="translate(-6.89 -7.05)"/><path class="cls-10" d="M337.24,246.64c.6-1.78.91-2.24.72-2.87-.37-1.26-1.66-1.1-2.86-2.58-.63-.77-.9-2-1.41-4.34s-.34-2.19-.79-4.45c-.72-3.6-1.44-5.49-.42-7.36a.61.61,0,0,1,.09-.16c1.45-2,7.39-1.56,10.43,1.62,2.14,2.25,2.39,5.37,2.52,7a30.33,30.33,0,0,1-.54,5.94c-.71,5-1.2,5.69-.72,7.37.8,2.82,2.86,3.35,2.52,4.5-.73,2.41-10.56,2.41-11.34,0C335.19,250.51,336.12,250,337.24,246.64Z" transform="translate(-6.89 -7.05)"/><path class="cls-11" d="M344.8,243.41A5.06,5.06,0,0,1,341,242c-1.63-1.55-1.85-3.74-2.16-6.84-.15-1.5-.07-2.36-.36-5-.26-2.45-.48-3.31-.82-3.35-.68-.09-.95,3.17-2.59,3.53-1.23.26-2.55-1.24-2.88-1.62a8.91,8.91,0,0,1-1.44-2.88c-1.46-3.68-1.47-3.89-1.44-4.14.3-2.18,3.49-3.38,4.5-3.77,5.11-2,10,.29,11,.72,1.75.8,4.76,2.19,6.29,5.39,1.14,2.38.76,4.77,0,9.53-.79,5-2.11,6.87-3.06,7.92A5.28,5.28,0,0,1,344.8,243.41Z" transform="translate(-6.89 -7.05)"/><path class="cls-12" d="M330.41,343.57c2,9.34,5.36,9.29,9.14,21,2.49,7.72,1.22,8.32,3.72,27.39,1.94,14.79,3.07,17.2,5.07,33.48.83,6.75,1.37,12.29,1.69,15.9h6.43c-.26-7.19-.51-18-.34-31.12.2-15.86.79-17.43,1-32.46.41-27.58-1.53-25.62-.67-43.63.94-19.82,3.54-27.48-.68-30.1-4.82-3-14.7,3-19.95,9.47C326.45,325,329.78,340.6,330.41,343.57Z" transform="translate(-6.89 -7.05)"/><path class="cls-13" d="M317.06,332.55c-.35,2.19-1.2,7.88-2,19.95-.16,2.29-.66,9.83-1,22-.29,9.82-.44,14.73-.34,19.95.27,14.65,1.67,18.64,2,34.5.13,5.66.07,10.27,0,13.19l6.76.34a272,272,0,0,0,3-32.47c.2-6.42.45-12.85.67-19.28.43-12.46.5-15.24,1.69-19.61,1.65-6,4.05-10,7.78-16.23a193.13,193.13,0,0,1,13.53-18.94c5.23-6.47,6.62-7.38,7.78-10.82.16-.48,3.5-10.87-2-17.25-6.62-7.62-22.16-5.17-29.09,2.37-.34.37-.55.66-1,1.23C319.92,317.88,318.3,324.67,317.06,332.55Z" transform="translate(-6.89 -7.05)"/><path class="cls-9" d="M359.58,317.64c1.86-3.21-.44-5.69-1.44-20-.49-7.05-.43-13.51-.36-20.64.13-13,.83-16-1.7-20.35a18,18,0,0,0-10.63-8.27c-6.38-1.63-11.74,1.31-13.93,2.47-4.08,2.18-6.64,5.37-11.59,11.64-6.88,8.73-7.83,12.06-10.53,12-3.26-.07-4.34-5-10.12-12a56.1,56.1,0,0,0-11.22-10.34l-2.9,3.34c2.91,4.68,5.11,8.59,6.57,11.27,3.85,7.09,5,10.15,8.3,14.35,3.74,4.74,5.33,7.31,8.06,7.91,7,1.53,14.18-8.67,14.8-9.56l4.64-3.3q-1,5.73-2,11.47s-1.6,5.85-3.49,16.85A132.08,132.08,0,0,0,320.4,319C348.58,325.21,357.11,321.92,359.58,317.64Z" transform="translate(-6.89 -7.05)"/><path class="cls-8" d="M119.27,171.27a10,10,0,0,0-3.63-3.63,10,10,0,1,0,0,17.26,10,10,0,0,0,3.63-3.63,10.06,10.06,0,0,0,0-10Zm-2.17,3.48-7,7.05a.82.82,0,0,1-.6.25.81.81,0,0,1-.58-.25l-4.7-4.7a.76.76,0,0,1-.23-.58.79.79,0,0,1,.23-.6l1.18-1.17a.81.81,0,0,1,1.17,0l2.93,2.94,5.3-5.29a.8.8,0,0,1,.58-.24.82.82,0,0,1,.59.24l1.18,1.17a.85.85,0,0,1,.23.6A.8.8,0,0,1,117.1,174.75Z" transform="translate(-6.89 -7.05)"/><path class="cls-8" d="M420.87,178.24a9.92,9.92,0,0,0-3.62-3.63,10,10,0,0,0-13.64,13.64,9.92,9.92,0,0,0,3.63,3.62,10,10,0,0,0,10,0,10,10,0,0,0,3.62-3.62,10,10,0,0,0,0-10Zm-2.16,3.48-7,7.05a.82.82,0,0,1-.6.25.77.77,0,0,1-.58-.25l-4.7-4.7a.77.77,0,0,1-.24-.58.81.81,0,0,1,.24-.6l1.18-1.17a.8.8,0,0,1,.58-.24.82.82,0,0,1,.59.24l2.93,2.94,5.3-5.29a.8.8,0,0,1,.58-.24.78.78,0,0,1,.58.24l1.19,1.17a.85.85,0,0,1,.23.6A.8.8,0,0,1,418.71,181.72Z" transform="translate(-6.89 -7.05)"/><path class="cls-8" d="M100.76,58.7a9.88,9.88,0,0,0-3.63-3.63,10,10,0,0,0-10,0,10,10,0,0,0-3.63,3.63,10.08,10.08,0,0,0,0,10,10.18,10.18,0,0,0,3.63,3.63,10.08,10.08,0,0,0,10,0,10,10,0,0,0,3.63-3.63,10,10,0,0,0,0-10Zm-2.17,3.48-7,7.05a.78.78,0,0,1-.59.25.79.79,0,0,1-.59-.25l-4.7-4.7a.8.8,0,0,1-.23-.58.85.85,0,0,1,.23-.6l1.18-1.17a.82.82,0,0,1,.59-.24.8.8,0,0,1,.58.24L91,65.12l5.29-5.29a.82.82,0,0,1,.59-.24.8.8,0,0,1,.58.24L98.59,61a.81.81,0,0,1,.24.6A.77.77,0,0,1,98.59,62.18Z" transform="translate(-6.89 -7.05)"/><rect class="cls-8" x="51.52" y="281.71" width="5.1" height="20.81" rx="1.07"/><rect class="cls-8" x="58.4" y="288.76" width="5.1" height="20.81" rx="1.07" transform="translate(353.23 231.16) rotate(90)"/><rect class="cls-8" x="440.95" y="276.2" width="5.1" height="20.81" rx="1.07"/><rect class="cls-8" x="447.83" y="283.26" width="5.1" height="20.81" rx="1.07" transform="translate(737.15 -163.77) rotate(90)"/><rect class="cls-8" x="163.46" y="91.87" width="5.1" height="20.81" rx="1.07"/><rect class="cls-8" x="170.34" y="98.92" width="5.1" height="20.81" rx="1.07" transform="translate(275.33 -70.61) rotate(90)"/><path class="cls-9" d="M457.88,34.57,420.64,49.81a1.44,1.44,0,0,1-2-1.27c0-.92-1.13-24.39-1.19-25.66L412.91,8.94a1.45,1.45,0,0,1,.47-1.57A1.47,1.47,0,0,1,415,7.24l43,24.74a1.45,1.45,0,0,1,.71,1.5,1.48,1.48,0,0,1-.88,1.09Z" transform="translate(-6.89 -7.05)"/><path class="cls-9" d="M457.88,34.57,420.64,49.81a1.44,1.44,0,0,1-2-1.27l-1-22.75,41.16,7.69a1.48,1.48,0,0,1-.88,1.09Z" transform="translate(-6.89 -7.05)"/><path class="cls-9" d="M457.23,34.67l-37.88-2.81L406.2,34.77A1.44,1.44,0,0,1,405,32.24L418,21.58a1.46,1.46,0,0,1,1.3-.28l38.38,10.54a1.46,1.46,0,0,1,1,1.64,1.44,1.44,0,0,1-1.53,1.19Z" transform="translate(-6.89 -7.05)"/><path class="cls-9" d="M457.23,34.67l-37.88-2.81L406.2,34.77A1.44,1.44,0,0,1,405,32.24l12.62-6.45,41.16,7.69a1.44,1.44,0,0,1-1.53,1.19Z" transform="translate(-6.89 -7.05)"/><path class="cls-14" d="M276.46,121.32a44.63,44.63,0,0,1-4.07-4.4" transform="translate(-6.89 -7.05)"/><path class="cls-15" d="M266.52,107a35.22,35.22,0,0,1-1.8-6c-4.57-22.55,15.33-40,18-42.27,13-11,27.76-12.36,33.56-12.57,1.7-.6,24.24-8.14,39.38,5,2.34,2,10.39,9,10.21,19.75-.18,10.41-7.94,16.92-9.3,18-8.41,6.78-21,7.46-32.06,1.9-2-1.8-10.84-10.11-10.48-22,.29-9.47,6.29-15.86,9.66-19.45,15-16,41.34-18.13,57-17.87" transform="translate(-6.89 -7.05)"/><path class="cls-14" d="M386.51,31.74c2.76.16,4.84.36,6,.48" transform="translate(-6.89 -7.05)"/></svg>