<svg id="Layer_1" data-name="Layer 1" xmlns="http://www.w3.org/2000/svg" viewBox="0 0 565.33 455.61"><defs><style>.cls-1{fill:#a0c5cf;}.cls-2{fill:#e1c2bf;}.cls-3{fill:#006089;}.cls-4{fill:#bcbcbc;}.cls-5{fill:#979899;}.cls-6{fill:#b2b1b2;}.cls-7{fill:#015877;}.cls-8{fill:#e8cecd;}.cls-9{fill:#0093b7;}.cls-10{fill:#a58a77;}.cls-11{fill:#848789;}.cls-12{fill:#22262b;}.cls-13{fill:#60a346;}.cls-14{fill:#65b54c;}.cls-15{fill:#563a37;}.cls-16{fill:#6b4f4d;}.cls-17,.cls-18,.cls-19,.cls-20,.cls-22,.cls-25,.cls-26,.cls-27{fill:none;}.cls-17{stroke:#000;}.cls-17,.cls-18,.cls-22,.cls-26{stroke-miterlimit:10;}.cls-17,.cls-18{stroke-width:0.5px;}.cls-18{stroke:#868786;}.cls-19,.cls-20{stroke:#006089;}.cls-19,.cls-26,.cls-27{stroke-linecap:round;}.cls-19,.cls-20,.cls-25{stroke-linejoin:round;}.cls-19,.cls-20,.cls-25,.cls-26{stroke-width:2px;}.cls-20,.cls-25{stroke-linecap:square;}.cls-21{fill:#c9c9c9;}.cls-22{stroke:#341f12;}.cls-23{fill:#030403;}.cls-24{fill:#edd798;}.cls-25{stroke:#0093b7;}.cls-26,.cls-27{stroke:#bcbcbc;stroke-dasharray:10;}.cls-27{stroke-miterlimit:1;stroke-width:3px;}</style></defs><title>process-03</title><path class="cls-1" d="M0,435.24H565.33a0,0,0,0,1,0,0v.69a19.68,19.68,0,0,1-19.68,19.68h-526A19.68,19.68,0,0,1,0,435.93v-.69a0,0,0,0,1,0,0Z"/><path class="cls-2" d="M431,441.48a59.2,59.2,0,0,1,2,5.62c1.5,4.93,1.14,6.08.88,6.66-.55,1.23-1.56,1.93-3.22,3.1a18.46,18.46,0,0,1-3.79,2c-7.48,3-11.66,4.59-18,5.58-2.17.34-5.88.81-6.22-.14-.12-.35.25-.87.7-1.49a7,7,0,0,1,1.83-1.76,64.88,64.88,0,0,1,9-4.34l6.21-4.2a3.17,3.17,0,0,0,1.5-2.15,2.21,2.21,0,0,0-.15-1c-.7-1.91-3.27-6.6-3.58-7.15Z" transform="translate(-14.97 -27.78)"/><path class="cls-3" d="M188.23,342.68c.39-2.16-5.7-4.76-8.27-5.85-3.76-1.61-8.26-3.53-12.58-1.76-2.94,1.21-5.84,4.15-5.21,6.24.31,1,1.49,2,5.83,2.84C176.23,345.8,187.72,345.53,188.23,342.68Z" transform="translate(-14.97 -27.78)"/><rect class="cls-4" x="227.61" y="319.5" width="5.58" height="113.7"/><path class="cls-5" d="M297.08,465.51h-52v-5.45h8.26l44.07,2.88s.36,2.57,0,2.57" transform="translate(-14.97 -27.78)"/><path class="cls-5" d="M193.15,465.51h52v-5.45h-8.26l-44.07,2.88s-.36,2.57,0,2.57" transform="translate(-14.97 -27.78)"/><rect class="cls-4" x="340.8" y="319.12" width="5.58" height="113.7"/><path class="cls-5" d="M410.27,465.46h-52V460h8.27l44.06,2.88s.37,2.58,0,2.58" transform="translate(-14.97 -27.78)"/><path class="cls-5" d="M306.34,465.46h52V460H350L306,462.88s-.37,2.58,0,2.58" transform="translate(-14.97 -27.78)"/><rect class="cls-5" x="110.9" y="315.65" width="350.36" height="3.9" rx="1.95"/><rect class="cls-6" x="217.36" y="297.08" width="2.66" height="46.03" transform="translate(422.42 612.4) rotate(-180)"/><rect class="cls-6" x="210.61" y="288.99" width="2.66" height="16.17" transform="translate(494.05 57.35) rotate(90)"/><rect class="cls-6" x="200.26" y="254.2" width="4.5" height="77.03" transform="translate(352.59 580.29) rotate(-172.95)"/><path class="cls-4" d="M545.43,364.07c.28-.27,8.6-12.72,9.32-15.14,3.69-12.25,12.62-46,13.83-50.52,0,0,11.86-44.15,11.72-60.32,0-2.69-.48-6.33-3.43-8.9a12.69,12.69,0,0,0-6.29-2.72,202.86,202.86,0,0,1-.76,22c-1,11.44-2.57,17.65-8.26,43.88-5.36,24.73-4.65,22.3-7.76,36.13S547.81,354.35,545.43,364.07Z" transform="translate(-14.97 -27.78)"/><rect class="cls-4" x="490.89" y="367.2" width="54.86" height="7.09" rx="3.55" transform="translate(1021.66 713.71) rotate(-180)"/><rect class="cls-4" x="516.76" y="374.29" width="3.11" height="84.91" transform="translate(1021.66 805.71) rotate(-180)"/><circle cx="503.35" cy="433.22" r="3.2"/><path class="cls-4" d="M518.32,449.8h26.23a0,0,0,0,1,0,0V453a0,0,0,0,1,0,0h-23a3.2,3.2,0,0,1-3.2-3.2v0A0,0,0,0,1,518.32,449.8Z" transform="translate(1047.89 875.03) rotate(-180)"/><path class="cls-4" d="M541.47,460.22h1.15c1.06,0,1.93-.48,1.93-1.08v-6.27h-3.08Z" transform="translate(-14.97 -27.78)"/><path class="cls-4" d="M480.32,422h23a0,0,0,0,1,0,0v3.2a0,0,0,0,1,0,0H477.12a0,0,0,0,1,0,0v0A3.2,3.2,0,0,1,480.32,422Z"/><path class="cls-4" d="M495.17,460.22H494c-1.07,0-1.93-.48-1.93-1.08v-6.27h3.08Z" transform="translate(-14.97 -27.78)"/><circle cx="478.66" cy="433.22" r="3.2"/><circle cx="528.03" cy="433.22" r="3.2"/><path class="cls-2" d="M481.35,428.73a59.48,59.48,0,0,1,3.69,4.7c3,4.2,3,5.41,2.94,6-.14,1.34-.87,2.32-2.08,4a18.22,18.22,0,0,1-2.95,3.13c-6.17,5.18-9.62,8-15.32,11-1.95,1-5.33,2.62-5.94,1.83-.23-.3,0-.91.19-1.64a7.13,7.13,0,0,1,1.18-2.25,65.12,65.12,0,0,1,7.19-7l4.56-5.95a3.16,3.16,0,0,0,.75-2.51,2.27,2.27,0,0,0-.45-.87c-1.27-1.59-5.18-5.23-5.65-5.66Z" transform="translate(-14.97 -27.78)"/><path class="cls-7" d="M449.75,371.88c1.85,1.56,1.8,1.4,2.88,2.34,1.85,1.61,6.61,8.64,7.52,10.15,1.62,2.71,3.53,3.81,12.91,20.19,13.44,23.47,12.41,25,12.11,26.74-.24,1.47-1.41,3.06-9.82,7.32-3.8,1.92-4.76,3.27-5.72,2.74-1.19-.66-.57-2.86-1.37-7.31a42.23,42.23,0,0,0-1.6-5.72c-2.59-8-7.78-16.18-10.28-20.34a126,126,0,0,0-8.23-11.88c-4-5.09-4.67-5.06-5.72-7.32-3.94-8.52.95-19.85,3.66-19.88C446.61,368.9,446.72,369.32,449.75,371.88Z" transform="translate(-14.97 -27.78)"/><path class="cls-2" d="M452.47,306.77c-3.92,2.61-5.83,2-19.89,4.57-13.12,2.41-19.71,3.66-21.25,6.17-2.27,3.69-.15,7-2.29,15.54-.22.87-.76,2.93,0,3.43.61.4,1.94-.24,2.74-1.14,2-2.2,0-5.09,1.37-6.63,1.57-1.71,4.74,1.05,8.92.23,4.75-.93,4.72-5.28,10.28-8.69,2-1.23,5.95-1.83,13.72-3,9.12-1.34,15.16-1.83,15.31-3.43.1-1-2.44-1.3-3.43-3.88-.91-2.38.43-4.32-.45-5C456.4,304.05,453.31,306.2,452.47,306.77Z" transform="translate(-14.97 -27.78)"/><path class="cls-8" d="M492.5,322.29c-6,1.66-10.94,2.65-14.4,3.26-12.19,2.12-18.39,3.13-23.83.51-4.18-2-4.53-4.2-9.26-5.49-5.48-1.49-11.77-.29-11.85.94,0,.57,2.56,1.56,7.77,3.54,3.37,1.28,4.93,1.75,6.29,3.43s-.58,5-1.58,6-2.09.94-2.06,1.2c.08.55,3.4.67,6.35.46,3.75-.28,4.82-1,8.4-1.38a51.25,51.25,0,0,1,7-.11s3.87,0,12.05-.23a130.16,130.16,0,0,0,17-1.71,17.28,17.28,0,0,0-1.88-10.4Z" transform="translate(-14.97 -27.78)"/><path class="cls-2" d="M497.14,257.85a13.61,13.61,0,0,1-5.48-.23,15,15,0,0,1-4-2.28,29.09,29.09,0,0,1-4.12-3.66c-5.15-5.69-5-11.77-10.85-16.57a15.37,15.37,0,0,0-8.35-3.66,12,12,0,0,0-6.17.91,12.45,12.45,0,0,0-6.25,6.77c-.6,1.48-1.7,4.15-.72,6.83.76,2.08,2.73,3.75,3.2,4.35,2.6,3.26,3,3.17,3.43,4.45a12.61,12.61,0,0,1,.57,6.29c-.13.58-.33,1.2,0,1.6.7.84,2.82-.37,3.66.57.47.52,0,1.12.57,1.71s1.36.13,2.06.69c1,.8.05,2.35,1.14,3.43.57.57,1,.42,1.71,1.26.6.68.55,1.05.92,1.32,1.07.8,3.54-.83,3.77-1,4-2.69,4.17-7,6.4-7.09.62,0,1,.28,1.94.92a67,67,0,0,0,7.32,3.88c1.75.84,7.42,3.56,10.74,1.26,1.32-.91,1.83-2.51,2.86-5.71.81-2.55,1.73-5.4.57-6.4C501.34,256.88,500.52,257.56,497.14,257.85Z" transform="translate(-14.97 -27.78)"/><path class="cls-3" d="M505.56,339.85c-8.64.9-12.71,2.72-22.86,5a104.05,104.05,0,0,1-14.83,2.7c-2.79.25-3.56.18-17.17.73-6.79.27-11.05.49-14.17,3.65a11.54,11.54,0,0,0-2.28,3.43,70,70,0,0,0-6.17,20.11,193.14,193.14,0,0,1-6.86,34.29,225.2,225.2,0,0,1-8.91,23.31c-1.61,3.67-3.05,6.72-4.12,8.92a22.05,22.05,0,0,0,5.26,3.42,23.91,23.91,0,0,0,15.31,1.38l10.29-2.52c.07-2.41.2-5.79.45-9.83.59-9.32,1.48-16.58,3.43-30.17,3.72-25.81,4.89-30,8.69-31.77,2.16-1,3.12-.22,10.51.23,4.64.29,9.8,0,20.12-.46,21.51-1,19.08-2.33,30.62-2.28,9.31,0,12.43.89,17.6-1.37,6-2.64,12.35-8.41,11.43-13-.26-1.33-1-1.7-8.91-7.77-6.72-5.13-7.26-5.65-9.15-6.4a30.93,30.93,0,0,0-10.51-1.83A50,50,0,0,0,505.56,339.85Z" transform="translate(-14.97 -27.78)"/><path class="cls-1" d="M491.07,272.42c-3.28,1.24-3.05,4.62-6.42,10-2.63,4.18-6.43,7.07-14,12.83-5.57,4.23-8.43,6.36-11.89,7.14-2.81.63-4.73.41-5.48,1.66-1.64,2.78,1.5,9.68,6.43,11.18,1.87.56,3.81.29,9.47-2.39a113.79,113.79,0,0,0,15.5-9c12.6-8.36,13.25-8.35,14.64-10.53,3.28-5.16,5.07-13.7.82-18.23C498,272.75,494.1,271.28,491.07,272.42Z" transform="translate(-14.97 -27.78)"/><path class="cls-9" d="M540.43,362.46c3.46.12,7.49-21.29,8.58-38.74,1.17-18.86,2-31.53-5.63-44.78-2-3.54-8-14.09-19.75-19.33-9-4-14.14-1.71-22.28-4.46-.59-.2-2.48-.86-3.43,0s-.13,3.1,0,5.49c0,.71.14,7.11-3.08,8.91-1.31.73-2,0-2.86.57-3.05,1.86-1.11,13.51,4.57,24.11,5,9.3,7.55,7.91,11.09,16.23,3.38,8,3.77,15.74,4,20.12.3,5.73-2.61,9.17-.45,12.68,1.07,1.76,2.26,2,7.08,4.34,11.28,5.47,16.92,8.2,20.69,13.38C539.64,361.92,539.9,362.44,540.43,362.46Z" transform="translate(-14.97 -27.78)"/><path class="cls-1" d="M538.15,296.18c1.37-5.9,2.75-11.86-.34-17.83-.53-1-4.51-8.69-12-8.91a13.33,13.33,0,0,0-11.66,6.85c-1.66,3.09-.72,4.87-.34,17.49.18,6.1.26,9.19-.35,11-2.56,7.51-10.13,11.38-12.68,12.68-5,2.58-7.53.66-9.6,3.09-3.28,3.85-1.78,12.45,2.4,14.4,2.35,1.09,5-.16,7.54-1.37,14.27-6.95,21.41-10.42,25.37-14.74A49.3,49.3,0,0,0,538.15,296.18Z" transform="translate(-14.97 -27.78)"/><path class="cls-10" d="M161.88,329.32c3.43.9,4,.25,7.1.89a79.85,79.85,0,0,1,7.88,3.44c3.28,1.51,5.46,2.55,7,4.88.77,1.18.66,1.6.55,1.78-.62,1-4.47-.27-6.33-.89-5.2-1.73-5.4-3-7.88-2.89-1.91.07-1.9.83-6.1,1.67a13,13,0,0,1-4.44.44c-1-.13-4.25-.54-5.44-3-1.34-2.75.55-6.7,2.88-7.44C158.34,327.81,159,328.55,161.88,329.32Z" transform="translate(-14.97 -27.78)"/><path class="cls-4" d="M48.85,367c-.27-.26-8.36-12.36-9.06-14.7-3.58-11.91-12.25-44.69-13.43-49.08,0,0-11.52-42.89-11.39-58.59,0-2.61.48-6.16,3.34-8.65a12.25,12.25,0,0,1,6.11-2.64,195.53,195.53,0,0,0,.74,21.33c1,11.12,2.49,17.14,8,42.62,5.2,24,4.52,21.66,7.54,35.1S46.54,357.57,48.85,367Z" transform="translate(-14.97 -27.78)"/><rect class="cls-4" x="33.57" y="342.28" width="53.29" height="6.89" rx="3.44"/><rect class="cls-4" x="58.7" y="349.17" width="3.02" height="82.47"/><circle cx="60.21" cy="433.39" r="3.1"/><path class="cls-4" d="M37.84,422.52H60.21a0,0,0,0,1,0,0v3.11a0,0,0,0,1,0,0H34.74a0,0,0,0,1,0,0v0A3.11,3.11,0,0,1,37.84,422.52Z"/><path class="cls-4" d="M52.7,460.42H51.58c-1,0-1.87-.47-1.87-1.06v-6.08h3Z" transform="translate(-14.97 -27.78)"/><path class="cls-4" d="M75.18,450.3h25.48a0,0,0,0,1,0,0v3.11a0,0,0,0,1,0,0H78.29a3.11,3.11,0,0,1-3.11-3.11v0A0,0,0,0,1,75.18,450.3Z" transform="translate(160.87 875.92) rotate(-180)"/><path class="cls-4" d="M97.67,460.42h1.12c1,0,1.87-.47,1.87-1.06v-6.08h-3Z" transform="translate(-14.97 -27.78)"/><circle cx="84.19" cy="433.39" r="3.1"/><circle cx="36.23" cy="433.39" r="3.1"/><path class="cls-10" d="M163.88,295.19a20.16,20.16,0,0,1,6.49-3c3.14-.81,7.46-1.1,7.83,0,.19.58-.73,1.55-1.5,2s-1.36.27-2.67.84c-.61.26-1.52.66-1.5,1.08s1.27.81,2.75,1.08a44.89,44.89,0,0,0,7,.58,29.89,29.89,0,0,1,7.9,1.42,16.53,16.53,0,0,1,3.25,1.5c1.21.72,3.46,2.07,3.25,3-.14.63-1.36.8-5.41,1.24-6.39.7-7.21.68-9.16,1.09-4.55.94-3.77,1.81-6.25,1.83-3.52,0-4.85-1.72-9.57-1.67-.88,0-1.21.08-1.67-.16C162.46,304.86,163,299.63,163.88,295.19Z" transform="translate(-14.97 -27.78)"/><g id="feet"><path class="cls-10" d="M117.49,434.19c-1.37,1.93-2.39,3.62-3.12,4.9-2.46,4.35-2.36,5.52-2.24,6.13.26,1.28,1.06,2.16,2.39,3.62a17.6,17.6,0,0,0,3.16,2.73c6.47,4.4,10.08,6.83,15.88,9.11,2,.78,5.4,2,5.92,1.19.19-.32,0-.89-.34-1.57a6.72,6.72,0,0,0-1.37-2.05,61.51,61.51,0,0,0-7.62-6l-5-5.31a3,3,0,0,1-1-2.35,2.15,2.15,0,0,1,.34-.88c1.08-1.66,4.5-5.56,4.91-6Z" transform="translate(-14.97 -27.78)"/><path class="cls-10" d="M167.61,442.06a54.81,54.81,0,0,0-2,5.46c-1.46,4.79-1.1,5.91-.85,6.48.53,1.19,1.5,1.87,3.12,3a17.54,17.54,0,0,0,3.68,2c7.27,2.88,11.33,4.46,17.48,5.42,2.11.33,5.71.78,6-.13.12-.35-.24-.86-.68-1.46a7,7,0,0,0-1.78-1.71,63.5,63.5,0,0,0-8.75-4.21l-6-4.08a3.05,3.05,0,0,1-1.46-2.09,2.06,2.06,0,0,1,.15-.93c.68-1.86,3.17-6.41,3.47-6.95Z" transform="translate(-14.97 -27.78)"/></g><path class="cls-10" d="M105.51,267.39c.62-.84,2.67.84,5.77.67,5.51-.3,9.5-6.17,10.43-7.55,2.88-4.24,3.24-8.11,4-8s.26,3.69,1.11,8a26.94,26.94,0,0,0,4.44,10.22,42,42,0,0,1-4.22,3.55,31,31,0,0,1-10.43,5.33c-2.38.64-6.38,1.72-7.77,0-.74-.92-.06-1.78-.23-4C108.26,270.88,104.71,268.48,105.51,267.39Z" transform="translate(-14.97 -27.78)"/><path class="cls-11" d="M107,274.19a101.49,101.49,0,0,0,11.66,17.32c8.12,9.71,12.55,11.23,14.65,11.76a23.2,23.2,0,0,0,9.1.34c4.17-.65,7.66-2.37,11.88-4.44a53.84,53.84,0,0,1,7.66-3.33c1.15-.39,2.26-.72,3.33-1,3.36,7.76,3.09,10.44,2,11.32-.81.66-15.58,5.89-20.55,7.27-4.12,1.14-7.23,1.24-12.09,1.39-7.71.24-11.59.43-15.32-1.33-2.29-1.09-4.44-3.07-8.65-7-6.14-5.71-9.21-8.57-10.33-10.65-4.73-8.81-2.12-21.65,2.33-23C104.05,272.43,105.62,273.2,107,274.19Z" transform="translate(-14.97 -27.78)"/><path class="cls-4" d="M103.38,263.43c7.82,11.71,8.16,20.32,7.33,25.64-.27,1.68-.91,4.72-11.66,23.65-7.14,12.57-8.54,14.21-9.66,18.65-2.33,9.29-.09,17.8,2,23.31A125.89,125.89,0,0,0,70.08,357c-7.82,1.53-10,2.71-12.66,1.33-4-2.09-5.25-8.1-5.33-30.64-.06-18.25-.09-27.38,1.34-31.3,7.32-20.19,26.92-28.36,29.3-29.31A52.57,52.57,0,0,1,103.38,263.43Z" transform="translate(-14.97 -27.78)"/><path class="cls-12" d="M148.74,375.42c-1.8,1.52-1.75,1.36-2.8,2.27-1.8,1.57-6.43,8.4-7.31,9.87-1.57,2.62-3.43,3.69-12.54,19.61-13,22.8-12,24.29-11.77,26,.25,1.42,1.38,3,9.55,7.1,3.69,1.87,4.62,3.18,5.55,2.67,1.16-.65.56-2.79,1.33-7.11a40.21,40.21,0,0,1,1.56-5.55c2.52-7.79,7.55-15.72,10-19.76a120,120,0,0,1,8-11.54c3.89-4.95,4.54-4.92,5.55-7.11,3.83-8.28-.92-19.29-3.55-19.32C151.78,372.53,151.68,372.93,148.74,375.42Z" transform="translate(-14.97 -27.78)"/><path d="M93.67,343.07c8.4.87,12.34,2.64,22.2,4.88a99.9,99.9,0,0,0,14.41,2.62c2.72.25,3.46.18,16.68.71,6.59.26,10.73.48,13.76,3.55a11.06,11.06,0,0,1,2.22,3.33,68.14,68.14,0,0,1,6,19.54A185.46,185.46,0,0,0,175.6,411a217.72,217.72,0,0,0,8.66,22.65c1.56,3.56,3,6.52,4,8.66a21.13,21.13,0,0,1-5.1,3.33A23.28,23.28,0,0,1,168.27,447l-10-2.44c-.07-2.34-.2-5.63-.44-9.55-.57-9.06-1.44-16.11-3.33-29.3-3.61-25.08-4.75-29.18-8.44-30.87-2.1-.95-3-.21-10.21.23-4.51.27-9.52,0-19.54-.45-20.9-1-18.54-2.26-29.75-2.22-9.33,0-11.91.41-17.1-1.33C66.25,370,58,366.63,55.29,359.32c-.46-1.23-1.47-4-.22-6.21,1.07-1.92,3.12-2.2,7.77-3.56,6.37-1.85,14.69-6.38,23.28-6.71A48.69,48.69,0,0,1,93.67,343.07Z" transform="translate(-14.97 -27.78)"/><path class="cls-10" d="M118.61,247.47c-.37,3.58.64,6.58,2,10.16a34.5,34.5,0,0,0,5.66,10.16c1.82,2.22,6.7,8.2,13.32,8.82.69.07,4,.38,4.66-1,.32-.67-.15-1.46-.5-2.16-1.52-3-2.58-7.93-1-10.16,1.3-1.83,3.8-1.05,4.33-2.66.36-1.13-.73-1.9-2-4.33a20.14,20.14,0,0,1-2.17-8.16c-.38-5.36,2.19-6.44,1.33-9.42-1.13-3.91-6.87-6.6-11.66-6.33C125,232.82,119.3,240.81,118.61,247.47Z" transform="translate(-14.97 -27.78)"/><path class="cls-11" d="M95.84,266.82c5.81,2.66,6.86,10,7,11,.89,7-3.73,8.64-3.66,17,0,1.62.07,9.18,5,13.32,2.37,2,17.4,8,19.65,9.66,4.55,1.44,19.63,8.18,24.31,8.66s7.31-1,8.66.66c1.68,2,0,7.32-3,8.66-1,.45-1.75.27-5.66-.33-6.64-1-2.68-.21-7-1-9.56-1.75-14.33-2.62-20-4.33-1-.3-4.32-1.32-8.66-3-14.46-5.59-23.4-9-29.31-16.65-6.58-8.47-6.61-18.17-6.66-21.31-.07-5.11-.22-15.69,7-20.65C83.85,268.26,90,264.16,95.84,266.82Z" transform="translate(-14.97 -27.78)"/><path class="cls-13" d="M263,322.1c.18,0,.33-.21.33-.47,0-.73,0-17.81-6.43-25-.15-.14-.36-.08-.45.14a.62.62,0,0,0,0,.61c6.18,6.91,6.18,24.07,6.18,24.24S262.78,322.1,263,322.1Z" transform="translate(-14.97 -27.78)"/><path class="cls-14" d="M261.18,308.24s-1.07-7-7-4.25C254.19,304,257,310.72,261.18,308.24Z" transform="translate(-14.97 -27.78)"/><path class="cls-14" d="M261.78,308.31s-2-5.62,2.69-7.67c0,0,.81,6.56-2.69,7.67Z" transform="translate(-14.97 -27.78)"/><path class="cls-14" d="M258.85,301s-1.63-5-5.13-1.46C253.73,299.54,256.44,303.87,258.85,301Z" transform="translate(-14.97 -27.78)"/><path class="cls-14" d="M259.37,300.81s-2.52-5.26,1.12-9.33C260.49,291.48,262.17,298.21,259.37,300.81Z" transform="translate(-14.97 -27.78)"/><path class="cls-14" d="M257,297.25s-1.3-6.48-7-3.56C249.93,293.69,252.9,299.78,257,297.25Z" transform="translate(-14.97 -27.78)"/><path class="cls-13" d="M262.86,322.09a.36.36,0,0,1-.19-.4v0c.08-.53,2-13.08,7.51-16.86.12-.08.27,0,.32.17a.45.45,0,0,1-.11.48c-5.32,3.62-7.23,16.22-7.23,16.36s-.15.31-.28.28h0Z" transform="translate(-14.97 -27.78)"/><path class="cls-14" d="M264.12,317.65s.65-5.06,4.4-3.11C268.51,314.55,266.78,319.41,264.12,317.65Z" transform="translate(-14.97 -27.78)"/><path class="cls-14" d="M263.62,317.65s1.59-4.61-2.22-6.26c0,0-.65,5.37,2.22,6.26Z" transform="translate(-14.97 -27.78)"/><path class="cls-14" d="M265.7,312.38s1.56-4.34,5.3-1.49C271,310.89,268.3,314.73,265.7,312.38Z" transform="translate(-14.97 -27.78)"/><path class="cls-14" d="M265.26,312.24s2.08-3.67-1.12-6.25c0,0-1.32,4.63,1.12,6.25Z" transform="translate(-14.97 -27.78)"/><path class="cls-14" d="M268.22,307.56s2.23-3.28,5,.11C273.21,307.67,270.07,310.23,268.22,307.56Z" transform="translate(-14.97 -27.78)"/><path class="cls-14" d="M267.87,307.29a6.65,6.65,0,0,0,0-7.15s-1.84,4.43,0,7.15Z" transform="translate(-14.97 -27.78)"/><path class="cls-14" d="M270,305.24s1.71-4.49,5.3-1.27C275.34,304,272.51,307.88,270,305.24Z" transform="translate(-14.97 -27.78)"/><path class="cls-13" d="M263.35,316.27a9.1,9.1,0,0,0-1-2.44,8.08,8.08,0,0,1,.79,1.52,2.11,2.11,0,0,1,.07-.83,2.12,2.12,0,0,0,0,1,9.69,9.69,0,0,1,.61,2.95h-.21a9.21,9.21,0,0,0-.23-2h0a2.05,2.05,0,0,0-1.09-1.13,2,2,0,0,1,1.06.92Z" transform="translate(-14.97 -27.78)"/><path class="cls-13" d="M264.64,316.77h0a2.58,2.58,0,0,1,.73-1.2,2.62,2.62,0,0,0-.64,1.12,7.79,7.79,0,0,1,.71-.6h0l.72-.93-.62.87a5.16,5.16,0,0,1,1.33-.66,5.3,5.3,0,0,0-1.54,1,5.12,5.12,0,0,0,1.29-.11,4.8,4.8,0,0,1-1.4.21,5.05,5.05,0,0,0-.59.63l1.47.09-1.57,0a7.21,7.21,0,0,0-.75,1.16l-.16-.18a7.79,7.79,0,0,1,1-1.38Z" transform="translate(-14.97 -27.78)"/><path class="cls-13" d="M265.36,311.44a10.94,10.94,0,0,0-.09-1.14,1.51,1.51,0,0,0-.44-.7,1.46,1.46,0,0,1,.41.52,9.7,9.7,0,0,0-.32-1.34,7.74,7.74,0,0,1,.24.77,1.65,1.65,0,0,1,.07-.59,1.59,1.59,0,0,0,0,.81,9.38,9.38,0,0,1,.2,1.18c.07-.27.15-.54.24-.79a8.46,8.46,0,0,0-.23.9,9.17,9.17,0,0,1,0,2l-.15,0a10.43,10.43,0,0,0,.09-1.38,1.74,1.74,0,0,0-.53-1,1.58,1.58,0,0,1,.53.79Z" transform="translate(-14.97 -27.78)"/><path class="cls-13" d="M265.19,312.7a4.83,4.83,0,0,1,1-.82,2.19,2.19,0,0,1,.71-.71,2,2,0,0,0-.61.66,3.83,3.83,0,0,1,.84-.35l.65-.56-.55.53a3.73,3.73,0,0,1,.94-.12,3.62,3.62,0,0,0-1.45.4l.8,0-.92,0a4.5,4.5,0,0,0-1.33,1.09Z" transform="translate(-14.97 -27.78)"/><path class="cls-13" d="M267.89,307.9a6.9,6.9,0,0,0,.28-1,1.24,1.24,0,0,0-.25-.61,1.26,1.26,0,0,1,.26.53,6.24,6.24,0,0,0,.1-1.06,1.3,1.3,0,0,0-.38-.93,1.21,1.21,0,0,1,.38.66v-.11a7.2,7.2,0,0,0-.07-.8c0,.23.07.47.09.7l.11-.47-.1.53a7.06,7.06,0,0,1,0,.8,1,1,0,0,1,.21-.39,1.27,1.27,0,0,0-.22.47A6.72,6.72,0,0,1,268,308Z" transform="translate(-14.97 -27.78)"/><path class="cls-13" d="M267.74,307.6a2.92,2.92,0,0,1,.86-.44h0a2.68,2.68,0,0,1,.53-.12,2,2,0,0,0,.92-.38,2.37,2.37,0,0,1-.62.37,2.56,2.56,0,0,1,1.09.28,2.34,2.34,0,0,0-.5-.14.89.89,0,0,1,.32.32.74.74,0,0,0-.53-.34,2.31,2.31,0,0,0-.9.09,1.83,1.83,0,0,1,.82.74,1.55,1.55,0,0,0-1-.68,3.25,3.25,0,0,0-.94.55Z" transform="translate(-14.97 -27.78)"/><path class="cls-13" d="M270.77,305a3.57,3.57,0,0,1,1-.55,3.19,3.19,0,0,0-.88.5,4,4,0,0,1,.68-.17h0a4.26,4.26,0,0,1,1-.06,4.41,4.41,0,0,0-.89.09,4.05,4.05,0,0,0,.85.12,4.5,4.5,0,0,1-1-.1l-.41.11a1.24,1.24,0,0,0,.73.17,1.22,1.22,0,0,1-.79-.15c-.17.06-.35.13-.52.21a3.37,3.37,0,0,0,1.12.25,3.53,3.53,0,0,1-1.2-.21,4.69,4.69,0,0,0-.67.42l-.09-.12A4.38,4.38,0,0,1,270.77,305Z" transform="translate(-14.97 -27.78)"/><path class="cls-13" d="M257.3,305.86a5.82,5.82,0,0,1,1.61.1,6.93,6.93,0,0,0-1.73-1,7.1,7.1,0,0,1,2.39,1.3,10.86,10.86,0,0,1-.76-1.11,10.31,10.31,0,0,0,1.38,1.66,10.55,10.55,0,0,1,1.6,2l-.23.26a9.44,9.44,0,0,0-1-1.55l-2.3,0,2.16-.13a10,10,0,0,0-1.26-1.26,6.15,6.15,0,0,0-1.84-.29Z" transform="translate(-14.97 -27.78)"/><path class="cls-13" d="M261.8,307.38a6.23,6.23,0,0,1,.06-1.83,5.92,5.92,0,0,0,0,1.68,9.71,9.71,0,0,1,.41-1.22h0l.29-1.44-.2,1.23a8.52,8.52,0,0,1,.73-1.33,8.8,8.8,0,0,0-.93,2.12,5.34,5.34,0,0,0,.93-1.2,5.62,5.62,0,0,1-1,1.38,10.07,10.07,0,0,0-.34,2.52h-.22a11.14,11.14,0,0,1,.28-1.91Z" transform="translate(-14.97 -27.78)"/><path class="cls-13" d="M256.81,300.06a2.56,2.56,0,0,1,.62,0,1,1,0,0,1-.38-.36.91.91,0,0,0,.49.36v0a2.47,2.47,0,0,1,.36.11,2.39,2.39,0,0,1,.43.2,3.28,3.28,0,0,1-.37-.75,2.67,2.67,0,0,0,.46.8,4.21,4.21,0,0,1,1.05.91l-.09.21a4.92,4.92,0,0,0-.6-.67,3.29,3.29,0,0,0-1,0,2.94,2.94,0,0,1,.88-.1,3.21,3.21,0,0,0-.86-.55.88.88,0,0,0-.71.21,1,1,0,0,1,.53-.27A2.57,2.57,0,0,0,256.81,300.06Z" transform="translate(-14.97 -27.78)"/><path class="cls-13" d="M259.24,298.31a5.78,5.78,0,0,0,.13,1.5,8.36,8.36,0,0,1,.19-1.33,4.5,4.5,0,0,1,0-1.32,3.9,3.9,0,0,0,0,1.18,8,8,0,0,1,.37-1.2,8.42,8.42,0,0,0-.44,2.2,7.89,7.89,0,0,0,.39-1.19,8.79,8.79,0,0,1-.4,1.38,8.88,8.88,0,0,0,.14,2.13l-.18.06a8.37,8.37,0,0,1-.1-1.66,5.7,5.7,0,0,1-.12-1.75Z" transform="translate(-14.97 -27.78)"/><path class="cls-13" d="M254.11,295.94a7,7,0,0,1,.92,0,5.39,5.39,0,0,0-1.31-.51,5.78,5.78,0,0,1,1.5.51l.46.25a2.34,2.34,0,0,1-.44-.77,2.33,2.33,0,0,0,.65.91,7,7,0,0,1,1.73,1.59l-.18.19a7.63,7.63,0,0,0-1-1.16,4.6,4.6,0,0,0-1.22-.17,4.49,4.49,0,0,1,1.1.07,6.28,6.28,0,0,0-1.17-.84,7,7,0,0,0-1-.05Z" transform="translate(-14.97 -27.78)"/><path class="cls-15" d="M259.93,314.1h8.47a6.94,6.94,0,0,1,6.94,6.94V344.3a0,0,0,0,1,0,0H253a0,0,0,0,1,0,0V321A6.94,6.94,0,0,1,259.93,314.1Z" transform="translate(513.36 630.61) rotate(180)"/><rect class="cls-16" x="238.02" y="286.31" width="22.35" height="3.33"/><path d="M343.19,304.68h16.33a0,0,0,0,1,0,0v5.06a6.55,6.55,0,0,1-6.55,6.55h-3.24a6.55,6.55,0,0,1-6.55-6.55v-5.06A0,0,0,0,1,343.19,304.68Z"/><path class="cls-17" d="M373.69,339.11c2.05.09,3.76-1.08,3.83-2.6s-1.55-2.82-3.6-2.9" transform="translate(-14.97 -27.78)"/><path class="cls-18" d="M361.63,331.15a2.63,2.63,0,0,1,.18-3.13c.43-.41,1-.2,1.32-.56s.51-1.41-.69-3.94" transform="translate(-14.97 -27.78)"/><path class="cls-18" d="M365.65,331.81a2.63,2.63,0,0,1,.19-3.13c.42-.41,1-.21,1.31-.56s.51-1.41-.69-3.95" transform="translate(-14.97 -27.78)"/><path class="cls-18" d="M369.36,330.46a2.64,2.64,0,0,1,.19-3.13c.42-.41.95-.2,1.31-.56s.52-1.41-.68-3.94" transform="translate(-14.97 -27.78)"/><line class="cls-19" x1="379.24" y1="315.73" x2="425.79" y2="315.73"/><line class="cls-20" x1="368.04" y1="276.77" x2="379.61" y2="314.94"/><path class="cls-21" d="M281.81,308.09H319.2a3.68,3.68,0,0,1,3.68,3.68v.47a3.68,3.68,0,0,1-3.68,3.68H281.81a0,0,0,0,1,0,0v-7.82A0,0,0,0,1,281.81,308.09Z"/><path class="cls-22" d="M295.65,335.67h37.29c2.71,0,4.91,1.27,4.91,2.83v2.17c0,1.56-2.2,2.83-4.91,2.83H295.65" transform="translate(-14.97 -27.78)"/><path class="cls-21" d="M295.65,327.65h37.48a3.68,3.68,0,0,1,3.68,3.68v.46a3.68,3.68,0,0,1-3.68,3.68H295.65a0,0,0,0,1,0,0v-7.82A0,0,0,0,1,295.65,327.65Z" transform="translate(617.5 635.34) rotate(-180)"/><path class="cls-22" d="M337.85,327.45H300.56c-2.71,0-4.91,1.27-4.91,2.83v2.17c0,1.56,2.2,2.83,4.91,2.83h37.29" transform="translate(-14.97 -27.78)"/><path class="cls-23" d="M143.5,243.29c-1.62.53-2.72-3.08-6.72-4.35-3.13-1-7.46-.38-9,2-2.14,3.29,1.63,9,.67,9.51s-3.85-4.49-5-4c-.86.36,2.82,5.74.83,8.85-1,1.48-3.16,2.43-4.67,1.83-3.12-1.24-3.57-9.25-1.5-15.18a16.12,16.12,0,0,1,6.51-8.84,15.68,15.68,0,0,1,11.34-2c2,.38,7.06,1.36,8.68,5.34C145.72,239.15,145,242.79,143.5,243.29Z" transform="translate(-14.97 -27.78)"/><path class="cls-24" d="M452.9,245c1.75-1.48.43-4.23,1.87-5.13,1.18-.73,3.52.19,4.63,1.63,1,1.26.5,2.27,1.51,3.13s3,.65,3.75.5c3.59-.68,4.33-3.38,6-3s2.94,3.78,2.75,6.5c-.18,2.5-1.47,3.75-.88,4.51s2.75-.72,5.63-.88c3.87-.22,5.53,2.7,6.64,2,1.69-1.07-.41-8.61-4.26-15-3.25-5.41-6.1-10.13-11.89-11.51-7.51-1.8-13.8,3.52-14.64,4.25a15.87,15.87,0,0,0-4.88,7.76c-.3,1.18-1.16,4.55.38,5.63A3,3,0,0,0,452.9,245Z" transform="translate(-14.97 -27.78)"/><path class="cls-3" d="M471.88,249.88c-.07.17-.17.37-.18.4a3.73,3.73,0,0,1-.63.9,1.2,1.2,0,0,1-.68.43c-.06,0-.31,0-.37-.08s.48-.44.65-1a1.62,1.62,0,0,0,0-.76c-.11-.62-.38-.71-.61-1.42-.09-.28-.28-.89,0-1.13a.51.51,0,0,1,.33-.11,1.69,1.69,0,0,1,1.35.55A2.42,2.42,0,0,1,471.88,249.88Z" transform="translate(-14.97 -27.78)"/><path class="cls-23" d="M142.31,264.18c-.35-.1-.87-.25-1.49-.49-.88-.33-1.45-.64-1.76-.77-2.43-1.07-3.88-.71-3.91-1.13s2.55-1.87,5.15-1.12a7.71,7.71,0,0,1,1.81.87,5.94,5.94,0,0,1,.86.54,1.94,1.94,0,0,0,.94.25,2.83,2.83,0,0,0-1,.7A3,3,0,0,0,142.31,264.18Z" transform="translate(-14.97 -27.78)"/><polyline class="cls-25" points="270.35 33.27 258.36 42.87 270.35 51.74"/><polyline class="cls-25" points="288.43 33.27 300.42 42.87 288.43 51.74"/><line class="cls-25" x1="276.35" y1="51.74" x2="283.55" y2="33.27"/><rect class="cls-3" x="243.42" y="109.37" width="49.54" height="12.98" rx="4.76"/><rect class="cls-9" x="242.65" y="88.49" width="80.22" height="12.98" rx="5.31"/><rect class="cls-1" x="242.65" y="67.62" width="64.91" height="12.98" rx="4.76"/><line class="cls-26" x1="282.42" y1="162.52" x2="282.42" y2="262.87"/><circle class="cls-27" cx="282.67" cy="77.81" r="76.31"/></svg>
