<svg id="Layer_1" data-name="Layer 1" xmlns="http://www.w3.org/2000/svg" viewBox="0 0 565.33 466.96"><defs><style>.cls-1{fill:#a0c5cf;}.cls-2{fill:#bcbcbc;}.cls-11,.cls-13,.cls-15,.cls-16,.cls-17,.cls-3,.cls-4{fill:none;}.cls-11,.cls-13,.cls-17,.cls-3,.cls-4{stroke:#0093b7;}.cls-13,.cls-15,.cls-16,.cls-3{stroke-linecap:round;}.cls-11,.cls-3,.cls-4{stroke-linejoin:round;}.cls-11,.cls-15,.cls-3,.cls-4{stroke-width:2px;}.cls-4{stroke-linecap:square;}.cls-5{fill:#ceb8b7;}.cls-6{fill:#0f0808;}.cls-7{fill:#e1c2bf;}.cls-8{fill:#8baab2;}.cls-9{fill:#0093b7;}.cls-10{fill:#80bace;}.cls-12{fill:#563b37;}.cls-13,.cls-15,.cls-17{stroke-miterlimit:10;}.cls-14{fill:#979899;}.cls-15,.cls-16{stroke:#bcbcbc;stroke-dasharray:10;}.cls-16{stroke-miterlimit:1;stroke-width:3px;}.cls-17{stroke-width:4px;}.cls-18{fill:#60a346;}.cls-19{fill:#65b54c;}.cls-20{fill:#563a37;}.cls-21{fill:#6b4f4d;}</style></defs><title>process-04</title><path class="cls-1" d="M0,446.59H565.33a0,0,0,0,1,0,0v.69A19.68,19.68,0,0,1,545.65,467h-526A19.68,19.68,0,0,1,0,447.29v-.69a0,0,0,0,1,0,0Z"/><path class="cls-2" d="M430.67,386c.3-.23,8.84-10.75,9.51-12.83,3.36-10.56,11.26-39.7,12.34-43.61,0,0,10.54-38.12,9.38-52.28a10.05,10.05,0,0,0-4.4-8,18.05,18.05,0,0,0-7.21-2.67,138.1,138.1,0,0,1,.51,19.19c-.43,10-1.78,15.34-6.52,38.05-4.46,21.42-3.82,19.32-6.45,31.29S432.73,377.62,430.67,386Z" transform="translate(-14.97 -21.31)"/><rect class="cls-2" x="409.75" y="394.01" width="2.58" height="70.36" transform="translate(807.12 837.07) rotate(-180)"/><rect class="cls-2" x="385.22" y="387.68" width="51.65" height="9.36" rx="4.52" transform="translate(807.12 763.42) rotate(180)"/><ellipse cx="396.07" cy="444.88" rx="3.01" ry="3.23"/><path class="cls-2" d="M411,454.87h24.69a0,0,0,0,1,0,0v3.24a0,0,0,0,1,0,0H414.17A3.12,3.12,0,0,1,411,455v-.11A0,0,0,0,1,411,454.87Z" transform="translate(831.81 891.68) rotate(-180)"/><path class="cls-2" d="M432.84,465.41h1.09c1,0,1.81-.49,1.81-1.1V458h-2.9Z" transform="translate(-14.97 -21.31)"/><path class="cls-2" d="M374.5,433.57h21.57a0,0,0,0,1,0,0v3.24a0,0,0,0,1,0,0H371.38a0,0,0,0,1,0,0v-.11A3.12,3.12,0,0,1,374.5,433.57Z"/><path class="cls-2" d="M389.25,465.41h-1.09c-1,0-1.81-.49-1.81-1.1V458h2.9Z" transform="translate(-14.97 -21.31)"/><ellipse cx="372.83" cy="444.88" rx="3.01" ry="3.23"/><ellipse cx="419.32" cy="444.88" rx="3.01" ry="3.23"/><line class="cls-3" x1="283.77" y1="329.16" x2="337.99" y2="329.16"/><line class="cls-4" x1="270.72" y1="280.44" x2="284.08" y2="327.77"/><path class="cls-5" d="M388.37,364.23c-2.29-1.36-5,.19-7.43,1.21-9.92,4.24-22.28,3-35.26,1.74-3-.3-7.07-.38-8.38,1.73-.92,1.49.28,2.95.16,8.28,0,1.47-.1,1.48-.3,4.08-.14,1.75-.27,4.31-.25,8.47,0,11.18,1.09,19.3,1.88,32.9h0c0,.05,0,2.87.09,11.63,0,10.61,0,14.08-1.58,18.38-1,2.82-2,5.56-4.58,7.63-4.3,3.5-10.46,2.87-10.46,4.08,0,.21.36.49,1.09,1.05a11.62,11.62,0,0,0,2.57,1.55c2.51,1,8.05.41,11.7.38,5.81-.06,7.05,1.38,8.54,0,2.73-2.55,1.09-9.26.79-10.53-1.77-7.34,2-10.07,3-27,.65-11.1.37-32.73-1.43-38.85a14.68,14.68,0,0,1-.08-8.09,5.59,5.59,0,0,1,.39-.93c6.26-11.82,38.42,1.65,42.53-8C392.7,370.85,391,365.77,388.37,364.23Z" transform="translate(-14.97 -21.31)"/><path class="cls-5" d="M374.48,424.57" transform="translate(-14.97 -21.31)"/><path class="cls-6" d="M389.58,358.45c4.28-1.36,6.27-2.79,8.54-3.8,5.48-2.44,14.38-3.15,29.09,5.42a31.93,31.93,0,0,1-.16,11.2,24.85,24.85,0,0,1-3.95,10.11c-3.77,5.16-8.84,7.38-13.91,8.85-10.44,3-18.1,2.08-28.62,1.63-6.37-.28-15.69-.45-27.2.18a57.47,57.47,0,0,0-.31-15c-1.61-10.31-5.2-14-3.48-17,1.61-2.78,5.65-.93,22.29-.18C380.18,360.27,384.54,360.05,389.58,358.45Z" transform="translate(-14.97 -21.31)"/><path class="cls-7" d="M351.82,306.16c-.84-.58-2.13-1.46-3.71-2.5-2.88-1.91-5-3.19-6-3.83-8.86-5.51-8.18-6.35-13-8.66-3.21-1.54-5-1.87-8.2-4.1-4-2.77-4.36-4.43-4.43-5.27-.16-2.17,1.56-3.91,2.2-4.53.23-.22,3-2.85,5.36-2.23,2.1.54,2.51,3.21,3.3,2.93s.09-2.72,1.67-5c1.29-1.88,3.58-3,4.08-2.54s-1.3,2.07-1.62,4.88a9.08,9.08,0,0,0,1,5l1.59,4.53c4.63,2.31,9.51,5,14.54,8,3.46,2.09,6.72,4.19,9.77,6.27Q355.06,302.6,351.82,306.16Z" transform="translate(-14.97 -21.31)"/><path class="cls-7" d="M384.78,323.69c-1.82-1.88-4.81,1.06-16.15,5.13-5.65,2-12.72,4.52-18.83,4.4-.67,0-3.35-.09-7.09,0-2.28.05-4.14.14-5.3.21-1.3,1.95-2.44,3.58-3.33,4.82-1.13,1.57-2.67,3.78-4.89,6.45l-1.53,1.85a4.43,4.43,0,0,0,2.69.11c1-.3,1.83-1.14,3.41-2.8,1.28-1.35,2.6-3,2.61-3,.33-.37,1-1.07,1.28-.87s.13.53.09,1.18c-.05.87,0,1.74,0,2.61-.08,1.94-.12,2.92-.09,3,.35.83,1.88,1.4,7,.35a23.35,23.35,0,0,1,.85-3.82,9.86,9.86,0,0,1,1.49-3.47c1.32-1.55,3.3-1.18,7.09-1.09,2.37.06,4.74-.17,7.11-.19,4.16,0,7.72-.08,11.69-.5,5.47-.58,8.24-.9,9.89-2.61C385.82,332.29,386.82,325.79,384.78,323.69Z" transform="translate(-14.97 -21.31)"/><path class="cls-8" d="M404.32,289.25a3.88,3.88,0,0,0-.49-.23c-2.56-1-11.48,5.72-11.48,5.72l-4.89,3.72-9.39,4.69a39.17,39.17,0,0,1-10.17-1.76,43.17,43.17,0,0,1-10-4.69,53.39,53.39,0,0,1-5.93-4.2l-2.38,2.05a38.56,38.56,0,0,0-5.26,9.71c5.27,1.82,9.48,3.52,12.39,4.76,4,1.71,6.13,2.78,10.18,4.31,3.89,1.47,7.15,2.45,9.32,3.06a85.71,85.71,0,0,0,28.65-7.23C408.19,294.88,406.49,290.55,404.32,289.25Z" transform="translate(-14.97 -21.31)"/><path class="cls-7" d="M393,281c-5.56-1.31-7.75-1.82-7.75-1.81h0a24.42,24.42,0,0,1-4.59-2.35,15.5,15.5,0,0,1-2.61-2.24c-3.59-4,1.47-11.87-1.75-20.68-.36-1-2-7-5.22-7.46-1-.16-2.12.27-4.4,1.12s-2.61,1.31-4.27,1.62c-1.92.36-2.05-.18-3.48.19-1.63.41-4.07,1.76-4.73,4.13-.44,1.61.34,3.16.75,5.59.72,4.3,1.07,4.4.88,5.81a14.07,14.07,0,0,1-2.22,6.11c-.35.48-.78.95-.68,1.49.21,1.12,2.45,1,2.73,2.31.16.71-.46,1.05-.27,1.87s1.05.78,1.38,1.64c.47,1.23-1,2.21-.54,3.74.23.81.62.87.86,2,.2.93,0,1.25.18,1.68.53,1.27,3.23,1,3.48.93,4.41-.55,6.37-4.45,8.23-3.46.55.3.62.77,1.19,1.8,1.36,2.49,3.14,3.72,5.75,5.54,4.77,3.31,7.51,5.22,10.44,4.15,2.62-1,4-3.82,4.9-5.6A17.91,17.91,0,0,0,393,281Z" transform="translate(-14.97 -21.31)"/><path d="M358.62,260.78c-1.2.24-2.32-.64-3.66-1.69-.95-.75-1.43-1.12-1.71-1.78-.78-1.81.24-4,.47-4.47.75-1.6,1.36-1.42,1.74-2.53.89-2.57-1.55-5.55-1.26-5.78s1.42,2.52,3.47,3.43c2.82,1.25,4.8-2,9-3.25,5.37-1.57,11.24,1.12,14.86,4.7a17,17,0,0,1,5.06,8.66c1.15,5.56-1.58,8.47.31,13.73,1.15,3.18,2.83,4,2.38,5.6-.65,2.31-4.84,3.45-8.07,2.35a9.3,9.3,0,0,1-5.22-5.24,14,14,0,0,1-.31-7.23c.45-2.52,1.28-3.81.79-4.33s-2.45.17-3.64,1.63c-1.4,1.72-.82,3.18-2.21,6.68-.69,1.72-1.87,4-2.37,3.79s-.23-2.77,0-4.15c.42-2.54,1-2.65,1.1-4.34A10.87,10.87,0,0,0,368,261c-.95-2-1.52-3.23-2.69-3.61-1.65-.53-3.53.93-4.42,1.63C359.5,260,359.5,260.61,358.62,260.78Z" transform="translate(-14.97 -21.31)"/><path class="cls-9" d="M391.37,278.87c13.88-1.56,22.05,2.23,22.05,2.23a40.78,40.78,0,0,1,19.86,20.21c5.09,11.23,4.19,22,3.67,28.18-.75,9-3.38,17.8-6.07,26.85-1,3.35-1.92,6.11-2.57,8a63.1,63.1,0,0,0-12.45-4.7c-6.5-1.69-11-2.77-16.38-2-1.4.2-2.48.48-3.37-.29-2-1.72-.72-6.78-.1-10.71,1.55-9.88-.38-18.07-2.31-27s-3.14-13.54-5.76-16.7c-1.87-2.27-4.59-4.51-4.25-7.41.22-2,1.58-1.92,2.88-4.58,2.28-4.7,0-8.87,2.38-11.11A3.9,3.9,0,0,1,391.37,278.87Z" transform="translate(-14.97 -21.31)"/><path class="cls-1" d="M394.86,299.53c.83-2.3,2.18-6,5.32-7.91,4-2.41,9.75-1.07,12.89,2.73,3.58,4.34,2.68,10.55,1.86,16.21-.45,3.1-1.79,12.33-8.66,19.2-4.84,4.84-9.93,6-18,7.89a63.17,63.17,0,0,1-14.51,1.65,25.86,25.86,0,0,0-.53-8.11c-.67-2.89-1.5-4.13-.94-5.4.76-1.68,3.09-1.41,7.07-2C385,323,388,322.53,390,320.26c1.5-1.67,2.1-5.3,3.3-12.56C394.13,302.89,394,302,394.86,299.53Z" transform="translate(-14.97 -21.31)"/><path class="cls-7" d="M358.65,363.9c-1.32-.43-1.62-.16-8.84.66-8.41.95-9.31.74-10.61,1.87-3.17,2.76-2.2,8.2-2.85,14.44-.45,4.36-2.46,11.58-6.48,26a247.5,247.5,0,0,1-11.38,33.05,56.3,56.3,0,0,1-9.33,14.81c-3.7,4.12-6.15,5.34-7.12,5.78-1.39.62-2,.65-7.11,2.16-5.66,1.68-6.31,2.06-6.33,2.53,0,1.21,3.86,2.43,6.64,2.89,2.54.42,3.74.14,7,0,8.52-.36,10.56,1.18,13-.9,1.44-1.25,1.44-2.77,2.84-6,0,0,2.37-5.43,7.12-15,4.1-8.26,4.58-7.38,9.48-16.61,4.34-8.18,6.5-12.26,8.07-17.16,3.35-10.5,2.49-16.75,6.8-19.33,2.35-1.41,3.2.11,6.78-1,4.15-1.32,11.1-5.92,11.4-13.95C367.91,371.33,363.22,365.39,358.65,363.9Z" transform="translate(-14.97 -21.31)"/><path class="cls-10" d="M288.56,65.7H232.92c-4.26,0-7.71-2.6-7.71-5.8V58.51c0-3.21,3.45-5.8,7.71-5.8h55.64" transform="translate(-14.97 -21.31)"/><rect class="cls-11" x="210.24" y="31.4" width="76.47" height="12.99" rx="5.19"/><path class="cls-10" d="M289.23,147.09H233c-4.3,0-7.79-2.6-7.79-5.8V139.9c0-3.21,3.49-5.8,7.79-5.8h56.23" transform="translate(-14.97 -21.31)"/><path class="cls-10" d="M237.66,147.09h56.23c4.3,0,7.79-2.6,7.79-5.8V139.9c0-3.21-3.49-5.8-7.79-5.8H237.66" transform="translate(-14.97 -21.31)"/><rect class="cls-11" x="210.24" y="112.79" width="76.47" height="12.99" rx="5.19"/><path class="cls-10" d="M297.66,120H234c-4.86,0-8.81-2.6-8.81-5.8v-1.39c0-3.21,3.95-5.8,8.81-5.8h63.64" transform="translate(-14.97 -21.31)"/><rect class="cls-11" x="210.24" y="85.66" width="76.47" height="12.99" rx="5.19"/><path class="cls-9" d="M324.74,112.43l-.07-.54-2.37-.44a6.88,6.88,0,0,0-.41-1l1.37-2-.33-.42a8.35,8.35,0,0,0-1.45-1.46l-.43-.33-2,1.36a5,5,0,0,0-1-.41l-.43-2.38-.54-.06a8,8,0,0,0-2.07,0l-.54.06-.44,2.38a5.13,5.13,0,0,0-1,.41l-2-1.37-.42.32a9.16,9.16,0,0,0-1.46,1.46l-.33.42,1.36,2a5.87,5.87,0,0,0-.41,1l-2.37.44-.07.54a8,8,0,0,0,0,2.07l.07.53,2.37.44a5.63,5.63,0,0,0,.41,1l-1.37,2,.33.42a8.29,8.29,0,0,0,1.45,1.45l.43.33,2-1.35a6.88,6.88,0,0,0,1,.41l.44,2.37.54.07a9,9,0,0,0,2.07,0l.54-.07.43-2.37a6.53,6.53,0,0,0,1-.41l2,1.37.42-.33a9.16,9.16,0,0,0,1.46-1.46l.32-.42-1.35-2a6.53,6.53,0,0,0,.41-1l2.37-.44.07-.53a8,8,0,0,0,0-2.07Zm-6.49,1a2.19,2.19,0,1,1-2.19-2.18A2.19,2.19,0,0,1,318.25,113.46Z" transform="translate(-14.97 -21.31)"/><path class="cls-9" d="M324.55,57.38l-.06-.53-2.38-.44a5.93,5.93,0,0,0-.4-1l1.36-2-.32-.42a8.71,8.71,0,0,0-1.46-1.45l-.42-.33-2,1.35a7,7,0,0,0-1-.41l-.44-2.37-.54-.07a8.87,8.87,0,0,0-2.06,0l-.54.07-.44,2.37a7,7,0,0,0-1,.41l-2-1.37-.43.33A8.71,8.71,0,0,0,309,53l-.33.42,1.35,2a5.93,5.93,0,0,0-.4,1l-2.38.44-.06.53a8,8,0,0,0,0,2.07l.06.54,2.38.44a5.5,5.5,0,0,0,.4,1l-1.37,2,.33.42a8.77,8.77,0,0,0,1.46,1.46l.42.33,2-1.36a5.22,5.22,0,0,0,1,.41l.44,2.38.54.06a7.89,7.89,0,0,0,2.06,0l.54-.06.44-2.38a5.22,5.22,0,0,0,1-.41l2,1.37.43-.32a8.71,8.71,0,0,0,1.45-1.46l.33-.42-1.35-2a5.5,5.5,0,0,0,.4-1l2.38-.44.06-.54a8,8,0,0,0,0-2.07Zm-6.49,1a2.19,2.19,0,1,1-2.18-2.19A2.17,2.17,0,0,1,318.06,58.42Z" transform="translate(-14.97 -21.31)"/><path class="cls-7" d="M148.19,451.14a66.11,66.11,0,0,0-.52,6.92c-.08,3.58.62,3.66.93,7.42a4.78,4.78,0,0,0,.39,1.58,5,5,0,0,0,2.09,2.19l6.82,0q8.44-.13,17.23,0c2.36,0,4.69.08,7,.13.78-.23,5.5-1.67,5.37-3.14,0-.48-.6-.91-1.26-1.4a7.88,7.88,0,0,0-2.63-1.28A75.93,75.93,0,0,0,172,462l-8.37-2.41a3.53,3.53,0,0,1-2.38-1.84,2.6,2.6,0,0,1-.14-1.11c.19-2.36,1.62-8.45,1.79-9.17Z" transform="translate(-14.97 -21.31)"/><path class="cls-1" d="M168.25,317.94c0,16.5-.05,24.75-.52,32.09-1.26,19.79-.1,15.94-1.3,34.7-1.4,21.91-2.76,25.87-3.13,41.48a276.17,276.17,0,0,0,.78,28.69L146.6,458l-.52-15.39a278.82,278.82,0,0,1-1-41.22c.58-11.55-.37-23.21,1-34.69,1.53-12.47.63-17.14-2.35-22.18-1.52-2.57-4.65-6.57-6.34-13.3a38.08,38.08,0,0,1-1-6c-1-10.38.79-24.77,5.08-25.44.94-.14,1.38.46,2.74,1.18,7.68,4,16.25-4.49,20.61-1.05C168.12,302.52,168.28,306.89,168.25,317.94Z" transform="translate(-14.97 -21.31)"/><path class="cls-7" d="M153,214.1c-.75,4.09.19,6.88-.78,7.28-.79.33-1.48-1.47-3.92-3-3.51-2.16-6.51-1.15-7-2.7-.25-.73.33-1.19,1.56-3.51a48.68,48.68,0,0,0,2.61-6.21,36.59,36.59,0,0,0,1.57-6.47c1.87-11.1.73-12.55,2.35-16.74.76-2,3.35-8.66,9.13-9.71,5-.9,10.31,2.75,12,7a12.42,12.42,0,0,1,.78,4c0,3.75-2,5-1.31,7.56.54,2.14,2.29,3,1.83,4.05-.31.75-1.19.45-2.35,1.35-1.52,1.17-1.82,3.28-2.08,5.12-.53,3.67.42,5-.55,5.9s-3,.47-4.67,0c-3-.79-3.42-2.07-4.77-1.84C154.41,206.84,153.12,213.61,153,214.1Z" transform="translate(-14.97 -21.31)"/><path class="cls-9" d="M152.25,219.77a33.28,33.28,0,0,0,3.46,7.39c3.86,6.12,7.68,7.66,10.43,11.14,3.21,4,1.9,7.72,2.61,21.13,1.35,25.69.21,23.49,1.3,34.17,1.15,11.08,3,19.78.79,20.61-1.07.39-1.94-1.42-5-3.13-3.53-2-7.36-2-14.87-1.83s-15.13,1-15.13,1.05-1.62-20.69-3.65-41.74c-2.09-21.6-3.13-28.3,0-38.48,1.24-4,4.9-16.37,11.36-16.67C147.41,213.23,150.64,217.34,152.25,219.77Z" transform="translate(-14.97 -21.31)"/><path class="cls-12" d="M152.86,191.07c-.74-2.95-2.47-5.88-1-7.3,1.1-1.09,3.59-1.29,4.69-.26.21.19.26.32.85,1.6,1.25,2.68,1.35,2.8,1.5,2.83,1.07.26,1.55-4,4.7-6s5.93,0,7.55-1.91c1.49-1.76.6-5.2-.77-7.22-1.57-2.31-4-3.05-5.93-3.65a17,17,0,0,0-6.46-.59,20.73,20.73,0,0,0-14.43,8.57c-3.7,5.45-.6,7.74-2.94,19.37-1,5.17-2.72,13.54-8.33,22-3.31,5-6.86,8.26-5.74,10.17.92,1.56,4.42,1.31,6.59.78,9.72-2.34,14.39-15.35,17-22.69C152.69,199.58,154.05,195.78,152.86,191.07Z" transform="translate(-14.97 -21.31)"/><path class="cls-7" d="M152.88,274.65c2.57,1.73,2.36,4.69,3.52,12.91a179.8,179.8,0,0,0,4.69,21.91,97.44,97.44,0,0,0,3.92,11c-3.78,4-5.86,4.33-7,3.91-2.52-.88-2.26-5.6-4.3-13.3-1.15-4.35-1.41-3.52-5.09-13.31-7.18-19.13-5.84-21.41-5.08-22.3C145.52,273.06,150.2,272.84,152.88,274.65Z" transform="translate(-14.97 -21.31)"/><path class="cls-1" d="M144.32,224c4.59,0,7.73,7.34,8.61,9.39,3.13,7.3,1.28,10.86,2,21.91.87,14.24,4.82,22.76,1.56,24.65-1.88,1.1-3.86-1.38-8.21-.39s-5.22,4-7.05,3.52c-1.59-.4-2.76-3.15-3.52-17.61-.69-13.14.26-11.24-.39-19.56-.69-8.88-1.91-12.82.78-17.22C138.48,228,140.94,224,144.32,224Z" transform="translate(-14.97 -21.31)"/><path class="cls-13" d="M165,317.1a6.92,6.92,0,0,1-1.17,4.7c-1.84,2.49-5.63,3.41-9.3,2.05" transform="translate(-14.97 -21.31)"/><path class="cls-7" d="M412.37,457.24" transform="translate(-14.97 -21.31)"/><rect class="cls-14" x="191.41" y="329.65" width="176.82" height="3.75" rx="1.75"/><rect class="cls-2" x="276.91" y="333.36" width="5.49" height="109.32"/><path class="cls-14" d="M345.46,468.65H294.37V463.4h8.13l43.32,2.77s.36,2.48,0,2.48" transform="translate(-14.97 -21.31)"/><path class="cls-14" d="M243.28,468.65h51.09V463.4h-8.12l-43.33,2.77s-.35,2.48,0,2.48" transform="translate(-14.97 -21.31)"/><path class="cls-1" d="M345.27,327.33" transform="translate(-14.97 -21.31)"/><line class="cls-15" x1="258.67" y1="162.52" x2="258.67" y2="262.87"/><circle class="cls-16" cx="258.91" cy="77.81" r="76.31"/><polyline class="cls-17" points="294.61 62.55 300.6 70.38 309.58 54.03"/><path class="cls-10" d="M289.23,92.83H233c-4.3,0-7.79-2.6-7.79-5.8V85.64c0-3.21,3.49-5.8,7.79-5.8h56.23" transform="translate(-14.97 -21.31)"/><path class="cls-10" d="M237.66,92.83h56.23c4.3,0,7.79-2.6,7.79-5.8V85.64c0-3.21-3.49-5.8-7.79-5.8H237.66" transform="translate(-14.97 -21.31)"/><rect class="cls-11" x="210.24" y="58.53" width="76.47" height="12.99" rx="5.19"/><polyline class="cls-17" points="294.61 117.15 300.6 124.98 309.58 108.63"/><path class="cls-18" d="M237.8,328.83c-.18,0-.33-.21-.33-.47,0-.72,0-17.81,6.43-25,.16-.15.36-.08.46.14a.63.63,0,0,1-.06.61c-6.17,6.91-6.18,24.06-6.18,24.24S238,328.83,237.8,328.83Z" transform="translate(-14.97 -21.31)"/><path class="cls-19" d="M239.58,315s1.07-7,7-4.25C246.57,310.73,243.79,317.45,239.58,315Z" transform="translate(-14.97 -21.31)"/><path class="cls-19" d="M239,315s2-5.61-2.69-7.66c0,0-.81,6.55,2.69,7.66Z" transform="translate(-14.97 -21.31)"/><path class="cls-19" d="M241.91,307.74s1.63-5,5.13-1.46C247,306.28,244.32,310.61,241.91,307.74Z" transform="translate(-14.97 -21.31)"/><path class="cls-19" d="M241.39,307.55s2.52-5.27-1.11-9.34C240.28,298.21,238.59,304.94,241.39,307.55Z" transform="translate(-14.97 -21.31)"/><path class="cls-19" d="M243.8,304s1.31-6.48,7-3.56C250.83,300.42,247.86,306.51,243.8,304Z" transform="translate(-14.97 -21.31)"/><path class="cls-18" d="M237.9,328.82a.34.34,0,0,0,.19-.4v0c-.08-.53-2-13.07-7.5-16.85-.13-.09-.27,0-.33.17a.42.42,0,0,0,.12.47c5.31,3.63,7.22,16.23,7.22,16.36s.15.31.28.28h0Z" transform="translate(-14.97 -21.31)"/><path class="cls-19" d="M236.64,324.38s-.65-5.06-4.4-3.11C232.25,321.29,234,326.14,236.64,324.38Z" transform="translate(-14.97 -21.31)"/><path class="cls-19" d="M237.14,324.39s-1.59-4.61,2.23-6.26c0,0,.64,5.37-2.23,6.26Z" transform="translate(-14.97 -21.31)"/><path class="cls-19" d="M235.06,319.12s-1.56-4.34-5.29-1.49C229.77,317.63,232.47,321.47,235.06,319.12Z" transform="translate(-14.97 -21.31)"/><path class="cls-19" d="M235.5,319s-2.07-3.66,1.12-6.24c0,0,1.32,4.63-1.12,6.24Z" transform="translate(-14.97 -21.31)"/><path class="cls-19" d="M232.54,314.29s-2.22-3.27-5,.12C227.55,314.41,230.69,317,232.54,314.29Z" transform="translate(-14.97 -21.31)"/><path class="cls-19" d="M232.89,314a6.67,6.67,0,0,1,0-7.16s1.84,4.43,0,7.16Z" transform="translate(-14.97 -21.31)"/><path class="cls-19" d="M230.73,312s-1.72-4.5-5.31-1.28C225.42,310.7,228.25,314.61,230.73,312Z" transform="translate(-14.97 -21.31)"/><path class="cls-18" d="M237.42,323a8.7,8.7,0,0,1,1-2.43,8.27,8.27,0,0,0-.78,1.51,2.27,2.27,0,0,0-.08-.82,2.12,2.12,0,0,1,0,1,9.94,9.94,0,0,0-.62,2.95h.21a9.91,9.91,0,0,1,.23-2h0a2,2,0,0,1,1.09-1.12,1.88,1.88,0,0,0-1.05.91Z" transform="translate(-14.97 -21.31)"/><path class="cls-18" d="M236.12,323.51h0a2.58,2.58,0,0,0-.73-1.2,2.68,2.68,0,0,1,.65,1.12,6.73,6.73,0,0,0-.72-.6v0l-.72-.93.62.88a4.59,4.59,0,0,0-1.33-.66,5.26,5.26,0,0,1,1.54,1,4.69,4.69,0,0,1-1.29-.1,4.92,4.92,0,0,0,1.41.21,7.17,7.17,0,0,1,.59.63l-1.48.09,1.57,0a7.9,7.9,0,0,1,.76,1.15l.15-.18a7,7,0,0,0-1-1.37Z" transform="translate(-14.97 -21.31)"/><path class="cls-18" d="M235.4,318.18a10.52,10.52,0,0,1,.09-1.14,1.53,1.53,0,0,1,.44-.7,1.42,1.42,0,0,0-.41.51,9.7,9.7,0,0,1,.32-1.34c-.09.25-.17.51-.24.77a1.6,1.6,0,0,0-.07-.58,1.58,1.58,0,0,1,0,.81,9.08,9.08,0,0,0-.2,1.18,5.29,5.29,0,0,0-.24-.8,6.59,6.59,0,0,1,.23.9,10.8,10.8,0,0,0,0,2l.15-.05a10.39,10.39,0,0,1-.09-1.37,1.8,1.8,0,0,1,.53-1,1.73,1.73,0,0,0-.53.8Z" transform="translate(-14.97 -21.31)"/><path class="cls-18" d="M235.57,319.44a4.33,4.33,0,0,0-1-.82,2.19,2.19,0,0,0-.71-.71,2,2,0,0,1,.61.66,3.87,3.87,0,0,0-.84-.36l-.65-.56.56.53a3.79,3.79,0,0,0-.94-.12,3.75,3.75,0,0,1,1.44.4l-.8,0,.92,0a4.56,4.56,0,0,1,1.33,1.09Z" transform="translate(-14.97 -21.31)"/><path class="cls-18" d="M232.87,314.63a6,6,0,0,1-.27-1,1.12,1.12,0,0,1,.25-.61,1.11,1.11,0,0,0-.27.53,7.6,7.6,0,0,1-.1-1.07,1.28,1.28,0,0,1,.38-.92,1.23,1.23,0,0,0-.38.66v-.12a6.82,6.82,0,0,1,.07-.79c0,.23-.07.46-.09.7l-.11-.48.1.54a6.94,6.94,0,0,0,0,.79,1.07,1.07,0,0,0-.21-.38,1.19,1.19,0,0,1,.21.47,7.07,7.07,0,0,0,.31,1.79Z" transform="translate(-14.97 -21.31)"/><path class="cls-18" d="M233,314.34a3.33,3.33,0,0,0-.85-.45h0a3.12,3.12,0,0,0-.53-.11,2.17,2.17,0,0,1-.92-.39,2.41,2.41,0,0,0,.62.38,2.73,2.73,0,0,0-1.09.27,2.3,2.3,0,0,1,.5-.13.94.94,0,0,0-.32.31.81.81,0,0,1,.53-.34,2.73,2.73,0,0,1,.9.09,1.89,1.89,0,0,0-.82.74,1.55,1.55,0,0,1,1-.68,3.34,3.34,0,0,1,1,.56Z" transform="translate(-14.97 -21.31)"/><path class="cls-18" d="M230,311.69a3.59,3.59,0,0,0-1-.55,3.47,3.47,0,0,1,.88.49,5.78,5.78,0,0,0-.69-.17h0a4.79,4.79,0,0,0-1-.05,5.24,5.24,0,0,1,.88.08,4.85,4.85,0,0,1-.85.13,5.23,5.23,0,0,0,1-.1,3.25,3.25,0,0,1,.42.11,1.27,1.27,0,0,1-.74.17,1.35,1.35,0,0,0,.79-.15,4.71,4.71,0,0,1,.52.21,3.64,3.64,0,0,1-1.12.25,3.53,3.53,0,0,0,1.2-.21,4.19,4.19,0,0,1,.67.42l.09-.13A4.28,4.28,0,0,0,230,311.69Z" transform="translate(-14.97 -21.31)"/><path class="cls-18" d="M243.46,312.59a6.63,6.63,0,0,0-1.6.1,7.2,7.2,0,0,1,1.72-1,7.28,7.28,0,0,0-2.39,1.3,10.35,10.35,0,0,0,.77-1.11,10,10,0,0,1-1.39,1.67,9.6,9.6,0,0,0-1.59,2l.22.25a10.65,10.65,0,0,1,1-1.55l2.3,0-2.15-.13a8.34,8.34,0,0,1,1.26-1.26,6.43,6.43,0,0,1,1.83-.3Z" transform="translate(-14.97 -21.31)"/><path class="cls-18" d="M239,314.12a6.23,6.23,0,0,0-.06-1.83,5.56,5.56,0,0,1,0,1.68,10.43,10.43,0,0,0-.41-1.23h0l-.28-1.43.19,1.23a8.58,8.58,0,0,0-.72-1.34,8.85,8.85,0,0,1,.92,2.13,5.3,5.3,0,0,1-.92-1.2,5.46,5.46,0,0,0,1,1.37A9.71,9.71,0,0,1,239,316h.22a11,11,0,0,0-.28-1.91Z" transform="translate(-14.97 -21.31)"/><path class="cls-18" d="M244,306.79a2.14,2.14,0,0,0-.62,0,1.08,1.08,0,0,0,.38-.36.88.88,0,0,1-.49.36v0a2.42,2.42,0,0,0-.36.1c-.14.06-.28.12-.43.2a3,3,0,0,0,.37-.74,2.94,2.94,0,0,1-.46.8,4.18,4.18,0,0,0-1.05.91l.09.2a4.82,4.82,0,0,1,.6-.66,2.75,2.75,0,0,1,1,0,3,3,0,0,0-.88-.11A3.83,3.83,0,0,1,243,307a.87.87,0,0,1,.71.21.94.94,0,0,0-.52-.27A2.28,2.28,0,0,1,244,306.79Z" transform="translate(-14.97 -21.31)"/><path class="cls-18" d="M241.53,305.05a5.83,5.83,0,0,1-.14,1.5,9.82,9.82,0,0,0-.18-1.34,4.86,4.86,0,0,0,0-1.32,4,4,0,0,1,0,1.19,7.06,7.06,0,0,0-.37-1.21,8.51,8.51,0,0,1,.44,2.2,7.42,7.42,0,0,1-.39-1.18,7.75,7.75,0,0,0,.41,1.37,8.51,8.51,0,0,1-.15,2.14l.19.05a9.15,9.15,0,0,0,.09-1.66,5.94,5.94,0,0,0,.13-1.74Z" transform="translate(-14.97 -21.31)"/><path class="cls-18" d="M246.66,302.67c-.31,0-.62,0-.92,0a6.27,6.27,0,0,1,1.3-.51,6.36,6.36,0,0,0-1.5.52,4.09,4.09,0,0,0-.46.25,2.39,2.39,0,0,0,.44-.78,2.26,2.26,0,0,1-.65.91,7.63,7.63,0,0,0-1.73,1.59l.19.19a7.07,7.07,0,0,1,1-1.16,5.06,5.06,0,0,1,1.22-.17,5,5,0,0,0-1.1.07,6.72,6.72,0,0,1,1.17-.83,8.77,8.77,0,0,1,1-.06Z" transform="translate(-14.97 -21.31)"/><path class="cls-20" d="M210.45,299.52H232.8a0,0,0,0,1,0,0v23.27a6.94,6.94,0,0,1-6.94,6.94h-8.47a6.94,6.94,0,0,1-6.94-6.94V299.52A0,0,0,0,1,210.45,299.52Z"/><rect class="cls-21" x="225.42" y="320.83" width="22.35" height="3.33" transform="translate(458.22 623.68) rotate(-180)"/></svg>
