<svg xmlns="http://www.w3.org/2000/svg" viewBox="0 0 527.77 423.26"><defs><style>.cls-1{fill:#a0c5cf;}.cls-2{fill:#e1c2bf;}.cls-3{fill:#121212;}.cls-4{fill:#bcbcbc;}.cls-5{fill:#848789;}.cls-6{fill:#ddc2c0;}.cls-7{fill:#0f0808;}.cls-15,.cls-8{fill:#0093b7;}.cls-9{fill:#006089;}.cls-10{fill:#b2b1b2;}.cls-11{fill:#979899;}.cls-12,.cls-13,.cls-14,.cls-16,.cls-18,.cls-19,.cls-20,.cls-21{fill:none;}.cls-12,.cls-13,.cls-14,.cls-15,.cls-16,.cls-17{stroke:#0093b7;}.cls-12,.cls-13,.cls-14,.cls-15,.cls-16,.cls-17,.cls-18,.cls-20,.cls-21{stroke-miterlimit:10;}.cls-12,.cls-16,.cls-18{stroke-width:2px;}.cls-14,.cls-15,.cls-16,.cls-17,.cls-18,.cls-19{stroke-linecap:round;}.cls-17{fill:#fff;}.cls-18,.cls-19{stroke:#bcbcbc;stroke-dasharray:10;}.cls-19{stroke-miterlimit:1;stroke-width:3px;}.cls-20{stroke:#000;}.cls-20,.cls-21{stroke-width:0.5px;}.cls-21{stroke:#868786;}</style></defs><title>process-02</title><g id="Layer_2" data-name="Layer 2"><path class="cls-1" d="M0,402.89H527.77a0,0,0,0,1,0,0v1.36a19,19,0,0,1-19,19H19a19,19,0,0,1-19-19v-1.36a0,0,0,0,1,0,0Z"/><path class="cls-2" d="M486.07,418.48a70.78,70.78,0,0,1,6.62,4c5.46,3.73,5.88,5.13,6,5.88.24,1.6-.46,3-1.63,5.37a24.29,24.29,0,0,1-3.1,4.75c-6.9,8.34-10.78,13-17.76,18.53-2.39,1.91-6.56,5.06-7.66,4.38-.42-.26-.35-1-.26-2a8.14,8.14,0,0,1,.93-3.05A87.12,87.12,0,0,1,477,445.61l4.45-8.63a3.4,3.4,0,0,0,.23-3.19,2.61,2.61,0,0,0-.89-.83c-2.27-1.36-8.85-4.08-9.64-4.41Z" transform="translate(-33.75 -61.99)"/><path class="cls-2" d="M430.37,446.64a58.49,58.49,0,0,1,1.12,7c.53,5.24,0,6.83-.5,7.53,0,.06,0,0-.22.27-1.17,1.44-2,2.62-2.55,3.43-2.49-.07-5-.11-7.6-.11-7.05,0-13.8.25-20.22.71l-6.41-.55c-6.68-.77-8.31-1.61-8.34-2.29,0-.45.63-.94,1.36-1.45a9.66,9.66,0,0,1,3-1.35,99.29,99.29,0,0,1,13.39-1.78l9.58-2.6c.77-.21,2.21-.73,2.63-1.91a2.09,2.09,0,0,0,.08-1.13,93.81,93.81,0,0,0-2.77-9.28Z" transform="translate(-33.75 -61.99)"/><path class="cls-3" d="M412.76,275.74c-3.6,6.22-3.46,12.68-3.08,18.76.86,13.78,1.38,22,5.32,33.89a117.5,117.5,0,0,0,5.89,14.29c21,44.59,21.73,52.37,31.65,67.78,7.89,12.26,11.87,14.19,15.4,24.37.8,2.29,1.4,4.49,3.08,5,5.18,1.68,14.94-14.05,22.69-28.29-1.53-1.16-3.69-2.87-6.16-5-6.42-5.64-18.06-17.19-29.69-40.33a221,221,0,0,1-14.29-37c-3.19-10.46-6.08-22.18-13.16-38.93-5.23-12.37-9.35-19.46-13.16-19.05C415.27,271.47,414,273.63,412.76,275.74Z" transform="translate(-33.75 -61.99)"/><path d="M412.2,282.46c-1.29,5.83,3.6,9.46,6.45,16.52,1.22,3,1.5,5.33.84,21.57-.53,12.95-1.08,20.5-1.4,26.61-.91,16.81,0,19-.56,32.21-.5,11.42-1.23,22.85-4.21,37-4.25,20.22-9.28,26.71-5.6,31.37,2.76,3.5,10.07,5.53,30-.84A107.44,107.44,0,0,1,436,425c.32-12.15,2.53-16.72,3.92-32.49.78-8.81.08-7.29.84-22.68.92-18.63,1.38-28,3.36-35.29,1.61-5.95,5.27-13.77,12.61-29.41,7.79-16.63,11.2-22.16,8.68-25.49s-7.36.16-20.45-.84c-15.45-1.19-22.78-7.12-28.84-2.52A11.28,11.28,0,0,0,412.2,282.46Z" transform="translate(-33.75 -61.99)"/><g id="chair"><path class="cls-4" d="M366.14,381c.32-.22,9.29-10.39,9.91-12.36,3.14-10,10.25-37.65,11.22-41.35,0,0,9.53-36.13,7.36-49.38a9.54,9.54,0,0,0-5.44-7.32,24.13,24.13,0,0,0-8.28-2.26,109.39,109.39,0,0,1,1.75,18c.12,9.38-1.06,14.45-5,35.93-3.72,20.24-3.13,18.25-5.35,29.58S368,373,366.14,381Z" transform="translate(-33.75 -61.99)"/><rect class="cls-4" x="308.62" y="380.29" width="58.25" height="9.42" rx="4.71" transform="translate(641.73 708) rotate(180)"/><rect class="cls-4" x="336.28" y="389.7" width="2.91" height="70.8" transform="translate(641.73 788.22) rotate(-180)"/><ellipse cx="303.99" cy="400.35" rx="3.39" ry="3.25"/><path class="cls-4" d="M337.74,451h27.85a0,0,0,0,1,0,0v3.26a0,0,0,0,1,0,0H341a3.26,3.26,0,0,1-3.26-3.26v0A0,0,0,0,1,337.74,451Z" transform="translate(669.58 843.16) rotate(-180)"/><path class="cls-4" d="M362.32,461.55h1.23c1.13,0,2-.5,2-1.11v-6.37h-3.27Z" transform="translate(-33.75 -61.99)"/><path class="cls-4" d="M279.39,389H304a0,0,0,0,1,0,0v3.26a0,0,0,0,1,0,0H276.14a0,0,0,0,1,0,0v0A3.26,3.26,0,0,1,279.39,389Z"/><path class="cls-4" d="M313.16,461.55h-1.22c-1.13,0-2.05-.5-2.05-1.11v-6.37h3.27Z" transform="translate(-33.75 -61.99)"/><ellipse cx="277.77" cy="400.35" rx="3.39" ry="3.25"/><ellipse cx="330.2" cy="400.35" rx="3.39" ry="3.25"/></g><path id="arm" class="cls-5" d="M398.3,211c-1.45.49.65,7.09.78,19.44.11,10.6-1.36,14.2-2.52,15.87a22.32,22.32,0,0,0-2.33,4.48c-.78,2-1.17,3-.78,3.74,1.41,2.59,10.21.4,11.06.19,2.49-.64,3.78-1,5.05-2.06,2.5-2.15,2.87-5.54,2.91-9,.12-12.27-5.78-21.67-9.51-27.45C399.44,210.84,398.54,211,398.3,211Z" transform="translate(-33.75 -61.99)"/><path class="cls-6" d="M394.42,274.6c.09,1,.22,2.64-.87,3.64a3.53,3.53,0,0,1-4.08.28c-1.17-.86-.7-2.33-1.19-5.88-.28-2-.41-1.41-1.46-6.16-1.31-5.93-1.11-6.88-.55-7.57a4.46,4.46,0,0,1,4.66-1.12C392.12,258.25,393,259.32,394.42,274.6Z" transform="translate(-33.75 -61.99)"/><path class="cls-2" d="M412.29,188c-.8.23-6.75,1.9-11.2-1.4-3.23-2.4-4.21-6.34-4.51-7.57-.83-3.35,0-5-.73-5.32-1.56-.6-8,6.25-7.42,13.73a16,16,0,0,0,1.89,6.16c1.12,2,2.57,3.59,5.24,6.44,1.24,1.32,1.86,2,2.48,2.52,1.87,1.64,5.16,4.53,9.31,4.62,3.88.09,8.94-2.25,10.47-7C419.29,195.65,417,190.45,412.29,188Z" transform="translate(-33.75 -61.99)"/><path class="cls-2" d="M376.18,201.83c3,1.3,3.08,2.77,4.37,2.8s2.06-1.52,4.95-5.6c2-2.8.94-1.1,3.63-4.9,3.78-5.33,5.66-8,6.11-9.53.85-2.87.38-5.13-.58-9.66-1.34-6.39-2-9.58-4.8-12.47-4.32-4.47-11.95-6.38-17.89-4.06-1,.38-5.22,2-6.55,5.75-.45,1.23-.15,1.54.29,7.42.5,6.62.14,6.58.73,8.26.8,2.32,1.79,3.31,1.6,5.46a16.91,16.91,0,0,1-.88,3.5c-.62,1.95-1.48,2.47-1.16,3.08.5,1,2.51,0,4.07,1.26,1.15.94.6,1.9,1.9,3s2.29.54,2.76,1.4c.59,1.06-.79,2.23-.15,3.36C374.88,201.36,375.37,201.47,376.18,201.83Z" transform="translate(-33.75 -61.99)"/><path d="M386.1,175a13,13,0,0,1-2.74-1.41c-2.25-1.57-2.75-3.24-5.84-4.05-5.37-1.41-8.21,2.47-11.92.6-3.2-1.6-4.09-6-4.08-8.44,0-5.87,5-10.86,10.18-12.47A16.94,16.94,0,0,1,385.38,151c2.53,1.71,4.13,4.16,6.84,3.93,1.74-.15,2-1.25,3.78-1.4,2.77-.24,5.65,2.31,7,4.76,2.39,4.38.33,9.39-1.42,13.63-1.61,3.92-2.68,6.5-5,7.09C394.93,179.48,394.23,178.47,386.1,175Z" transform="translate(-33.75 -61.99)"/><path class="cls-2" d="M413.3,252.47a68.65,68.65,0,0,1-12.8.56c-5.21-.27-7.69-1-9.31.56s-.21,2.92-.58,10.08c-.25,4.66-.93,6.61.58,8.69.86,1.19,2.53,2.61,3.78,2.24,2.06-.62,2.43-5.9,2.33-8.68s-.73-4.33,0-4.77c1-.57,2.68,1.78,5.53,2.8,3.58,1.3,7.33.34,10.18-.84Z" transform="translate(-33.75 -61.99)"/><path class="cls-4" d="M414.41,184.34c.68,0,1.24,0,1.61,0l17.4,6.72c4.46,2.33,7,3.78,8.57,4.69l.09.05c1.47.86,3,1.82,4.72,2.91a101.2,101.2,0,0,1,9.88,6.95c8.56,7.31,10.48,18,13,32.08a84.2,84.2,0,0,1,1.17,27.08c-.64,5-1.67,8.71-3.69,15.87-5.72,20.27-8.58,30.41-13.38,32.67-9.69,4.58-18.84-8-34-2.8-4.35,1.51-6.81,2.82-9.31,1.5-4.23-2.23-4-10.26-3.5-24.37a106.58,106.58,0,0,1,1.17-14c1.51-9.67,3.09-10.19,3.66-16.21.8-8.37-1.52-15-3.86-21.78-.92-2.69-1.41-3.56-4.11-9.56-2-4.52-1.55-3.88-3.65-8.18-2.32-4.78-3.57-6.48-4.46-10.27-1-4.2-.14-5.14.2-5.42.57-.48,1.2-.32,4.26.19,5.38.89,7.46,1,9.4-.15a1.7,1.7,0,0,0,.3-.23c2-1.79,1.84-6.46,0-9.33-.55-.87-1.89-1.54-2.36-3.23a5.06,5.06,0,0,1-.16-.88,4.58,4.58,0,0,1,1.55-3.36C410.05,184.43,411.5,184.4,414.41,184.34Z" transform="translate(-33.75 -61.99)"/><path id="arm-2" data-name="arm" class="cls-5" d="M436.59,224.11c-2.25-4.22-1.33-10.1,1.74-14.19a13.67,13.67,0,0,1,6.4-4.86c7.29-2.54,14.59,2.56,17.07,4.3,6.4,4.46,9,10.4,10.48,14,1.38,3.3,5.65,13.52,1.36,24.84-.87,2.29-3.63,9.55-11.06,13.81-1,.57-3,1.63-7.95,2.81-8.48,2-13,1.36-26.77,1.49-11.6.11-18.09.65-19-1.87-.56-1.52,1.48-2.63,1.56-6.16.08-3.94-2.38-5.47-1.56-6.91,1.19-2.07,6.61.51,14.75-.19,2.53-.21,10.42-1,15.91-6.53a12.14,12.14,0,0,0,3.88-6.91,12.34,12.34,0,0,0-1.75-7.47C439.66,226.55,438.07,226.9,436.59,224.11Z" transform="translate(-33.75 -61.99)"/><path class="cls-2" d="M322.4,273.05l-9.15-1.87h0a29.89,29.89,0,0,1-5.42-2.42,17.69,17.69,0,0,1-3.09-2.33c-4.23-4.12,1.75-12.27-2.06-21.37-.42-1-2.4-7.2-6.17-7.72-1.15-.16-2.5.28-5.2,1.16s-3.07,1.36-5,1.68c-2.27.37-2.41-.19-4.11.19-1.92.42-4.8,1.82-5.58,4.27-.52,1.66.4,3.27.88,5.78.86,4.44,1.27,4.55,1.05,6a13.61,13.61,0,0,1-2.62,6.32c-.42.5-.93,1-.81,1.54.24,1.16,2.89,1.06,3.22,2.39.19.73-.55,1.08-.31,1.93s1.23.81,1.62,1.7c.56,1.27-1.13,2.28-.63,3.86.27.84.73.9,1,2.07.23,1,0,1.29.21,1.74.63,1.31,3.82,1,4.12.95,5.2-.56,7.52-4.59,9.71-3.57.65.31.74.79,1.41,1.86,1.6,2.57,3.71,3.85,6.79,5.73,5.63,3.42,8.87,5.39,12.33,4.29,3.1-1,4.75-3.95,5.78-5.79A16.49,16.49,0,0,0,322.4,273.05Z" transform="translate(-33.75 -61.99)"/><path d="M281.79,252.17c-1.42.25-2.74-.66-4.33-1.75-1.12-.77-1.68-1.16-2-1.84-.92-1.87.29-4.12.56-4.62.89-1.65,1.6-1.47,2.06-2.62,1-2.65-1.84-5.73-1.5-6s1.69,2.61,4.11,3.54c3.32,1.29,5.67-2.09,10.64-3.36,6.35-1.62,13.28,1.16,17.56,4.86,1.42,1.23,4.84,4.19,6,9,1.36,5.74-1.87,8.75.37,14.19,1.36,3.29,3.34,4.12,2.81,5.79-.77,2.39-5.72,3.57-9.53,2.43a10.53,10.53,0,0,1-6.16-5.42,12.71,12.71,0,0,1-.37-7.47c.52-2.61,1.51-3.93.93-4.48s-2.89.17-4.29,1.68c-1.67,1.79-1,3.3-2.62,6.91-.81,1.78-2.2,4.12-2.8,3.92s-.27-2.86,0-4.29c.5-2.63,1.16-2.73,1.31-4.48a10.16,10.16,0,0,0-1.68-5.79c-1.12-2.08-1.8-3.35-3.18-3.74-1.95-.55-4.17,1-5.23,1.68C282.83,251.38,282.82,252,281.79,252.17Z" transform="translate(-33.75 -61.99)"/><path class="cls-6" d="M321.83,354.91c-2.71-1.46-5.94.2-8.78,1.31-11.72,4.56-26.32,3.24-41.64,1.86-2.91-.26-8.09-.83-9.9,1.87-.84,1.26-.57,2.67-.18,6.35.35,3.35.3,6.74.75,10.08.68,5.16.47,8,1.19,41.44,0,0,.07,3,.11,12.53.05,11.42,0,15.16-1.87,19.79-1.22,3-2.41,6-5.41,8.22-5.07,3.77-12.35,3.08-12.35,4.39,0,.22.43.53,1.28,1.13a14.1,14.1,0,0,0,3,1.66c3,1.12,9.52.46,13.82.42,6.86-.07,8.33,1.48,10.08,0,2.7-2.3,1.54-7.52.94-11.34-1.47-9.29.48-18.8.93-28.19,1-21.07,1.49-31.6.93-42.77-.34-6.87-.67-7.9.38-9.71,7.39-12.73,45.36,1.77,50.23-8.58C326.94,362,324.9,356.57,321.83,354.91Z" transform="translate(-33.75 -61.99)"/><path class="cls-7" d="M323.51,351.55c5.05-1.41,7.41-2.88,10.08-3.92,6.48-2.53,17-3.27,34.36,5.6a29,29,0,0,1-.19,11.58,23.9,23.9,0,0,1-4.67,10.45c-4.45,5.34-10.43,7.63-16.43,9.15-12.32,3.13-21.37,2.15-33.8,1.68-7.52-.28-18.52-.46-32.11.19a51.93,51.93,0,0,0-.38-15.5c-1.89-10.65-6.13-14.5-4.1-17.55,1.9-2.88,6.67-1,26.32-.19C312.4,353.43,317.55,353.2,323.51,351.55Z" transform="translate(-33.75 -61.99)"/><path class="cls-2" d="M262.78,301.22a61.71,61.71,0,0,1-17.65-1.54c-15-3.56-24.09-8.26-24.09-8.26-3.6-1.86-7.58-4.24-10.78-2.66-1.55.76-2.85,2.42-4.9,5-1.53,1.95-2.29,2.94-2,3.5.57,1,3.83-.51,9.8-.42,3.11.05,4,.48,4.34,1.12.77,1.27-.37,3.38-1.26,4.48-1.17,1.46-2,1.32-4.76,3.36-1.32,1-3.23,2.4-2.94,3.09s2.52.3,2.66.27c2.29-.39,3.1-1.61,5.18-2.52a11.84,11.84,0,0,1,4.62-.84,30.12,30.12,0,0,1,10.51,1.54,153.78,153.78,0,0,0,15.26,3.51,62.62,62.62,0,0,0,18.21.7Q263.9,306.4,262.78,301.22Z" transform="translate(-33.75 -61.99)"/><path class="cls-2" d="M329.86,321.3c-2.09-2-5.71,1-19.24,4.85-6.72,1.94-15.15,4.32-22.36,4-.79,0-3.95-.19-8.36-.21-2.71,0-4.9,0-6.27.07-1.6,2-3,3.63-4.09,4.89-1.38,1.59-3.27,3.83-6,6.53l-1.87,1.87a6,6,0,0,0,3.18.19c1.2-.28,2.19-1.13,4.1-2.8,1.56-1.36,3.17-3,3.18-3,.4-.38,1.21-1.08,1.54-.86s.13.55.07,1.22c-.09.9,0,1.8-.11,2.7a27.24,27.24,0,0,0-.19,3.1c.38.87,2.17,1.51,8.21.56a21.74,21.74,0,0,1,1.12-3.92,9.85,9.85,0,0,1,1.87-3.55c1.61-1.56,3.93-1.13,8.4-.93,2.8.13,5.6,0,8.4,0,4.92.07,9.12.14,13.82-.19,6.48-.44,9.76-.7,11.77-2.42C330.81,330.22,332.2,323.53,329.86,321.3Z" transform="translate(-33.75 -61.99)"/><path class="cls-1" d="M319.48,285.93c-3.65-.91-5.47,2.45-14.2,7.1-3.24,1.73-12.32,6.56-23,7.65-12.25,1.25-22.46-2.88-23.9.38-.53,1.19.7,2,.37,5-.41,3.75-2.62,4.9-2.05,6.35.72,1.86,5,1.7,11.39,1.68,11.67,0,6.28.46,14,.18,4.94-.18,13.66-.62,27.64-2.42,13.76-1.78,15.42-2.66,16.61-4.3C331,301.3,326.09,287.58,319.48,285.93Z" transform="translate(-33.75 -61.99)"/><path class="cls-8" d="M320.22,271.37c16.3-2.24,26.14,1.3,26.14,1.3,5.43,2,17.14,7.34,24.47,20,6.58,11.38,6.08,22.52,5.78,29-.42,9.33-3.07,18.54-5.78,28-1,3.52-1.95,6.41-2.62,8.41a82.52,82.52,0,0,0-14.94-4.3c-7.75-1.45-13.06-2.36-19.42-1.3-1.64.27-2.9.6-4-.15-2.46-1.69-1.2-7-.67-11.06,1.32-10.28-1.37-18.65-4.11-27.82s-4.41-13.84-7.66-17c-2.32-2.25-5.65-4.45-5.4-7.46.16-2,1.77-2.05,3.16-4.87,2.45-4.95-.43-9.16,2.24-11.57A4.88,4.88,0,0,1,320.22,271.37Z" transform="translate(-33.75 -61.99)"/><path class="cls-1" d="M346.29,295.53c1.06-2.36,2.77-6.17,6.53-8,4.83-2.38,11.55-.83,15.13,3.17,4.09,4.59,2.83,11,1.68,16.81-.63,3.19-2.51,12.7-10.83,19.61-5.86,4.86-11.92,5.94-21.47,7.65a85.79,85.79,0,0,1-17.18,1.31,23.68,23.68,0,0,0-.38-8.4c-.69-3-1.64-4.31-.93-5.61.94-1.72,3.69-1.37,8.4-1.86,6.71-.71,10.21-1.07,12.7-3.36,1.83-1.69,2.65-5.42,4.3-12.89C345.33,299,345.17,298,346.29,295.53Z" transform="translate(-33.75 -61.99)"/><path class="cls-2" d="M286.72,357c-1.55-.44-1.9-.16-10.43.68-9.94,1-11,.77-12.53,1.94-3.74,2.85-2.6,8.48-3.37,14.94-.53,4.5-2.91,12-7.65,26.88a235.05,235.05,0,0,1-13.45,34.17,56.93,56.93,0,0,1-11,15.32c-4.37,4.26-7.27,5.52-8.41,6-1.64.65-2.35.67-8.4,2.24-6.68,1.73-7.45,2.13-7.47,2.62,0,1.24,4.56,2.51,7.85,3,3,.44,4.41.15,8.21,0,10.06-.37,12.47,1.22,15.31-.93,1.71-1.29,1.71-2.86,3.36-6.16,0,0,2.8-5.62,8.41-15.5,4.84-8.54,5.42-7.63,11.2-17.18,5.12-8.45,7.68-12.67,9.52-17.74,4-10.85,2.94-17.31,8-20,2.79-1.46,3.79.11,8-1.07,4.89-1.36,13.11-6.12,13.46-14.43C297.66,364.65,292.13,358.5,286.72,357Z" transform="translate(-33.75 -61.99)"/><path class="cls-9" d="M222.58,346.6c-.35-2.07,5.22-4.55,7.56-5.6,3.44-1.53,7.55-3.37,11.49-1.68,2.69,1.15,5.34,4,4.76,6-.28,1-1.36,1.88-5.32,2.71C233.55,349.58,223.05,349.33,222.58,346.6Z" transform="translate(-33.75 -61.99)"/><rect class="cls-10" x="122.63" y="238.76" width="2.61" height="45.2"/><rect class="cls-10" x="163.01" y="292.81" width="2.61" height="15.88" transform="translate(431.32 74.44) rotate(90)"/><rect class="cls-10" x="171.82" y="258.63" width="4.42" height="82.84" transform="translate(-69.26 -38.37) rotate(-7.05)"/><rect class="cls-11" x="62.8" y="283.3" width="193.28" height="3.83" rx="1.89"/><rect class="cls-4" x="156.25" y="287.08" width="6" height="111.75"/><path class="cls-11" d="M248.58,465.59H192.73v-5.36h8.88L249,463.06s.39,2.53,0,2.53" transform="translate(-33.75 -61.99)"/><path class="cls-11" d="M136.88,465.59h55.85v-5.36h-8.88l-47.36,2.83s-.39,2.53,0,2.53" transform="translate(-33.75 -61.99)"/><rect id="rectangle" class="cls-12" x="133.53" y="23.83" width="47.63" height="36.6"/><path class="cls-12" d="M167.28,114.87s8.42-11.33,8.42-10.75,8.43,13.07,8.43,13.07l7-18,6.68,13.94,8.71-7,8.42,11" transform="translate(-33.75 -61.99)"/><circle class="cls-12" cx="145.73" cy="33.12" r="4.07"/><path class="cls-13" d="M220.3,167" transform="translate(-33.75 -61.99)"/><path class="cls-13" d="M179.22,184.4" transform="translate(-33.75 -61.99)"/><polyline class="cls-14" points="172.75 123.57 169.58 121.38 162.86 124.33 153.75 103.99"/><polyline class="cls-14" points="153.75 103.99 176 105.33 175.6 112.67 178.77 114.86"/><line class="cls-14" x1="153.75" y1="103.99" x2="164.76" y2="111.6"/><circle class="cls-15" cx="166.39" cy="112.83" r="2.17"/><rect class="cls-14" x="206.62" y="182.55" width="12.99" height="2.5" transform="translate(-93.02 192.56) rotate(-55.34)"/><line class="cls-14" x1="172.75" y1="123.57" x2="175.08" y2="125.2"/><line class="cls-14" x1="178.77" y1="114.86" x2="181.45" y2="116.59"/><path class="cls-16" d="M195.45,195.7a26,26,0,1,1-2.57-51.85" transform="translate(-33.75 -61.99)"/><line class="cls-16" x1="134.45" y1="102.88" x2="155.57" y2="133.08"/><circle class="cls-17" cx="155.38" cy="132.81" r="3.97"/><circle class="cls-8" cx="134.45" cy="102.88" r="3.99"/><circle class="cls-17" cx="153.75" cy="82.82" r="3.99"/><line class="cls-18" x1="159.11" y1="162.52" x2="159.11" y2="262.87"/><circle class="cls-19" cx="159.36" cy="77.81" r="76.31"/><path d="M166.39,272h16.33a0,0,0,0,1,0,0V277a6.55,6.55,0,0,1-6.55,6.55h-3.24a6.55,6.55,0,0,1-6.55-6.55V272A0,0,0,0,1,166.39,272Z"/><path class="cls-20" d="M215.67,340.61c2.05.08,3.76-1.08,3.82-2.6s-1.55-2.82-3.6-2.9" transform="translate(-33.75 -61.99)"/><path class="cls-21" d="M203.6,332.65a2.64,2.64,0,0,1,.19-3.13c.42-.41,1-.21,1.31-.56s.52-1.41-.68-3.94" transform="translate(-33.75 -61.99)"/><path class="cls-21" d="M207.62,333.31a2.64,2.64,0,0,1,.19-3.13c.42-.42.95-.21,1.31-.57s.52-1.4-.68-3.94" transform="translate(-33.75 -61.99)"/><path class="cls-21" d="M211.34,332a2.63,2.63,0,0,1,.19-3.13c.42-.41.95-.21,1.31-.56s.51-1.41-.69-3.94" transform="translate(-33.75 -61.99)"/></g></svg>
