<svg xmlns="http://www.w3.org/2000/svg" viewBox="0 0 605.74 491.49"><defs><style>.cls-1,.cls-2,.cls-3,.cls-4,.cls-6{fill:none;}.cls-1,.cls-2{stroke:#bcbcbc;stroke-dasharray:10;}.cls-1,.cls-2,.cls-4,.cls-6{stroke-linecap:round;}.cls-1,.cls-3{stroke-miterlimit:10;stroke-width:2px;}.cls-2,.cls-6{stroke-miterlimit:1;}.cls-2{stroke-width:3px;}.cls-3,.cls-4,.cls-6{stroke:#0093b7;}.cls-4{stroke-linejoin:round;}.cls-5{fill:#0093b7;}.cls-7{fill:#bcbcbc;}.cls-8{fill:#e1c2bf;}.cls-9{fill:#015877;}.cls-10{fill:#e8cecd;}.cls-11{fill:#006089;}.cls-12{fill:#a0c5cf;}.cls-13{fill:#563a37;}.cls-14{fill:#423122;}.cls-15{fill:#848789;}.cls-16{fill:#22262b;}.cls-17{fill:#080807;}.cls-18{fill:#979899;}</style></defs><title>process-01</title><g id="Layer_2" data-name="Layer 2"><line class="cls-1" x1="291.19" y1="162.52" x2="291.19" y2="262.87"/><circle class="cls-2" cx="291.44" cy="77.81" r="76.31"/><circle class="cls-3" cx="291.44" cy="72.83" r="7.59"/><circle class="cls-3" cx="291.19" cy="50.41" r="7.59"/><circle class="cls-3" cx="291.19" cy="27.1" r="7.59"/><circle class="cls-3" cx="265.98" cy="130.07" r="6.38"/><circle class="cls-3" cx="291.19" cy="130.07" r="6.38"/><circle class="cls-3" cx="317.02" cy="130.07" r="6.38"/><path class="cls-4" d="M388.1,125.72c-2.33-2.26-4.57-5.55-4.42-9.74.27-7.63,8.26-12,9.28-12.51" transform="translate(-118.08 -51.14)"/><path class="cls-5" d="M393,129.3a30.19,30.19,0,0,1-3.94-9l-1.5,4.83-4.24,2.75A30,30,0,0,1,393,129.3Z" transform="translate(-118.08 -51.14)"/><line class="cls-6" x1="291.19" y1="113.06" x2="291.19" y2="88.85"/><path class="cls-5" d="M409.27,170.24a30,30,0,0,1,4.76-8.55l-4.76,1.72-4.76-1.72A30,30,0,0,1,409.27,170.24Z" transform="translate(-118.08 -51.14)"/><line class="cls-4" x1="265.98" y1="99.58" x2="316.9" y2="99.58"/><line class="cls-6" x1="265.98" y1="113.06" x2="265.98" y2="99.58"/><path class="cls-5" d="M384.06,170.24a30.18,30.18,0,0,1,4.75-8.55l-4.75,1.72-4.76-1.72A30.2,30.2,0,0,1,384.06,170.24Z" transform="translate(-118.08 -51.14)"/><rect class="cls-7" x="59.1" y="333.71" width="78.03" height="10.09" rx="5.04"/><path class="cls-7" d="M177.63,380.4c-.4-.38-12.24-18.11-13.27-21.53-5.24-17.44-17.94-65.45-19.67-71.88,0,0-16.87-62.81-16.67-85.8,0-3.83.69-9,4.88-12.67a18,18,0,0,1,8.95-3.86,290.7,290.7,0,0,0,1.08,31.23c1.46,16.28,3.66,25.11,11.75,62.42,7.62,35.19,6.61,31.72,11,51.41S174.24,366.56,177.63,380.4Z" transform="translate(-118.08 -51.14)"/><rect class="cls-7" x="95.91" y="343.8" width="4.42" height="120.78"/><circle cx="98.12" cy="467.14" r="4.55"/><path class="cls-7" d="M65.36,451.21H98.12a0,0,0,0,1,0,0v4.55a0,0,0,0,1,0,0H60.81a0,0,0,0,1,0,0v0A4.55,4.55,0,0,1,65.36,451.21Z"/><path class="cls-7" d="M183.27,517.18h-1.65c-1.51,0-2.74-.69-2.74-1.55v-8.91h4.39Z" transform="translate(-118.08 -51.14)"/><path class="cls-7" d="M216.19,502.36H253.5a0,0,0,0,1,0,0v4.55a0,0,0,0,1,0,0H220.75a4.55,4.55,0,0,1-4.55-4.55v0A0,0,0,0,1,216.19,502.36Z" transform="translate(351.62 958.12) rotate(-180)"/><path class="cls-7" d="M249.12,517.18h1.65c1.51,0,2.73-.69,2.73-1.55v-8.91h-4.38Z" transform="translate(-118.08 -51.14)"/><circle cx="133.24" cy="467.14" r="4.55"/><circle cx="63" cy="467.14" r="4.55"/><line class="cls-6" x1="317.02" y1="113.06" x2="317.02" y2="99.58"/><path class="cls-5" d="M435.1,170.24a30.18,30.18,0,0,1,4.75-8.55l-4.75,1.72-4.76-1.72A30.45,30.45,0,0,1,435.1,170.24Z" transform="translate(-118.08 -51.14)"/><path class="cls-4" d="M428.93,97.07c2.33-2.27,4.57-5.56,4.42-9.75-.27-7.63-8.26-12-9.28-12.51" transform="translate(-118.08 -51.14)"/><path class="cls-5" d="M424.07,100.64a30,30,0,0,1,9.68-1.38l-4.24-2.75L428,91.68A30.19,30.19,0,0,1,424.07,100.64Z" transform="translate(-118.08 -51.14)"/><path class="cls-8" d="M348.64,490.79c-1.33,3.2-2.26,5.95-2.88,8-2.13,7-1.61,8.65-1.25,9.48.78,1.74,2.21,2.74,4.58,4.4a25.88,25.88,0,0,0,5.39,2.91c10.64,4.22,16.58,6.53,25.59,7.94,3.09.48,8.37,1.14,8.85-.2.18-.51-.36-1.25-1-2.13a9.9,9.9,0,0,0-2.61-2.5,91.49,91.49,0,0,0-12.82-6.17l-8.83-6a4.48,4.48,0,0,1-2.13-3.06,3.25,3.25,0,0,1,.21-1.37c1-2.71,4.65-9.38,5.09-10.17Z" transform="translate(-118.08 -51.14)"/><path class="cls-8" d="M277.07,472.66a83.45,83.45,0,0,0-5.26,6.68c-4.23,6-4.26,7.7-4.17,8.6.19,1.9,1.23,3.3,2.95,5.62a26.27,26.27,0,0,0,4.2,4.46c8.77,7.36,13.68,11.43,21.79,15.61,2.78,1.43,7.58,3.72,8.45,2.6.33-.43.06-1.3-.26-2.34a10.08,10.08,0,0,0-1.69-3.19,92.13,92.13,0,0,0-10.22-9.9l-6.5-8.46a4.45,4.45,0,0,1-1.05-3.57,3.11,3.11,0,0,1,.63-1.23,113.63,113.63,0,0,1,8-8.05Z" transform="translate(-118.08 -51.14)"/><path class="cls-9" d="M322,391.78c-2.63,2.23-2.56,2-4.1,3.33-2.62,2.29-9.41,12.29-10.7,14.45-2.29,3.84-5,5.41-18.36,28.72-19.12,33.39-17.66,35.57-17.24,38,.36,2.08,2,4.34,14,10.4,5.4,2.74,6.76,4.66,8.12,3.91,1.7-.94.82-4.08,2-10.41a58.7,58.7,0,0,1,2.27-8.13c3.69-11.41,11.06-23,14.63-28.94a176.5,176.5,0,0,1,11.71-16.9c5.7-7.24,6.64-7.2,8.13-10.41,5.61-12.12-1.35-28.24-5.21-28.28C326.48,387.55,326.33,388.14,322,391.78Z" transform="translate(-118.08 -51.14)"/><path class="cls-8" d="M318.15,299.16c5.57,3.72,8.3,2.83,28.29,6.5,18.67,3.43,28.05,5.22,30.24,8.78,3.22,5.24.2,10,3.25,22.11.31,1.23,1.09,4.16,0,4.88-.86.57-2.76-.34-3.9-1.63-2.77-3.12.06-7.23-1.95-9.43-2.23-2.43-6.74,1.49-12.68.33-6.76-1.32-6.71-7.52-14.63-12.36-2.88-1.75-8.46-2.6-19.51-4.22-13-1.91-21.57-2.61-21.79-4.88-.14-1.49,3.47-1.85,4.88-5.53,1.29-3.38-.61-6.13.65-7.15C312.56,295.3,317,298.36,318.15,299.16Z" transform="translate(-118.08 -51.14)"/><path class="cls-10" d="M255.52,315.55c8.48,2.36,15.56,3.77,20.48,4.63,17.34,3,26.16,4.45,33.9.73,5.94-2.86,6.45-6,13.17-7.8,7.8-2.13,16.74-.42,16.86,1.33.06.82-3.65,2.22-11.05,5-4.8,1.82-7,2.48-8.95,4.87s.82,7.16,2.24,8.51,3,1.34,2.93,1.71c-.1.78-4.83,1-9,.65-5.35-.39-6.87-1.37-11.95-2-3.23-.37-4.62-.21-10-.16,0,0-5.52.05-17.15-.33a183.31,183.31,0,0,1-24.14-2.44,24.66,24.66,0,0,1,2.68-14.79Z" transform="translate(-118.08 -51.14)"/><path class="cls-8" d="M254.6,229.57c3,.26,5.24.45,7.8-.32,2.11-.64,3.41-1.73,5.69-3.26a41.06,41.06,0,0,0,5.86-5.2c7.32-8.09,7.17-16.74,15.44-23.57a21.82,21.82,0,0,1,11.87-5.2,17.1,17.1,0,0,1,8.78,1.3,17.66,17.66,0,0,1,8.89,9.63c.86,2.09,2.42,5.9,1,9.71-1.08,3-3.87,5.33-4.55,6.18-3.7,4.64-4.24,4.51-4.88,6.34a17.87,17.87,0,0,0-.81,8.94c.19.83.47,1.71,0,2.28-1,1.2-4-.52-5.2.81-.67.74,0,1.6-.81,2.44s-1.94.18-2.93,1c-1.43,1.13-.08,3.34-1.63,4.87-.81.81-1.39.6-2.44,1.79-.85,1-.77,1.5-1.3,1.89-1.53,1.13-5-1.18-5.36-1.4-5.7-3.83-5.94-9.93-9.1-10.08-.88,0-1.4.39-2.77,1.3a97.3,97.3,0,0,1-10.4,5.53c-2.5,1.19-10.56,5.06-15.28,1.79-1.88-1.3-2.61-3.58-4.07-8.13-1.16-3.63-2.46-7.67-.81-9.11C248.63,228.2,249.8,229.16,254.6,229.57Z" transform="translate(-118.08 -51.14)"/><path class="cls-11" d="M242.63,344.4c12.29,1.28,18.07,3.87,32.51,7.15,9.35,2.13,14.06,3.2,21.1,3.84,4,.37,5.07.27,24.42,1,9.66.38,15.72.7,20.16,5.2a16.31,16.31,0,0,1,3.25,4.88c7.47,16,8.78,28.61,8.78,28.61.45,4.28,2.91,26.68,9.75,48.77a322.28,322.28,0,0,0,12.68,33.17c2.29,5.22,4.34,9.55,5.86,12.68a31.43,31.43,0,0,1-7.48,4.87,34,34,0,0,1-21.79,1.95L337.24,493c-.1-3.43-.29-8.24-.65-14-.83-13.27-2.09-23.6-4.87-42.92-5.29-36.72-7-42.73-12.36-45.2-3.08-1.4-4.44-.32-15,.33-6.59.4-13.93,0-28.61-.65-30.6-1.47-27.15-3.32-43.57-3.25-13.24.05-17.67,1.27-25-1.95-8.58-3.75-17.57-12-16.26-18.54.38-1.89,1.36-2.42,12.68-11.05,9.56-7.3,10.32-8,13-9.11,5.3-2.11,10.21-2.36,14.95-2.6A70.32,70.32,0,0,1,242.63,344.4Z" transform="translate(-118.08 -51.14)"/><path class="cls-12" d="M263.23,250.3c4.68,1.77,4.34,6.57,9.14,14.21,3.74,5.95,9.15,10.05,20,18.26,7.93,6,12,9,16.92,10.14,4,.9,6.73.58,7.78,2.37,2.34,4-2.12,13.77-9.13,15.9-2.67.81-5.43.41-13.49-3.4a163.48,163.48,0,0,1-22-12.84c-17.93-11.89-18.84-11.88-20.82-15-4.67-7.35-7.22-19.49-1.18-25.94C253.43,250.76,258.94,248.68,263.23,250.3Z" transform="translate(-118.08 -51.14)"/><path class="cls-5" d="M193,378.39c-4.93.16-10.66-30.3-12.2-55.12-1.66-26.82-2.89-44.85,8-63.7,2.91-5,11.43-20,28.08-27.5,12.8-5.73,20.12-2.42,31.71-6.34.84-.28,3.52-1.22,4.87,0,1.52,1.37.19,4.41,0,7.81-.05,1-.19,10.12,4.39,12.68,1.86,1,2.8,0,4.07.81,4.34,2.64,1.58,19.22-6.51,34.3-7.09,13.23-10.74,11.25-15.77,23.09C234.86,315.76,234.3,326.8,234,333c-.41,8.15,3.72,13.05.65,18-1.53,2.5-3.21,2.86-10.07,6.18-16.05,7.78-24.08,11.66-29.43,19C194.15,377.62,193.78,378.36,193,378.39Z" transform="translate(-118.08 -51.14)"/><path class="cls-12" d="M190.58,278.4c-2-8.39-3.92-16.87.49-25.36.74-1.43,6.41-12.36,17.07-12.68,7-.21,13.62,4.25,16.58,9.76,2.35,4.39,1,6.92.49,24.87-.27,8.69-.38,13.08.48,15.61,3.65,10.68,14.42,16.19,18.05,18,7.16,3.67,10.71.93,13.65,4.39,4.66,5.48,2.53,17.72-3.41,20.49-3.34,1.55-7.18-.23-10.73-1.95-20.3-9.89-30.46-14.83-36.09-21A69.92,69.92,0,0,1,190.58,278.4Z" transform="translate(-118.08 -51.14)"/><path class="cls-13" d="M299.94,215.92c-.14-1.14-.72-6.67,1.95-8.13,1.07-.59,2.25-.3,4.23.33,8.67,2.73,10.54,5,13.83,4.54a8.49,8.49,0,0,0,6.32-4.87c2.58-6.12-5.3-13.79-6.5-15-2.93-2.85-6.39-4.39-13.33-7.47-6.59-2.94-10-4.37-12.68-3.91-6.53,1.12-10.37,8.06-12,11.06-2.09,3.78-.9,3.66-4.23,13-2.67,7.51-4.17,9.58-2.92,11.71,1.62,2.79,6.23,3.37,9.43,2.6,4.4-1.07,7.84-5.14,8.77-10.4" transform="translate(-118.08 -51.14)"/><path class="cls-14" d="M494.13,325.68c-5,1.31-5.92.36-10.4,1.3-1.07.22-4.58,1.83-11.54,5-4.81,2.21-8,3.73-10.24,7.15-1.14,1.73-1,2.34-.82,2.6.91,1.48,6.55-.39,9.27-1.3,7.62-2.54,7.92-4.36,11.54-4.22,2.81.1,2.79,1.2,8.94,2.43,3,.61,4.55.9,6.51.65,1.49-.19,6.22-.79,8-4.39,2-4-.81-9.79-4.23-10.89C499.31,323.47,498.41,324.56,494.13,325.68Z" transform="translate(-118.08 -51.14)"/><path class="cls-14" d="M491.21,275.7a30,30,0,0,0-9.51-4.39c-4.6-1.18-10.92-1.6-11.46,0-.29.86,1.05,2.28,2.19,2.93s2,.38,3.9,1.22c.89.39,2.23,1,2.2,1.59s-1.86,1.18-4,1.58a67,67,0,0,1-10.24.85,43.7,43.7,0,0,0-11.58,2.08,24.35,24.35,0,0,0-4.76,2.19c-1.76,1.06-5.06,3-4.75,4.39.21.93,2,1.18,7.92,1.83,9.36,1,10.56,1,13.42,1.58,6.65,1.39,5.52,2.65,9.14,2.69,5.15,0,7.11-2.53,14-2.44,1.29,0,1.78.11,2.44-.25C493.28,289.86,492.47,282.2,491.21,275.7Z" transform="translate(-118.08 -51.14)"/><g id="feet"><path class="cls-14" d="M559.14,479.26c2,2.82,3.5,5.31,4.56,7.17,3.61,6.38,3.46,8.1,3.29,9-.38,1.87-1.56,3.16-3.51,5.3a26.12,26.12,0,0,1-4.63,4c-9.46,6.44-14.75,10-23.24,13.33-2.91,1.15-7.92,3-8.67,1.74-.29-.46.07-1.3.5-2.29a10,10,0,0,1,2-3,92.44,92.44,0,0,1,11.17-8.82l7.32-7.76a4.52,4.52,0,0,0,1.41-3.45,3.15,3.15,0,0,0-.51-1.29c-1.57-2.44-6.59-8.14-7.19-8.82Z" transform="translate(-118.08 -51.14)"/><path class="cls-14" d="M485.74,490.79c1.34,3.2,2.26,5.95,2.89,8,2.13,7,1.61,8.65,1.24,9.48-.77,1.74-2.2,2.74-4.57,4.4a26.4,26.4,0,0,1-5.39,2.91c-10.65,4.22-16.59,6.53-25.6,7.94-3.09.48-8.37,1.14-8.84-.2-.18-.51.35-1.25,1-2.13a10.08,10.08,0,0,1,2.6-2.5,91.79,91.79,0,0,1,12.83-6.17l8.83-6a4.48,4.48,0,0,0,2.13-3.06,3.25,3.25,0,0,0-.21-1.37c-1-2.71-4.66-9.38-5.09-10.17Z" transform="translate(-118.08 -51.14)"/></g><path class="cls-14" d="M576.69,235c-.92-1.24-3.91,1.22-8.46,1-8.07-.44-13.9-9-15.28-11.06-4.21-6.21-4.74-11.88-5.85-11.7s-.38,5.4-1.63,11.7a39.36,39.36,0,0,1-6.5,15,59.93,59.93,0,0,0,6.18,5.2,45.11,45.11,0,0,0,15.28,7.81c3.48.94,9.34,2.53,11.38,0,1.08-1.34.08-2.6.33-5.86C572.66,240.1,577.86,236.58,576.69,235Z" transform="translate(-118.08 -51.14)"/><path class="cls-15" d="M574.57,244.94A148.18,148.18,0,0,1,557.5,270.3c-11.89,14.22-18.38,16.45-21.46,17.24a34,34,0,0,1-13.33.48c-6.1-.95-11.22-3.46-17.39-6.5a83,83,0,0,0-11.22-4.88q-2.52-.84-4.88-1.46c-4.91,11.36-4.52,15.29-2.93,16.58,1.19,1,22.82,8.62,30.1,10.64,6,1.68,10.59,1.82,17.7,2,11.29.35,17,.64,22.44-1.95,3.35-1.59,6.51-4.49,12.68-10.24,9-8.36,13.47-12.55,15.11-15.61,6.93-12.9,3.11-31.69-3.41-33.65C578.81,242.36,576.51,243.5,574.57,244.94Z" transform="translate(-118.08 -51.14)"/><path class="cls-7" d="M579.8,229.18c-11.46,17.15-11.95,29.77-10.73,37.56.39,2.46,1.33,6.9,17.07,34.62,10.45,18.42,12.51,20.82,14.14,27.32,3.41,13.6.14,26.07-2.92,34.14a184.39,184.39,0,0,1,31.21,3.41c11.45,2.24,14.65,4,18.53,1.95,5.91-3.07,7.7-11.86,7.81-44.87.09-26.73.13-40.1-1.95-45.84-10.73-29.57-39.43-41.53-42.92-42.92A77,77,0,0,0,579.8,229.18Z" transform="translate(-118.08 -51.14)"/><path class="cls-7" d="M659.66,379.89c.4-.38,12.23-18.1,13.27-21.53,5.24-17.43,17.94-65.44,19.67-71.87,0,0,16.87-62.81,16.67-85.81,0-3.82-.69-9-4.88-12.66a18.08,18.08,0,0,0-8.95-3.87,288.5,288.5,0,0,1-1.09,31.23c-1.45,16.29-3.65,25.11-11.74,62.42C675,313,676,309.53,671.56,329.21S663.05,366.06,659.66,379.89Z" transform="translate(-118.08 -51.14)"/><rect class="cls-7" x="582.08" y="384.35" width="78.03" height="10.09" rx="5.04" transform="translate(1124.11 727.64) rotate(180)"/><rect class="cls-7" x="618.88" y="394.43" width="4.42" height="120.78" transform="translate(1124.11 858.5) rotate(-180)"/><circle cx="503.02" cy="466.63" r="4.55"/><path class="cls-7" d="M621.09,501.85H658.4a0,0,0,0,1,0,0v4.55a0,0,0,0,1,0,0H625.65a4.55,4.55,0,0,1-4.55-4.55v0A0,0,0,0,1,621.09,501.85Z" transform="translate(1161.42 957.11) rotate(-180)"/><path class="cls-7" d="M654,516.67h1.64c1.52,0,2.74-.69,2.74-1.54v-8.92H654Z" transform="translate(-118.08 -51.14)"/><path class="cls-7" d="M470.26,450.71H503a0,0,0,0,1,0,0v4.55a0,0,0,0,1,0,0H465.71a0,0,0,0,1,0,0v0A4.55,4.55,0,0,1,470.26,450.71Z"/><path class="cls-7" d="M588.17,516.67h-1.65c-1.51,0-2.74-.69-2.74-1.54v-8.92h4.39Z" transform="translate(-118.08 -51.14)"/><circle cx="467.9" cy="466.63" r="4.55"/><circle cx="538.14" cy="466.63" r="4.55"/><path class="cls-16" d="M513.38,393.19c2.63,2.23,2.56,2,4.1,3.33,2.62,2.29,9.41,12.29,10.69,14.45,2.3,3.84,5,5.41,18.37,28.72,19.12,33.39,17.65,35.57,17.23,38-.35,2.08-2,4.35-14,10.41-5.4,2.73-6.76,4.65-8.13,3.9-1.69-.94-.81-4.07-1.95-10.41a59.08,59.08,0,0,0-2.27-8.13c-3.69-11.41-11.07-23-14.63-28.93a175.81,175.81,0,0,0-11.71-16.91c-5.7-7.24-6.64-7.2-8.13-10.41-5.61-12.12,1.35-28.24,5.21-28.28C508.92,389,509.07,389.55,513.38,393.19Z" transform="translate(-118.08 -51.14)"/><path d="M594,345.81c-12.3,1.28-18.08,3.87-32.52,7.15-9.35,2.13-14,3.2-21.09,3.85-4,.36-5.07.26-24.43,1-9.65.39-15.72.7-20.15,5.2a16.58,16.58,0,0,0-3.26,4.88c-7.46,16-8.77,28.61-8.77,28.61-.45,4.29-2.91,26.68-9.76,48.77a320.41,320.41,0,0,1-12.68,33.17c-2.29,5.22-4.34,9.55-5.85,12.68A31.43,31.43,0,0,0,463,496a34.1,34.1,0,0,0,21.78,2l14.63-3.58c.11-3.42.29-8.24.65-14,.84-13.27,2.1-23.6,4.88-42.92,5.28-36.72,6.95-42.73,12.36-45.19,3.07-1.41,4.43-.33,15,.32,6.6.41,13.94.05,28.61-.65,30.61-1.47,27.15-3.32,43.57-3.25,13.67.06,17.44.59,25-2,4.72-1.58,16.82-6.45,20.77-17.16.66-1.81,2.15-5.84.32-9.11-1.57-2.8-4.57-3.21-11.38-5.2-9.33-2.72-21.51-9.34-34.1-9.82A70,70,0,0,0,594,345.81Z" transform="translate(-118.08 -51.14)"/><path class="cls-14" d="M557.5,205.82c.54,5.23-.94,9.64-2.93,14.87a50.4,50.4,0,0,1-8.29,14.88c-2.66,3.25-9.81,12-19.51,12.92-1,.1-5.88.56-6.83-1.46-.47-1,.22-2.15.73-3.17,2.23-4.45,3.78-11.61,1.47-14.87-1.91-2.69-5.57-1.55-6.34-3.91-.54-1.64,1.05-2.77,2.92-6.34a29.49,29.49,0,0,0,3.17-12c.56-7.84-3.21-9.43-1.94-13.79,1.66-5.72,10-9.67,17.07-9.27C548.21,184.36,556.48,196.05,557.5,205.82Z" transform="translate(-118.08 -51.14)"/><path class="cls-15" d="M590.85,234.16c-8.52,3.88-10.06,14.65-10.24,16.09-1.31,10.2,5.45,12.64,5.36,24.87,0,2.38-.1,13.45-7.32,19.51-3.46,2.92-25.47,11.67-28.77,14.15-6.67,2.11-28.74,12-35.6,12.68s-10.71-1.41-12.68,1c-2.47,3-.06,10.71,4.39,12.68,1.48.66,2.56.39,8.29-.49,9.72-1.49,3.93-.31,10.24-1.46,14-2.56,21-3.84,29.26-6.34,1.42-.43,6.32-1.93,12.68-4.39,21.18-8.18,34.26-13.24,42.92-24.38,9.63-12.41,9.69-26.61,9.75-31.22.11-7.48.33-23-10.24-30.24C608.41,236.26,599.39,230.26,590.85,234.16Z" transform="translate(-118.08 -51.14)"/><path class="cls-17" d="M521,194.87c2.58-1,5.22-1.8,7.8-2.78,4-1.5,6-2.25,6.41-2.08,2,.85,2.87,5,4.51,13.35.4,2,.66,3.59,1.56,3.81,1.9.47,4-5.76,5.89-5.37,1.58.32,2.56,5,1.74,9.19-.78,4-3.07,6.77-2.6,7.11s3-3.12,4.16-2.6-2,4.93-.35,7.45c1.16,1.8,4.55,2.52,6.76,1.56,5.95-2.59,6.92-18.87,1.39-31-1.79-3.92-5.44-11.94-14-15.08-7.25-2.64-13.86-.3-20.11,1.91-3.09,1.09-4.81,2.13-6.07,3.81-3,4-2.56,10.63-.34,11.61C518.22,196,518.62,195.77,521,194.87Z" transform="translate(-118.08 -51.14)"/><path class="cls-12" d="M0,471.12H605.74a0,0,0,0,1,0,0v0a20.37,20.37,0,0,1-20.37,20.37h-565A20.37,20.37,0,0,1,0,471.12v0a0,0,0,0,1,0,0Z"/><rect class="cls-18" x="163.08" y="291.7" width="256.72" height="5.75" rx="2.87"/><rect class="cls-7" x="287.21" y="297.38" width="7.97" height="167.57"/><path class="cls-18" d="M483.08,523.24H408.9v-8h11.8l62.9,4.25s.52,3.79,0,3.79" transform="translate(-118.08 -51.14)"/><path class="cls-18" d="M334.72,523.24H408.9v-8H397.11l-62.91,4.25s-.52,3.79,0,3.79" transform="translate(-118.08 -51.14)"/></g></svg>
